<svg width="24" height="24" viewBox="0 0 24 24" fill="none" xmlns="http://www.w3.org/2000/svg">
<path fill-rule="evenodd" clip-rule="evenodd" d="M21.6 12C21.6 17.3019 17.3019 21.6 12 21.6C6.69807 21.6 2.4 17.3019 2.4 12C2.4 6.69807 6.69807 2.4 12 2.4C17.3019 2.4 21.6 6.69807 21.6 12ZM24 12C24 18.6274 18.6274 24 12 24C5.37258 24 0 18.6274 0 12C0 5.37258 5.37258 0 12 0C18.6274 0 24 5.37258 24 12ZM10.8 7.2C10.8 6.53726 11.3373 6 12 6C12.6627 6 13.2 6.53726 13.2 7.2V10.8H16.8C17.4627 10.8 18 11.3373 18 12C18 12.6627 17.4627 13.2 16.8 13.2H13.2V16.8C13.2 17.4627 12.6627 18 12 18C11.3373 18 10.8 17.4627 10.8 16.8V13.2H7.2C6.53726 13.2 6 12.6627 6 12C6 11.3373 6.53726 10.8 7.2 10.8H10.8V7.2Z" fill="#090909"/>
</svg>
