<svg width="24" height="24" viewBox="0 0 24 24" fill="none" xmlns="http://www.w3.org/2000/svg">
<path fill-rule="evenodd" clip-rule="evenodd" d="M3.64052 0.170279C2.84938 0.377032 2.38218 0.651297 2.34144 0.932876C2.31601 1.10878 2.56467 1.40883 3.58063 2.42835C4.27958 3.12981 4.89425 3.81824 4.94644 3.95813C5.17126 4.56096 4.61085 5.13996 3.97798 4.95871C3.79596 4.90658 3.22429 4.41168 2.42048 3.61026C1.07945 2.27335 0.862424 2.14967 0.589074 2.56646C0.111462 3.29446 -0.125936 4.73817 0.0674369 5.73818C0.542514 8.19457 2.74255 9.88685 5.24044 9.71714L6.04247 9.66266L6.97704 10.6007C7.72979 11.3562 7.8842 11.5561 7.77081 11.6283C7.69336 11.6775 7.59039 11.7185 7.54186 11.7193C7.41138 11.7214 1.05139 18.073 0.685667 18.5665C-0.588247 20.2852 -0.00812875 22.6957 1.90598 23.6369C3.43578 24.3893 4.93987 23.9727 6.43316 22.3832C6.92954 21.8548 7.04294 21.5329 6.81333 21.3036C6.57565 21.0662 6.30136 21.2012 5.55303 21.924C4.58072 22.8632 4.26926 23.018 3.35628 23.0162C2.75785 23.015 2.58269 22.9756 2.21322 22.7594C1.04735 22.0769 0.608317 20.6616 1.20186 19.4993C1.32361 19.261 2.43212 18.0784 4.03271 16.4794L6.66342 13.8514L8.39044 15.5746C9.34041 16.5224 10.1176 17.3088 10.1176 17.3222C10.1176 17.3355 9.86411 17.6101 9.55434 17.9322C9.24457 18.2544 8.99112 18.5854 8.99112 18.6679C8.99112 18.9103 9.33046 19.1576 9.578 19.0956C9.85032 19.0273 12.3705 16.4848 12.3705 16.2783C12.3705 16.1955 12.4029 16.1277 12.4426 16.1277C12.4823 16.1277 12.9282 16.5423 13.4336 17.0491L14.3525 17.9703L14.2906 18.6665C14.0271 21.6279 16.4794 24.1713 19.4107 23.9767C20.114 23.93 21.0209 23.6702 21.441 23.3952C21.8603 23.1209 21.7361 22.901 20.4336 21.6117C19.7571 20.942 19.1455 20.2605 19.0746 20.0973C18.7818 19.4241 19.42 18.7795 20.0913 19.0704C20.259 19.1431 20.9449 19.7555 21.6154 20.4313C22.4567 21.2793 22.8994 21.6599 23.0447 21.6599C23.2987 21.6599 23.4824 21.3979 23.7385 20.6702C24.6644 18.0389 23.0443 15.118 20.2556 14.3902C19.7971 14.2706 19.4341 14.2444 18.7957 14.2848L17.946 14.3387L16.5193 12.9114C15.7347 12.1264 15.0927 11.4478 15.0927 11.4032C15.0927 11.3588 16.2702 10.1462 17.7094 8.70859L20.3261 6.09478H20.8949C21.8516 6.09478 21.81 6.13885 22.972 3.89419C23.6378 2.608 24.0012 1.80659 23.9671 1.69941C23.8992 1.48581 22.382 0 22.2318 0C22.1703 0 21.2118 0.46911 20.1018 1.04249C17.8621 2.19918 17.9088 2.15493 17.9088 3.12446V3.70497L15.3032 6.30641C13.8702 7.73718 12.6553 8.90775 12.6033 8.90775C12.5514 8.90775 11.8629 8.26133 11.0732 7.47126L9.63732 6.03477L9.69928 5.33809C9.99779 1.98455 6.87857 -0.675958 3.64052 0.170279ZM6.48056 1.29462C7.2518 1.64503 8.00727 2.36749 8.3621 3.09427C8.79212 3.97483 8.87942 4.84788 8.65122 5.98732C8.59236 6.28146 8.64765 6.34954 10.2667 7.9759L11.9432 9.65994L11.5505 10.0522L11.1578 10.4445L10.1742 9.48863C9.63319 8.96288 9.12461 8.53269 9.04397 8.53269C8.85473 8.53269 8.52177 8.8649 8.52177 9.05365C8.52177 9.13382 8.94419 9.61878 9.46047 10.1313C9.97676 10.6437 10.3992 11.097 10.3992 11.1384C10.3992 11.1799 10.23 11.3789 10.0232 11.5805L9.64718 11.9473L7.96596 10.2773L6.28465 8.60732L5.87782 8.68721C5.65403 8.73119 5.11193 8.76457 4.67309 8.76157C3.97319 8.75669 3.79765 8.71881 3.24419 8.45327C1.72716 7.72546 0.811734 6.18779 0.946908 4.59452C1.0374 3.52756 1.00182 3.52419 2.22063 4.71445C3.46047 5.92534 3.76133 6.07368 4.60832 5.89224C5.66624 5.66561 6.26259 4.40118 5.77315 3.42245C5.72162 3.31931 5.21378 2.76159 4.64455 2.18296C3.96221 1.48938 3.65497 1.116 3.74246 1.08675C4.09907 0.967569 4.31084 0.949847 5.04857 0.977133C5.699 1.00114 5.96362 1.05983 6.48056 1.29462ZM22.528 1.4724C22.7238 1.6634 22.8839 1.85872 22.8839 1.90645C22.8839 2.03987 21.4719 4.807 21.309 4.99303C21.1975 5.12027 21.0162 5.15712 20.5021 5.15712H19.8391L19.3432 4.66804L18.8475 4.17895V3.5075C18.8475 2.99882 18.885 2.80472 19.0019 2.70721C19.1887 2.55165 21.9548 1.13428 22.0821 1.12894C22.1316 1.12688 22.3322 1.2814 22.528 1.4724ZM18.7287 5.36631L19.2258 5.8567L15.3069 9.77208L11.3879 13.6876L10.8453 13.1512L10.3028 12.6149L14.1758 8.74535C16.3059 6.61714 18.0899 4.87582 18.1401 4.87582C18.1903 4.87582 18.4551 5.09655 18.7287 5.36631ZM16.0457 13.7482L17.7092 15.4007L18.0672 15.3188C18.264 15.2738 18.8053 15.2401 19.2699 15.244C20.0053 15.2501 20.1938 15.2878 20.7249 15.5352C22.2571 16.249 23.1803 17.792 23.043 19.4095C22.9524 20.4791 22.9831 20.481 21.8155 19.3349C20.7151 18.2549 20.5842 18.1588 20.0831 18.0638C18.9665 17.8522 17.8516 18.9658 18.0635 20.0812C18.1587 20.582 18.2547 20.7124 19.3432 21.8189L20.3759 22.8686L20.1045 22.9441C19.9553 22.9856 19.453 23.0178 18.9883 23.0157C18.2307 23.0122 18.078 22.9802 17.5084 22.7055C16.3568 22.1499 15.5372 21.1149 15.2725 19.8823C15.17 19.4048 15.1934 18.7297 15.3369 18.0217C15.398 17.7208 15.3529 17.6652 13.7287 16.0337L12.0577 14.3552L12.4378 13.9756C12.6467 13.7669 12.8447 13.596 12.8777 13.596C12.9107 13.596 13.3064 13.9703 13.757 14.4276C14.2077 14.885 14.6714 15.3085 14.7876 15.3687C15.178 15.5707 15.5981 15.1364 15.3877 14.7482C15.3378 14.656 14.913 14.2061 14.4439 13.7483C13.9746 13.2905 13.5908 12.8959 13.5908 12.8713C13.5908 12.8148 14.2796 12.1032 14.3384 12.099C14.3624 12.0972 15.1307 12.8393 16.0457 13.7482ZM8.73288 12.4708C8.9087 12.4708 11.3532 14.9405 11.4886 15.2551C11.5596 15.4199 11.5895 15.6308 11.5551 15.724C11.4562 15.9915 11.0615 16.4807 10.8922 16.5456C10.7794 16.5888 10.287 16.1549 9.06659 14.9373C8.14742 14.0201 7.39533 13.2411 7.39533 13.2062C7.39533 13.1105 8.03411 12.5277 8.21932 12.4543C8.30822 12.419 8.43719 12.4083 8.506 12.4305C8.57471 12.4527 8.67684 12.4708 8.73288 12.4708ZM7.64859 19.8578C7.43963 20.0885 7.44714 20.2801 7.67318 20.4844C8.05833 20.8326 8.63873 20.3294 8.36181 19.8873C8.22448 19.668 7.83511 19.6519 7.64859 19.8578Z" fill="#090909"/>
<path fill-rule="evenodd" clip-rule="evenodd" d="M7.64858 19.8578C7.43962 20.0885 7.44713 20.2801 7.67317 20.4844C8.05832 20.8326 8.63872 20.3294 8.3618 19.8873C8.22447 19.668 7.8351 19.6519 7.64858 19.8578Z" fill="#6FB955"/>
</svg>
