<svg width="32" height="32" viewBox="0 0 32 32" fill="none" xmlns="http://www.w3.org/2000/svg">
<path fill-rule="evenodd" clip-rule="evenodd" d="M4.85402 0.227038C3.79917 0.50271 3.17625 0.868396 3.12193 1.24383C3.08801 1.47837 3.41956 1.87844 4.77417 3.23779C5.70611 4.17308 6.52566 5.09098 6.59525 5.27751C6.89501 6.08127 6.1478 6.85328 5.30397 6.61161C5.06129 6.5421 4.29906 5.88224 3.22731 4.81368C1.43927 3.03113 1.1499 2.86623 0.785432 3.42195C0.148616 4.39261 -0.167915 6.31756 0.0899158 7.65091C0.723353 10.9261 3.65674 13.1825 6.98725 12.9562L8.05662 12.8835L9.30272 14.1343C10.3064 15.1415 10.5123 15.4081 10.3611 15.5044C10.2578 15.57 10.1205 15.6246 10.0558 15.6258C9.88184 15.6285 1.40185 24.0973 0.914222 24.7553C-0.784329 27.0469 -0.0108383 30.261 2.54131 31.5159C4.58105 32.5191 6.58649 31.9636 8.57754 29.8443C9.23939 29.1398 9.39058 28.7106 9.08444 28.4048C8.76754 28.0882 8.40182 28.2683 7.40404 29.232C6.10763 30.4843 5.69235 30.6907 4.47504 30.6883C3.67714 30.6867 3.44359 30.6342 2.95096 30.3459C1.39647 29.4358 0.81109 27.5488 1.60248 25.9991C1.76481 25.6813 3.24283 24.1046 5.37694 21.9726L8.88456 18.4685L11.1873 20.7661C12.4539 22.0298 13.4901 23.0784 13.4901 23.0963C13.4901 23.114 13.1522 23.4801 12.7391 23.9096C12.3261 24.3392 11.9882 24.7805 11.9882 24.8906C11.9882 25.2137 12.4406 25.5434 12.7707 25.4608C13.1338 25.3698 16.4939 21.9797 16.4939 21.7044C16.4939 21.594 16.5372 21.5036 16.5902 21.5036C16.6431 21.5036 17.2376 22.0565 17.9115 22.7321L19.1367 23.9604L19.0541 24.8887C18.7028 28.8372 21.9726 32.2284 25.881 31.9689C26.8187 31.9066 28.0278 31.5603 28.5881 31.1936C29.147 30.8278 28.9814 30.5346 27.2448 28.8156C26.3428 27.9227 25.5274 27.014 25.4328 26.7964C25.0424 25.8987 25.8934 25.0393 26.7884 25.4272C27.012 25.5242 27.9266 26.3407 28.8205 27.2417C29.9423 28.3724 30.5326 28.8799 30.7263 28.8799C31.065 28.8799 31.3099 28.5306 31.6514 27.5603C32.8858 24.0519 30.7258 20.1574 27.0074 19.187C26.3961 19.0275 25.9121 18.9926 25.0609 19.0465L23.928 19.1182L22.0258 17.2151C20.9796 16.1685 20.1236 15.2637 20.1236 15.2043C20.1236 15.145 21.6936 13.5283 23.6126 11.6115L27.1015 8.12637H27.8599C29.1355 8.12637 29.0801 8.18513 30.6293 5.19225C31.5171 3.47733 32.0016 2.40878 31.9561 2.26588C31.8656 1.98108 29.8427 0 29.6424 0C29.5604 0 28.2824 0.62548 26.8024 1.38998C23.8162 2.93224 23.8784 2.87323 23.8784 4.16595V4.93996L20.4043 8.40854C18.4936 10.3162 16.8737 11.877 16.8045 11.877C16.7352 11.877 15.8172 11.0151 14.7642 9.96168L12.8498 8.04635L12.9324 7.11745C13.3304 2.64607 9.17143 -0.901277 4.85402 0.227038ZM8.64075 1.72617C9.66906 2.19337 10.6764 3.15666 11.1495 4.12569C11.7228 5.29977 11.8392 6.46384 11.535 7.98309C11.4565 8.37528 11.5302 8.46605 13.689 10.6345L15.9243 12.8799L15.4007 13.4029L14.8771 13.926L13.5656 12.6515C12.8443 11.9505 12.1661 11.3769 12.0586 11.3769C11.8063 11.3769 11.3624 11.8199 11.3624 12.0715C11.3624 12.1784 11.9256 12.825 12.614 13.5084C13.3023 14.1916 13.8656 14.796 13.8656 14.8512C13.8656 14.9065 13.64 15.1718 13.3643 15.4407L12.8629 15.9297L10.6213 13.7031L8.37954 11.4764L7.83709 11.5829C7.53871 11.6416 6.81591 11.6861 6.23078 11.6821C5.29759 11.6756 5.06354 11.6251 4.32559 11.271C2.30288 10.3006 1.08231 8.25039 1.26254 6.12603C1.3832 4.70342 1.33576 4.69892 2.96084 6.28593C4.61396 7.90045 5.0151 8.09824 6.14442 7.85632C7.55498 7.55415 8.35013 5.86824 7.69754 4.56327C7.62883 4.42575 6.95171 3.68212 6.19274 2.91061C5.28295 1.98583 4.8733 1.488 4.98994 1.44899C5.46543 1.29009 5.74779 1.26646 6.73143 1.30284C7.59866 1.33485 7.95149 1.41311 8.64075 1.72617ZM30.0373 1.96321C30.2984 2.21787 30.5119 2.47829 30.5119 2.54193C30.5119 2.71983 28.6292 6.40933 28.412 6.65737C28.2633 6.82702 28.0216 6.87616 27.3361 6.87616H26.4521L25.791 6.22405L25.13 5.57194V4.67666C25.13 3.99842 25.1799 3.73963 25.3359 3.60961C25.585 3.4022 29.2731 1.51238 29.4428 1.50525C29.5087 1.5025 29.7762 1.70854 30.0373 1.96321ZM24.9715 7.15508L25.6344 7.80894L20.4092 13.0294L15.1839 18.2501L14.4605 17.535L13.737 16.8198L18.901 11.6605C21.7412 8.82286 24.1198 6.50109 24.1868 6.50109C24.2538 6.50109 24.6068 6.79539 24.9715 7.15508ZM21.3942 18.331L23.6123 20.5342L24.0895 20.4251C24.352 20.3651 25.0737 20.3202 25.6932 20.3253C26.6737 20.3334 26.9251 20.3837 27.6332 20.7136C29.6761 21.6653 30.907 23.7226 30.724 25.8794C30.6031 27.3055 30.6442 27.308 29.0873 25.7798C27.6202 24.3398 27.4456 24.2117 26.7775 24.0851C25.2887 23.8029 23.8022 25.2878 24.0847 26.7749C24.2116 27.4426 24.3396 27.6165 25.791 29.0919L27.1679 30.4915L26.806 30.5921C26.607 30.6474 25.9373 30.6904 25.3177 30.6875C24.3076 30.6829 24.1039 30.6403 23.3446 30.274C21.8091 29.5332 20.7162 28.1532 20.3634 26.5097C20.2267 25.8731 20.2579 24.973 20.4493 24.0289C20.5306 23.6277 20.4705 23.5536 18.3049 21.3782L16.0769 19.1402L16.5837 18.6341C16.8623 18.3558 17.1262 18.1281 17.1703 18.1281C17.2142 18.1281 17.7419 18.627 18.3427 19.2369C18.9436 19.8467 19.5619 20.4113 19.7168 20.4916C20.2374 20.7609 20.7975 20.1819 20.517 19.6643C20.4504 19.5413 19.884 18.9414 19.2585 18.3311C18.6328 17.7207 18.121 17.1945 18.121 17.1618C18.121 17.0864 19.0394 16.1376 19.1179 16.132C19.1498 16.1296 20.1743 17.1191 21.3942 18.331ZM11.6438 16.6278C11.8783 16.6278 15.1376 19.9207 15.3182 20.3402C15.4128 20.5598 15.4526 20.8411 15.4068 20.9653C15.275 21.322 14.7487 21.9743 14.5229 22.0608C14.3726 22.1183 13.716 21.5399 12.0888 19.9164C10.8632 18.6935 9.86044 17.6548 9.86044 17.6082C9.86044 17.4807 10.7122 16.7036 10.9591 16.6057C11.0776 16.5587 11.2496 16.5444 11.3413 16.574C11.433 16.6035 11.5691 16.6278 11.6438 16.6278ZM10.1981 26.4771C9.91951 26.7846 9.92952 27.0402 10.2309 27.3126C10.7444 27.7768 11.5183 27.1058 11.1491 26.5163C10.966 26.224 10.4468 26.2025 10.1981 26.4771Z" fill="#090909"/>
<path fill-rule="evenodd" clip-rule="evenodd" d="M10.1981 26.4771C9.91951 26.7846 9.92952 27.0402 10.2309 27.3126C10.7444 27.7768 11.5183 27.1058 11.1491 26.5163C10.966 26.224 10.4468 26.2025 10.1981 26.4771Z" fill="#6FB955"/>
</svg>
