<?xml version="1.0" encoding="UTF-8" standalone="no"?>
<svg
   width="24"
   height="24"
   viewBox="0 0 24 24"
   fill="none"
   version="1.1"
   id="svg4191"
   sodipodi:docname="Bell.svg"
   inkscape:version="1.2.2 (1:1.2.2+202212051552+b0a8486541)"
   xmlns:inkscape="http://www.inkscape.org/namespaces/inkscape"
   xmlns:sodipodi="http://sodipodi.sourceforge.net/DTD/sodipodi-0.dtd"
   xmlns="http://www.w3.org/2000/svg"
   xmlns:svg="http://www.w3.org/2000/svg">
  <defs
     id="defs4195" />
  <sodipodi:namedview
     id="namedview4193"
     pagecolor="#ffffff"
     bordercolor="#000000"
     borderopacity="0.25"
     inkscape:showpageshadow="2"
     inkscape:pageopacity="0.0"
     inkscape:pagecheckerboard="0"
     inkscape:deskcolor="#d1d1d1"
     showgrid="false"
     inkscape:zoom="32.833333"
     inkscape:cx="12"
     inkscape:cy="12.015228"
     inkscape:window-width="1920"
     inkscape:window-height="1016"
     inkscape:window-x="0"
     inkscape:window-y="0"
     inkscape:window-maximized="1"
     inkscape:current-layer="svg4191" />
  <path
     style="color:#000000;fill:#090909;stroke-linecap:round;stroke-linejoin:round;-inkscape-stroke:none"
     d="M 12,1 C 10.14387,1 8.3632597,1.7383028 7.0507812,3.0507813 5.7382986,4.3632639 5,6.1438702 5,8 c 0,2.922025 -0.7266369,4.83337 -1.5,6.076172 -0.3672607,0.590243 -0.6437635,1.035302 -0.8417969,1.378906 -0.099017,0.171802 -0.1777017,0.316175 -0.2460937,0.466797 -0.068392,0.150622 -0.1838702,0.24371 -0.1464844,0.701172 0.012339,0.150765 0.042686,0.378803 0.171875,0.611328 0.1291885,0.232525 0.3062762,0.380587 0.4277344,0.470703 0.3219019,0.238716 0.4815049,0.218909 0.6386719,0.242188 0.1571669,0.02328 0.3081317,0.03219 0.484375,0.03906 C 4.3407677,18.000063 4.7905425,18 5.3886719,18 H 18.611328 c 0.5981,0 1.047905,6.4e-5 1.400391,-0.01367 0.176243,-0.0069 0.327202,-0.01578 0.484375,-0.03906 0.157172,-0.02328 0.316575,-0.0032 0.638672,-0.242188 0.121543,-0.09012 0.298472,-0.238075 0.427734,-0.470703 0.129262,-0.232628 0.161507,-0.460583 0.173828,-0.611328 0.03751,-0.457611 -0.08004,-0.55053 -0.148437,-0.701172 -0.0684,-0.150642 -0.147077,-0.294994 -0.246094,-0.466797 C 21.143763,15.111472 20.867241,14.666407 20.5,14.076172 19.726579,12.833405 19,10.922031 19,8 19,6.1438869 18.261686,4.3632715 16.949219,3.0507813 15.636676,1.7383322 13.85613,1 12,1 Z m 0,2 c 1.326467,0 2.597101,0.526855 3.535156,1.4648437 C 16.473087,5.4027912 17,6.6735163 17,8 c 0,3.258363 0.832404,5.576782 1.800781,7.132813 0.239568,0.385037 0.371215,0.604227 0.527344,0.861328 C 19.095766,15.996046 18.935076,16 18.611328,16 H 5.3886719 C 5.0649076,16 4.9042368,15.996046 4.671875,15.994141 4.828004,15.737043 4.9596443,15.517845 5.1992187,15.132813 6.1674739,13.576817 7,11.258369 7,8 7,6.673533 7.5268886,5.4027989 8.4648438,4.4648437 9.4028031,3.5268844 10.673533,3 12,3 Z M 9.2929688,20.001953 A 1,1 0 0 0 8.6035156,20.337891 1,1 0 0 0 8.6933594,21.75 C 9.5737865,22.527152 10.737441,23 12,23 c 1.262634,0 2.426255,-0.472873 3.306641,-1.25 A 1,1 0 0 0 15.394531,20.337891 1,1 0 0 0 13.984375,20.25 C 13.454562,20.717672 12.766364,21 12,21 11.233761,21 10.545416,20.717646 10.015625,20.25 A 1,1 0 0 0 9.2929688,20.001953 Z"
     id="path4189" />
</svg>
