<svg width="32" height="32" viewBox="0 0 32 32" fill="none" xmlns="http://www.w3.org/2000/svg">
<path fill-rule="evenodd" clip-rule="evenodd" d="M8.67155 4.59211C4.72499 6.38181 1.45934 7.89295 1.41461 7.95031C1.34787 8.03586 1.33333 9.47842 1.33333 16.0021C1.33333 23.4891 1.3395 23.9564 1.44027 24.065C1.56152 24.1958 15.8365 30.6667 16.0037 30.6667C16.1731 30.6667 30.4396 24.1978 30.5597 24.0665C30.6604 23.9565 30.6667 23.4884 30.6667 15.9975C30.6667 8.50671 30.6604 8.03856 30.5597 7.92854C30.4236 7.7799 16.1576 1.32674 15.9797 1.33333C15.9068 1.33603 12.6182 2.80248 8.67155 4.59211ZM22.6401 5.24151C26.2081 6.85546 29.1185 8.18456 29.1075 8.19516C29.0965 8.20576 28.2457 8.59742 27.2169 9.06551L25.3462 9.91649L24.3856 9.47287C23.8572 9.22882 20.9162 7.89605 17.8498 6.51102C14.7835 5.12605 12.2741 3.97779 12.2734 3.95934C12.271 3.89247 15.9719 2.24964 16.0611 2.278C16.1115 2.29399 19.0721 3.62762 22.6401 5.24151ZM17.7485 7.41667C21.3222 9.03188 24.247 10.3663 24.248 10.3822C24.2501 10.4118 21.6793 11.5853 21.6124 11.5853C21.5786 11.5853 18.524 10.2079 11.0923 6.84148L8.47636 5.65654L8.67846 5.57071C8.78962 5.52349 9.3739 5.25876 9.97688 4.98239C10.5799 4.70609 11.1132 4.47998 11.162 4.47998C11.2108 4.47998 14.1748 5.80152 17.7485 7.41667ZM14.3194 9.25483L21.1639 12.3594L21.1798 15.0206C21.1955 17.6602 21.1968 17.6828 21.3279 17.8138C21.4007 17.8864 21.5266 17.9458 21.6077 17.9458C21.7804 17.9458 25.3128 16.3664 25.426 16.2386C25.4842 16.1729 25.5102 15.5008 25.5333 13.4602L25.5639 10.7685L27.6382 9.83037C28.7791 9.31437 29.721 8.89218 29.7313 8.89218C29.7416 8.89218 29.75 12.1872 29.75 16.2144V23.5365L23.1737 26.5143C19.5568 28.152 16.573 29.5006 16.5432 29.5111C16.5117 29.5222 16.4889 26.4493 16.4889 22.2033V14.8764L17.9387 14.2193C18.7362 13.8579 19.4718 13.5236 19.5734 13.4763C19.8331 13.3555 19.9426 13.1238 19.8375 12.9181C19.7933 12.8318 19.6796 12.7261 19.5847 12.6835C19.4204 12.6097 19.3521 12.633 18.1796 13.1619C17.5018 13.4677 16.7334 13.8101 16.4722 13.9226L15.9972 14.1272L15.4333 13.8814C15.1232 13.7462 14.7948 13.6073 14.7036 13.5728C14.4681 13.4836 14.224 13.5783 14.1295 13.7956C14.0019 14.089 14.1172 14.2114 14.854 14.565L15.5109 14.8802L15.511 22.2052C15.511 26.2339 15.4879 29.5216 15.4595 29.5111C15.4311 29.5006 12.4473 28.1513 8.82891 26.5126L2.24999 23.5332V16.2127C2.24999 12.1864 2.26014 8.89218 2.27261 8.89218C2.28501 8.89218 4.57283 9.9236 7.35656 11.1842C10.33 12.5307 12.4887 13.4763 12.5896 13.4763C12.6839 13.4763 12.8161 13.4247 12.8833 13.3617C13.0368 13.2178 13.0452 12.8971 12.8986 12.7735C12.8398 12.724 11.5267 12.1118 9.98055 11.4132C5.05169 9.18607 4.74229 9.04568 3.7958 8.60681L2.86667 8.17591L5.10969 7.16208C6.3434 6.60448 7.38027 6.14876 7.41388 6.14928C7.44749 6.14985 10.555 7.54737 14.3194 9.25483ZM24.6167 13.4672V15.6929L23.3988 16.2463C22.729 16.5507 22.1653 16.7998 22.1461 16.7998C22.1268 16.7998 22.1111 15.7951 22.1111 14.5672V12.3346L23.2875 11.7932C23.9345 11.4954 24.4983 11.2494 24.5403 11.2466C24.6002 11.2426 24.6167 11.7221 24.6167 13.4672ZM3.41557 19.0136C3.27183 19.1849 3.25319 19.369 3.36527 19.5094C3.47411 19.6457 7.56428 21.4969 7.75849 21.4978C8.1331 21.4994 8.34143 21.0532 8.08024 20.8088C7.89666 20.637 3.92096 18.8626 3.71966 18.8626C3.60073 18.8626 3.50039 18.9124 3.41557 19.0136ZM3.53437 20.9405C3.31968 21.0442 3.23755 21.2922 3.35287 21.488C3.46947 21.6861 5.53349 22.6589 5.84816 22.664C6.23658 22.6704 6.43024 22.2198 6.14583 21.9713C6.00735 21.8503 4.04807 20.9463 3.81261 20.8947C3.74306 20.8795 3.61778 20.9001 3.53437 20.9405Z" fill="#090909"/>
<path fill-rule="evenodd" clip-rule="evenodd" d="M2.80024 18.8255C2.64392 19.0058 2.62365 19.1995 2.74554 19.3472C2.86391 19.4906 7.3121 21.4385 7.52331 21.4394C7.93071 21.4411 8.15727 20.9716 7.87322 20.7145C7.67357 20.5337 3.34987 18.6667 3.13094 18.6667C3.00161 18.6667 2.89249 18.7191 2.80024 18.8255ZM2.92944 20.853C2.69596 20.9622 2.60664 21.2231 2.73205 21.4292C2.85886 21.6376 5.10355 22.6612 5.44576 22.6666C5.86818 22.6733 6.07879 22.1991 5.76949 21.9377C5.61889 21.8104 3.4881 20.8592 3.23203 20.8049C3.1564 20.7889 3.02016 20.8105 2.92944 20.853Z" fill="#6FB955"/>
</svg>
