<svg width="24" height="24" viewBox="0 0 24 24" fill="none" xmlns="http://www.w3.org/2000/svg">
<path fill-rule="evenodd" clip-rule="evenodd" d="M6.50367 3.44409C3.54375 4.78636 1.09451 5.91972 1.06096 5.96274C1.01091 6.0269 1 7.10882 1 12.0016C1 17.6168 1.00463 17.9673 1.08021 18.0488C1.17114 18.1469 11.8774 23 12.0028 23C12.1298 23 22.8297 18.1484 22.9198 18.0499C22.9953 17.9674 23 17.6163 23 11.9982C23 6.38004 22.9953 6.02892 22.9198 5.94641C22.8177 5.83493 12.1182 0.995062 11.9848 1C11.9301 1.00202 9.46363 2.10186 6.50367 3.44409ZM16.9801 3.93114C19.6561 5.1416 21.8389 6.13842 21.8306 6.14638C21.8224 6.15433 21.1843 6.44807 20.4127 6.79914L19.0097 7.43737L18.2892 7.10465C17.8929 6.92162 15.6872 5.92204 13.3874 4.88327C11.0876 3.84454 9.20559 2.98334 9.20508 2.96951C9.20325 2.91935 11.9789 1.68723 12.0458 1.70851C12.0836 1.7205 14.304 2.72072 16.9801 3.93114ZM13.3114 5.5625C15.9916 6.77391 18.1853 7.77473 18.186 7.78664C18.1875 7.80886 16.2595 8.68901 16.2093 8.68901C16.184 8.68901 13.893 7.65591 8.31926 5.13111L6.35728 4.24241L6.50885 4.17803C6.59222 4.14262 7.03043 3.94407 7.48267 3.7368C7.9349 3.52957 8.33489 3.35999 8.37151 3.35999C8.40813 3.35999 10.6311 4.35114 13.3114 5.5625ZM10.7396 6.94113L15.8729 9.26957L15.8848 11.2655C15.8967 13.2451 15.8976 13.2621 15.9959 13.3603C16.0505 13.4148 16.1449 13.4593 16.2058 13.4593C16.3353 13.4593 18.9846 12.2748 19.0695 12.179C19.1131 12.1297 19.1326 11.6256 19.15 10.0952L19.1729 8.07638L20.7287 7.37278C21.5843 6.98578 22.2907 6.66914 22.2985 6.66914C22.3062 6.66914 22.3125 9.14038 22.3125 12.1608V17.6524L17.3803 19.8857C14.6676 21.114 12.4298 22.1254 12.4074 22.1333C12.3838 22.1416 12.3667 19.837 12.3667 16.6525V11.1573L13.4541 10.6645C14.0521 10.3934 14.6038 10.1427 14.6801 10.1072C14.8748 10.0166 14.957 9.84287 14.8781 9.68858C14.845 9.62382 14.7597 9.54461 14.6885 9.51264C14.5653 9.45729 14.5141 9.47474 13.6347 9.87145C13.1264 10.1008 12.5501 10.3575 12.3542 10.442L11.9979 10.5954L11.575 10.4111C11.3424 10.3096 11.0961 10.2055 11.0277 10.1796C10.8511 10.1127 10.668 10.1838 10.5971 10.3467C10.5014 10.5668 10.5879 10.6586 11.1405 10.9238L11.6332 11.1601L11.6332 16.6539C11.6333 19.6755 11.6159 22.1412 11.5946 22.1333C11.5733 22.1254 9.33548 21.1134 6.62169 19.8845L1.6875 17.6499V12.1595C1.6875 9.13982 1.69511 6.66914 1.70446 6.66914C1.71376 6.66914 3.42963 7.4427 5.51743 8.38817C7.74754 9.39807 9.36655 10.1072 9.44218 10.1072C9.51295 10.1072 9.61208 10.0685 9.6625 10.0213C9.77759 9.91335 9.78387 9.67281 9.67396 9.58015C9.62982 9.54298 8.645 9.08387 7.48542 8.55991C3.78878 6.88956 3.55672 6.78427 2.84685 6.45511L2.15 6.13194L3.83227 5.37156C4.75755 4.95336 5.53521 4.61157 5.56042 4.61196C5.58563 4.61239 7.91625 5.66053 10.7396 6.94113ZM18.4625 10.1004V11.7697L17.5491 12.1847C17.0468 12.413 16.6239 12.5998 16.6095 12.5998C16.5951 12.5998 16.5833 11.8463 16.5833 10.9254V9.25096L17.4656 8.84488C17.9509 8.62153 18.3737 8.43708 18.4052 8.43497C18.4501 8.43197 18.4625 8.79159 18.4625 10.1004ZM2.56168 14.2602C2.45388 14.3886 2.4399 14.5268 2.52396 14.632C2.60559 14.7343 5.67321 16.1227 5.81887 16.1233C6.09983 16.1245 6.25607 15.7899 6.06018 15.6066C5.9225 15.4777 2.94072 14.147 2.78975 14.147C2.70055 14.147 2.6253 14.1843 2.56168 14.2602ZM2.65078 15.7053C2.48977 15.7832 2.42817 15.9691 2.51465 16.116C2.6021 16.2646 4.15013 16.9942 4.38612 16.998C4.67744 17.0028 4.82268 16.6648 4.60938 16.4785C4.50552 16.3878 3.03605 15.7097 2.85946 15.6711C2.8073 15.6597 2.71334 15.675 2.65078 15.7053Z" fill="#090909"/>
<path fill-rule="evenodd" clip-rule="evenodd" d="M2.10017 14.1192C1.98294 14.2543 1.96774 14.3997 2.05915 14.5104C2.14793 14.618 5.48407 16.0789 5.64248 16.0796C5.94803 16.0808 6.11795 15.7287 5.90491 15.5359C5.75518 15.4003 2.5124 14 2.3482 14C2.25121 14 2.16936 14.0393 2.10017 14.1192ZM2.19707 15.6398C2.02197 15.7217 1.95498 15.9173 2.04903 16.0719C2.14414 16.2282 3.82766 16.9959 4.08431 16.9999C4.40113 17.005 4.55909 16.6494 4.32711 16.4533C4.21416 16.3578 2.61607 15.6444 2.42402 15.6037C2.3673 15.5917 2.26511 15.6079 2.19707 15.6398Z" fill="#6FB955"/>
</svg>
