<svg width="32" height="32" viewBox="0 0 32 32" fill="none" xmlns="http://www.w3.org/2000/svg">
<path fill-rule="evenodd" clip-rule="evenodd" d="M0.907174 0.0932735C0.769678 0.141949 0.540185 0.30537 0.397126 0.45634C-0.246042 1.1353 -0.0911093 2.12302 0.739679 2.64018C0.95736 2.7757 1.04648 2.78502 2.40713 2.81461L3.84459 2.84589L4.25082 3.03953C4.72256 3.26433 5.13617 3.65424 5.34904 4.07474C5.47135 4.31643 9.12568 18.3928 9.12568 18.6223C9.12568 18.6566 8.41883 19.0873 7.55491 19.5794C6.2997 20.2943 5.91315 20.5462 5.63103 20.8331C4.9878 21.4871 4.644 22.4082 4.7085 23.3047C4.80731 24.6774 5.60222 25.7276 6.92562 26.2341L7.28198 26.3704L18.0629 26.3884C26.4777 26.4025 28.9055 26.3894 29.1249 26.3291C29.6556 26.1829 30.1258 25.5516 30.1247 24.9867C30.1237 24.4417 29.6501 23.7907 29.1563 23.6554C28.98 23.6071 25.8008 23.5869 18.357 23.5867L7.80753 23.5863L7.65416 23.4327C7.47392 23.2523 7.45704 23.0266 7.6101 22.8441C7.67022 22.7723 8.49289 22.2765 9.43817 21.7424L11.1569 20.7712L15.1346 20.771C18.9488 20.7708 19.129 20.7656 19.5211 20.6445C19.9588 20.5091 20.4507 20.1658 20.6911 19.8278C20.7697 19.7173 20.8981 19.469 20.9764 19.276L21.1188 18.9252L23.8876 18.8916C26.2519 18.8629 26.702 18.8426 26.9689 18.753C27.7736 18.4828 28.5629 17.8004 28.9172 17.0687C29.0532 16.7879 29.5293 15.0252 30.5545 11.0065C31.3495 7.89009 32 5.29157 32 5.23207C32 5.17251 31.9309 5.05476 31.8466 4.9703L31.6932 4.8167H20.1032H8.51314L8.43676 4.48823C8.39476 4.30754 8.28014 3.90638 8.18202 3.59668C7.59754 1.75138 5.98409 0.36756 4.06333 0.0642432C3.43472 -0.0349853 1.21148 -0.014589 0.907174 0.0932735ZM4.1047 1.03138C4.60006 1.1261 5.4606 1.49586 5.75078 1.73868L5.90703 1.86944L5.58666 2.19278L5.26623 2.51611L4.98793 2.35282C4.34176 1.9738 4.08139 1.92306 2.57331 1.88245C1.20254 1.84554 1.17485 1.84216 1.05773 1.69713C0.895424 1.49624 0.907861 1.27538 1.09186 1.09125C1.24391 0.938968 1.25541 0.937654 2.43007 0.937654C3.22267 0.937654 3.77703 0.968686 4.1047 1.03138ZM6.74725 2.7471C7.15811 3.32471 7.29105 3.78681 9.18768 11.2296C10.8563 17.7772 11.0868 18.6283 11.2258 18.7531L11.3826 18.8939H15.754C18.1582 18.8939 20.1254 18.9155 20.1254 18.9419C20.1254 19.0804 19.7745 19.4743 19.5152 19.6268L19.2191 19.8011L15.0318 19.8324L10.8444 19.8636L9.06787 20.8647C7.86722 21.5413 7.19811 21.957 7.00368 22.1473C6.59676 22.5456 6.47876 22.993 6.63232 23.555C6.72006 23.876 7.2148 24.3664 7.54304 24.4576C7.70722 24.5033 11.0832 24.5242 18.3313 24.5244L28.8808 24.5248L29.0342 24.6784C29.23 24.8743 29.2296 25.114 29.0333 25.3105L28.879 25.465L18.143 25.4485L7.40698 25.4319L7.02543 25.2555C6.54188 25.0317 6.06058 24.5472 5.8334 24.0555C5.68497 23.7343 5.65972 23.5988 5.65847 23.117C5.65722 22.6295 5.68066 22.5027 5.83334 22.172C6.10008 21.5943 6.50132 21.2498 7.68822 20.5798C10.1356 19.198 10.0488 19.2528 10.1287 19.0423C10.1671 18.9411 9.69598 17.0029 8.37133 11.8134C6.33032 3.81747 6.37145 3.96869 6.11571 3.51021L5.9279 3.17355L6.22764 2.86892C6.39245 2.70143 6.54757 2.56435 6.57226 2.56435C6.597 2.56435 6.67575 2.64656 6.74725 2.7471ZM12.4635 5.92723C12.5296 6.24851 12.9381 8.96209 12.9381 9.07952C12.9381 9.19051 12.8571 9.19627 11.2895 9.19627H9.64085L9.57042 8.93036C9.53167 8.78409 9.34642 8.05695 9.15874 7.31449C8.97112 6.57203 8.7995 5.91741 8.77744 5.85985C8.7405 5.76344 8.88325 5.75518 10.5828 5.75518H12.4281L12.4635 5.92723ZM17.086 6.17749C17.1056 6.4098 17.137 6.93766 17.1557 7.35059C17.1744 7.76352 17.2064 8.34776 17.2267 8.64882L17.2637 9.19627H16.2655C15.3503 9.19627 15.2537 9.20703 15.1027 9.32596C14.9833 9.42 14.938 9.51329 14.938 9.66551C14.938 9.81773 14.9833 9.91101 15.1027 10.005C15.2541 10.1242 15.3501 10.1347 16.2902 10.1347H17.3129L17.3184 10.4945C17.3214 10.6923 17.3566 11.4666 17.3966 12.2151L17.4692 13.576L16.0297 13.5759L14.5903 13.5758L14.0998 10.3694C13.8302 8.60584 13.5611 6.84619 13.5021 6.45904L13.3946 5.75518H15.2224H17.0503L17.086 6.17749ZM21.6878 5.86467C21.6879 6.1718 21.5541 8.70081 21.5256 8.93036L21.4926 9.19627H19.8477H18.2027L18.1655 8.6801C18.145 8.39625 18.113 7.79793 18.0942 7.35059C18.0754 6.90325 18.0444 6.36131 18.0252 6.14621L17.9905 5.75518H19.8391C21.5581 5.75518 21.6878 5.76287 21.6878 5.86467ZM26.2941 5.89595C26.2764 5.97334 26.1551 6.74759 26.0246 7.61649L25.7871 9.19627H24.1184H22.4497L22.4753 8.83652C22.5124 8.31629 22.6253 6.12556 22.6253 5.92523V5.75518H24.4757H26.3262L26.2941 5.89595ZM30.4951 7.44582C30.2572 8.37572 30.0626 9.14997 30.0626 9.16636C30.0626 9.18282 29.3173 9.19627 28.4064 9.19627C27.4859 9.19627 26.7502 9.17162 26.7502 9.14083C26.7502 9.11036 26.8627 8.36102 27.0001 7.47572C27.1376 6.59042 27.2501 5.84108 27.2501 5.81061C27.2501 5.77964 28.0624 5.75518 29.0889 5.75518H30.9277L30.4951 7.44582ZM13.1256 10.1682C13.1256 10.1867 13.2381 10.9318 13.3756 11.824C13.5131 12.7163 13.6255 13.4754 13.6255 13.5111C13.6255 13.5538 13.1381 13.5758 12.1905 13.5758H10.7554L10.6948 13.3412C10.6615 13.2122 10.4761 12.4872 10.2828 11.7302C10.0895 10.9731 9.91684 10.3045 9.89928 10.2442C9.86935 10.1419 9.97428 10.1347 11.4964 10.1347C12.3925 10.1347 13.1256 10.1498 13.1256 10.1682ZM21.3964 11.4955C21.3564 12.2439 21.3213 13.0188 21.3183 13.2172L21.3128 13.5781L19.8597 13.5613L18.4067 13.5446L18.3347 12.1994C18.295 11.4596 18.2599 10.6923 18.2565 10.4945L18.2504 10.1347L19.8597 10.1347L21.4691 10.1346L21.3964 11.4955ZM25.6252 10.1995C25.6252 10.2352 25.5127 10.9943 25.3752 11.8866C25.2377 12.7788 25.1252 13.5239 25.1252 13.5424C25.1252 13.5608 24.4783 13.5758 23.6877 13.5758H22.2503L22.2495 13.4351C22.2478 13.1159 22.3894 10.2851 22.4107 10.213C22.4408 10.1112 25.6252 10.0979 25.6252 10.1995ZM29.7867 10.2442C29.7678 10.3045 29.5953 10.9731 29.4033 11.7302C29.2113 12.4872 29.0269 13.2122 28.9935 13.3412L28.9328 13.5758H27.4909H26.0491L26.0812 13.4351C26.0989 13.3576 26.2202 12.5834 26.3508 11.7145L26.5882 10.1347H28.2046C29.7154 10.1347 29.8188 10.1419 29.7867 10.2442ZM14.0263 16.0941C14.156 16.9629 14.2765 17.7372 14.2943 17.8146L14.3266 17.9554H13.1053C11.9967 17.9554 11.8809 17.9453 11.8504 17.8459C11.832 17.7857 11.6455 17.0607 11.4361 16.2349C11.2267 15.409 11.0412 14.6841 11.0238 14.6238C10.9944 14.5218 11.0884 14.5143 12.3914 14.5143H13.7905L14.0263 16.0941ZM17.5257 14.7802C17.5542 15.0098 17.688 17.5388 17.6879 17.8459C17.6879 17.9465 17.5882 17.9554 16.4692 17.9554C15.7989 17.9554 15.2505 17.9304 15.2505 17.9C15.2505 17.8695 15.138 17.1202 15.0005 16.2349C14.863 15.3496 14.7505 14.6002 14.7505 14.5697C14.7505 14.5392 15.3668 14.5143 16.1217 14.5143H17.4927L17.5257 14.7802ZM21.2266 15.0618C21.2063 15.3629 21.1743 15.9471 21.1556 16.36C21.1369 16.7729 21.1055 17.3008 21.0859 17.5331L21.0501 17.9554H19.8378H18.6254V17.7854C18.6254 17.585 18.5125 15.3943 18.4754 14.8741L18.4498 14.5143H19.8567H21.2636L21.2266 15.0618ZM24.9377 14.6311C24.9377 14.7485 24.5292 17.4621 24.4632 17.7833L24.4278 17.9554H23.2126H21.9974L22.0312 17.4705C22.0667 16.9627 22.1878 14.7402 22.1878 14.5972C22.1878 14.531 22.4637 14.5143 23.5627 14.5143C24.8632 14.5143 24.9377 14.5206 24.9377 14.6311ZM28.6634 14.6238C28.6455 14.6841 28.5431 15.0852 28.436 15.5154C28.3289 15.9455 28.1864 16.4219 28.1195 16.574C27.7359 17.4452 26.8324 17.9857 25.8312 17.9426L25.4013 17.9241L25.6627 16.2349C25.8064 15.3058 25.9271 14.5385 25.9309 14.53C25.9346 14.5214 26.5583 14.5143 27.3168 14.5143C28.6011 14.5143 28.6938 14.5218 28.6634 14.6238ZM10.2348 27.4041C9.57423 27.5712 8.94369 28.1043 8.64538 28.7479C8.49551 29.0712 8.47151 29.2014 8.47195 29.6864C8.47245 30.1695 8.49739 30.3037 8.64732 30.6314C8.86862 31.1149 9.35124 31.5963 9.84441 31.8252C10.1663 31.9747 10.299 31.9994 10.7819 32C11.2829 32.0006 11.3888 31.9795 11.7506 31.8065C12.2649 31.5607 12.65 31.1749 12.8987 30.6561C13.0725 30.2937 13.0937 30.1883 13.0937 29.6864C13.0937 29.1845 13.0725 29.0791 12.8987 28.7166C12.5119 27.91 11.7872 27.4152 10.9253 27.3692C10.6745 27.3558 10.3638 27.3715 10.2348 27.4041ZM26.2968 27.4041C25.6363 27.5712 25.0057 28.1043 24.7074 28.7479C24.5575 29.0712 24.5335 29.2014 24.534 29.6864C24.5345 30.1695 24.5594 30.3037 24.7093 30.6314C24.9306 31.1149 25.4133 31.5963 25.9064 31.8252C26.2284 31.9747 26.361 31.9994 26.8439 32C27.3449 32.0006 27.4508 31.9795 27.8126 31.8065C28.3269 31.5607 28.712 31.1749 28.9607 30.6561C29.1345 30.2937 29.1557 30.1883 29.1557 29.6864C29.1557 29.1845 29.1345 29.0791 28.9607 28.7166C28.5739 27.91 27.8492 27.4152 26.9873 27.3692C26.7365 27.3558 26.4259 27.3715 26.2968 27.4041ZM11.5242 28.51C12.3015 29.0569 12.4034 30.0102 11.7538 30.6576C11.1701 31.2394 10.4077 31.2433 9.81485 30.6676C9.40286 30.2675 9.2863 29.8234 9.44411 29.2545C9.53086 28.9417 9.96022 28.4878 10.2819 28.3689C10.6656 28.2271 11.2099 28.2889 11.5242 28.51ZM27.5862 28.51C28.3635 29.0569 28.4654 30.0102 27.8158 30.6576C27.2321 31.2394 26.4697 31.2433 25.8769 30.6676C25.4649 30.2675 25.3483 29.8234 25.5061 29.2545C25.5929 28.9417 26.0222 28.4878 26.3439 28.3689C26.7277 28.2271 27.272 28.2889 27.5862 28.51ZM10.4666 29.3707C10.3822 29.4552 10.3131 29.5972 10.3131 29.6864C10.3131 29.895 10.5735 30.1556 10.7819 30.1556C10.9902 30.1556 11.2506 29.895 11.2506 29.6864C11.2506 29.4778 10.9902 29.2171 10.7819 29.2171C10.6928 29.2171 10.551 29.2863 10.4666 29.3707ZM26.5286 29.3707C26.4442 29.4552 26.3752 29.5972 26.3752 29.6864C26.3752 29.7755 26.4442 29.9176 26.5286 30.002C26.613 30.0865 26.7548 30.1556 26.8439 30.1556C26.933 30.1556 27.0748 30.0865 27.1592 30.002C27.2436 29.9176 27.3126 29.7755 27.3126 29.6864C27.3126 29.5972 27.2436 29.4552 27.1592 29.3707C27.0748 29.2863 26.933 29.2171 26.8439 29.2171C26.7548 29.2171 26.613 29.2863 26.5286 29.3707Z" fill="#090909"/>
<path fill-rule="evenodd" clip-rule="evenodd" d="M10.2348 27.4041C9.57423 27.5712 8.94368 28.1043 8.64538 28.7479C8.49551 29.0712 8.47151 29.2014 8.47194 29.6864C8.47244 30.1694 8.49738 30.3037 8.64731 30.6314C8.86862 31.1149 9.35123 31.5962 9.8444 31.8252C10.1663 31.9747 10.299 31.9994 10.7819 32C11.2829 32.0006 11.3888 31.9795 11.7506 31.8065C12.2649 31.5607 12.6499 31.1749 12.8987 30.6561C13.0725 30.2937 13.0937 30.1883 13.0937 29.6864C13.0937 29.1845 13.0725 29.0791 12.8987 28.7166C12.5119 27.91 11.7872 27.4152 10.9252 27.3692C10.6745 27.3558 10.3638 27.3715 10.2348 27.4041ZM26.2968 27.4041C25.6362 27.5712 25.0057 28.1043 24.7074 28.7479C24.5575 29.0712 24.5335 29.2014 24.534 29.6864C24.5345 30.1694 24.5594 30.3037 24.7093 30.6314C24.9306 31.1149 25.4133 31.5962 25.9064 31.8252C26.2284 31.9747 26.361 31.9994 26.8439 32C27.3449 32.0006 27.4508 31.9795 27.8126 31.8065C28.3269 31.5607 28.712 31.1749 28.9607 30.6561C29.1345 30.2937 29.1557 30.1883 29.1557 29.6864C29.1557 29.1845 29.1345 29.0791 28.9607 28.7166C28.5739 27.91 27.8492 27.4152 26.9873 27.3692C26.7365 27.3558 26.4258 27.3715 26.2968 27.4041ZM11.5242 28.51C12.3015 29.0569 12.4034 30.0102 11.7538 30.6576C11.1701 31.2394 10.4077 31.2433 9.81484 30.6676C9.40285 30.2675 9.2863 29.8234 9.4441 29.2545C9.53085 28.9417 9.96021 28.4878 10.2819 28.3689C10.6656 28.2271 11.2099 28.2889 11.5242 28.51ZM27.5862 28.51C28.3635 29.0569 28.4654 30.0102 27.8158 30.6576C27.2321 31.2394 26.4697 31.2433 25.8769 30.6676C25.4649 30.2675 25.3483 29.8234 25.5061 29.2545C25.5929 28.9417 26.0222 28.4878 26.3439 28.3689C26.7277 28.2271 27.2719 28.2889 27.5862 28.51ZM10.4666 29.3707C10.3822 29.4552 10.3131 29.5972 10.3131 29.6864C10.3131 29.895 10.5735 30.1556 10.7819 30.1556C10.9902 30.1556 11.2506 29.895 11.2506 29.6864C11.2506 29.4778 10.9902 29.2171 10.7819 29.2171C10.6928 29.2171 10.5509 29.2863 10.4666 29.3707ZM26.5286 29.3707C26.4442 29.4552 26.3752 29.5972 26.3752 29.6864C26.3752 29.7755 26.4442 29.9176 26.5286 30.002C26.613 30.0865 26.7548 30.1556 26.8439 30.1556C26.933 30.1556 27.0748 30.0865 27.1592 30.002C27.2436 29.9176 27.3126 29.7755 27.3126 29.6864C27.3126 29.5972 27.2436 29.4552 27.1592 29.3707C27.0748 29.2863 26.933 29.2171 26.8439 29.2171C26.7548 29.2171 26.613 29.2863 26.5286 29.3707Z" fill="#6FB955"/>
<path fill-rule="evenodd" clip-rule="evenodd" d="M10.2348 27.4041C9.57421 27.5712 8.94367 28.1043 8.64536 28.7479C8.49549 29.0712 8.47149 29.2014 8.47193 29.6864C8.47243 30.1694 8.49737 30.3037 8.6473 30.6314C8.86861 31.1149 9.35122 31.5962 9.84439 31.8252C10.1663 31.9747 10.299 31.9994 10.7819 32C11.2828 32.0006 11.3888 31.9795 11.7506 31.8065C12.2649 31.5607 12.6499 31.1749 12.8987 30.6561C13.0725 30.2937 13.0937 30.1883 13.0937 29.6864C13.0937 29.1845 13.0725 29.0791 12.8987 28.7166C12.5119 27.91 11.7872 27.4152 10.9252 27.3692C10.6745 27.3558 10.3638 27.3715 10.2348 27.4041ZM11.5242 28.51C12.3014 29.0569 12.4034 30.0102 11.7538 30.6576C11.17 31.2394 10.4077 31.2433 9.81483 30.6676C9.40284 30.2675 9.28628 29.8234 9.44409 29.2545C9.53084 28.9417 9.9602 28.4878 10.2819 28.3689C10.6656 28.2271 11.2099 28.2889 11.5242 28.51ZM10.4666 29.3707C10.3822 29.4552 10.3131 29.5972 10.3131 29.6864C10.3131 29.895 10.5735 30.1556 10.7819 30.1556C10.9902 30.1556 11.2506 29.895 11.2506 29.6864C11.2506 29.4778 10.9902 29.2171 10.7819 29.2171C10.6928 29.2171 10.5509 29.2863 10.4666 29.3707Z" fill="#1C7EFF"/>
</svg>
