<svg width="24" height="24" viewBox="0 0 24 24" fill="none" xmlns="http://www.w3.org/2000/svg">
<path fill-rule="evenodd" clip-rule="evenodd" d="M0.68038 0.0699551C0.577258 0.106462 0.405138 0.229027 0.297845 0.342255C-0.184532 0.851473 -0.0683319 1.59226 0.554759 1.98013C0.71802 2.08177 0.784862 2.08876 1.80535 2.11096L2.88344 2.13442L3.18812 2.27965C3.54192 2.44825 3.85213 2.74068 4.01178 3.05605C4.10351 3.23732 6.84426 13.7946 6.84426 13.9668C6.84426 13.9925 6.31412 14.3155 5.66619 14.6846C4.72478 15.2208 4.43486 15.4097 4.22328 15.6248C3.74085 16.1153 3.483 16.8062 3.53137 17.4785C3.60548 18.508 4.20167 19.2957 5.19422 19.6756L5.46149 19.7778L13.5472 19.7913C19.8582 19.8018 21.6791 19.7921 21.8437 19.7468C22.2417 19.6372 22.5944 19.1637 22.5935 18.7401C22.5928 18.3313 22.2376 17.843 21.8673 17.7416C21.735 17.7053 19.3506 17.6902 13.7677 17.69L5.85565 17.6897L5.74062 17.5745C5.60544 17.4392 5.59278 17.27 5.70758 17.133C5.75267 17.0792 6.36967 16.7074 7.07863 16.3068L8.36765 15.5784L11.3509 15.5783C14.2116 15.5781 14.3468 15.5742 14.6408 15.4833C14.9691 15.3818 15.338 15.1243 15.5183 14.8708C15.5773 14.788 15.6736 14.6017 15.7323 14.457L15.8391 14.1939L17.9157 14.1687C19.6889 14.1472 20.0265 14.132 20.2267 14.0648C20.8302 13.8621 21.4221 13.3503 21.6879 12.8015C21.7899 12.591 22.1469 11.2689 22.9159 8.2549C23.5121 5.91757 24 3.96868 24 3.92405C24 3.87938 23.9482 3.79107 23.8849 3.72772L23.7699 3.61252H15.0774H6.38485L6.32757 3.36617C6.29607 3.23066 6.21011 2.92978 6.13652 2.69751C5.69815 1.31353 4.48806 0.27567 3.0475 0.0481824C2.57604 -0.026239 0.908608 -0.0109418 0.68038 0.0699551ZM3.07853 0.773533C3.45005 0.844575 4.09545 1.1219 4.31309 1.30401L4.43027 1.40208L4.19 1.64458L3.94967 1.88708L3.74095 1.76461C3.25632 1.48035 3.06104 1.44229 1.92998 1.41184C0.901905 1.38415 0.88114 1.38162 0.793299 1.27285C0.671568 1.12218 0.680896 0.956536 0.818892 0.818439C0.932935 0.704226 0.94156 0.703241 1.82255 0.703241C2.417 0.703241 2.83277 0.726515 3.07853 0.773533ZM5.06044 2.06033C5.36859 2.49353 5.46829 2.84011 6.89076 8.42223C8.14219 13.3329 8.31511 13.9712 8.41935 14.0648L8.53696 14.1704H11.8155C13.6187 14.1704 15.094 14.1866 15.094 14.2064C15.094 14.3103 14.8309 14.6057 14.6364 14.7201L14.4143 14.8508L11.2738 14.8743L8.13328 14.8977L6.8009 15.6485C5.90041 16.1559 5.39858 16.4678 5.25276 16.6105C4.94757 16.9092 4.85907 17.2447 4.97424 17.6662C5.04005 17.907 5.4111 18.2748 5.65728 18.3432C5.78042 18.3775 8.31239 18.3931 13.7485 18.3933L21.6606 18.3936L21.7756 18.5088C21.9225 18.6557 21.9222 18.8355 21.775 18.9829L21.6593 19.0987L13.6072 19.0863L5.55524 19.074L5.26907 18.9416C4.90641 18.7738 4.54544 18.4104 4.37505 18.0416C4.26373 17.8007 4.24479 17.6991 4.24385 17.3378C4.24292 16.9721 4.26049 16.877 4.37501 16.629C4.57506 16.1957 4.87599 15.9374 5.76617 15.4348C7.60174 14.3985 7.53658 14.4396 7.59653 14.2817C7.62536 14.2058 7.27198 12.7522 6.2785 8.86007C4.74774 2.8631 4.77859 2.97652 4.58678 2.63266L4.44593 2.38016L4.67073 2.15169C4.79434 2.02607 4.91068 1.92326 4.92919 1.92326C4.94775 1.92326 5.00681 1.98492 5.06044 2.06033ZM9.34764 4.44542C9.39718 4.68638 9.70355 6.72156 9.70355 6.80964C9.70355 6.89288 9.6428 6.8972 8.46712 6.8972H7.23064L7.17781 6.69777C7.14875 6.58807 7.00982 6.04272 6.86906 5.48587C6.72834 4.92902 6.59963 4.43806 6.58308 4.39489C6.55538 4.32258 6.66244 4.31638 7.93707 4.31638H9.32111L9.34764 4.44542ZM12.8145 4.63312C12.8292 4.80735 12.8528 5.20325 12.8668 5.51294C12.8808 5.82264 12.9048 6.26082 12.92 6.48662L12.9478 6.8972H12.1991C11.5127 6.8972 11.4403 6.90527 11.327 6.99447C11.2374 7.065 11.2035 7.13496 11.2035 7.24913C11.2035 7.3633 11.2374 7.43326 11.327 7.50379C11.4405 7.59318 11.5125 7.60106 12.2176 7.60106H12.9847L12.9888 7.87087C12.9911 8.01925 13.0174 8.59998 13.0474 9.16133L13.1019 10.182L12.0223 10.1819L10.9427 10.1819L10.5749 7.77702C10.3726 6.45438 10.1708 5.13464 10.1265 4.84428L10.0459 4.31638H11.4168H12.7877L12.8145 4.63312ZM16.2659 4.3985C16.2659 4.62885 16.1655 6.52561 16.1442 6.69777L16.1195 6.8972H14.8858H13.652L13.6242 6.51008C13.6088 6.29718 13.5847 5.84845 13.5706 5.51294C13.5566 5.17744 13.5333 4.77098 13.5189 4.60966L13.4929 4.31638H14.8793C16.1686 4.31638 16.2659 4.32215 16.2659 4.3985ZM19.7206 4.42196C19.7073 4.48001 19.6163 5.06069 19.5184 5.71237L19.3403 6.8972H18.0888H16.8372L16.8565 6.62739C16.8843 6.23721 16.969 4.59417 16.969 4.44392V4.31638H18.3568H19.7447L19.7206 4.42196ZM22.8713 5.58436C22.6929 6.28179 22.5469 6.86248 22.5469 6.87477C22.5469 6.88711 21.988 6.8972 21.3048 6.8972C20.6144 6.8972 20.0626 6.87871 20.0626 6.85563C20.0626 6.83277 20.147 6.27077 20.2501 5.60679C20.3532 4.94282 20.4376 4.38081 20.4376 4.35796C20.4376 4.33473 21.0468 4.31638 21.8167 4.31638H23.1958L22.8713 5.58436ZM9.84417 7.62616C9.84417 7.64001 9.92854 8.19882 10.0317 8.868C10.1348 9.53719 10.2192 10.1066 10.2192 10.1333C10.2192 10.1654 9.85355 10.1819 9.1429 10.1819H8.06658L8.02112 10.0059C7.99613 9.90915 7.85706 9.3654 7.71208 8.79762C7.5671 8.22984 7.43763 7.72836 7.42446 7.68318C7.40201 7.60646 7.48071 7.60106 8.62232 7.60106C9.29434 7.60106 9.84417 7.61237 9.84417 7.62616ZM16.0473 8.62161C16.0173 9.18296 15.991 9.76406 15.9887 9.91291L15.9846 10.1836L14.8948 10.171L13.805 10.1584L13.751 9.14955C13.7213 8.59467 13.6949 8.01925 13.6924 7.87087L13.6878 7.60106L14.8948 7.60101L16.1018 7.60097L16.0473 8.62161ZM19.2189 7.64963C19.2189 7.67637 19.1345 8.24575 19.0314 8.91493C18.9283 9.58411 18.8439 10.1429 18.8439 10.1568C18.8439 10.1706 18.3588 10.1819 17.7658 10.1819H16.6877L16.6872 10.0763C16.6858 9.83689 16.7921 7.71382 16.808 7.65971C16.8306 7.58342 19.2189 7.57342 19.2189 7.64963ZM22.34 7.68318C22.3259 7.72836 22.1965 8.22984 22.0525 8.79762C21.9085 9.3654 21.7702 9.90915 21.7451 10.0059L21.6996 10.1819H20.6182H19.5368L19.5609 10.0763C19.5742 10.0182 19.6652 9.43752 19.7631 8.78589L19.9412 7.60106H21.1535C22.2866 7.60106 22.3641 7.60641 22.34 7.68318ZM10.5197 12.0706C10.617 12.7222 10.7074 13.3029 10.7207 13.361L10.7449 13.4666H9.82898C8.99749 13.4666 8.91068 13.459 8.88781 13.3844C8.87398 13.3393 8.73416 12.7955 8.57708 12.1761C8.42006 11.5567 8.28089 11.013 8.26786 10.9679C8.24578 10.8914 8.31633 10.8857 9.29355 10.8857H10.3429L10.5197 12.0706ZM13.1443 11.0852C13.1656 11.2573 13.266 13.1541 13.2659 13.3844C13.2659 13.4598 13.1912 13.4666 12.3519 13.4666C11.8492 13.4666 11.4379 13.4478 11.4379 13.425C11.4379 13.4021 11.3535 12.8401 11.2504 12.1761C11.1473 11.5122 11.0629 10.9502 11.0629 10.9273C11.0629 10.9044 11.5251 10.8857 12.0912 10.8857H13.1196L13.1443 11.0852ZM15.9199 11.2963C15.9047 11.5222 15.8807 11.9603 15.8667 12.27C15.8527 12.5797 15.8291 12.9756 15.8144 13.1498L15.7876 13.4666H14.8783H13.969V13.339C13.969 13.1888 13.8844 11.5457 13.8566 11.1555L13.8373 10.8857H14.8925H15.9477L15.9199 11.2963ZM18.7033 10.9733C18.7033 11.0614 18.3969 13.0966 18.3474 13.3375L18.3208 13.4666H17.4094H16.498L16.5234 13.1029C16.55 12.722 16.6408 11.0551 16.6408 10.9479C16.6408 10.8982 16.8477 10.8857 17.6721 10.8857C18.6474 10.8857 18.7033 10.8905 18.7033 10.9733ZM21.4976 10.9679C21.4841 11.013 21.4073 11.3139 21.327 11.6365C21.2466 11.9591 21.1398 12.3164 21.0896 12.4305C20.802 13.0839 20.1243 13.4893 19.3734 13.457L19.051 13.4431L19.247 12.1761C19.3548 11.4793 19.4453 10.9039 19.4482 10.8975C19.451 10.891 19.9187 10.8857 20.4876 10.8857C21.4508 10.8857 21.5203 10.8914 21.4976 10.9679ZM7.67608 20.5531C7.18067 20.6784 6.70776 21.0782 6.48404 21.5609C6.37163 21.8034 6.35363 21.901 6.35396 22.2648C6.35434 22.6271 6.37304 22.7278 6.48549 22.9736C6.65147 23.3362 7.01343 23.6972 7.38331 23.8689C7.62475 23.981 7.72427 23.9996 8.08641 24C8.46215 24.0005 8.5416 23.9846 8.81295 23.8549C9.19868 23.6705 9.48746 23.3812 9.67402 22.9921C9.80438 22.7203 9.82027 22.6412 9.82027 22.2648C9.82027 21.8884 9.80438 21.8093 9.67402 21.5375C9.38392 20.9325 8.84042 20.5614 8.19394 20.5269C8.00588 20.5168 7.77287 20.5287 7.67608 20.5531ZM19.7226 20.5531C19.2272 20.6784 18.7543 21.0782 18.5306 21.5609C18.4181 21.8034 18.4002 21.901 18.4005 22.2648C18.4009 22.6271 18.4196 22.7278 18.532 22.9736C18.698 23.3362 19.0599 23.6972 19.4298 23.8689C19.6713 23.981 19.7708 23.9996 20.1329 24C20.5087 24.0005 20.5881 23.9846 20.8595 23.8549C21.2452 23.6705 21.534 23.3812 21.7205 22.9921C21.8509 22.7203 21.8668 22.6412 21.8668 22.2648C21.8668 21.8884 21.8509 21.8093 21.7205 21.5375C21.4304 20.9325 20.8869 20.5614 20.2405 20.5269C20.0524 20.5168 19.8194 20.5287 19.7226 20.5531ZM8.64313 21.3825C9.2261 21.7927 9.30255 22.5077 8.81534 22.9932C8.37754 23.4296 7.80578 23.4325 7.36114 23.0007C7.05214 22.7006 6.96473 22.3676 7.08308 21.9409C7.14814 21.7063 7.47016 21.3659 7.71142 21.2767C7.99923 21.1703 8.40745 21.2167 8.64313 21.3825ZM20.6896 21.3825C21.2726 21.7927 21.3491 22.5077 20.8619 22.9932C20.4241 23.4296 19.8523 23.4325 19.4077 23.0007C19.0987 22.7006 19.0112 22.3676 19.1296 21.9409C19.1947 21.7063 19.5167 21.3659 19.7579 21.2767C20.0457 21.1703 20.454 21.2167 20.6896 21.3825ZM7.84993 22.0281C7.78665 22.0914 7.73486 22.1979 7.73486 22.2648C7.73486 22.4212 7.93013 22.6167 8.08641 22.6167C8.24269 22.6167 8.43796 22.4212 8.43796 22.2648C8.43796 22.1083 8.24269 21.9129 8.08641 21.9129C8.01962 21.9129 7.91321 21.9647 7.84993 22.0281ZM19.8965 22.0281C19.8332 22.0914 19.7814 22.1979 19.7814 22.2648C19.7814 22.3317 19.8332 22.4382 19.8965 22.5015C19.9597 22.5649 20.0661 22.6167 20.1329 22.6167C20.1997 22.6167 20.3061 22.5649 20.3694 22.5015C20.4327 22.4382 20.4845 22.3317 20.4845 22.2648C20.4845 22.1979 20.4327 22.0914 20.3694 22.0281C20.3061 21.9647 20.1997 21.9129 20.1329 21.9129C20.0661 21.9129 19.9597 21.9647 19.8965 22.0281Z" fill="#090909"/>
<path fill-rule="evenodd" clip-rule="evenodd" d="M7.67606 20.5531C7.18066 20.6784 6.70775 21.0782 6.48402 21.5609C6.37162 21.8034 6.35362 21.901 6.35395 22.2648C6.35432 22.6271 6.37302 22.7278 6.48547 22.9736C6.65145 23.3362 7.01341 23.6972 7.38329 23.8689C7.62474 23.981 7.72425 23.9996 8.0864 24C8.46213 24.0005 8.54159 23.9846 8.81294 23.8549C9.19866 23.6705 9.48745 23.3812 9.67401 22.9921C9.80436 22.7203 9.82025 22.6412 9.82025 22.2648C9.82025 21.8884 9.80436 21.8093 9.67401 21.5375C9.3839 20.9325 8.84041 20.5614 8.19392 20.5269C8.00587 20.5168 7.77286 20.5286 7.67606 20.5531ZM19.7226 20.5531C19.2272 20.6784 18.7543 21.0782 18.5305 21.5609C18.4181 21.8034 18.4001 21.901 18.4005 22.2648C18.4008 22.6271 18.4195 22.7278 18.532 22.9736C18.698 23.3362 19.0599 23.6972 19.4298 23.8689C19.6713 23.981 19.7708 23.9996 20.1329 24C20.5087 24.0005 20.5881 23.9846 20.8595 23.8549C21.2452 23.6705 21.534 23.3812 21.7205 22.9921C21.8509 22.7203 21.8668 22.6412 21.8668 22.2648C21.8668 21.8884 21.8509 21.8093 21.7205 21.5375C21.4304 20.9325 20.8869 20.5614 20.2404 20.5269C20.0524 20.5168 19.8194 20.5286 19.7226 20.5531ZM8.64311 21.3825C9.22608 21.7927 9.30253 22.5077 8.81533 22.9932C8.37753 23.4296 7.80576 23.4325 7.36112 23.0007C7.05213 22.7006 6.96471 22.3675 7.08307 21.9409C7.14813 21.7063 7.47015 21.3659 7.71141 21.2767C7.99921 21.1703 8.40743 21.2167 8.64311 21.3825ZM20.6896 21.3825C21.2726 21.7927 21.3491 22.5077 20.8618 22.9932C20.424 23.4296 19.8523 23.4325 19.4076 23.0007C19.0986 22.7006 19.0112 22.3675 19.1296 21.9409C19.1946 21.7063 19.5167 21.3659 19.7579 21.2767C20.0457 21.1703 20.454 21.2167 20.6896 21.3825ZM7.84992 22.0281C7.78664 22.0914 7.73484 22.1979 7.73484 22.2648C7.73484 22.4212 7.93012 22.6167 8.0864 22.6167C8.24267 22.6167 8.43795 22.4212 8.43795 22.2648C8.43795 22.1083 8.24267 21.9129 8.0864 21.9129C8.0196 21.9129 7.9132 21.9647 7.84992 22.0281ZM19.8964 22.0281C19.8332 22.0914 19.7814 22.1979 19.7814 22.2648C19.7814 22.3317 19.8332 22.4382 19.8964 22.5015C19.9597 22.5649 20.0661 22.6167 20.1329 22.6167C20.1997 22.6167 20.3061 22.5649 20.3694 22.5015C20.4327 22.4382 20.4845 22.3317 20.4845 22.2648C20.4845 22.1979 20.4327 22.0914 20.3694 22.0281C20.3061 21.9647 20.1997 21.9129 20.1329 21.9129C20.0661 21.9129 19.9597 21.9647 19.8964 22.0281Z" fill="#6FB955"/>
<path fill-rule="evenodd" clip-rule="evenodd" d="M7.67606 20.5531C7.18066 20.6784 6.70775 21.0782 6.48402 21.5609C6.37162 21.8034 6.35362 21.901 6.35395 22.2648C6.35432 22.6271 6.37302 22.7278 6.48547 22.9736C6.65145 23.3362 7.01341 23.6972 7.38329 23.8689C7.62474 23.981 7.72425 23.9996 8.0864 24C8.46213 24.0005 8.54159 23.9846 8.81294 23.8549C9.19866 23.6705 9.48745 23.3812 9.67401 22.9921C9.80436 22.7203 9.82025 22.6412 9.82025 22.2648C9.82025 21.8884 9.80436 21.8093 9.67401 21.5375C9.3839 20.9325 8.84041 20.5614 8.19392 20.5269C8.00587 20.5168 7.77286 20.5286 7.67606 20.5531ZM8.64311 21.3825C9.22608 21.7927 9.30253 22.5077 8.81533 22.9932C8.37753 23.4296 7.80576 23.4325 7.36112 23.0007C7.05213 22.7006 6.96471 22.3675 7.08307 21.9409C7.14813 21.7063 7.47015 21.3659 7.71141 21.2767C7.99921 21.1703 8.40743 21.2167 8.64311 21.3825ZM7.84992 22.0281C7.78664 22.0914 7.73484 22.1979 7.73484 22.2648C7.73484 22.4212 7.93012 22.6167 8.0864 22.6167C8.24267 22.6167 8.43795 22.4212 8.43795 22.2648C8.43795 22.1083 8.24267 21.9129 8.0864 21.9129C8.0196 21.9129 7.9132 21.9647 7.84992 22.0281Z" fill="#1C7EFF"/>
</svg>
