<?xml version="1.0" encoding="UTF-8" standalone="no"?>
<svg
   width="24"
   height="24"
   viewBox="0 0 24 24"
   fill="none"
   version="1.1"
   id="svg4087"
   sodipodi:docname="Check.svg"
   inkscape:version="1.2.2 (1:1.2.2+202212051552+b0a8486541)"
   xmlns:inkscape="http://www.inkscape.org/namespaces/inkscape"
   xmlns:sodipodi="http://sodipodi.sourceforge.net/DTD/sodipodi-0.dtd"
   xmlns="http://www.w3.org/2000/svg"
   xmlns:svg="http://www.w3.org/2000/svg">
  <defs
     id="defs4091" />
  <sodipodi:namedview
     id="namedview4089"
     pagecolor="#ffffff"
     bordercolor="#000000"
     borderopacity="0.25"
     inkscape:showpageshadow="2"
     inkscape:pageopacity="0.0"
     inkscape:pagecheckerboard="0"
     inkscape:deskcolor="#d1d1d1"
     showgrid="false"
     inkscape:zoom="32.833333"
     inkscape:cx="12"
     inkscape:cy="12.015228"
     inkscape:window-width="1920"
     inkscape:window-height="1016"
     inkscape:window-x="0"
     inkscape:window-y="0"
     inkscape:window-maximized="1"
     inkscape:current-layer="svg4087" />
  <path
     style="color:#000000;fill:#090909;stroke-linecap:round;stroke-linejoin:round;-inkscape-stroke:none"
     d="M 12,1 C 5.9367165,1 1,5.9367165 1,12 1,18.063238 5.9367105,23 12,23 18.063244,23 23,18.063244 23,12 23,5.9367105 18.063238,1 12,1 Z m 0,2 c 4.982351,0 9,4.0176006 9,9 0,4.982345 -4.017655,9 -9,9 C 7.0176006,21 3,16.982351 3,12 3,7.0175946 7.0175946,3 12,3 Z M 15.792969,8.2929688 10.5,13.585938 8.2070313,11.292969 a 1,1 0 0 0 -1.4140626,0 1,1 0 0 0 0,1.414062 l 3.0000001,3 a 1.0001,1.0001 0 0 0 1.4140622,0 l 6,-5.9999997 a 1,1 0 0 0 0,-1.4140625 1,1 0 0 0 -1.414062,0 z"
     id="path4085" />
</svg>
