<svg width="24" height="24" viewBox="0 0 24 24" fill="none" xmlns="http://www.w3.org/2000/svg">
<g clip-path="url(#clip0_1460_15258)">
<path d="M12.5 14.0001H20.5C20.776 14.0001 21 13.7761 21 13.5001C21 13.2241 20.776 13.0001 20.5 13.0001H12.5C12.224 13.0001 12 13.2241 12 13.5001C12 13.7761 12.224 14.0001 12.5 14.0001Z" fill="#6FB955"/>
<path d="M24 9.50002V7.5C24 7.017 23.856 6.57 23.618 6.18698C23.612 6.17498 23.611 6.16097 23.604 6.15L20.512 1.17998C20.053 0.441984 19.259 0 18.389 0H5.61202C4.74103 0 3.948 0.441984 3.489 1.17998L0.396984 6.15C0.390984 6.15998 0.390984 6.171 0.384984 6.18202C0.144984 6.56498 0 7.01498 0 7.5V9.50002C0 10.32 0.402984 11.044 1.01602 11.5C0.402984 11.956 0 12.679 0 13.5V15.5C0 16.32 0.402984 17.044 1.01602 17.5C0.402984 17.956 0 18.679 0 19.5V21.5C0 22.878 1.122 24 2.49998 24H9.05597C9.33295 24 9.55598 23.776 9.55598 23.5C9.55598 23.224 9.33197 23 9.05597 23H2.49998C1.67297 23 0.999984 22.327 0.999984 21.5V19.5C0.999984 18.672 1.67297 18 2.49998 18H10.864C11.14 18 11.364 17.776 11.364 17.5C11.364 17.224 11.14 17 10.864 17H2.49998C1.67297 17 0.999984 16.327 0.999984 15.5V13.5C0.999984 12.672 1.67297 12 2.49998 12H21.5C22.327 12 23 12.673 23 13.5V15.5C23 15.72 22.946 15.941 22.842 16.154C22.721 16.402 22.823 16.701 23.0709 16.823C23.3199 16.945 23.619 16.843 23.7399 16.594C23.913 16.242 24 15.875 24 15.5V13.5C24 12.68 23.597 11.956 22.9839 11.5C23.597 11.043 24 10.32 24 9.50002ZM4.338 1.70798C4.61302 1.26497 5.08898 0.999984 5.61098 0.999984H18.388C18.91 0.999984 19.386 1.26497 19.662 1.70798L21.725 5.02298C21.65 5.01497 21.577 4.99997 21.5 4.99997H2.49998C2.42297 4.99997 2.34998 5.01497 2.27498 5.02195L4.338 1.70798ZM23 9.50002C23 10.327 22.327 11 21.5 11H2.49998C1.67297 11 0.999984 10.327 0.999984 9.50002V7.5C0.999984 6.672 1.67297 6 2.49998 6H21.5C22.327 6 23 6.672 23 7.5V9.50002H23Z" fill="#090909"/>
<path d="M2 20.5001C2 21.3271 2.67298 22.0001 3.5 22.0001C4.32702 22.0001 5 21.3271 5 20.5001C5 19.6731 4.32702 19.0001 3.5 19.0001C2.67298 19.0001 2 19.6721 2 20.5001ZM3.99997 20.5001C3.99997 20.7761 3.77595 21.0001 3.49995 21.0001C3.22395 21.0001 2.99998 20.7761 2.99998 20.5001C2.99998 20.2241 3.224 20.0001 3.5 20.0001C3.776 20.0001 3.99997 20.2241 3.99997 20.5001Z" fill="#1C7EFF"/>
<path d="M20.5 17C20.409 17 20.318 17.005 20.229 17.013C19.396 15.763 17.997 15 16.5 15C14.172 15 12.251 16.777 12.023 19.046C10.872 19.268 10.0001 20.284 10.0001 21.5C10.0001 22.878 11.1221 24 12.5 24H20.5001C22.43 24 24 22.43 24 20.5C24 18.57 22.43 17 20.5 17ZM20.5 23H12.5C11.673 23 11 22.327 11 21.5C11 20.673 11.673 20 12.5 20C12.776 20 13.0001 19.776 13.0001 19.5C13.0001 17.57 14.57 16 16.5001 16C17.7501 16 18.9151 16.689 19.5381 17.798C19.6421 17.983 19.8481 18.081 20.0621 18.045C20.2051 18.02 20.3501 18 20.5001 18C21.8781 18 23.0001 19.122 23.0001 20.4999C23.0001 21.8779 21.878 23 20.5 23Z" fill="#090909"/>
<path d="M20.5 7.00007H12.5C12.224 7.00007 12 7.22408 12 7.50009C12 7.77609 12.224 8.0001 12.5 8.0001H20.5C20.776 8.0001 21 7.77609 21 7.50009C21 7.22408 20.776 7.00007 20.5 7.00007Z" fill="#6FB955"/>
<path d="M20.5 9H12.5C12.224 9 12 9.22402 12 9.50002C12 9.77602 12.224 10 12.5 10H20.5C20.776 10 21 9.77602 21 9.50002C21 9.22402 20.776 9 20.5 9Z" fill="#6FB955"/>
<path d="M3.5 7.00007C2.67298 7.00007 2 7.67207 2 8.50007C2 9.32807 2.67298 10.0001 3.5 10.0001C4.32702 10.0001 5 9.32708 5 8.50007C5 7.6731 4.32697 7.00007 3.5 7.00007ZM3.5 9.00008C3.224 9.00008 2.99998 8.77607 2.99998 8.50007C2.99998 8.22407 3.224 8.00005 3.5 8.00005C3.776 8.00005 4.00002 8.22407 4.00002 8.50007C4.00002 8.77607 3.776 9.00008 3.5 9.00008Z" fill="#1C7EFF"/>
<path d="M2 14.5001C2 15.3271 2.67298 16.0001 3.5 16.0001C4.32702 16.0001 5 15.3271 5 14.5001C5 13.6731 4.32702 13.0001 3.5 13.0001C2.67298 13.0001 2 13.6721 2 14.5001ZM3.99997 14.5001C3.99997 14.7761 3.77595 15.0001 3.49995 15.0001C3.22395 15.0001 2.99998 14.7761 2.99998 14.5001C2.99998 14.2241 3.224 14.0001 3.5 14.0001C3.776 14.0001 3.99997 14.2241 3.99997 14.5001Z" fill="#1C7EFF"/>
</g>
<defs>
<clipPath id="clip0_1460_15258">
<rect width="24" height="24" fill="white"/>
</clipPath>
</defs>
</svg>
