<?xml version="1.0" encoding="UTF-8" standalone="no"?>
<svg
   width="24"
   height="24"
   viewBox="0 0 24 24"
   fill="none"
   version="1.1"
   id="svg3971"
   sodipodi:docname="Communication.svg"
   inkscape:version="1.2.2 (1:1.2.2+202212051552+b0a8486541)"
   xmlns:inkscape="http://www.inkscape.org/namespaces/inkscape"
   xmlns:sodipodi="http://sodipodi.sourceforge.net/DTD/sodipodi-0.dtd"
   xmlns="http://www.w3.org/2000/svg"
   xmlns:svg="http://www.w3.org/2000/svg">
  <defs
     id="defs3975" />
  <sodipodi:namedview
     id="namedview3973"
     pagecolor="#ffffff"
     bordercolor="#000000"
     borderopacity="0.25"
     inkscape:showpageshadow="2"
     inkscape:pageopacity="0.0"
     inkscape:pagecheckerboard="0"
     inkscape:deskcolor="#d1d1d1"
     showgrid="false"
     inkscape:zoom="32.833333"
     inkscape:cx="12"
     inkscape:cy="12.015228"
     inkscape:window-width="1920"
     inkscape:window-height="1016"
     inkscape:window-x="0"
     inkscape:window-y="0"
     inkscape:window-maximized="1"
     inkscape:current-layer="svg3971" />
  <path
     style="color:#000000;fill:#000000;stroke-linecap:round;stroke-linejoin:round;-inkscape-stroke:none"
     d="M 6.8007812,1 C 5.1206229,1 4.1398706,0.94829614 3.1835938,1.4355469 2.4310548,1.8189819 1.8189819,2.4310548 1.4355469,3.1835938 0.94829614,4.1398706 1,5.1206229 1,6.8007812 v 4.6445318 c 0,0.516099 -0.005264,0.805604 0.042969,1.134765 0.2555032,1.744365 1.6326525,3.121452 3.3769532,3.376953 0.1479072,0.02167 0.1347656,0.03356 0.1347656,0.03516 v 1.558593 c 0,0.30525 -0.00245,0.544403 0.019531,0.792969 0.021984,0.248566 0.04851,0.572057 0.3417969,0.914062 0.312704,0.364912 0.7847532,0.559357 1.2636719,0.519532 0.4490139,-0.03726 0.6964153,-0.248751 0.8867187,-0.410157 0.1903035,-0.161405 0.3558499,-0.333643 0.5703125,-0.550781 l 1.4453126,-1.46289 c 0.00327,0.704827 -0.039712,1.364717 0.2441406,1.921875 0.2875453,0.56444 0.7480591,1.024954 1.3125001,1.3125 0.742401,0.378315 1.440448,0.326171 2.560547,0.326171 h 1.796875 c 0.372599,0 0.499758,0.0067 0.558594,0.01758 0.0797,0.01469 0.156317,0.0387 0.230468,0.07227 0.05417,0.02453 0.160879,0.09197 0.466797,0.304688 l 2.177734,1.511718 A 1.0001,1.0001 0 0 0 20,22 v -1.191406 c 0.369232,-0.02071 0.804361,0.01951 1.148437,-0.123047 C 21.88326,20.38127 22.467115,19.797184 22.771484,19.0625 23.037928,18.418975 23,17.845962 23,16.914062 v -2.714843 c 0,-1.120099 0.05214,-1.818146 -0.326172,-2.560547 -0.287545,-0.564441 -0.748059,-1.024955 -1.3125,-1.3125 C 20.966612,10.125031 20.440131,10.182876 20,10.152344 V 6.8007812 C 20,5.1206229 20.051737,4.139878 19.564453,3.1835938 19.181051,2.4310666 18.568974,1.81899 17.816406,1.4355469 16.860137,0.94835303 15.879417,1 14.199219,1 Z m 0,2 h 7.3984378 c 1.680198,0 2.381655,0.051985 2.708984,0.21875 0.376431,0.1917963 0.68125,0.4965952 0.873047,0.8730469 C 17.947965,4.4189714 18,5.1206229 18,6.8007812 V 10 h -4.800781 c -1.120099,0 -1.818146,-0.052144 -2.560547,0.326172 -0.564441,0.287545 -1.0249548,0.748059 -1.3125001,1.3125 C 8.9478563,12.381073 9,13.07912 9,14.199219 v 0.390625 l -2.4453125,2.474609 v -1.072265 c 0,-1.093606 -0.9079183,-1.876545 -1.84375,-2.013672 C 3.8323208,13.849818 3.1501808,13.167695 3.0214844,12.289063 3.0063568,12.185824 3,11.961412 3,11.445313 V 6.8007812 C 3,5.1206229 3.0520414,4.4189787 3.21875,4.0917969 3.4105544,3.7153569 3.7153569,3.4105544 4.0917969,3.21875 4.4189787,3.0520414 5.1206229,3 6.8007812,3 Z m 6.3984378,9 h 5.601562 c 1.120099,0 1.539146,0.05169 1.652344,0.109375 0.188158,0.09585 0.341646,0.249342 0.4375,0.4375 C 20.948309,12.660073 21,13.07912 21,14.199219 v 2.714843 c 0,0.9319 -0.03822,1.291139 -0.07617,1.382813 -0.10163,0.245315 -0.295839,0.439493 -0.541016,0.541016 -0.09157,0.03794 -0.450913,0.07617 -1.382812,0.07617 a 1.0001,1.0001 0 0 0 -1,1 v 0.173829 l -0.605469,-0.421875 c -0.305881,-0.212687 -0.504371,-0.358105 -0.783203,-0.484375 -0.221449,-0.100237 -0.456009,-0.172688 -0.695312,-0.216797 -0.300765,-0.05537 -0.547323,-0.05078 -0.919922,-0.05078 h -1.796875 c -1.120099,0 -1.539146,-0.05169 -1.652344,-0.109375 -0.188158,-0.09585 -0.341646,-0.247388 -0.4375,-0.435546 C 11.051573,18.255685 11,17.834943 11,16.714844 v -2.515625 c 0,-1.120099 0.05169,-1.539146 0.109375,-1.652344 0.09585,-0.188158 0.249342,-0.341646 0.4375,-0.4375 C 11.660073,12.051691 12.07912,12 13.199219,12 Z"
     id="path3969" />
</svg>
