<?xml version="1.0" encoding="UTF-8" standalone="no"?>
<svg
   width="24"
   height="24"
   viewBox="0 0 24 24"
   fill="none"
   version="1.1"
   id="svg3765"
   sodipodi:docname="Document.svg"
   inkscape:version="1.2.2 (1:1.2.2+202212051552+b0a8486541)"
   xmlns:inkscape="http://www.inkscape.org/namespaces/inkscape"
   xmlns:sodipodi="http://sodipodi.sourceforge.net/DTD/sodipodi-0.dtd"
   xmlns="http://www.w3.org/2000/svg"
   xmlns:svg="http://www.w3.org/2000/svg">
  <defs
     id="defs3769" />
  <sodipodi:namedview
     id="namedview3767"
     pagecolor="#ffffff"
     bordercolor="#000000"
     borderopacity="0.25"
     inkscape:showpageshadow="2"
     inkscape:pageopacity="0.0"
     inkscape:pagecheckerboard="0"
     inkscape:deskcolor="#d1d1d1"
     showgrid="false"
     inkscape:zoom="32.833333"
     inkscape:cx="12"
     inkscape:cy="12.015228"
     inkscape:window-width="1920"
     inkscape:window-height="1016"
     inkscape:window-x="0"
     inkscape:window-y="0"
     inkscape:window-maximized="1"
     inkscape:current-layer="svg3765" />
  <path
     style="color:#000000;fill:#090909;stroke-linecap:round;stroke-linejoin:round;-inkscape-stroke:none"
     d="M 5.125,1 C 3.9490683,1 3,1.9898375 3,3.1542969 V 20.845703 C 3,22.010157 3.9490897,23 5.125,23 h 12.75 C 19.05091,23 20,22.010157 20,20.845703 v -6.537109 -2.69336 -0.384765 C 20,8.524086 18.952697,5.9265193 17.080078,4.0058594 15.207366,2.0852064 12.658524,1 10,1 H 9.625 7.75 Z m 0,2 H 7.75 9.625 c 0.623472,0 1.221703,0.2532288 1.669922,0.7128906 C 11.743027,4.1725155 12,4.8011038 12,5.4609375 V 7 c 0,0.5641725 0.217418,1.1076963 0.613281,1.5136719 0.39574,0.4058493 0.941715,0.640625 1.511719,0.640625 h 1.5 c 0.62348,0 1.221878,0.2513754 1.669922,0.7109375 C 17.743028,10.324853 18,10.955349 18,11.615234 v 2.69336 6.537109 C 18,20.955048 17.941089,21 17.875,21 H 5.125 C 5.0589115,21 5,20.955048 5,20.845703 V 3.1542969 C 5,3.0448975 5.058933,3 5.125,3 Z m 8.609375,1.0898437 c 0.675331,0.3741767 1.359817,0.7440656 1.914063,1.3125 0.570424,0.5850587 0.946993,1.3074479 1.318359,2.0273438 C 16.532738,7.2851142 16.090543,7.1542969 15.625,7.1542969 h -1.5 c -0.0268,0 -0.05382,-0.010179 -0.08008,-0.037109 C 14.018786,7.0903835 14,7.0478669 14,7 V 5.4609375 C 14,4.9864138 13.876365,4.5333652 13.734375,4.0898437 Z"
     id="path3763" />
</svg>
