<?xml version="1.0" encoding="UTF-8" standalone="no"?>
<svg
   width="24"
   height="24"
   viewBox="0 0 24 24"
   fill="none"
   version="1.1"
   id="svg3606"
   sodipodi:docname="Download.svg"
   inkscape:version="1.2.2 (1:1.2.2+202212051552+b0a8486541)"
   xmlns:inkscape="http://www.inkscape.org/namespaces/inkscape"
   xmlns:sodipodi="http://sodipodi.sourceforge.net/DTD/sodipodi-0.dtd"
   xmlns="http://www.w3.org/2000/svg"
   xmlns:svg="http://www.w3.org/2000/svg">
  <defs
     id="defs3610" />
  <sodipodi:namedview
     id="namedview3608"
     pagecolor="#ffffff"
     bordercolor="#000000"
     borderopacity="0.25"
     inkscape:showpageshadow="2"
     inkscape:pageopacity="0.0"
     inkscape:pagecheckerboard="0"
     inkscape:deskcolor="#d1d1d1"
     showgrid="false"
     inkscape:zoom="32.833333"
     inkscape:cx="12"
     inkscape:cy="12.015228"
     inkscape:window-width="1920"
     inkscape:window-height="1016"
     inkscape:window-x="0"
     inkscape:window-y="0"
     inkscape:window-maximized="1"
     inkscape:current-layer="svg3606" />
  <path
     style="color:#000000;fill:#090909;stroke-linecap:round;stroke-linejoin:round;-inkscape-stroke:none"
     d="m 12,2 a 1,1 0 0 0 -1,1 v 9.585938 L 7.7070312,9.2929688 a 1,1 0 0 0 -1.4140625,0 1,1 0 0 0 0,1.4140622 l 5.0000003,5 a 1,1 0 0 0 1.414062,0 l 5,-5 a 1,1 0 0 0 0,-1.4140622 1,1 0 0 0 -1.414062,0 L 13,12.585938 V 3 A 1,1 0 0 0 12,2 Z M 3,14 a 1,1 0 0 0 -1,1 v 1.199219 c 0,1.680198 -0.051647,2.660918 0.4355469,3.617187 0.3834431,0.752568 0.9955197,1.364645 1.7480468,1.748047 C 5.139878,22.051737 6.1206229,22 7.8007812,22 h 8.3984378 c 1.680198,0 2.66091,0.05168 3.617187,-0.435547 0.752557,-0.38341 1.364637,-0.99549 1.748047,-1.748047 C 22.051681,18.860129 22,17.879417 22,16.199219 V 15 a 1,1 0 0 0 -1,-1 1,1 0 0 0 -1,1 v 1.199219 c 0,1.680198 -0.05198,2.381662 -0.21875,2.708984 -0.191789,0.376443 -0.496604,0.681258 -0.873047,0.873047 C 18.580881,19.948022 17.879417,20 16.199219,20 H 7.8007812 C 6.1206229,20 5.4189714,19.947965 5.0917969,19.78125 4.7153452,19.589453 4.4105463,19.284634 4.21875,18.908203 4.0519845,18.580874 4,17.879417 4,16.199219 V 15 A 1,1 0 0 0 3,14 Z"
     id="path3604" />
</svg>
