<?xml version="1.0" encoding="UTF-8" standalone="no"?>
<svg
   width="24"
   height="24"
   viewBox="0 0 24 24"
   fill="none"
   version="1.1"
   id="svg3439"
   sodipodi:docname="Edit.svg"
   inkscape:version="1.2.2 (1:1.2.2+202212051552+b0a8486541)"
   xmlns:inkscape="http://www.inkscape.org/namespaces/inkscape"
   xmlns:sodipodi="http://sodipodi.sourceforge.net/DTD/sodipodi-0.dtd"
   xmlns="http://www.w3.org/2000/svg"
   xmlns:svg="http://www.w3.org/2000/svg">
  <defs
     id="defs3443" />
  <sodipodi:namedview
     id="namedview3441"
     pagecolor="#ffffff"
     bordercolor="#000000"
     borderopacity="0.25"
     inkscape:showpageshadow="2"
     inkscape:pageopacity="0.0"
     inkscape:pagecheckerboard="0"
     inkscape:deskcolor="#d1d1d1"
     showgrid="false"
     inkscape:zoom="32.833333"
     inkscape:cx="12"
     inkscape:cy="12.015228"
     inkscape:window-width="1920"
     inkscape:window-height="1016"
     inkscape:window-x="0"
     inkscape:window-y="0"
     inkscape:window-maximized="1"
     inkscape:current-layer="svg3439" />
  <path
     style="color:#000000;fill:#090909;stroke-linecap:round;stroke-linejoin:round;-inkscape-stroke:none"
     d="m 20,0.88476563 c -0.800917,-10e-9 -1.601747,0.30289687 -2.207031,0.90820307 L 8.2304688,11.355469 C 7.884535,11.701402 7.6490669,11.922921 7.4414062,12.261719 7.2770069,12.530095 7.1555283,12.822918 7.0820312,13.128906 6.9892418,13.515445 7,13.836972 7,14.326172 V 16 a 1.0001,1.0001 0 0 0 1,1 h 1.6738281 c 0.4883869,0 0.8114679,0.01037 1.1972659,-0.08203 0.305957,-0.07349 0.59888,-0.195093 0.867187,-0.359375 0.338874,-0.207724 0.560351,-0.443163 0.90625,-0.789063 l 9.5625,-9.5624998 c 1.210538,-1.2105816 1.210538,-3.2034808 0,-4.4140625 C 21.601747,1.1876625 20.800917,0.88476563 20,0.88476563 Z m 0,1.98828127 c 0.284882,0 0.569854,0.1108614 0.792969,0.3339844 0.44626,0.4462767 0.44626,1.1396607 0,1.5859374 l -9.5625,9.5625003 c -0.3459,0.345899 -0.472384,0.458371 -0.53711,0.498047 -0.08909,0.05424 -0.187847,0.09483 -0.289062,0.11914 C 10.330531,14.990377 10.163008,15 9.6738281,15 H 9 v -0.673828 c 0,-0.4892 0.00961,-0.656608 0.027344,-0.730469 0.024503,-0.102012 0.06424,-0.199439 0.1191406,-0.289062 0.039719,-0.0648 0.1521813,-0.191244 0.4980469,-0.53711 L 19.207031,3.2070313 C 19.430146,2.9839083 19.715118,2.8730469 20,2.8730469 Z M 6.8007812,3 C 5.1206229,3 4.1398706,2.9482961 3.1835938,3.4355469 2.4310548,3.8189819 1.8189819,4.4310548 1.4355469,5.1835937 0.94829614,6.1398706 1,7.1206229 1,8.8007813 v 8.3984377 c 0,1.680198 -0.051647,2.660918 0.4355469,3.617187 0.3834431,0.752568 0.9955197,1.364645 1.7480469,1.748047 C 4.139878,23.051737 5.1206229,23 6.8007812,23 h 8.3984378 c 1.680198,0 2.66091,0.05168 3.617187,-0.435547 0.752557,-0.38341 1.364637,-0.99549 1.748047,-1.748047 C 21.051681,19.860129 21,18.879417 21,17.199219 V 13 a 1,1 0 0 0 -1,-1 1,1 0 0 0 -1,1 v 4.199219 c 0,1.680198 -0.05198,2.381662 -0.21875,2.708984 -0.191789,0.376443 -0.496604,0.681258 -0.873047,0.873047 C 17.580881,20.948022 16.879417,21 15.199219,21 H 6.8007812 C 5.1206229,21 4.4189714,20.947965 4.0917969,20.78125 3.7153452,20.589453 3.4105463,20.284634 3.21875,19.908203 3.0519845,19.580874 3,18.879417 3,17.199219 V 8.8007813 C 3,7.1206229 3.0520414,6.4189787 3.21875,6.0917969 3.4105544,5.7153569 3.7153569,5.4105544 4.0917969,5.21875 4.4189787,5.0520414 5.1206229,5 6.8007812,5 H 11 A 1,1 0 0 0 12,4 1,1 0 0 0 11,3 Z"
     id="path3437" />
</svg>
