<?xml version="1.0" encoding="UTF-8" standalone="no"?>
<svg
   width="24"
   height="24"
   viewBox="0 0 24 24"
   fill="none"
   version="1.1"
   id="svg3259"
   sodipodi:docname="Eye.svg"
   inkscape:version="1.2.2 (1:1.2.2+202212051552+b0a8486541)"
   xmlns:inkscape="http://www.inkscape.org/namespaces/inkscape"
   xmlns:sodipodi="http://sodipodi.sourceforge.net/DTD/sodipodi-0.dtd"
   xmlns="http://www.w3.org/2000/svg"
   xmlns:svg="http://www.w3.org/2000/svg">
  <defs
     id="defs3263" />
  <sodipodi:namedview
     id="namedview3261"
     pagecolor="#ffffff"
     bordercolor="#000000"
     borderopacity="0.25"
     inkscape:showpageshadow="2"
     inkscape:pageopacity="0.0"
     inkscape:pagecheckerboard="0"
     inkscape:deskcolor="#d1d1d1"
     showgrid="false"
     inkscape:zoom="32.833333"
     inkscape:cx="12"
     inkscape:cy="12.015228"
     inkscape:window-width="1920"
     inkscape:window-height="1016"
     inkscape:window-x="0"
     inkscape:window-y="0"
     inkscape:window-maximized="1"
     inkscape:current-layer="svg3259" />
  <path
     style="color:#000000;fill:#090909;stroke-linecap:round;stroke-linejoin:round;-inkscape-stroke:none"
     d="M 12,4 C 6.3067145,4 2.771719,8.8558463 1.5742187,10.751953 a 1.0001,1.0001 0 0 0 0,0.002 c -0.1361308,0.215622 -0.2960503,0.471449 -0.3710937,0.798828 -0.079795,0.348109 -0.079795,0.546423 0,0.894532 0.075043,0.327379 0.2349629,0.583206 0.3710937,0.798828 a 1.0001,1.0001 0 0 0 0,0.002 C 2.7717299,15.144213 6.3067197,20 12,20 c 5.69328,0 9.228272,-4.855773 10.425781,-6.751953 0.136163,-0.215641 0.296076,-0.473341 0.371094,-0.800781 a 1.0001,1.0001 0 0 0 0.002,0 c 0.07967,-0.34791 0.07967,-0.546622 0,-0.894532 a 1.0001,1.0001 0 0 0 -0.002,0 c -0.07502,-0.32744 -0.234931,-0.58514 -0.371094,-0.800781 C 21.228283,8.855833 17.693286,4 12,4 Z m 0,2 c 4.516704,0 7.681075,4.152516 8.734375,5.820313 0.136237,0.215758 0.112099,0.174528 0.113281,0.179687 -0.0012,0.0052 0.02296,-0.03607 -0.113281,0.179688 C 19.681086,13.847504 16.516709,18 12,18 7.4832905,18 4.3189316,13.847517 3.265625,12.179688 3.1293961,11.96391 3.1535403,12.00522 3.1523438,12 3.1535403,11.99478 3.1293961,12.03609 3.265625,11.820313 4.3189425,10.152503 7.4832957,6 12,6 Z"
     id="path3255" />
  <path
     style="color:#000000;fill:#090909;stroke-linecap:round;stroke-linejoin:round;-inkscape-stroke:none"
     d="m 12,8 c -2.1973046,0 -4,1.8026954 -4,4 0,2.197305 1.8026954,4 4,4 2.197305,0 4,-1.802695 4,-4 0,-2.1973046 -1.802695,-4 -4,-4 z m 0,2 c 1.116492,0 2,0.883508 2,2 0,1.116492 -0.883508,2 -2,2 -1.116492,0 -2,-0.883508 -2,-2 0,-1.116492 0.883508,-2 2,-2 z"
     id="path3257" />
</svg>
