<svg width="24" height="24" viewBox="0 0 24 24" fill="none" xmlns="http://www.w3.org/2000/svg">
<path fill-rule="evenodd" clip-rule="evenodd" d="M8.27624 0.0606782C8.17544 0.0987148 8.02292 0.18323 7.93735 0.248516C7.65487 0.464026 7.56527 0.691307 7.34866 1.74212L7.14672 2.72155L6.81852 2.848C6.63802 2.9175 6.42281 3.00971 6.34029 3.05281C6.25773 3.09591 6.1581 3.13118 6.11885 3.13118C6.07961 3.13118 5.68296 2.88993 5.2374 2.59506C4.3742 2.02371 4.13878 1.92442 3.76811 1.97522C3.43906 2.02034 3.29212 2.11934 2.72439 2.67864C2.1604 3.23418 2.02823 3.42713 1.98233 3.76214C1.93165 4.13224 2.03114 4.36815 2.60206 5.23126C2.89683 5.67696 3.13801 6.07374 3.13801 6.113C3.13801 6.15226 3.10275 6.25192 3.05967 6.33451C3.01658 6.41706 2.9244 6.63233 2.85492 6.8129L2.72847 7.14121L1.778 7.33758C1.25523 7.44555 0.761901 7.56111 0.68168 7.59432C0.44444 7.69257 0.158719 8.01408 0.0693087 8.28334C0.00291878 8.48332 -0.00838063 8.66337 0.00488797 9.31089C0.0230327 10.1963 0.0659798 10.3398 0.400742 10.6339C0.646469 10.8497 0.75304 10.8853 1.73145 11.079C2.20851 11.1735 2.63198 11.2603 2.67249 11.2719C2.71299 11.2834 2.78234 11.4035 2.8266 11.5386C2.87086 11.6738 2.96571 11.911 3.0374 12.0658L3.16769 12.3472L2.61547 13.1797C2.31175 13.6376 2.03906 14.1019 2.00952 14.2115C1.94515 14.4502 1.97825 14.791 2.08923 15.0322C2.20598 15.2861 3.16544 16.238 3.42167 16.3543C3.67551 16.4695 4.10062 16.4808 4.34681 16.3789C4.4427 16.3392 4.87437 16.0724 5.30614 15.786L6.09114 15.2651L6.45483 15.4299C6.65485 15.5205 6.89485 15.6192 6.9882 15.6493L7.15784 15.7038L7.33455 16.605C7.54225 17.6645 7.62669 17.8917 7.90294 18.135C8.19794 18.3947 8.37723 18.4295 9.33201 18.4123L10.1552 18.3974L10.3845 18.2555C10.7651 18.0199 10.8529 17.8239 11.0804 16.7021L11.2786 15.7251L11.7445 15.5351C12.1421 15.3729 12.222 15.322 12.2898 15.1878C12.3573 15.054 12.3603 15.0088 12.3098 14.8848C12.2334 14.6974 12.0574 14.6317 11.8225 14.703C11.3418 14.8489 10.7691 15.0816 10.6896 15.1633C10.6247 15.23 10.5474 15.5239 10.4063 16.24C10.2996 16.7817 10.1908 17.2934 10.1646 17.3772C10.081 17.6437 9.99469 17.6704 9.21911 17.6704H8.52262L8.39421 17.5415C8.27934 17.4261 8.24431 17.3036 8.06254 16.3807C7.95076 15.8132 7.83181 15.2937 7.79824 15.2264C7.75056 15.1309 7.64141 15.0697 7.30126 14.948C7.06153 14.8622 6.69662 14.7108 6.49033 14.6115C6.24657 14.4941 6.07797 14.4401 6.00881 14.4572C5.95025 14.4716 5.49021 14.7573 4.98652 15.092C4.25061 15.581 4.0385 15.7006 3.90698 15.7006C3.76412 15.7006 3.68634 15.6455 3.29527 15.2671C2.84399 14.8303 2.71604 14.6579 2.71604 14.4863C2.71604 14.435 3.00068 13.9643 3.34862 13.4405C3.69651 12.9165 3.98134 12.4423 3.98158 12.3866C3.98176 12.3308 3.87646 12.0514 3.74752 11.7655C3.61859 11.4796 3.5131 11.2358 3.5131 11.2237C3.5131 11.1148 3.29892 10.6712 3.22799 10.6333C3.17815 10.6066 2.66972 10.4907 2.09819 10.3757C1.5267 10.2607 1.00899 10.1338 0.947756 10.0937C0.778968 9.98302 0.746851 9.83847 0.747039 9.19007C0.747179 8.68495 0.76087 8.57271 0.837762 8.4466C0.938331 8.2816 0.877474 8.29938 2.40416 7.98838C2.88614 7.89021 3.22808 7.79674 3.2812 7.74862C3.32912 7.70524 3.425 7.49808 3.49425 7.28824C3.5635 7.07841 3.70153 6.74358 3.80102 6.54425C3.90056 6.34492 3.98195 6.12998 3.98195 6.06666C3.98195 5.9979 3.72525 5.55793 3.34539 4.97565C2.78937 4.12328 2.71239 3.98197 2.73691 3.85862C2.77343 3.67523 3.66318 2.77164 3.84706 2.73126C4.01397 2.69458 4.11365 2.74861 5.11799 3.41981C5.63532 3.76556 5.99428 3.9754 6.06845 3.9754C6.134 3.9754 6.3507 3.89398 6.54996 3.79441C6.74923 3.69489 7.08394 3.55681 7.29371 3.48754C7.50348 3.41826 7.71165 3.32118 7.75633 3.27179C7.80997 3.21246 7.91382 2.80625 8.06184 2.07657C8.18514 1.4686 8.30995 0.942367 8.33916 0.907145C8.4567 0.765504 8.65906 0.731736 9.29778 0.74726C10.1602 0.768178 10.1059 0.704908 10.3574 1.98211C10.4641 2.52382 10.573 3.03597 10.5994 3.12026C10.6494 3.27972 10.7585 3.35589 11.0851 3.45958C11.1883 3.49232 11.5014 3.62177 11.7809 3.74727C12.0604 3.87273 12.3347 3.97521 12.3904 3.97502C12.4461 3.97479 12.9202 3.68987 13.4439 3.34186C13.9676 2.99381 14.4381 2.70908 14.4894 2.70908C14.6609 2.70908 14.8333 2.83707 15.2699 3.28849C15.6482 3.67969 15.7033 3.7575 15.7033 3.9004C15.7033 4.03196 15.5838 4.24414 15.0949 4.9803C14.7603 5.48415 14.4747 5.94434 14.4603 6.00292C14.4432 6.0721 14.4972 6.24076 14.6146 6.48459C14.7138 6.69096 14.8652 7.05599 14.951 7.29579C15.0726 7.63606 15.1338 7.74524 15.2293 7.79294C15.2966 7.82652 15.8159 7.94551 16.3832 8.05732C17.3058 8.23916 17.4282 8.27419 17.5436 8.3891L17.6725 8.51756V9.21427C17.6725 9.99011 17.6457 10.0764 17.3793 10.16C17.2956 10.1863 16.784 10.2953 16.2425 10.4024C15.1585 10.6166 15.1012 10.6431 15.0022 10.977C14.9699 11.0858 14.872 11.3584 14.7847 11.583C14.6109 12.0295 14.6171 12.1534 14.82 12.2956C15.0967 12.4895 15.305 12.3243 15.5491 11.7171L15.7271 11.2746L16.7041 11.0762C17.8259 10.8486 18.0218 10.7607 18.2574 10.38L18.3992 10.1506L18.4141 9.32721C18.4314 8.37212 18.3966 8.19277 18.1369 7.89767C17.8937 7.62133 17.6666 7.53686 16.6075 7.32909L15.7065 7.15232L15.652 6.98264C15.6219 6.88926 15.5233 6.64917 15.4327 6.44909L15.268 6.08528L15.7887 5.30002C16.075 4.86811 16.3417 4.43629 16.3814 4.34038C16.4832 4.09411 16.4719 3.66886 16.3568 3.41493C16.2405 3.15862 15.2889 2.19884 15.0352 2.08206C14.794 1.97104 14.4533 1.93793 14.2147 2.00233C14.1051 2.03187 13.641 2.30465 13.1832 2.60847L12.351 3.16087L12.0697 3.03053C11.915 2.95882 11.6778 2.86394 11.5427 2.81967C11.4076 2.77539 11.2876 2.70603 11.276 2.6655C11.2644 2.62498 11.1777 2.20137 11.0833 1.72416C10.8896 0.745431 10.854 0.638825 10.6383 0.393018C10.3394 0.0525175 10.2057 0.0140588 9.28001 0.00214597C8.6509 -0.00592098 8.41676 0.00772717 8.27624 0.0606782ZM8.52192 5.00515C7.71141 5.1536 6.86053 5.5757 6.33795 6.08875C6.11009 6.31242 6.08214 6.47038 6.23588 6.66587C6.40364 6.87927 6.60205 6.83921 7.01226 6.50908C7.4008 6.19644 7.88372 5.94702 8.3423 5.82221C8.81875 5.69253 9.71727 5.7037 10.1697 5.84491C11.2622 6.18602 12.0592 6.90844 12.4664 7.9267C12.6583 8.40673 12.7197 8.82181 12.6895 9.43555C12.6645 9.94396 12.5923 10.2365 12.3567 10.7838C12.1999 11.1482 12.4937 11.4521 12.8651 11.3095C13.058 11.2355 13.3851 10.2911 13.4442 9.6376C13.6323 7.55909 12.3801 5.71326 10.3818 5.12334C10.0441 5.02363 9.83823 4.9954 9.35034 4.98194C9.01511 4.97265 8.64232 4.98311 8.52192 5.00515ZM8.95144 6.93419C8.43453 6.99042 7.98049 7.2117 7.59884 7.59347C7.14583 8.04663 6.93213 8.5707 6.93222 9.22829C6.93232 9.87707 7.14518 10.3818 7.61159 10.8393C8.2197 11.4357 8.98717 11.6481 9.78099 11.4396C10.6068 11.2228 11.2262 10.6051 11.4418 9.7836C11.6522 8.98188 11.442 8.21678 10.8436 7.60623C10.332 7.08432 9.68487 6.85445 8.95144 6.93419ZM5.30464 7.68141C5.09454 7.87717 4.94231 8.70136 4.98028 9.43728C5.07129 11.2009 6.23944 12.7229 7.91368 13.2592C8.66577 13.5002 9.55134 13.5279 10.3115 13.3343C10.6988 13.2356 11.5146 12.8422 11.7095 12.66C11.8975 12.4843 11.9104 12.2774 11.7436 12.1106C11.588 11.9549 11.4103 11.9643 11.1295 12.143C9.5475 13.1496 7.45603 12.7631 6.39627 11.2685C6.13643 10.902 5.98551 10.5967 5.85085 10.1651C5.71156 9.71864 5.69848 8.81149 5.82474 8.35388C5.86848 8.19535 5.90426 8.00381 5.90426 7.9282C5.90426 7.6377 5.52087 7.47988 5.30464 7.68141ZM9.76575 7.77592C10.4501 8.03204 10.8766 8.79409 10.7308 9.50041C10.6581 9.85306 10.5494 10.058 10.306 10.3015C9.33745 11.2704 7.68591 10.5824 7.68591 9.2101C7.68591 8.85459 7.74217 8.67425 7.95372 8.35162C8.11285 8.10891 8.46163 7.83693 8.74083 7.73788C8.98215 7.65224 9.48514 7.67091 9.76575 7.77592ZM17.0865 11.7089C16.7161 11.8799 16.6176 12.0635 16.45 12.897L16.3394 13.4467L16.0859 13.5496C15.9464 13.6063 15.8077 13.6526 15.7776 13.6526C15.7476 13.6526 15.5339 13.5256 15.3029 13.3704C14.7253 12.9823 14.6182 12.9335 14.3445 12.9335C13.9991 12.9335 13.8499 13.0178 13.4201 13.4561C12.9981 13.8864 12.9371 13.9988 12.9371 14.3454C12.9371 14.6133 13 14.7489 13.4006 15.3452L13.6818 15.7635L13.6089 15.9314C13.5687 16.0237 13.4914 16.2324 13.437 16.3951C13.3469 16.665 13.3444 16.702 13.4089 16.8172C13.4479 16.8867 13.5405 16.9728 13.6149 17.0085C13.734 17.0658 13.7684 17.0636 13.9046 16.9902C14.0226 16.9266 14.0777 16.8503 14.1376 16.6673C14.1807 16.5354 14.2764 16.3068 14.3502 16.1593C14.5583 15.7428 14.5416 15.6686 14.0858 14.9859C13.8666 14.6576 13.6873 14.3616 13.6873 14.3282C13.6873 14.2509 14.2563 13.6839 14.334 13.6839C14.366 13.6839 14.6607 13.8633 14.9888 14.0825C15.6714 14.5385 15.7455 14.5552 16.1618 14.347C16.3093 14.2732 16.5422 14.1761 16.6793 14.1312C16.9888 14.0297 17.0179 13.9717 17.1836 13.1211C17.2514 12.7728 17.3285 12.4615 17.3548 12.4293C17.3865 12.3905 17.5416 12.3707 17.8132 12.3707C18.0848 12.3707 18.2399 12.3905 18.2715 12.4293C18.2979 12.4615 18.375 12.7728 18.4428 13.1211C18.6115 13.9871 18.6287 14.0192 18.9925 14.151C19.1562 14.2102 19.3896 14.3088 19.5112 14.3699C19.8634 14.5471 19.9446 14.5262 20.6263 14.0825C20.9632 13.8633 21.2652 13.6839 21.2973 13.6839C21.373 13.6839 21.9391 14.2546 21.9391 14.3308C21.9391 14.3628 21.7598 14.6576 21.5406 14.9859C21.094 15.6547 21.0705 15.7466 21.2515 16.1125C21.3117 16.2342 21.41 16.4676 21.4698 16.6311C21.6029 16.9948 21.6362 17.0126 22.5017 17.1813C22.8499 17.2492 23.1611 17.3263 23.1933 17.3526C23.2321 17.3843 23.2519 17.5395 23.2519 17.8112C23.2519 18.0828 23.2321 18.2379 23.1933 18.2696C23.1611 18.2959 22.8077 18.3829 22.408 18.4628C21.5958 18.6252 21.5768 18.6366 21.4438 19.0432C21.3996 19.1781 21.3137 19.3881 21.2528 19.5098C21.0701 19.8747 21.0936 19.967 21.5406 20.6364C21.7598 20.9647 21.9391 21.2607 21.9391 21.2941C21.9391 21.3714 21.37 21.9384 21.2924 21.9384C21.2604 21.9384 20.9657 21.759 20.6375 21.5398C19.9683 21.0927 19.8761 21.0691 19.5112 21.2519C19.3896 21.3128 19.1797 21.3988 19.0449 21.443C18.6384 21.576 18.627 21.595 18.4646 22.4074C18.3847 22.8073 18.2978 23.1608 18.2715 23.193C18.2398 23.2318 18.0848 23.2517 17.8132 23.2517C17.5416 23.2517 17.3865 23.2318 17.3548 23.193C17.3285 23.1608 17.2514 22.8495 17.1836 22.5012C17.0149 21.6354 16.9971 21.6021 16.6335 21.469C16.47 21.4091 16.2367 21.3108 16.1151 21.2506C15.7493 21.0695 15.6575 21.0931 14.9888 21.5398C14.6607 21.759 14.3648 21.9384 14.3314 21.9384C14.298 21.9384 14.1364 21.803 13.9725 21.6375C13.7592 21.4223 13.6809 21.3111 13.6976 21.2473C13.7104 21.1982 13.8927 20.9016 14.1026 20.5882C14.538 19.9381 14.5532 19.8692 14.3502 19.463C14.2764 19.3155 14.1793 19.0825 14.1344 18.9454C14.033 18.6358 13.9749 18.6067 13.1246 18.441C12.7765 18.3731 12.4646 18.2954 12.4314 18.2683C12.3884 18.2331 12.375 18.0969 12.3845 17.7925L12.3979 17.3661L12.5725 17.284C12.8956 17.132 12.9699 16.859 12.7484 16.6375C12.6319 16.5209 12.4105 16.5194 12.1635 16.6335C11.7443 16.827 11.6239 17.0927 11.6253 17.8214C11.6265 18.421 11.6951 18.6426 11.9446 18.8526C12.1217 19.0017 12.2466 19.0428 12.9224 19.1747L13.4468 19.277L13.5514 19.5349C13.6089 19.6766 13.656 19.8173 13.656 19.8474C13.656 19.8774 13.529 20.0911 13.3739 20.3222C12.9853 20.901 12.9371 21.0071 12.9371 21.2841C12.9371 21.6271 13.0306 21.7858 13.499 22.2374C13.9455 22.6681 14.0642 22.722 14.4664 22.6766C14.6288 22.6583 14.8013 22.5701 15.2183 22.2923L15.7594 21.9318L16.0539 22.057L16.3484 22.1822L16.4504 22.7052C16.5819 23.3795 16.6231 23.5045 16.7721 23.6816C16.9835 23.933 17.2026 24 17.8132 24C18.4238 24 18.6428 23.933 18.8543 23.6816C19.0034 23.5044 19.0444 23.3796 19.1763 22.7033L19.2787 22.1784L19.5712 22.054L19.8637 21.9297L20.4116 22.2947C20.9094 22.6263 20.9845 22.6616 21.2321 22.6795C21.6072 22.7066 21.7603 22.6225 22.238 22.1268C22.6685 21.68 22.7224 21.5613 22.677 21.159C22.6587 20.9965 22.5705 20.8238 22.2918 20.4052L21.9303 19.8623L22.0546 19.5697L22.179 19.2771L22.7037 19.1747C23.3798 19.0428 23.5046 19.0017 23.6817 18.8526C23.933 18.6411 24 18.4219 24 17.8112C24 17.2004 23.933 16.9812 23.6817 16.7697C23.5047 16.6207 23.3797 16.5794 22.7056 16.4479L22.1828 16.3459L22.0576 16.0513L21.9325 15.7568L22.2929 15.2155C22.5706 14.7983 22.6587 14.6257 22.677 14.4633C22.7224 14.061 22.6685 13.9423 22.238 13.4955C21.7865 13.027 21.6279 12.9335 21.285 12.9335C21.0081 12.9335 20.902 12.9817 20.3234 13.3704C20.0924 13.5256 19.8788 13.6526 19.8487 13.6526C19.8187 13.6526 19.678 13.6055 19.5363 13.548L19.2786 13.4433L19.1763 12.9187C19.0444 12.2427 19.0033 12.1179 18.8543 11.9407C18.6428 11.6893 18.4238 11.6223 17.8132 11.6223C17.388 11.6223 17.2344 11.6406 17.0865 11.7089ZM17.1942 15.7912C16.8166 15.9119 16.5596 16.0745 16.2822 16.3679C15.8946 16.7778 15.7033 17.2548 15.7033 17.8112C15.7033 18.3658 15.8947 18.8446 16.2788 19.2509C16.8371 19.8413 17.67 20.0652 18.4295 19.829C18.8078 19.7114 19.177 19.4688 19.2317 19.3019C19.2864 19.1348 19.191 18.9345 19.017 18.8511C18.8957 18.7929 18.8576 18.8017 18.5336 18.9618C17.8781 19.2858 17.3159 19.2194 16.8607 18.764C15.8341 17.737 16.9341 16.0356 18.2953 16.5451C18.7576 16.7181 19.1729 17.2751 19.1729 17.7222C19.1729 18.1218 19.5501 18.3291 19.8079 18.0712C19.8948 17.9844 19.923 17.9061 19.923 17.7528C19.923 17.4644 19.802 17.0361 19.6409 16.7545C19.4792 16.4718 19.0793 16.0787 18.8178 15.9455C18.323 15.6933 17.6886 15.633 17.1942 15.7912Z" fill="#090909"/>
<path fill-rule="evenodd" clip-rule="evenodd" d="M8.52192 5.00515C7.71141 5.15359 6.86053 5.5757 6.33795 6.08875C6.11008 6.31242 6.08214 6.47038 6.23588 6.66586C6.40363 6.87926 6.60205 6.83921 7.01225 6.50908C7.40079 6.19643 7.88372 5.94702 8.3423 5.82221C8.81875 5.69253 9.71727 5.70369 10.1697 5.84491C11.2622 6.18602 12.0592 6.90844 12.4664 7.9267C12.6583 8.40673 12.7197 8.8218 12.6895 9.43555C12.6645 9.94395 12.5923 10.2365 12.3567 10.7838C12.1999 11.1482 12.4937 11.4521 12.8651 11.3095C13.058 11.2355 13.3851 10.2911 13.4442 9.6376C13.6323 7.55909 12.3801 5.71326 10.3818 5.12334C10.0441 5.02363 9.83823 4.9954 9.35034 4.98194C9.01511 4.97265 8.64232 4.98311 8.52192 5.00515ZM8.95144 6.93418C8.43453 6.99042 7.98049 7.2117 7.59884 7.59347C7.14583 8.04663 6.93213 8.5707 6.93222 9.22829C6.93231 9.87707 7.14517 10.3818 7.61159 10.8393C8.2197 11.4357 8.98717 11.6481 9.78098 11.4396C10.6068 11.2228 11.2262 10.6051 11.4418 9.7836C11.6522 8.98188 11.442 8.21678 10.8436 7.60623C10.332 7.08431 9.68487 6.85445 8.95144 6.93418ZM5.30464 7.68141C5.09454 7.87717 4.94231 8.70136 4.98028 9.43728C5.07129 11.2009 6.23944 12.7229 7.91368 13.2592C8.66577 13.5002 9.55134 13.5279 10.3115 13.3343C10.6988 13.2356 11.5146 12.8422 11.7095 12.66C11.8975 12.4843 11.9104 12.2774 11.7436 12.1106C11.588 11.9549 11.4103 11.9643 11.1295 12.143C9.54749 13.1496 7.45603 12.7631 6.39627 11.2685C6.13643 10.9019 5.98551 10.5967 5.85085 10.1651C5.71156 9.71864 5.69848 8.81148 5.82474 8.35387C5.86848 8.19535 5.90426 8.00381 5.90426 7.9282C5.90426 7.6377 5.52087 7.47988 5.30464 7.68141ZM9.76575 7.77591C10.4501 8.03204 10.8766 8.79409 10.7308 9.50041C10.6581 9.85306 10.5494 10.058 10.306 10.3015C9.33745 11.2704 7.68591 10.5824 7.68591 9.2101C7.68591 8.85459 7.74217 8.67425 7.95372 8.35162C8.11284 8.10891 8.46163 7.83693 8.74083 7.73788C8.98215 7.65224 9.48514 7.6709 9.76575 7.77591ZM17.1942 15.7912C16.8166 15.9119 16.5596 16.0745 16.2822 16.3679C15.8946 16.7778 15.7033 17.2548 15.7033 17.8111C15.7033 18.3658 15.8947 18.8446 16.2788 19.2509C16.8371 19.8413 17.67 20.0652 18.4295 19.829C18.8078 19.7114 19.177 19.4688 19.2316 19.3019C19.2864 19.1348 19.191 18.9345 19.017 18.8511C18.8957 18.7929 18.8576 18.8016 18.5336 18.9618C17.8781 19.2858 17.3159 19.2193 16.8606 18.764C15.8341 17.737 16.9341 16.0356 18.2953 16.5451C18.7576 16.7181 19.1729 17.2751 19.1729 17.7222C19.1729 18.1218 19.5501 18.3291 19.8079 18.0712C19.8948 17.9844 19.923 17.9061 19.923 17.7528C19.923 17.4644 19.802 17.0361 19.6409 16.7545C19.4792 16.4718 19.0793 16.0787 18.8178 15.9455C18.323 15.6933 17.6886 15.633 17.1942 15.7912Z" fill="#6FB955"/>
<path fill-rule="evenodd" clip-rule="evenodd" d="M8.95144 6.93418C8.43453 6.99042 7.98049 7.2117 7.59884 7.59347C7.14583 8.04663 6.93213 8.5707 6.93222 9.22829C6.93231 9.87707 7.14517 10.3818 7.61159 10.8393C8.2197 11.4357 8.98717 11.6481 9.78098 11.4396C10.6068 11.2228 11.2262 10.6051 11.4418 9.7836C11.6522 8.98188 11.442 8.21678 10.8436 7.60623C10.332 7.08431 9.68487 6.85445 8.95144 6.93418ZM9.76575 7.77592C10.4501 8.03204 10.8766 8.79409 10.7308 9.50041C10.6581 9.85306 10.5494 10.058 10.306 10.3015C9.33745 11.2704 7.68591 10.5824 7.68591 9.2101C7.68591 8.85459 7.74217 8.67425 7.95372 8.35162C8.11284 8.10891 8.46163 7.83693 8.74083 7.73788C8.98215 7.65224 9.48514 7.6709 9.76575 7.77592Z" fill="#009DEC"/>
</svg>
