<?xml version="1.0" encoding="UTF-8" standalone="no"?>
<svg
   width="24"
   height="24"
   viewBox="0 0 24 24"
   fill="none"
   version="1.1"
   id="svg3072"
   sodipodi:docname="Gift.svg"
   inkscape:version="1.2.2 (1:1.2.2+202212051552+b0a8486541)"
   xmlns:inkscape="http://www.inkscape.org/namespaces/inkscape"
   xmlns:sodipodi="http://sodipodi.sourceforge.net/DTD/sodipodi-0.dtd"
   xmlns="http://www.w3.org/2000/svg"
   xmlns:svg="http://www.w3.org/2000/svg">
  <defs
     id="defs3076" />
  <sodipodi:namedview
     id="namedview3074"
     pagecolor="#ffffff"
     bordercolor="#000000"
     borderopacity="0.25"
     inkscape:showpageshadow="2"
     inkscape:pageopacity="0.0"
     inkscape:pagecheckerboard="0"
     inkscape:deskcolor="#d1d1d1"
     showgrid="false"
     inkscape:zoom="32.833333"
     inkscape:cx="12"
     inkscape:cy="12.015228"
     inkscape:window-width="1920"
     inkscape:window-height="1016"
     inkscape:window-x="0"
     inkscape:window-y="0"
     inkscape:window-maximized="1"
     inkscape:current-layer="svg3072" />
  <path
     style="color:#000000;fill:#090909;stroke-linecap:round;stroke-linejoin:round;-inkscape-stroke:none"
     d="M 8.4648438,1 C 7.6742365,1 6.9152411,1.3207629 6.3613281,1.8847656 5.8074006,2.4487528 5.5,3.2094674 5.5,4 5.5,4.3736086 5.7752253,4.6574033 5.90625,5 H 3.5996094 C 3.0395599,5 2.6202543,4.9494939 2.0917969,5.21875 1.7156114,5.4104414 1.4104414,5.7156114 1.21875,6.0917969 0.94949391,6.6202543 1,7.0395599 1,7.5996094 V 9.4003906 C 1,9.9604401 0.94946462,10.379713 1.21875,10.908203 1.4104865,11.284557 1.7158769,11.589654 2.0917969,11.78125 2.4100652,11.943427 2.7062781,11.901248 3,11.912109 v 6.888672 c 0,1.120099 -0.052124,1.818152 0.3261719,2.560547 0.2875466,0.564326 0.7479938,1.024944 1.3125,1.3125 C 5.3810444,23.052112 6.0791099,23 7.1992187,23 H 12 16.800781 c 1.120099,0 1.818146,0.05214 2.560547,-0.326172 0.564441,-0.287545 1.024955,-0.748059 1.3125,-1.3125 C 21.052144,20.618927 21,19.92088 21,18.800781 v -6.888672 c 0.293731,-0.01086 0.589949,0.03132 0.908203,-0.130859 0.376089,-0.191641 0.681406,-0.496958 0.873047,-0.873047 C 23.050566,10.379702 23,9.9604401 23,9.4003906 V 7.5996094 C 23,7.0395599 23.050536,6.6202653 22.78125,6.0917969 22.589654,5.7158769 22.284557,5.4104865 21.908203,5.21875 21.379769,4.9494932 20.96049,5 20.400391,5 H 18.09375 C 18.224771,4.6574226 18.5,4.3736383 18.5,4 18.5,3.2094045 18.192438,2.4487109 17.638672,1.8847656 17.084759,1.3208093 16.325778,1 15.535156,1 13.771666,1 12.64839,2.2365601 12,3.3496094 11.351609,2.23656 10.228337,1 8.4648438,1 Z m 0,2 C 9.3550011,3 9.9269509,3.6306966 10.382813,4.4746094 10.52222,4.7326868 10.48766,4.7622088 10.578125,5 H 8.4648438 C 8.213512,5 7.9718888,4.8990472 7.7890625,4.7128906 7.6062308,4.5267386 7.5,4.2703263 7.5,4 7.5,3.7296737 7.6062308,3.4732614 7.7890625,3.2871094 7.9718888,3.1009528 8.213512,3 8.4648438,3 Z m 7.0703122,0 c 0.251377,0 0.492895,0.1009064 0.675781,0.2871094 C 16.393771,3.4733033 16.5,3.7297366 16.5,4 16.5,4.2702634 16.393771,4.5266967 16.210937,4.7128906 16.028051,4.8990936 15.786533,5 15.535156,5 H 13.421875 C 13.51234,4.7622087 13.47778,4.7326869 13.617188,4.4746094 14.073048,3.6306963 14.645006,3 15.535156,3 Z M 3,7 c -0.1006378,0.051276 0.03956,0 0.5996094,0 H 8.4648438 11 v 3 H 4 3.5996094 C 3.0395599,10 2.8993512,9.9487134 3,10 3.0513056,10.100691 3,9.9604401 3,9.4003906 V 7.5996094 C 3,7.0395599 3.0512763,6.8993622 3,7 Z m 10,0 h 2.535156 4.865235 C 20.96049,7 21.100634,7.051277 21,7 c -0.05129,-0.1006488 0,0.03956 0,0.5996094 V 9.4003906 C 21,9.9604401 20.948684,10.100702 21,10 c 0.100645,-0.051287 -0.03951,0 -0.599609,0 H 20 13 Z m -8,5 h 6 v 9 H 7.1992187 C 6.0791099,21 5.6601416,20.948341 5.546875,20.890625 5.3587219,20.794781 5.205308,20.641399 5.109375,20.453125 5.0516909,20.339921 5,19.92088 5,18.800781 Z m 8,0 h 6 v 6.800781 c 0,1.120099 -0.05169,1.539146 -0.109375,1.652344 -0.09585,0.188158 -0.249342,0.341646 -0.4375,0.4375 C 18.339927,20.948309 17.92088,21 16.800781,21 H 13 Z"
     id="path3070" />
</svg>
