<svg width="24" height="24" viewBox="0 0 24 24" fill="none" xmlns="http://www.w3.org/2000/svg">
<path fill-rule="evenodd" clip-rule="evenodd" d="M10.5586 0.0753291C10.2969 0.211568 10.2628 0.385157 10.2935 1.42493C10.3139 2.1159 10.3409 2.38399 10.4177 2.66009C10.7373 3.80915 11.5341 4.65892 12.6466 5.0373C13.0197 5.16419 13.0318 5.16509 14.6525 5.18298L16.283 5.20096V7.60617V10.0114L15.9193 10.0117C14.9353 10.0124 13.8603 10.3119 12.9869 10.8284C12.3403 11.211 12.1916 11.4924 12.4631 11.8204C12.6545 12.0517 12.8573 12.0265 13.379 11.7068C14.2243 11.1887 14.9363 10.9892 15.9311 10.9918C16.7584 10.994 17.2498 11.1039 18.0326 11.4618C18.7556 11.7924 19.5452 12.4951 20.0122 13.2235C20.1571 13.4496 20.3216 13.6673 20.3777 13.7072C20.659 13.9075 21.0689 13.6769 21.0688 13.3185C21.0688 12.852 20.0819 11.6552 19.1962 11.0476C18.7594 10.748 18.0557 10.4065 17.5968 10.2716L17.2448 10.1681L17.2319 9.39807L17.219 8.62801H18.503C19.9202 8.62801 20.251 8.58102 20.7557 8.30788C21.0886 8.12771 21.6251 7.57135 21.8081 7.21635C22.0443 6.75845 22.0996 6.42754 22.1004 5.46996C22.1012 4.55154 22.074 4.41998 21.8597 4.30735C21.6744 4.2099 18.7942 4.21047 18.3413 4.30807C18.0371 4.37366 17.6508 4.54405 17.4018 4.72251C17.3333 4.77164 17.2647 4.81181 17.2493 4.81181C17.234 4.81181 17.2214 4.39665 17.2214 3.88924C17.2214 3.12581 17.2052 2.90156 17.1279 2.58935C16.8806 1.59117 16.232 0.786097 15.3211 0.346279C14.6734 0.033494 14.6187 0.0267679 12.5762 0.0074007C10.8667 -0.00877045 10.7101 -0.00352316 10.5586 0.0753291ZM14.3713 1.01788C15.2152 1.19968 15.9361 1.86751 16.1898 2.70255C16.2623 2.94125 16.283 3.14546 16.283 3.62425V4.23938L14.8402 4.23866C13.7193 4.23814 13.3303 4.22187 13.0967 4.16592C12.281 3.97043 11.576 3.29172 11.3361 2.4709C11.2569 2.19967 11.1807 1.1566 11.2306 1.02456C11.2563 0.95649 11.4163 0.947999 12.6569 0.948715C13.6879 0.949335 14.1374 0.967462 14.3713 1.01788ZM21.1547 5.80302C21.1401 6.38051 21.1312 6.42935 20.9848 6.73121C20.8085 7.0948 20.5598 7.33928 20.1774 7.52489C19.9202 7.64968 19.9148 7.65016 18.5704 7.66585L17.2214 7.68164L17.2218 7.30808C17.2227 6.36305 17.4468 5.83512 18.0074 5.45794C18.3467 5.22968 18.5468 5.2023 19.9113 5.19767L21.1702 5.19343L21.1547 5.80302ZM8.7991 12.2602C8.09848 12.3507 7.68403 12.4988 5.94294 13.2812L4.85776 13.7688L4.65553 13.5799C4.54428 13.476 4.37865 13.3593 4.28748 13.3206C4.05006 13.2197 3.63387 13.2296 3.35577 13.3428C2.54001 13.6748 0.196645 14.7528 0.118803 14.8319C0.0264633 14.9258 0.0247273 14.9987 0.0124809 19.3131L0 23.6989L0.13668 23.8544C0.38719 24.1394 0.315308 24.1683 3.76793 22.3924C6.49135 20.9916 6.92255 20.7553 7.06585 20.5851C7.26845 20.3445 7.38885 19.9547 7.34742 19.6739L7.31749 19.4711L7.58498 19.367C7.9992 19.2059 8.64741 19.1074 9.05717 19.1433C9.70791 19.2004 9.97489 19.3003 11.6144 20.0999C12.4918 20.5279 13.3152 20.9109 13.4443 20.951C14.3753 21.2401 15.3381 21.2276 16.2549 20.9144C16.582 20.8026 22.4177 18.2017 22.9692 17.9218C23.3556 17.7258 23.6233 17.4467 23.8283 17.0261C23.9905 16.6932 24.0013 16.6431 23.9999 16.2334C23.9985 15.8258 23.9864 15.7713 23.8229 15.435C23.5729 14.9207 23.1872 14.5909 22.6703 14.4494C22.3628 14.3652 21.8807 14.3827 21.585 14.4886C21.0508 14.6801 18.2766 16.023 18.1964 16.129C18.0096 16.3758 18.159 16.7829 18.4651 16.861C18.6221 16.9011 18.7724 16.8394 20.5644 15.9993C22.1391 15.2611 22.2439 15.2344 22.6397 15.4702C23.1413 15.769 23.2305 16.4899 22.8158 16.8938C22.6886 17.0177 16.5168 19.8203 15.9239 20.0233C15.5006 20.1683 14.9958 20.2353 14.5869 20.2008C13.8988 20.1428 13.5723 20.0203 11.9663 19.2175C10.1204 18.2949 9.85623 18.2083 8.86948 18.203C8.20204 18.1993 7.72842 18.2828 7.18864 18.4991L6.94235 18.5978L6.84701 18.3712C6.7946 18.2466 6.41252 17.3651 5.99798 16.4122C5.56786 15.4235 5.26203 14.6621 5.28563 14.6388C5.3653 14.56 7.77722 13.502 8.1455 13.3843C8.9234 13.1356 9.83136 13.1048 10.629 13.3001C10.9628 13.3819 15.7196 15.1308 15.9519 15.2572C16.0029 15.2849 16.1035 15.3862 16.1755 15.4822C16.2889 15.6334 16.3064 15.6998 16.3064 15.9789C16.3064 16.3367 16.2322 16.486 15.9609 16.6738C15.6269 16.905 15.6022 16.9001 13.5456 16.1935C12.5073 15.8368 11.5883 15.5449 11.5034 15.5449C11.1372 15.5449 10.9307 16.0532 11.1899 16.3168C11.2747 16.403 11.8147 16.6083 13.2426 17.0971C15.0777 17.7254 15.199 17.7603 15.5322 17.7562C16.2202 17.7477 16.8242 17.3534 17.1087 16.727C17.2291 16.462 17.2447 16.3751 17.2436 15.9742C17.2425 15.5628 17.2286 15.492 17.092 15.2059C16.9227 14.8514 16.6425 14.5613 16.2989 14.3847C15.9759 14.2186 11.3553 12.5004 10.9422 12.3927C10.2563 12.214 9.51296 12.168 8.7991 12.2602ZM4.02463 14.2688C4.06334 14.3185 5.84952 18.4071 6.29743 19.4712C6.37367 19.6523 6.42191 19.8353 6.40642 19.8849C6.3878 19.9446 5.49579 20.4283 3.68483 21.3608C2.20321 22.1237 0.979472 22.748 0.965442 22.748C0.951366 22.748 0.939964 22.281 0.940105 21.7104L0.940293 20.6729L1.62642 20.3411C2.0038 20.1587 2.37321 19.9477 2.44734 19.8724C2.63043 19.6863 2.62986 19.4646 2.44579 19.2552C2.24905 19.0313 2.06573 19.05 1.46857 19.3546C1.20455 19.4894 0.977313 19.5996 0.963706 19.5996C0.950052 19.5996 0.944375 18.6643 0.951084 17.5211L0.963331 15.4426L2.32403 14.8308C3.64349 14.2376 3.92732 14.1438 4.02463 14.2688ZM3.51061 18.4976C3.11488 18.857 3.52413 19.4746 4.0045 19.2428C4.45302 19.0264 4.28476 18.3593 3.78163 18.3593C3.71627 18.3593 3.59427 18.4215 3.51061 18.4976Z" fill="#090909"/>
<path fill-rule="evenodd" clip-rule="evenodd" d="M10.5586 0.0753291C10.2969 0.211568 10.2628 0.385157 10.2935 1.42493C10.3139 2.1159 10.3409 2.38399 10.4177 2.66009C10.7373 3.80915 11.5341 4.65892 12.6466 5.0373C13.0197 5.16419 13.0318 5.16509 14.6525 5.18298L16.283 5.20096V7.60617V10.0114L15.9193 10.0117C14.9353 10.0124 13.8603 10.3119 12.9869 10.8284C12.3403 11.211 12.1916 11.4924 12.4631 11.8204C12.6545 12.0517 12.8573 12.0265 13.379 11.7068C14.2243 11.1887 14.9363 10.9892 15.9311 10.9918C16.7584 10.994 17.2498 11.1039 18.0326 11.4618C18.7556 11.7924 19.5452 12.4951 20.0122 13.2235C20.1571 13.4496 20.3216 13.6673 20.3777 13.7072C20.659 13.9075 21.0689 13.6769 21.0688 13.3185C21.0688 12.852 20.0819 11.6552 19.1962 11.0476C18.7594 10.748 18.0557 10.4065 17.5967 10.2716L17.2448 10.1681L17.2319 9.39807L17.219 8.62801H18.503C19.9202 8.62801 20.251 8.58102 20.7557 8.30788C21.0886 8.12771 21.6251 7.57135 21.8081 7.21635C22.0443 6.75845 22.0996 6.42754 22.1004 5.46996C22.1012 4.55154 22.074 4.41998 21.8597 4.30735C21.6744 4.2099 18.7942 4.21047 18.3413 4.30807C18.0371 4.37366 17.6508 4.54405 17.4018 4.72251C17.3333 4.77164 17.2647 4.81181 17.2493 4.81181C17.234 4.81181 17.2214 4.39665 17.2214 3.88924C17.2214 3.12581 17.2052 2.90156 17.1279 2.58935C16.8805 1.59117 16.232 0.786097 15.3211 0.346279C14.6733 0.0334939 14.6187 0.0267679 12.5762 0.00740071C10.8667 -0.00877045 10.7101 -0.00352316 10.5586 0.0753291ZM14.3713 1.01788C15.2152 1.19968 15.9361 1.86751 16.1898 2.70255C16.2623 2.94125 16.283 3.14546 16.283 3.62425V4.23938L14.8402 4.23866C13.7193 4.23814 13.3303 4.22187 13.0967 4.16592C12.281 3.97043 11.576 3.29172 11.3361 2.4709C11.2569 2.19967 11.1807 1.1566 11.2306 1.02456C11.2562 0.95649 11.4163 0.947999 12.6569 0.948715C13.6879 0.949335 14.1374 0.967462 14.3713 1.01788ZM21.1547 5.80302C21.1401 6.38051 21.1311 6.42935 20.9848 6.73121C20.8085 7.0948 20.5598 7.33928 20.1774 7.52489C19.9202 7.64968 19.9148 7.65016 18.5704 7.66585L17.2214 7.68164L17.2218 7.30808C17.2226 6.36305 17.4468 5.83512 18.0074 5.45794C18.3467 5.22968 18.5468 5.2023 19.9113 5.19767L21.1702 5.19343L21.1547 5.80302ZM3.51061 18.4976C3.11488 18.857 3.52412 19.4746 4.0045 19.2428C4.45301 19.0264 4.28476 18.3593 3.78162 18.3593C3.71626 18.3593 3.59427 18.4215 3.51061 18.4976Z" fill="#6FB955"/>
<path fill-rule="evenodd" clip-rule="evenodd" d="M10.5586 0.0753291C10.2969 0.211568 10.2628 0.385157 10.2935 1.42493C10.3139 2.1159 10.3409 2.38399 10.4177 2.66009C10.7373 3.80915 11.5341 4.65892 12.6466 5.0373C13.0197 5.16419 13.0318 5.16509 14.6525 5.18298L16.283 5.20096V7.60617V10.0114L15.9193 10.0117C14.9353 10.0124 13.8603 10.3119 12.9869 10.8284C12.3403 11.211 12.1916 11.4924 12.4631 11.8204C12.6545 12.0517 12.8573 12.0265 13.379 11.7068C14.2243 11.1887 14.9363 10.9892 15.9311 10.9918C16.7584 10.994 17.2498 11.1039 18.0326 11.4618C18.7556 11.7924 19.5452 12.4951 20.0122 13.2235C20.1571 13.4496 20.3216 13.6673 20.3777 13.7072C20.659 13.9075 21.0689 13.6769 21.0688 13.3185C21.0688 12.852 20.0819 11.6552 19.1962 11.0476C18.7594 10.748 18.0557 10.4065 17.5968 10.2716L17.2448 10.1681L17.2319 9.39807L17.219 8.62801H18.503C19.9202 8.62801 20.251 8.58102 20.7557 8.30788C21.0886 8.12771 21.6251 7.57135 21.8081 7.21635C22.0443 6.75845 22.0996 6.42754 22.1004 5.46996C22.1012 4.55154 22.074 4.41998 21.8597 4.30735C21.6744 4.2099 18.7942 4.21047 18.3413 4.30807C18.0371 4.37366 17.6508 4.54405 17.4018 4.72251C17.3333 4.77164 17.2647 4.81181 17.2493 4.81181C17.234 4.81181 17.2214 4.39665 17.2214 3.88924C17.2214 3.12581 17.2052 2.90156 17.1279 2.58935C16.8806 1.59117 16.232 0.786097 15.3211 0.346279C14.6734 0.0334939 14.6187 0.0267679 12.5762 0.00740071C10.8667 -0.00877045 10.7101 -0.00352316 10.5586 0.0753291ZM14.3713 1.01788C15.2152 1.19968 15.9361 1.86751 16.1898 2.70255C16.2623 2.94125 16.283 3.14546 16.283 3.62425V4.23938L14.8402 4.23866C13.7193 4.23814 13.3303 4.22187 13.0967 4.16592C12.281 3.97043 11.576 3.29172 11.3361 2.4709C11.2569 2.19967 11.1807 1.1566 11.2306 1.02456C11.2562 0.95649 11.4163 0.947999 12.6569 0.948715C13.6879 0.949335 14.1374 0.967462 14.3713 1.01788ZM21.1547 5.80302C21.1401 6.38051 21.1312 6.42935 20.9848 6.73121C20.8085 7.0948 20.5598 7.33928 20.1774 7.52489C19.9202 7.64968 19.9148 7.65016 18.5704 7.66585L17.2214 7.68164L17.2218 7.30808C17.2226 6.36305 17.4468 5.83512 18.0074 5.45794C18.3467 5.22968 18.5468 5.2023 19.9113 5.19767L21.1702 5.19343L21.1547 5.80302Z" fill="#009DEC"/>
</svg>
