<?xml version="1.0" encoding="UTF-8" standalone="no"?>
<svg
   width="26"
   height="26"
   viewBox="0 0 26 26"
   fill="none"
   version="1.1"
   id="svg2863"
   sodipodi:docname="Human.svg"
   inkscape:version="1.2.2 (1:1.2.2+202212051552+b0a8486541)"
   xmlns:inkscape="http://www.inkscape.org/namespaces/inkscape"
   xmlns:sodipodi="http://sodipodi.sourceforge.net/DTD/sodipodi-0.dtd"
   xmlns="http://www.w3.org/2000/svg"
   xmlns:svg="http://www.w3.org/2000/svg">
  <defs
     id="defs2867" />
  <sodipodi:namedview
     id="namedview2865"
     pagecolor="#ffffff"
     bordercolor="#000000"
     borderopacity="0.25"
     inkscape:showpageshadow="2"
     inkscape:pageopacity="0.0"
     inkscape:pagecheckerboard="0"
     inkscape:deskcolor="#d1d1d1"
     showgrid="false"
     inkscape:zoom="30.307692"
     inkscape:cx="13"
     inkscape:cy="13.016497"
     inkscape:window-width="1920"
     inkscape:window-height="1016"
     inkscape:window-x="0"
     inkscape:window-y="0"
     inkscape:window-maximized="1"
     inkscape:current-layer="svg2863" />
  <g
     id="path2861">
    <path
       style="color:#000000;fill:#090909;stroke-width:0.3;-inkscape-stroke:none"
       d="m 14.4386,0.87774 v -10e-7 C 15.0538,0.808201 15.797,0.871252 16.4441,1.04619 L 16.405,1.19082 16.4441,1.04619 c 2.8244,0.7637 4.6126,3.67936 4.1461,6.72048 -0.2276,1.48381 -1.0111,2.87273 -2.1327,3.77303 l -0.0509,0.0408 c 2.1179,0.4767 3.89,2.1627 4.5697,4.339 0.136,0.4356 0.2089,0.6837 0.2483,1.1646 0.0387,0.4714 0.0457,1.1716 0.0567,2.5148 l 0.0191,2.3463 h 0.2298 c 0.239,0 0.424,0.0154 0.5904,0.0663 0.1694,0.0517 0.3089,0.137 0.4628,0.2599 l -0.0936,0.1172 0.0936,-0.1172 c 0.3794,0.3031 0.5666,0.7327 0.5666,1.2603 0,0.3032 -0.0256,0.4641 -0.1211,0.669 M 14.4386,0.87774 0.97667,24.2154 1.11264,24.1521 0.976674,24.2154 c 0.158316,0.3401 0.426736,0.6244 0.752986,0.7954 l 0.23288,0.1221 0.0327,0.0171 h 0.03693 10.94373 10.9438 0.0352 l 0.0314,-0.0156 0.2615,-0.1297 c 0.3402,-0.1686 0.6189,-0.456 0.7811,-0.804 M 14.4386,0.87774 C 13.4375,0.990953 12.4235,1.42247 11.5863,2.08838 10.8609,2.66523 10.3105,3.38249 9.89998,4.28167 l 0.13642,0.0623 m 4.4022,-3.46623 -4.4022,3.46623 m 14.9925,19.85673 -0.136,-0.0633 0.136,0.0633 c 0,0 0,0 0,0 z M 10.0364,4.34397 9.89998,4.28168 c -0.85696,1.87717 -0.71754,4.0826 0.36912,5.81072 0.3284,0.5223 0.9049,1.1774 1.3224,1.4988 l 0.0309,0.0238 m -1.586,-7.27103 1.586,7.27103 m 0,0 -0.1508,0.0358 c -0.258,0.0611 -0.6402,0.1816 -0.8548,0.2699 h -10e-5 l -0.3476,0.143 -3.43206,2e-4 c -1.13218,0 -2.01854,0.0047 -2.64115,0.0136 -0.3112,0.0045 -0.5573,0.01 -0.73558,0.0166 -0.08905,0.0034 -0.16215,0.007 -0.21844,0.0109 -0.05259,0.0038 -0.10028,0.0083 -0.13213,0.0156 -2e-5,0 -3e-5,0 -5e-5,0 l 0.0332,0.1462 M 11.6224,11.615 2.65861,21.9437 m 0.48428,-9.6769 c -0.48373,0.1097 -0.87883,0.506 -1.02143,1.0244 -0.06961,0.2532 -0.05885,0.4254 0.26039,4.1741 0.31977,3.7544 0.3789,4.3514 0.45006,4.5431 0.02907,0.0783 -0.00451,0.0868 -0.34015,0.0868 -0.46555,0 -0.74267,0.0969 -1.02284,0.3577 M 3.14289,12.2668 c 0.15204,-0.0345 1.4303,-0.0528 3.69416,-0.0529 l 3.46165,-2e-4 z M 1.46892,22.4529 1.36674,22.343 m 0.10218,0.1099 c -0.32846,0.3056 -0.46744,0.6264 -0.46889,1.0823 -9.42e-4,0.2955 0.02235,0.423 0.11263,0.6169 0.1448,0.311 0.39031,0.5705 0.68664,0.7259 L 2.03217,25 1.36674,22.343 M 1.46892,22.4529 1.36673,22.343 c 0,0 1e-5,0 1e-5,0 m 0,0 c 0.15228,-0.1417 0.30901,-0.2434 0.49458,-0.3083 0.18391,-0.0643 0.38784,-0.0895 0.63044,-0.0895 0.06927,0 0.12378,-3e-4 0.16685,-0.0015 m 0,0 c 0.01025,0.0475 0.02086,0.085 0.03268,0.1169 0.00201,0.0054 0.00131,0.0045 3.9e-4,-2e-4 -1.5e-4,-8e-4 -3.1e-4,-0.0017 -4.7e-4,-0.0027 -0.00115,-0.0073 -0.00334,-0.0282 0.00608,-0.0541 0.02013,-0.0553 0.06552,-0.0683 0.06574,-0.0682 3e-5,0 -4.6e-4,2e-4 -0.00156,4e-4 -0.00683,0.0018 -0.02786,0.005 -0.07697,0.007 -0.00813,3e-4 -0.01675,6e-4 -0.02589,9e-4 z m 17.59739,-0.1091 0.1435,0.0439 -0.0053,0.0171 h 0.7839 0.8354 L 21.995,19.6262 c -0.0107,-1.3088 -0.0168,-1.9616 -0.0533,-2.388 -0.0356,-0.4154 -0.0992,-0.6088 -0.2333,-1.0038 -0.5799,-1.7075 -1.9229,-2.9499 -3.6241,-3.3586 -0.1604,-0.0385 -0.655,-0.0817 -1.1871,-0.099 l -0.6114,-0.0199 c 0.0662,0.1093 0.1336,0.2535 0.1676,0.3611 z m 0,0 0.1435,0.0439 c 0.039,-0.1273 0.1142,-0.5071 0.1687,-0.842 0.0473,-0.2909 0.0742,-0.4586 0.0763,-0.5744 C 20.6457,20.3995 20.64,20.3467 20.6255,20.2939 20.6118,20.244 20.5913,20.1988 20.571,20.155 l -0.1362,0.0629 m -0.1788,1.6167 0.1788,-1.6167 m 0,0 0.1362,-0.0629 c -0.0343,-0.0742 -0.0768,-0.1586 -0.1608,-0.2242 m 0.0246,0.2871 -0.0246,-0.2871 m 0,0 c -0.0832,-0.065 -0.1899,-0.0991 -0.3269,-0.1205 m 0.3269,0.1205 -0.3269,-0.1205 m 0,0 c -0.2686,-0.042 -0.7386,-0.0455 -1.6,-0.047 m 1.6,0.047 -1.6,-0.047 m 0,0 c -0.4224,-8e-4 -0.806,-0.0046 -1.0837,-0.01 m 1.0837,0.01 -1.0837,-0.01 m 0,0 c -0.1299,-0.0025 -0.2358,-0.0054 -0.3114,-0.0085 m 0.3114,0.0085 -0.3114,-0.0085 m 0,0 C 17.0751,19.5428 17.0435,19.1619 17.002,18.6883 16.9463,18.053 16.8716,17.2385 16.7953,16.4308 16.719,15.6231 16.6412,14.8217 16.5794,14.2124 16.5485,13.9078 16.5215,13.6508 16.5007,13.4649 16.4904,13.3721 16.4814,13.2963 16.4743,13.241 16.4707,13.2134 16.4675,13.1901 16.4647,13.1719 16.4625,13.1584 16.459,13.1357 16.4534,13.118 Z M 16.2084,2.39521 v 1e-5 c 0.7644,0.2427 1.368,0.63091 1.9225,1.23765 2.0097,2.19919 1.4727,5.81436 -1.0729,7.27713 -1.0741,0.6172 -2.4401,0.711 -3.6082,0.2462 C 11.2878,10.2959 10.1366,7.76995 10.8512,5.40526 11.0692,4.68363 11.4476,4.0486 11.9856,3.5026 L 11.8788,3.39732 11.9856,3.5026 C 12.3685,3.114 12.6002,2.9384 13.0228,2.71341 l -0.0705,-0.1324 0.0705,0.1324 c 0.3637,-0.19368 0.6525,-0.31172 0.9631,-0.38016 0.3116,-0.06868 0.6528,-0.08914 1.1237,-0.07851 h 10e-5 c 0.6166,0.01387 0.7654,0.03462 1.0987,0.14047 z m -7.33204,16.12529 0.1026,-0.1053 -0.1026,0.1053 c 0.21767,0.2121 0.47562,0.3309 0.74072,0.3407 0.26593,0.0098 0.52482,-0.0907 0.74072,-0.2912 0.2573,-0.2387 0.3962,-0.5466 0.3962,-0.8887 0,-0.1658 -0.0161,-0.3058 -0.063,-0.4363 -0.0473,-0.1316 -0.1222,-0.2432 -0.2246,-0.3577 l -0.1118,0.0999 0.1118,-0.1 c -0.18,-0.2011 -0.392,-0.3322 -0.62571,-0.3775 -0.23417,-0.0454 -0.47593,-0.002 -0.7096,0.1211 -0.18213,0.096 -0.32565,0.2188 -0.42646,0.3783 -0.10053,0.159 -0.15234,0.3446 -0.16684,0.5566 -0.0139,0.2031 -0.00227,0.3753 0.05313,0.5332 0.05596,0.1596 0.15194,0.2915 0.28544,0.4216 z m 10.01594,3.2814 0.0712,0.132 -0.0713,-0.132 c -0.082,0.0443 -0.1309,0.0649 -0.2442,0.0774 -0.1262,0.0139 -0.3219,0.0163 -0.6964,0.0163 H 17.285 l -0.0194,-0.2419 v 0 C 17.2495,21.452 17.2367,21.2323 17.2358,21.1529 h 1.006 0.9843 l -0.0089,0.0656 c 0,0 0,0 0,0 -0.0233,0.1716 -0.0612,0.2926 -0.1128,0.3819 -0.0501,0.0864 -0.117,0.1501 -0.2121,0.2015 z m 4.9205,1.561 10e-5,10e-5 c 0.0566,0.0599 0.0764,0.1197 0.0743,0.1743 -0.0021,0.0561 -0.0282,0.1246 -0.0963,0.1966 L 23.698,23.8321 H 12.9994 2.30089 L 2.20798,23.7339 C 2.14429,23.6665 2.11827,23.6028 2.11437,23.5473 2.1105,23.4922 2.12718,23.4286 2.17942,23.3584 l 2e-5,-10e-5 0.05234,-0.0703 H 12.9815 23.742 Z m -8.6761,-9.9124 c 0.011,0.0064 0.0255,0.0168 0.0406,0.0312 0.0159,0.0151 0.0261,0.0286 0.0316,0.0375 5e-4,0.0024 9e-4,0.0053 0.0015,0.0087 0.0028,0.0177 0.0063,0.0435 0.0106,0.0775 0.0086,0.0679 0.0195,0.1642 0.0323,0.2856 0.0258,0.2424 0.0592,0.5816 0.0976,0.9855 0.0767,0.8075 0.1728,1.8717 0.2656,2.9333 0.0928,1.0616 0.1823,2.1202 0.2458,2.9165 0.0318,0.3982 0.057,0.7304 0.073,0.9644 0.0062,0.0914 0.0109,0.1673 0.0141,0.226 -0.0798,0.0021 -0.1916,0.004 -0.3324,0.0058 -0.3061,0.0038 -0.747,0.007 -1.2903,0.0092 -1.0864,0.0045 -2.5808,0.0055 -4.2207,0.0019 C 7.30202,21.9274 5.81052,21.9228 5.00496,21.9095 4.60115,21.9028 4.37425,21.8939 4.24183,21.8822 4.17547,21.8762 4.13854,21.87 4.11741,21.8648 4.10745,21.8623 4.10271,21.8604 4.10111,21.8597 c -3e-4,-10e-5 -5.2e-4,-2e-4 -6.5e-4,-3e-4 C 4.09427,21.8551 4.08852,21.8512 4.08314,21.8475 4.02474,21.8072 4.01074,21.7975 3.99075,21.7582 3.96139,21.7005 3.92907,21.5861 3.8911,21.3196 3.81978,20.8189 3.73666,19.8538 3.56904,17.9077 3.56061,17.8098 3.55197,17.7095 3.54311,17.6066 3.3849,15.7703 3.2997,14.7598 3.2621,14.1952 3.24323,13.912 3.23671,13.7459 3.23841,13.6453 3.23964,13.5729 3.24543,13.5469 3.24679,13.5414 3.25773,13.5248 3.27621,13.5031 3.29873,13.4826 3.31479,13.4679 3.3285,13.4579 3.33806,13.4518 c 0.00295,-3e-4 0.00632,-5e-4 0.01014,-8e-4 0.02376,-0.0017 0.05853,-0.0033 0.10445,-0.005 0.09149,-0.0034 0.2224,-0.0065 0.38771,-0.0095 0.33035,-0.0058 0.795,-0.0107 1.34956,-0.0146 1.10896,-0.0079 2.57578,-0.012 4.04305,-0.0122 1.46723,-2e-4 2.93463,0.0035 4.04463,0.0111 0.5551,0.0039 1.0204,0.0086 1.3516,0.0144 0.1657,0.0029 0.2971,0.006 0.389,0.0093 0.0462,0.0017 0.0812,0.0034 0.1053,0.005 0.0051,4e-4 0.0095,7e-4 0.0132,10e-4 z"
       id="path2871" />
    <path
       style="color:#000000;fill:#090909;-inkscape-stroke:none"
       d="m 14.421875,0.72851562 c -0.0267,0.00302 -0.04946,0.0277954 -0.07617,0.03125 l -0.002,0.001953 c -1.004792,0.13047312 -2.015797,0.54421545 -2.851562,1.20898435 -0.703301,0.5592758 -1.223291,1.2755841 -1.6347661,2.125 l -0.03125,-0.013672 -0.0625,0.1367188 -0.0625,0.1367187 0.035156,0.015625 C 9.1255444,5.803848 9.2171927,7.3482273 9.6992188,8.7929688 L 7.9003906,11.914063 h -1.0625 c -1.132594,0 -2.0206421,0.0048 -2.6445312,0.01367 -0.3118233,0.0045 -0.5579803,0.009 -0.7382813,0.01563 -0.089956,0.0034 -0.1637829,0.0076 -0.2226562,0.01172 h -0.00195 c -0.043527,0.0031 -0.08282,0.0087 -0.1230469,0.01563 H 2.921875 l 0.0625,0.275391 c -0.4594815,0.169675 -0.8688569,0.500708 -1.0078125,1.005859 -0.018816,0.06844 -0.034948,0.145912 -0.039063,0.265625 -0.00411,0.119713 0.00246,0.284997 0.019531,0.558594 0.034137,0.547193 0.1157664,1.527944 0.2753907,3.402344 0.1598941,1.877307 0.2545125,2.964863 0.3183594,3.609375 0.00526,0.05307 0.00691,0.03285 0.011719,0.08008 l -0.3886719,0.671875 c -0.1207225,0.0153 -0.2523165,0.01462 -0.3613281,0.05273 -0.1832068,0.06407 -0.3385113,0.173406 -0.4863281,0.300781 H 1.0214844 l 0.2089843,0.222657 0.039063,0.154296 c -0.2276475,0.282345 -0.41866926,0.57102 -0.41992182,0.964844 -6.4488e-4,0.202294 0.0462669,0.318918 0.0839844,0.453125 l -0.0625,0.111328 -0.09375,0.04297 0.03125,0.06641 -0.19921875,0.34375 0.33984375,-0.158203 c 0.17573845,0.305412 0.40165215,0.587892 0.71093745,0.75 l 0.2324219,0.121094 0.066406,0.03516 h 0.072266 10.945313 10.943359 0.07031 l 0.0625,-0.03125 0.261719,-0.130859 c 0.371764,-0.184243 0.672974,-0.496029 0.849609,-0.875 0.103866,-0.22285 0.136719,-0.420779 0.136719,-0.732422 0,-0.499908 -0.225754,-0.899126 -0.552734,-1.222656 l 0.04687,-0.06055 -0.117188,-0.09375 -0.117187,-0.09375 -0.01563,0.01953 c -0.120765,-0.08359 -0.238895,-0.169564 -0.38086,-0.212891 -0.188045,-0.05752 -0.389322,-0.07227 -0.634765,-0.07227 h -0.08008 l -0.01758,-2.197266 C 23.42064,18.254363 23.41457,17.554267 23.375,17.072266 23.334713,16.580543 23.255425,16.31151 23.119141,15.875 22.448529,13.727798 20.716037,12.100557 18.644531,11.544922 19.738224,10.618253 20.51258,9.2604967 20.738281,7.7890625 21.20722,4.7320429 19.433963,1.81755 16.621094,0.97070313 l 0.0078,-0.0292969 -0.146484,-0.0390625 -0.144531,-0.0410156 -0.0078,0.0273438 c -0.6283,-0.15088493 -1.31679,-0.22700556 -1.908203,-0.16015626 z m 0.09961,0.30468748 c 0.580402,-0.0561881 1.27628,-0.00577 1.882813,0.1582031 2.746934,0.7427538 4.49272,3.5826047 4.037109,6.5527344 -0.221905,1.4466813 -0.988663,2.8032314 -2.078125,3.6777344 l -0.292969,0.236328 0.302735,0.06836 c 2.061466,0.463997 3.796783,2.111757 4.460937,4.238281 0.135716,0.434689 0.201722,0.660783 0.240235,1.130859 0.03783,0.460798 0.04564,1.160802 0.05664,2.503906 l 0.02148,2.496094 h 0.376953 c 0.232556,0 0.40212,0.01431 0.546875,0.05859 0.147332,0.04497 0.268254,0.117937 0.414062,0.234375 C 24.834432,22.663649 25,23.039132 25,23.53125 c 0,0.294756 -0.02029,0.418519 -0.107422,0.605469 -0.147764,0.317028 -0.402302,0.581418 -0.710937,0.734375 L 23.919922,25 H 12.976563 2.1875 l -0.4511719,-1.798828 0.5,-0.867188 c 0.094234,-0.01378 0.1324154,-0.08789 0.2558594,-0.08789 0.1690861,0 0.2553315,0.003 0.34375,-0.01953 0.044209,-0.01127 0.1154926,-0.0468 0.1425781,-0.121093 0.016396,-0.04498 0.00256,-0.06286 -0.00391,-0.08984 l 0.1757812,-0.06836 -0.1914062,-0.08594 c -8.973e-4,-0.0032 -0.00297,-0.02759 -0.00391,-0.03125 l 0.7519532,-0.865234 c 0.00832,0.06761 0.027172,0.318945 0.035156,0.375 0.038801,0.272332 0.06971,0.396861 0.1152344,0.486328 0.01415,0.02782 0.036389,0.06164 0.0625,0.08594 0.026111,0.0243 0.048906,0.03843 0.078125,0.05859 0.00595,0.0041 0.012232,0.008 0.017578,0.01172 0.00771,0.0047 0.021399,0.01363 0.021484,0.01367 2.83e-5,1.3e-5 0.00235,0.0013 0.00391,0.002 0.00151,6.59e-4 0.00419,0.0013 0.00586,0.002 0.00267,0.0011 0.0058,0.0019 0.00586,0.002 0.0084,0.0031 0.015862,0.0049 0.027344,0.0078 h 0.00195 c 0.033645,0.0083 0.075866,0.0151 0.1464844,0.02148 0.1407408,0.01243 0.3683567,0.02062 0.7734375,0.02734 0.8080441,0.01334 2.299492,0.01919 5.1035159,0.02539 1.640159,0.0036 3.135779,0.0025 4.222656,-0.002 0.54356,-0.0022 0.984173,-0.006 1.291016,-0.0098 0.141134,-0.0018 0.25288,-0.0037 0.333984,-0.0059 l 0.154297,-0.0039 -0.0078,-0.154297 c -0.0033,-0.05965 -0.0094,-0.136628 -0.01563,-0.228516 -0.01607,-0.235054 -0.04044,-0.566313 -0.07227,-0.964843 C 15.948168,19.917912 15.85845,18.858757 15.765625,17.796875 15.6728,16.73499 15.576758,15.671389 15.5,14.863281 v -0.002 c -0.03843,-0.404181 -0.07174,-0.742832 -0.09766,-0.986328 -0.01286,-0.122005 -0.02437,-0.219297 -0.0332,-0.289062 -0.0044,-0.03468 -0.0065,-0.06117 -0.0098,-0.08203 h -0.002 v -0.002 c -4.6e-5,-2.6e-4 2.1e-4,-0.0033 -0.002,-0.01367 l -0.0059,-0.02539 -0.01367,-0.02344 c -0.01344,-0.02175 -0.02965,-0.04262 -0.05469,-0.06641 -0.0237,-0.02261 -0.04583,-0.03963 -0.06836,-0.05273 l -0.0293,-0.01563 -0.03516,-0.0039 c -0.0052,-4.23e-4 -0.0094,3.32e-4 -0.01367,0 h -0.002 c -0.02667,-0.0018 -0.06229,-0.0041 -0.109375,-0.0059 -0.09366,-0.0034 -0.226396,-0.0069 -0.392579,-0.0098 -0.33224,-0.0058 -0.796205,-0.0098 -1.351562,-0.01367 -0.792728,-0.0054 -1.862006,-0.0064 -2.888672,-0.0078 l 1.345703,-1.550781 -0.113281,-0.09766 0.146484,-0.03125 -0.46875,-2.1484371 c 0.503468,0.8058441 1.181018,1.4961821 2.09375,1.8593751 1.211866,0.482215 2.622241,0.387394 3.738281,-0.253906 C 19.763078,9.5295948 20.316084,5.8006893 18.242187,3.53125 17.702892,2.9411467 17.088859,2.5727344 16.359375,2.3203125 V 2.2851563 L 16.253906,2.2519531 C 15.913721,2.1439166 15.732701,2.1194022 15.113281,2.1054688 h -0.0039 c -0.474462,-0.01052 -0.829387,0.00999 -1.15625,0.082031 -0.04084,0.009 -0.0847,0.038141 -0.125,0.048828 z m -1.041015,0.4082031 -3.072266,2.4199219 c 0.359102,-0.6191568 0.724117,-1.2209745 1.271485,-1.65625 0.529223,-0.4209452 1.177888,-0.5574742 1.800781,-0.7636719 z m 0.439453,0.037109 -0.539063,0.9335938 c -0.09535,0.040155 -0.186837,0.061962 -0.289062,0.1132812 l -0.0078,-0.015625 -0.126953,0.068359 c -0.0015,7.964e-4 -0.0024,0.00115 -0.0039,0.00195 -8.74e-4,4.656e-4 -0.0011,0.00149 -0.002,0.00195 l -0.130859,0.070312 0.01172,0.019531 c -0.306635,0.1739996 -0.552915,0.3595889 -0.833984,0.6328125 l -0.01367,-0.013672 -0.101562,0.1015625 c -0.0016,0.00159 -0.0023,0.00231 -0.0039,0.00391 -6.48e-4,6.582e-4 -0.0013,0.00129 -0.002,0.00195 l -0.103515,0.1054688 0.02539,0.025391 c -0.496073,0.5362807 -0.882188,1.1381788 -1.091797,1.8320312 -0.08974,0.2969743 -0.06538,0.5939277 -0.09961,0.8925781 L 10.203125,4.4023437 Z m 1.185547,0.9257813 h 0.002 c 0.610859,0.01379 0.728867,0.031291 1.054687,0.1347656 0.742135,0.2356306 1.317997,0.6050677 1.857422,1.1953125 1.9455,2.1289363 1.423821,5.6308056 -1.037109,7.044922 -1.032157,0.593099 -2.352231,0.685665 -3.476563,0.238281 -1.492647,-0.593952 -2.458355,-2.0257778 -2.65039,-3.626953 v -0.00195 l 2.734375,-4.7382813 c 0.137819,-0.053165 0.29139,-0.1398787 0.427734,-0.1699218 0.295238,-0.065074 0.622967,-0.086667 1.087891,-0.076172 z m -1.964844,0.421875 -2.300781,3.9882812 c 0.0015,-0.4530949 0.0168,-0.9102425 0.154297,-1.3652344 0.211148,-0.6989508 0.575788,-1.3121684 1.097656,-1.8417968 0.377522,-0.3831425 0.587856,-0.5412556 1.001953,-0.7617188 0.01824,-0.00971 0.02905,-0.010224 0.04687,-0.019531 z M 9.9667969,4.7246094 10.503906,7.1816406 c 0.0023,0.033308 0.01659,0.062515 0.01953,0.095703 l 0.01367,0.0625 -0.6406246,1.1113282 C 9.5455443,7.219521 9.504268,5.9464654 9.9667969,4.7246094 Z m 0.6660161,3.0527343 0.724609,3.3261723 C 11.015501,10.768742 10.632819,10.387595 10.396484,10.011719 10.172781,9.6559626 10.160445,9.2280182 10.019531,8.8378906 Z M 9.8242188,9.1796875 c 0.1329523,0.3250538 0.1290693,0.6911588 0.3183592,0.9921875 0.301165,0.478984 0.786898,1.000652 1.201172,1.361328 -0.248334,0.06403 -0.547278,0.156289 -0.751953,0.238281 -9.67e-4,3.88e-4 -0.0029,-3.86e-4 -0.0039,0 l -0.02149,0.0078 -0.326172,0.134766 H 8.2460938 Z m 1.3535152,2.7207035 -1.1816402,1.361328 c -0.2745337,-2.4e-4 -0.4867464,-0.002 -0.7636719,-0.002 -0.640895,8.7e-5 -1.154657,0.0043 -1.765625,0.0059 l 0.5097656,-0.884766 2.3222655,-0.01758 h 0.002 l -0.002,-0.15039 0.347656,-0.142578 0.02734,-0.01172 c 0.121743,-0.05009 0.31899,-0.102298 0.503906,-0.158203 z m -3.5488278,0.482422 -0.5097656,0.882812 c -0.6536401,0.002 -1.4001138,0.0021 -1.9296875,0.0059 -0.5548537,0.0039 -1.0202271,0.0098 -1.3515625,0.01563 -0.1657477,0.003 -0.2972099,0.0063 -0.390625,0.0098 -0.0466,0.0017 -0.081907,0.0019 -0.109375,0.0039 h -0.00195 c -0.00214,1.69e-4 -0.00596,0.0012 -0.013672,0.002 l -0.035156,0.0039 -0.029297,0.01953 c -0.017406,0.01111 -0.038116,0.02439 -0.060547,0.04492 -0.031279,0.02847 -0.055574,0.05664 -0.076172,0.08789 l -0.013672,0.02149 -0.00586,0.02539 c -0.00399,0.01613 -0.012316,0.05694 -0.013672,0.136719 -0.00186,0.109867 0.00641,0.277705 0.025391,0.5625 0.03781,0.56775 0.1230315,1.577664 0.28125,3.414063 0.00886,0.102903 0.016961,0.202884 0.025391,0.300781 0.074189,0.861348 0.095183,0.99146 0.1425781,1.513672 L 2.8203125,20.720703 C 2.7572233,20.061502 2.6761447,19.154325 2.53125,17.453125 2.3716345,15.578828 2.2895094,14.597974 2.2558594,14.058594 c -0.016825,-0.269691 -0.021047,-0.430317 -0.017578,-0.53125 0.00347,-0.100934 0.011355,-0.139109 0.027344,-0.197266 0.1284414,-0.466928 0.4837337,-0.815933 0.90625,-0.914062 z m 8.3847658,0.214843 0.144531,0.236328 c 0.05786,0.09553 0.118983,0.232097 0.148438,0.322266 l 0.632812,6.597656 v 0.0059 l 0.148438,-0.01172 -0.0059,0.146484 c 4.81e-4,2e-5 0.0015,-1.9e-5 0.002,0 0.0769,0.0031 0.181899,0.0053 0.310547,0.0078 8.09e-4,1.5e-5 0.0011,-1.6e-5 0.002,0 5.02e-4,10e-6 0.0015,-10e-6 0.002,0 l 1.080079,0.01172 h 0.0039 l 0.783203,0.02344 0.880859,2.019531 0.06445,0.02148 -0.01953,0.06641 h 0.236328 l 0.07031,0.02148 0.0059,-0.02148 h 0.673828 0.986328 L 22.144531,19.625 c -0.0107,-1.308857 -0.01525,-1.962444 -0.05273,-2.400391 -0.03656,-0.426596 -0.107938,-0.64362 -0.242188,-1.039062 -0.595452,-1.753293 -1.979569,-3.034438 -3.730468,-3.455078 -0.203686,-0.04889 -0.679609,-0.08605 -1.216797,-0.103516 z m 0.507812,0.316407 0.371094,0.01172 c 0.527011,0.01713 1.039136,0.06759 1.15625,0.0957 1.651498,0.39676 2.953232,1.600015 3.517578,3.261719 0.13395,0.394557 0.191922,0.564547 0.226563,0.96875 0.03551,0.414852 0.04204,1.06626 0.05273,2.375 l 0.01563,2.119141 h -0.683594 -0.599609 c 0.0441,-0.184694 0.09479,-0.415909 0.138672,-0.685547 0.04732,-0.291021 0.07565,-0.45931 0.07813,-0.595703 0.0014,-0.07332 -0.0068,-0.143193 -0.02539,-0.210938 -0.0023,-0.0085 -0.0053,-0.01339 -0.0078,-0.02148 l 0.0078,-0.0039 -0.0625,-0.136719 -0.0625,-0.136719 -0.02734,0.01367 c -0.0338,-0.05446 -0.05145,-0.106435 -0.115234,-0.15625 -0.01166,-0.0091 -0.02888,-0.0075 -0.04102,-0.01563 l 0.002,-0.0059 -0.328125,-0.121094 v 0.002 c -0.01012,-0.0018 -0.01708,-0.0082 -0.02734,-0.0098 -0.0035,-5.52e-4 -0.01595,5.4e-4 -0.01953,0 v -0.002 l -0.625,-0.01758 -2.871094,-6.583984 0.0039,0.01367 c -0.01598,-0.05058 -0.05017,-0.103544 -0.07422,-0.158203 z m -7.2890621,0.646484 c 0.1827512,-2.5e-5 0.3218402,0.0019 0.5039062,0.002 l -5.796875,6.675781 c -0.018442,-0.180878 -0.04782,-0.491089 -0.070312,-0.736328 l 3.4238281,-5.935547 c 0.6643364,-0.0019 1.2353767,-0.0058 1.9394532,-0.0059 z m 0.8984371,0.002 c 1.127469,0.0012 2.283478,0.0019 3.146485,0.0078 0.554841,0.0039 1.01945,0.0098 1.349609,0.01563 0.164383,0.0029 0.294669,0.0046 0.384766,0.0078 0.02529,9.3e-4 0.03859,0.003 0.05664,0.0039 0.0013,0.0099 0.0024,0.01505 0.0039,0.02734 0.0084,0.06603 0.01851,0.160455 0.03125,0.28125 0.02568,0.241303 0.05928,0.580757 0.09766,0.984375 0.07664,0.80689 0.17285,1.870328 0.265625,2.931641 0.09277,1.061316 0.182644,2.120348 0.246094,2.916015 0.03177,0.397869 0.05634,0.729946 0.07226,0.962891 0.0019,0.02766 0.0023,0.04364 0.0039,0.06836 -0.0573,0.001 -0.09985,0.003 -0.173829,0.0039 -0.305357,0.0038 -0.746023,0.0056 -1.289062,0.0078 -1.085921,0.0045 -2.581066,0.0056 -4.220703,0.002 -2.803931,-0.0062 -4.2945821,-0.01018 -5.0976565,-0.02344 -0.4025384,-0.0067 -0.6278541,-0.01638 -0.7519531,-0.02734 -0.056191,-0.0051 -0.081971,-0.0092 -0.09375,-0.01172 -0.021842,-0.01531 -0.036687,-0.02695 -0.037109,-0.02734 -4.866e-4,-4.52e-4 0.00584,0.0076 0,-0.0039 -0.013196,-0.02593 -0.048799,-0.129958 -0.085937,-0.390625 -0.013258,-0.09308 -0.045809,-0.515555 -0.060547,-0.646484 z m -3.1855465,0.0039 -3.125,5.417969 C 3.7815604,18.545542 3.7724069,18.517498 3.71875,17.894531 3.7103197,17.796628 3.702219,17.696646 3.6933594,17.59375 3.5351582,15.757552 3.4494995,14.746996 3.4121094,14.185547 3.3933457,13.903942 3.3871285,13.73977 3.3886719,13.648438 c 7.052e-4,-0.04151 9.59e-4,-0.03772 0.00195,-0.04492 0.00158,-0.0017 0.00219,-0.0021 0.00391,-0.0039 0.019129,-9.99e-4 0.035177,-0.0028 0.064453,-0.0039 0.089565,-0.0033 0.2198937,-0.0068 0.3847656,-0.0098 0.3293639,-0.0058 0.7933911,-0.0098 1.3476562,-0.01367 0.4810693,-0.0034 1.1671304,-0.0039 1.7539063,-0.0059 z m 9.7734375,0.533203 2.414062,5.533203 -0.644531,-0.01953 c -0.0021,-3e-6 -0.0018,4e-6 -0.0039,0 -0.420911,-7.97e-4 -0.80381,-0.0044 -1.080078,-0.0098 h -0.002 c -8.18e-4,-1.6e-5 -0.0011,1.5e-5 -0.002,0 -0.07262,-0.0014 -0.117821,-0.0023 -0.173829,-0.0039 -0.01557,-0.217005 -0.03798,-0.510225 -0.07422,-0.923828 -0.05574,-0.635811 -0.130706,-1.451792 -0.207032,-2.259765 -0.07632,-0.807956 -0.154939,-1.608888 -0.216796,-2.21875 -0.004,-0.03968 -0.0059,-0.05964 -0.0098,-0.09766 z m -6.8496094,2.263672 c -0.2706436,-0.05247 -0.5500398,-0.0014 -0.8085937,0.134766 -0.2000524,0.105447 -0.3658374,0.247182 -0.4824219,0.43164 -0.1162667,0.18389 -0.1737,0.394679 -0.1894531,0.625 -0.014684,0.214549 -0.00396,0.409891 0.060547,0.59375 0.047831,0.136417 0.1435128,0.24245 0.2363281,0.351563 l -0.021484,0.02344 0.1074219,0.105469 c 0.00114,0.0011 0.00277,8.52e-4 0.00391,0.002 l 0.1035157,0.101563 0.037109,-0.03711 c 0.2129446,0.165466 0.4418537,0.307037 0.6953125,0.316407 0.3072251,0.01132 0.6062579,-0.107852 0.8476559,-0.332032 0.284717,-0.264134 0.445313,-0.615345 0.445313,-0.998046 0,-0.175511 -0.01751,-0.335931 -0.07227,-0.488282 -0.03773,-0.104965 -0.108707,-0.189027 -0.173828,-0.277343 l 0.01953,-0.01758 -0.09961,-0.111328 -0.09961,-0.111328 -0.03516,0.03125 C 10.270332,16.550368 10.088021,16.405707 9.8691406,16.363281 Z M 9.8125,16.65625 c 0.195919,0.03797 0.377332,0.14871 0.539063,0.328125 0.0011,0.0012 0.0028,7.09e-4 0.0039,0.002 l 0.0039,0.0078 c 0.09058,0.102434 0.152962,0.193819 0.191406,0.300781 0.03905,0.108649 0.05274,0.230629 0.05274,0.386719 0,0.301497 -0.117774,0.566032 -0.347657,0.779296 -0.190401,0.17682 -0.4081777,0.258279 -0.6328121,0.25 C 9.399079,18.702658 9.1757667,18.60241 8.9804688,18.412109 v 0.0059 l -0.00391,-0.0059 h 0.00391 C 8.8575247,18.292296 8.7792003,18.182242 8.7324219,18.048828 8.68613,17.916888 8.6743835,17.767823 8.6875,17.576172 8.7007468,17.382494 8.7472381,17.223954 8.8320313,17.089844 8.9170665,16.955302 9.0369647,16.850225 9.2011719,16.763672 9.4099575,16.653681 9.6148041,16.617921 9.8125,16.65625 Z m 9.783203,3.291016 0.460938,0.01367 0.21289,0.07813 0.01367,0.173829 -0.115234,1.048828 z m -15.9843749,0.002 c 0.016446,0.170536 0.042295,0.471648 0.056641,0.603515 l -0.7675782,0.882813 c -0.00991,-0.07355 -0.015069,-0.09511 -0.027344,-0.205078 z m 13.4726559,1.052734 0.002,0.152344 c 0.001,0.09238 0.01301,0.307693 0.0293,0.511719 l 0.03125,0.378906 h 0.804688 c 0.37514,0 0.571784,-8.3e-5 0.71289,-0.01563 0.06523,-0.0072 0.104999,-0.03203 0.154297,-0.04883 l 0.01367,0.02539 0.13086,-0.07227 0.132812,-0.07031 -0.01953,-0.03711 c 0.0554,-0.04808 0.121404,-0.08693 0.158203,-0.150391 0.06505,-0.112573 0.105906,-0.253726 0.130859,-0.4375 l 0.0332,-0.236328 h -1.15625 z m 0.3125,0.300781 h 0.845703 0.796875 c -0.01964,0.08537 -0.03839,0.17756 -0.06445,0.222657 -0.03708,0.06395 -0.07891,0.103788 -0.154297,0.144531 -0.07717,0.04169 -0.08933,0.0495 -0.189453,0.06055 -0.111293,0.01226 -0.305828,0.01563 -0.679687,0.01563 h -0.527344 l -0.0078,-0.103516 c -0.01099,-0.137646 -0.01449,-0.238453 -0.01953,-0.339844 z M 2.6308594,21.648437 c 0.00357,0.02214 0.010112,0.06502 0.013672,0.08398 l -0.054687,0.06055 c -0.013565,1.48e-4 -0.027385,0.0019 -0.042969,0.002 z m -0.828125,0.833985 -0.171875,0.298828 -0.054687,-0.220703 c 0.063226,-0.05846 0.1639394,-0.03795 0.2265625,-0.07813 z m -0.4238282,0.52539 0.037109,0.148438 -0.2539062,0.439453 c -3.688e-4,-0.0271 -0.01182,-0.02896 -0.011719,-0.06055 7.344e-4,-0.230903 0.1488427,-0.362798 0.2285156,-0.527344 z m 0.7773438,0.13086 -0.097656,0.130859 c -0.069015,0.09274 -0.1002958,0.195866 -0.09375,0.289063 0.00661,0.09403 0.052679,0.192428 0.1347657,0.279297 l 0.1367187,0.144531 H 13 23.761719 l 0.138672,-0.144531 c 0.08759,-0.09261 0.133051,-0.196957 0.136718,-0.294922 0.0037,-0.09499 -0.0364,-0.199773 -0.115234,-0.283203 l -0.002,-0.002 -0.002,-0.002 -0.111328,-0.117187 H 12.982422 Z m -0.097656,0.130859 -0.019531,0.02539 -0.00586,0.0332 z M 2.3066406,23.4375 H 12.982422 23.677734 l 0.02734,0.0293 h -0.002 c 0.03437,0.03637 0.0357,0.05024 0.03516,0.06445 -5.33e-4,0.01423 -0.008,0.04821 -0.05664,0.09961 l -0.04883,0.05078 H 13 2.3652344 l -0.048828,-0.05078 c -0.045293,-0.04793 -0.051542,-0.07678 -0.052734,-0.09375 -0.00119,-0.017 -3.089e-4,-0.04218 0.035156,-0.08984 z m -0.7871094,0.136719 0.2734375,1.091797 c -0.2235776,-0.14235 -0.4300146,-0.331329 -0.5449218,-0.578125 -0.00475,-0.0102 -0.00154,-0.0216 -0.00586,-0.03125 z"
       id="path2873" />
  </g>
</svg>
