<svg width="24" height="24" viewBox="0 0 24 24" fill="none" xmlns="http://www.w3.org/2000/svg">
<path fill-rule="evenodd" clip-rule="evenodd" d="M2.01977 3.0331C1.61469 3.12576 1.19488 3.51781 1.0726 3.91763C0.976044 4.23317 0.9757 17.0851 1.07217 17.3963C1.17392 17.7245 1.41565 17.9957 1.75733 18.1649L2.05198 18.3109L5.46028 18.3225C8.55658 18.3331 8.86858 18.3403 8.86858 18.4011C8.86858 18.4909 8.65657 20.1621 8.63011 20.2812C8.60971 20.373 8.59631 20.375 8.01827 20.375C7.37541 20.375 7.27031 20.4051 7.21894 20.6037C7.18754 20.7252 7.28379 20.9355 7.38868 20.9746C7.47957 21.0085 16.5285 21.0085 16.6194 20.9746C16.7243 20.9355 16.8206 20.7252 16.7892 20.6037C16.7378 20.4051 16.6327 20.375 15.9898 20.375C15.4118 20.375 15.3984 20.373 15.378 20.2812C15.3515 20.1621 15.1395 18.4909 15.1395 18.4011C15.1395 18.3403 15.4515 18.3331 18.5478 18.3225L21.9561 18.3109L22.2508 18.1649C22.4628 18.0599 22.5897 17.9621 22.7032 17.8161C23.0218 17.4063 22.9997 17.9408 22.9997 10.6618C22.9997 4.89306 22.9919 4.10194 22.9334 3.91062C22.8401 3.60584 22.5593 3.28667 22.2486 3.13239L21.9964 3.00716L12.093 3.0007C6.09957 2.99678 2.12255 3.00958 2.01977 3.0331ZM21.9728 3.70746C22.1073 3.77543 22.1901 3.85641 22.2588 3.98735L22.3554 4.17158V10.6547C22.3554 17.1266 22.3552 17.1381 22.2664 17.3162C22.2142 17.4209 22.1122 17.534 22.0195 17.59L21.8615 17.6854H12.0041H2.14665L1.98863 17.59C1.89585 17.534 1.79389 17.4209 1.74166 17.3162C1.65288 17.1381 1.6527 17.1266 1.6527 10.6547V4.17158L1.74935 3.98735C1.81803 3.85641 1.90079 3.77543 2.03527 3.70746L2.22461 3.61181H12.0041H21.7835L21.9728 3.70746ZM2.48833 4.42307L2.38288 4.5254V10.6571C2.38288 16.7069 2.384 16.7899 2.46771 16.8712C2.58647 16.9865 2.70962 17.0079 3.1585 16.9911C3.50877 16.978 3.5589 16.9661 3.6323 16.878C3.74346 16.7447 3.73629 16.5732 3.61499 16.4625C3.53699 16.3914 3.46299 16.3719 3.27138 16.3719H3.02716V10.659V4.94619H11.1899H19.3527L19.4629 4.83919C19.5518 4.75287 19.568 4.7065 19.5467 4.59942C19.5322 4.5264 19.4796 4.43383 19.4298 4.39367C19.3443 4.32474 18.8774 4.3207 10.9665 4.3207H2.59373L2.48833 4.42307ZM20.3992 4.42307C20.2639 4.55438 20.2613 4.73532 20.3931 4.85553C20.4711 4.92667 20.5451 4.94619 20.7367 4.94619H20.9809V10.659V16.3719H12.8018H4.6226L4.5336 16.4817C4.48463 16.5422 4.44456 16.6163 4.44456 16.6466C4.44456 16.7568 4.54249 16.9059 4.64459 16.9511C4.72014 16.9845 7.05512 16.9973 13.0391 16.9973C21.89 16.9973 21.5204 17.0055 21.5985 16.8078C21.6132 16.7707 21.6252 13.992 21.6252 10.6329V4.5254L21.5198 4.42307C21.4211 4.32724 21.3852 4.3207 20.9595 4.3207C20.5338 4.3207 20.4978 4.32724 20.3992 4.42307ZM10.8025 18.6236C10.933 19.1222 11.1038 19.3478 11.5051 19.5512C11.7604 19.6807 12.2527 19.6775 12.5195 19.5446C12.9 19.3552 13.076 19.119 13.2056 18.6236L13.2765 18.3526L13.8764 18.3411L14.4763 18.3296L14.6059 19.3523L14.7354 20.375H12.0041H9.27271L9.40221 19.3523L9.53175 18.3296L10.1317 18.3411L10.7316 18.3526L10.8025 18.6236ZM12.5884 18.4664C12.5201 18.7977 12.2729 19.0406 12.0041 19.0406C11.7352 19.0406 11.488 18.7977 11.4197 18.4664L11.392 18.3317H12.0041H12.6161L12.5884 18.4664Z" fill="#090909"/>
<path fill-rule="evenodd" clip-rule="evenodd" d="M7.16039 6.04866C7.11199 6.07379 7.05208 6.147 7.02728 6.21131C6.94596 6.42218 7.02684 6.53089 7.53968 6.89998L8.01621 7.24295L8.57712 9.36485C8.88564 10.5319 9.17169 11.551 9.21281 11.6295L9.28759 11.7722L9.05914 12.2588C8.78735 12.8376 8.76295 13.0433 8.93322 13.3197C9.03535 13.4854 9.03652 13.4954 8.98085 13.725C8.93654 13.9079 8.93343 14.0106 8.967 14.1851C9.14644 15.1181 10.2932 15.3005 10.7168 14.4634C10.8192 14.2612 10.8305 14.201 10.8165 13.9351L10.8007 13.635H12.1573H13.5138L13.4971 13.9171C13.4829 14.1569 13.4965 14.2347 13.588 14.4357C13.9676 15.2692 15.0877 15.1542 15.332 14.2567C15.3937 14.0301 15.3949 13.9789 15.3433 13.7646C15.2965 13.5704 15.2951 13.505 15.3361 13.4174C15.3919 13.2985 15.3714 13.1762 15.2764 13.0599C15.2184 12.9889 15.0265 12.984 12.3322 12.984C10.4001 12.984 9.45007 12.9694 9.45007 12.9397C9.45007 12.9154 9.53009 12.7243 9.62789 12.515L9.80576 12.1347L9.96117 12.1489C10.2067 12.1715 14.4919 11.6094 14.7219 11.5244C14.9998 11.4218 15.352 11.0422 15.4417 10.7486C15.4781 10.6295 15.6262 9.88879 15.7709 9.10256C16.0151 7.7763 16.0296 7.66572 15.9717 7.57086C15.9374 7.51462 15.8694 7.45095 15.8206 7.42938C15.7718 7.40782 14.2321 7.32046 12.3991 7.23527C8.70546 7.06363 8.56193 7.05413 8.55999 6.98088C8.55923 6.95297 8.52683 6.88922 8.48788 6.83923C8.38927 6.71246 7.38358 5.99641 7.30925 6.00001C7.2758 6.00162 7.20883 6.02349 7.16039 6.04866ZM9.96497 7.79427C9.98509 7.81588 10.1739 8.97154 10.1765 9.08911C10.1769 9.10699 9.94445 9.12165 9.65993 9.12165H9.14264L8.95706 8.42109L8.77143 7.72054L9.35578 7.74401C9.67714 7.75695 9.95127 7.77956 9.96497 7.79427ZM11.5406 7.84812L11.8739 7.87598V8.49882V9.12165H11.3369H10.7998L10.7102 8.52494C10.6609 8.19678 10.6208 7.90384 10.6211 7.87399C10.6217 7.81241 10.9896 7.80204 11.5406 7.84812ZM13.6374 7.96386C13.645 7.97207 13.63 8.23592 13.604 8.5502L13.5567 9.12165H13.0183H12.4799V8.50732V7.89304L13.0517 7.92099C13.3662 7.93635 13.6298 7.95566 13.6374 7.96386ZM15.3339 8.05048C15.3465 8.06398 15.2373 8.69628 15.1658 9.02401C15.1452 9.11862 15.1294 9.12165 14.6553 9.12165H14.1661L14.1933 8.76363C14.2083 8.56674 14.2315 8.30995 14.2449 8.19309L14.2693 7.98053L14.7942 8.00752C15.0829 8.02236 15.3258 8.04167 15.3339 8.05048ZM10.274 9.80876C10.2997 9.85333 10.5484 11.4285 10.5322 11.4441C10.5258 11.4503 10.3916 11.469 10.234 11.4857C9.80504 11.531 9.77765 11.4956 9.52969 10.5755C9.42033 10.1697 9.33041 9.82304 9.32988 9.80516C9.32851 9.76033 10.2482 9.7638 10.274 9.80876ZM11.8537 10.5321V11.2698L11.5117 11.3219C11.3236 11.3506 11.1637 11.3676 11.1564 11.3597C11.1437 11.3461 10.9058 9.87455 10.9049 9.80377C10.9046 9.78511 11.1179 9.77535 11.379 9.78207L11.8537 9.79431V10.5321ZM13.4757 10.0438C13.4617 10.193 13.4384 10.4855 13.4238 10.6939C13.394 11.1179 13.4149 11.0947 13.0252 11.1373C12.8919 11.1519 12.7147 11.1748 12.6314 11.1881L12.4799 11.2124V10.4925V9.77261H12.9904H13.5009L13.4757 10.0438ZM15.012 9.87025C15 9.92398 14.9682 10.0912 14.9412 10.2419C14.8563 10.7164 14.6524 10.9292 14.2388 10.9751C14.0353 10.9976 14.015 10.9921 14.015 10.9146C14.015 10.7757 14.0981 9.88583 14.1166 9.82686C14.1288 9.7878 14.2596 9.77261 14.5836 9.77261C15.0298 9.77261 15.0335 9.77344 15.012 9.87025ZM10.1241 13.7293C10.3048 13.9117 10.2184 14.2472 9.96626 14.3427C9.83865 14.391 9.64708 14.2837 9.5875 14.1306C9.44829 13.7726 9.86111 13.4639 10.1241 13.7293ZM14.6312 13.6955C14.7543 13.796 14.797 13.9996 14.7259 14.1474C14.6596 14.2852 14.4629 14.3865 14.3471 14.3427C13.9762 14.2023 14.0317 13.6327 14.4159 13.6363C14.4953 13.6371 14.5922 13.6637 14.6312 13.6955Z" fill="#1C7EFF"/>
</svg>
