<svg width="32" height="32" viewBox="0 0 32 32" fill="none" xmlns="http://www.w3.org/2000/svg">
<path fill-rule="evenodd" clip-rule="evenodd" d="M2.69304 4.04413C2.15293 4.16767 1.59319 4.69042 1.43014 5.22351C1.3014 5.64423 1.30094 22.7801 1.42957 23.1951C1.56524 23.6327 1.88755 23.9943 2.34312 24.2199L2.73599 24.4145L7.28039 24.43C11.4088 24.4441 11.8248 24.4537 11.8248 24.5348C11.8248 24.6545 11.5421 26.8828 11.5068 27.0416C11.4796 27.164 11.4618 27.1667 10.691 27.1667C9.83389 27.1667 9.69375 27.2068 9.62526 27.4716C9.5834 27.6336 9.71173 27.914 9.85159 27.9661C9.97277 28.0113 22.0381 28.0113 22.1592 27.9661C22.2991 27.914 22.4274 27.6336 22.3856 27.4716C22.3171 27.2068 22.1769 27.1667 21.3198 27.1667C20.5491 27.1667 20.5312 27.164 20.504 27.0416C20.4687 26.8828 20.186 24.6545 20.186 24.5348C20.186 24.4537 20.602 24.4441 24.7304 24.43L29.2748 24.4145L29.6677 24.2199C29.9504 24.0799 30.1196 23.9494 30.271 23.7548C30.6958 23.2084 30.6662 23.921 30.6662 14.2158C30.6662 6.52409 30.6559 5.46926 30.5779 5.21417C30.4535 4.80779 30.0791 4.38223 29.6648 4.17651L29.3286 4.00955L16.124 4.00093C8.13278 3.99571 2.83008 4.01277 2.69304 4.04413ZM29.2971 4.94329C29.4764 5.03391 29.5868 5.14189 29.6783 5.31647L29.8072 5.56211V14.2062C29.8072 22.8355 29.807 22.8508 29.6886 23.0883C29.619 23.2279 29.483 23.3786 29.3593 23.4533L29.1486 23.5805H16.0054H2.86221L2.65152 23.4533C2.52781 23.3786 2.39186 23.2279 2.32222 23.0883C2.20384 22.8508 2.20362 22.8355 2.20362 14.2062V5.56211L2.33247 5.31647C2.42404 5.14189 2.5344 5.03391 2.71371 4.94329L2.96615 4.81574H16.0054H29.0447L29.2971 4.94329ZM3.31778 5.89743L3.17719 6.03387V14.2095C3.17719 22.2759 3.17868 22.3866 3.29029 22.4949C3.44864 22.6487 3.61283 22.6771 4.21135 22.6548C4.67837 22.6374 4.74521 22.6214 4.84308 22.5041C4.99129 22.3263 4.98173 22.0976 4.82 21.95C4.716 21.8552 4.61733 21.8291 4.36185 21.8291H4.03622V14.212V6.59492H14.9199H25.8036L25.9505 6.45225C26.0691 6.33716 26.0907 6.27533 26.0623 6.13256C26.043 6.0352 25.9728 5.91177 25.9064 5.85823C25.7924 5.76632 25.1699 5.76093 14.622 5.76093H3.45832L3.31778 5.89743ZM27.1989 5.89743C27.0185 6.07251 27.0151 6.31375 27.1908 6.47405C27.2948 6.5689 27.3935 6.59492 27.649 6.59492H27.9746V14.212V21.8291H17.0691H6.16347L6.04481 21.9756C5.97952 22.0562 5.92609 22.1551 5.92609 22.1954C5.92609 22.3424 6.05666 22.5411 6.19279 22.6014C6.29353 22.646 9.40683 22.6631 17.3854 22.6631C29.1866 22.6631 28.6939 22.674 28.7981 22.4104C28.8176 22.3609 28.8336 18.656 28.8336 14.1772V6.03387L28.693 5.89743C28.5615 5.76966 28.5136 5.76093 27.946 5.76093C27.3784 5.76093 27.3304 5.76966 27.1989 5.89743ZM14.4034 24.8315C14.5773 25.4963 14.8051 25.797 15.3402 26.0683C15.6805 26.2409 16.3369 26.2367 16.6926 26.0595C17.2 25.8069 17.4347 25.492 17.6074 24.8315L17.702 24.4701L18.5019 24.4548L19.3018 24.4394L19.4745 25.803L19.6472 27.1667H16.0054H12.3636L12.5363 25.803L12.709 24.4394L13.5089 24.4548L14.3088 24.4701L14.4034 24.8315ZM16.7845 24.6218C16.6935 25.0636 16.3639 25.3875 16.0054 25.3875C15.6469 25.3875 15.3173 25.0636 15.2263 24.6218L15.1893 24.4423H16.0054H16.8215L16.7845 24.6218Z" fill="#090909"/>
<path fill-rule="evenodd" clip-rule="evenodd" d="M9.5472 8.06488C9.48267 8.09839 9.40279 8.196 9.36972 8.28175C9.26129 8.56291 9.36913 8.70785 10.0529 9.19998L10.6883 9.65727L11.4362 12.4865C11.8475 14.0426 12.2289 15.4014 12.2838 15.506L12.3835 15.6963L12.0789 16.345C11.7165 17.1168 11.6839 17.391 11.911 17.7596C12.0471 17.9805 12.0487 17.9939 11.9745 18.3001C11.9154 18.5439 11.9112 18.6807 11.956 18.9135C12.1953 20.1575 13.7242 20.4007 14.2891 19.2845C14.4256 19.015 14.4407 18.9347 14.422 18.5801L14.401 18.1799H16.2097H18.0184L17.9961 18.5562C17.9772 18.8759 17.9954 18.9797 18.1174 19.2476C18.6235 20.3589 20.1169 20.2057 20.4427 19.0089C20.525 18.7068 20.5265 18.6386 20.4577 18.3528C20.3953 18.0939 20.3935 18.0066 20.4482 17.8899C20.5225 17.7313 20.4952 17.5682 20.3686 17.4133C20.2912 17.3186 20.0354 17.312 16.443 17.312C13.8668 17.312 12.6001 17.2926 12.6001 17.253C12.6001 17.2205 12.7068 16.9657 12.8372 16.6867L13.0744 16.1796L13.2816 16.1985C13.609 16.2286 19.3226 15.4791 19.6292 15.3659C19.9997 15.2291 20.4693 14.7229 20.589 14.3315C20.6374 14.1727 20.835 13.185 21.0279 12.1367C21.3534 10.3684 21.3728 10.221 21.2956 10.0945C21.2499 10.0195 21.1593 9.9346 21.0941 9.90585C21.0291 9.87709 18.9761 9.76061 16.5321 9.64703C11.6073 9.41818 11.4159 9.40551 11.4133 9.30783C11.4123 9.27063 11.3691 9.18563 11.3172 9.11897C11.1857 8.94995 9.84479 7.99522 9.74568 8.00002C9.70108 8.00216 9.61178 8.03132 9.5472 8.06488ZM13.2866 10.3924C13.3135 10.4212 13.5652 11.9621 13.5687 12.1188C13.5692 12.1426 13.2593 12.1622 12.8799 12.1622H12.1902L11.9428 11.2281L11.6953 10.294L12.4744 10.3254C12.9029 10.3426 13.2684 10.3727 13.2866 10.3924ZM15.3875 10.4642L15.8319 10.5013V11.3318V12.1622H15.1158H14.3998L14.2803 11.3666C14.2146 10.929 14.1611 10.5385 14.1615 10.4987C14.1622 10.4165 14.6528 10.4027 15.3875 10.4642ZM18.1832 10.6185C18.1934 10.6294 18.1734 10.9812 18.1387 11.4003L18.0756 12.1622H17.3577H16.6398V11.3431V10.5241L17.4023 10.5613C17.8216 10.5818 18.173 10.6075 18.1832 10.6185ZM20.4452 10.734C20.462 10.752 20.3164 11.595 20.2211 12.032C20.1936 12.1582 20.1726 12.1622 19.5405 12.1622H18.8882L18.9245 11.6848C18.9444 11.4223 18.9754 11.0799 18.9933 10.9241L19.0258 10.6407L19.7256 10.6767C20.1105 10.6965 20.4344 10.7222 20.4452 10.734ZM13.6987 13.0783C13.7329 13.1378 14.0645 15.238 14.043 15.2589C14.0345 15.2671 13.8555 15.292 13.6454 15.3142C13.0734 15.3746 13.0369 15.3274 12.7063 14.1006C12.5605 13.5596 12.4406 13.0974 12.4399 13.0735C12.438 13.0138 13.6643 13.0184 13.6987 13.0783ZM15.8049 14.0427V15.0264L15.3489 15.0959C15.0981 15.1341 14.885 15.1568 14.8752 15.1463C14.8583 15.1282 14.5411 13.1661 14.5398 13.0717C14.5394 13.0468 14.8239 13.0338 15.1721 13.0428L15.8049 13.0591V14.0427ZM17.9675 13.3918C17.949 13.5907 17.9178 13.9807 17.8984 14.2585C17.8587 14.8239 17.8865 14.7929 17.367 14.8498C17.1892 14.8692 16.9529 14.8997 16.8418 14.9175L16.6398 14.9498V13.99V13.0301H17.3205H18.0013L17.9675 13.3918ZM20.016 13.1603C20.0001 13.232 19.9576 13.4549 19.9216 13.6559C19.8084 14.2885 19.5365 14.5722 18.9851 14.6334C18.7138 14.6635 18.6866 14.6562 18.6866 14.5527C18.6866 14.3676 18.7975 13.1811 18.8221 13.1025C18.8385 13.0504 19.0128 13.0301 19.4448 13.0301C20.0398 13.0301 20.0446 13.0312 20.016 13.1603ZM13.4989 18.3057C13.7397 18.5489 13.6246 18.9963 13.2884 19.1236C13.1182 19.188 12.8628 19.045 12.7833 18.8408C12.5977 18.3634 13.1482 17.9518 13.4989 18.3057ZM19.5082 18.2607C19.6725 18.3946 19.7294 18.6662 19.6346 18.8632C19.5462 19.0469 19.2839 19.1821 19.1295 19.1236C18.635 18.9364 18.7089 18.1769 19.2212 18.1818C19.3271 18.1828 19.4563 18.2183 19.5082 18.2607Z" fill="#1C7EFF"/>
</svg>
