<?xml version="1.0" encoding="UTF-8" standalone="no"?>
<svg
   width="24"
   height="24"
   viewBox="0 0 24 24"
   fill="none"
   version="1.1"
   id="svg2620"
   sodipodi:docname="Laptop.svg"
   inkscape:version="1.2.2 (1:1.2.2+202212051552+b0a8486541)"
   xmlns:inkscape="http://www.inkscape.org/namespaces/inkscape"
   xmlns:sodipodi="http://sodipodi.sourceforge.net/DTD/sodipodi-0.dtd"
   xmlns="http://www.w3.org/2000/svg"
   xmlns:svg="http://www.w3.org/2000/svg">
  <defs
     id="defs2624" />
  <sodipodi:namedview
     id="namedview2622"
     pagecolor="#ffffff"
     bordercolor="#000000"
     borderopacity="0.25"
     inkscape:showpageshadow="2"
     inkscape:pageopacity="0.0"
     inkscape:pagecheckerboard="0"
     inkscape:deskcolor="#d1d1d1"
     showgrid="false"
     inkscape:zoom="32.833333"
     inkscape:cx="12"
     inkscape:cy="12.015228"
     inkscape:window-width="1920"
     inkscape:window-height="1016"
     inkscape:window-x="0"
     inkscape:window-y="0"
     inkscape:window-maximized="1"
     inkscape:current-layer="svg2620" />
  <path
     style="color:#000000;fill:#090909;stroke-linecap:round;stroke-linejoin:round;-inkscape-stroke:none"
     d="M 6.1992187,3 C 5.0791099,3 4.3810389,2.9479086 3.6386719,3.3261719 c -0.5643911,0.287557 -1.024943,0.7481089 -1.3125,1.3125 C 1.9479057,5.3810446 2,6.0791199 2,7.1992187 V 15.347656 C 1.5658476,15.611734 1.2031935,15.979218 1.0683594,16.482422 0.98164601,16.805911 1,17.023985 1,17.333984 c 0,0.62 -0.0191868,0.992787 0.1015625,1.44336 0.2769788,1.033746 1.0874365,1.844026 2.1210938,2.121093 a 1.0001,1.0001 0 0 0 0.00195,0 C 3.6750556,21.01905 4.0460362,21 4.6660156,21 H 19.333984 c 0.62,0 0.990949,0.01907 1.441407,-0.101563 a 1.0001,1.0001 0 0 0 0.002,0 c 1.033673,-0.277063 1.84403,-1.08742 2.121093,-2.121093 a 1.0001,1.0001 0 0 0 0,-0.002 C 23.019067,18.324933 23,17.953984 23,17.333984 23,17.023985 23.018467,16.806049 22.931641,16.482422 22.796863,15.979047 22.434182,15.611731 22,15.347656 V 7.1992187 C 22,6.0791199 22.052114,5.3810501 21.673828,4.6386719 21.386272,4.0741657 20.925654,3.6137185 20.361328,3.3261719 19.618933,2.9478764 18.92088,3 17.800781,3 Z m 0,2 H 17.800781 c 1.120099,0 1.53914,0.051691 1.652344,0.109375 0.188274,0.095933 0.341656,0.2493469 0.4375,0.4375 C 19.948338,5.660136 20,6.0791199 20,7.1992187 V 15 H 4 V 7.1992187 C 4,6.0791199 4.0516616,5.6601415 4.109375,5.546875 4.2052976,5.3586068 4.3586068,5.2052976 4.546875,5.109375 4.6601471,5.0516587 5.0791099,5 6.1992187,5 Z M 3,17 c -0.06915,0.01854 0.023995,0 0.3339844,0 H 20.666016 c 0.309999,0 0.403411,0.01863 0.333984,0 -0.01863,-0.06943 0,0.02398 0,0.333984 0,0.618693 -0.01765,0.865012 -0.0332,0.923828 -0.09294,0.346726 -0.362259,0.616049 -0.708985,0.708985 C 20.198996,18.982346 19.952677,19 19.333984,19 H 4.6660156 c -0.6186731,0 -0.8649409,-0.01764 -0.9238281,-0.0332 h -0.00195 C 3.3942302,18.873512 3.1259557,18.605939 3.0332031,18.259766 a 1.0001,1.0001 0 0 0 0,-0.002 C 3.0176526,18.199786 3,17.953984 3,17.333984 3,17.023985 3.0185734,16.930711 3,17 Z"
     id="path2618" />
</svg>
