<?xml version="1.0" encoding="UTF-8" standalone="no"?>
<svg
   width="24"
   height="24"
   viewBox="0 0 24 24"
   fill="none"
   version="1.1"
   id="svg2365"
   sodipodi:docname="Mail.svg"
   inkscape:version="1.2.2 (1:1.2.2+202212051552+b0a8486541)"
   xmlns:inkscape="http://www.inkscape.org/namespaces/inkscape"
   xmlns:sodipodi="http://sodipodi.sourceforge.net/DTD/sodipodi-0.dtd"
   xmlns="http://www.w3.org/2000/svg"
   xmlns:svg="http://www.w3.org/2000/svg">
  <defs
     id="defs2369" />
  <sodipodi:namedview
     id="namedview2367"
     pagecolor="#ffffff"
     bordercolor="#000000"
     borderopacity="0.25"
     inkscape:showpageshadow="2"
     inkscape:pageopacity="0.0"
     inkscape:pagecheckerboard="0"
     inkscape:deskcolor="#d1d1d1"
     showgrid="false"
     inkscape:zoom="32.833333"
     inkscape:cx="12"
     inkscape:cy="13.081218"
     inkscape:window-width="1920"
     inkscape:window-height="1016"
     inkscape:window-x="0"
     inkscape:window-y="0"
     inkscape:window-maximized="1"
     inkscape:current-layer="svg2365" />
  <path
     style="color:#000000;fill:#000000;stroke-linecap:round;stroke-linejoin:round;-inkscape-stroke:none"
     d="M 6.8007812,3 C 5.1206229,3 4.1398706,2.9482961 3.1835938,3.4355469 2.4310548,3.8189819 1.8189819,4.4310548 1.4355469,5.1835937 1.1457144,5.7524182 1.0621742,6.3873914 1.0292969,7.1152344 a 1,1 0 0 0 -0.00195,0.076172 C 1.0085445,7.6708922 1,8.1508035 1,8.8007813 v 6.3984377 c 0,1.680198 -0.051647,2.660918 0.4355469,3.617187 0.3834431,0.752568 0.9955197,1.364645 1.7480469,1.748047 C 4.139878,21.051737 5.1206229,21 6.8007812,21 H 17.199219 c 1.680198,0 2.66091,0.05168 3.617187,-0.435547 0.752557,-0.38341 1.364637,-0.99549 1.748047,-1.748047 C 23.051681,17.860129 23,16.879417 23,15.199219 V 8.8007813 C 23,8.155535 22.990939,7.6800744 22.972656,7.203125 a 1,1 0 0 0 -0.0078,-0.4453125 C 22.918083,6.1698146 22.812441,5.6702637 22.564453,5.1835937 22.181051,4.4310666 21.568974,3.81899 20.816406,3.4355469 19.860137,2.948353 18.879417,3 17.199219,3 Z m 0,2 H 17.199219 c 1.680198,0 2.381655,0.051984 2.708984,0.21875 0.376431,0.1917963 0.68125,0.4965952 0.873047,0.8730469 0.03149,0.061799 0.01733,0.4191868 0.04102,0.5117187 l -7.560547,5.2929684 c -0.661172,0.462881 -0.912345,0.606106 -1.019531,0.632813 -0.158756,0.03959 -0.32562,0.03959 -0.484375,0 -0.107187,-0.02671 -0.35836,-0.169932 -1.019532,-0.632813 L 3.1777344,6.6035156 C 3.201419,6.5109819 3.1872608,6.1535975 3.21875,6.0917969 3.4105544,5.7153569 3.7153569,5.4105544 4.0917969,5.21875 4.4189787,5.0520414 5.1206229,5 6.8007812,5 Z M 3,8.9199219 7.5410156,12.099609 3.0761719,16.132812 C 3.061367,15.761642 3,15.778302 3,15.199219 Z m 18,0 v 6.2792971 c 0,0.579083 -0.06137,0.562426 -0.07617,0.933593 L 16.458984,12.099609 Z M 9.2207031,13.275391 9.5917969,13.535156 c 0.6606401,0.462508 1.0705291,0.78094 1.6816411,0.933594 0.476443,0.118811 0.976681,0.118811 1.453125,0 0.611111,-0.152654 1.021,-0.471086 1.68164,-0.933594 l 0.371094,-0.259765 5.58789,5.046875 C 20.214659,18.479789 20.106109,18.680421 19.908203,18.78125 19.580881,18.948022 18.879417,19 17.199219,19 H 6.8007812 C 5.1206229,19 4.4189714,18.947965 4.0917969,18.78125 3.893886,18.680417 3.7853571,18.479797 3.6328125,18.322266 Z"
     id="path2363" />
</svg>
