<svg width="24" height="24" viewBox="0 0 24 24" fill="none" xmlns="http://www.w3.org/2000/svg">
<path fill-rule="evenodd" clip-rule="evenodd" d="M13.4982 0.0690026C12.342 0.319886 11.3849 1.27419 11.1223 2.43804L11.0494 2.76119L6.23638 2.77461L1.42334 2.78799L1.15364 2.89701C0.613165 3.11541 0.221417 3.54214 0.0668278 4.08079C-0.000596903 4.31577 -0.00669232 5.23727 0.0044201 13.5136L0.0167047 22.686L0.147897 22.9676C0.320116 23.3371 0.681246 23.7001 1.04331 23.8676L1.32957 24H11.9731H22.6167L22.8848 23.8742C23.1799 23.7358 23.5782 23.3897 23.7444 23.1273C24.0149 22.7002 23.9998 23.2748 23.9998 13.384V4.31023L23.9018 4.0188C23.7227 3.48676 23.3621 3.10837 22.8299 2.89405C22.5731 2.79066 22.5353 2.78911 19.9177 2.77414L17.2656 2.75894L17.2059 2.46845C16.8643 0.806355 15.1658 -0.292775 13.4982 0.0690026ZM14.7048 0.770313C15.712 1.00796 16.4357 1.83054 16.5687 2.8887C16.5854 3.02151 16.5744 3.33828 16.5442 3.59264C16.3623 5.1268 15.5039 7.11238 14.6284 8.02416C14.2195 8.44995 14.116 8.45859 13.7545 8.09676C12.7899 7.13129 11.7621 4.58097 11.7621 3.15282C11.7621 2.33967 12.0815 1.67868 12.7011 1.20915C13.3014 0.754263 13.9941 0.602588 14.7048 0.770313ZM13.7651 1.59284C12.7864 1.83875 12.2524 2.95341 12.6728 3.87257C12.8249 4.20511 13.0674 4.45829 13.4141 4.64643C13.6896 4.796 13.7358 4.80595 14.1534 4.80595C14.5449 4.80595 14.6308 4.79027 14.8626 4.67633C15.1736 4.52343 15.5256 4.16442 15.6688 3.85408C15.8191 3.52844 15.8147 2.83248 15.6604 2.51974C15.383 1.95743 14.8474 1.5919 14.2593 1.56356C14.085 1.55511 13.8626 1.5683 13.7651 1.59284ZM14.6825 2.4172C15.3129 2.85552 15.1775 3.84094 14.4539 4.07995C14.2032 4.16278 13.8609 4.11463 13.6346 3.96479C13.3701 3.7896 13.192 3.40717 13.2336 3.10363C13.3316 2.38759 14.1098 2.01896 14.6825 2.4172ZM8.90219 8.60721C13.6244 13.3328 14.0495 13.746 14.1906 13.746C14.3298 13.746 14.4746 13.6128 15.7598 12.3029C16.5385 11.5092 17.5823 10.4463 18.0793 9.94094C18.8275 9.18003 18.9828 8.99903 18.9828 8.88808C18.9828 8.70224 18.8158 8.53682 18.6281 8.53682C18.4913 8.53682 18.2793 8.73829 16.3298 10.7217L14.1823 12.9065L9.50249 8.22277C6.92863 5.64673 4.82271 3.52313 4.82271 3.50375C4.82271 3.48432 6.22325 3.46846 7.93503 3.46846H11.0474L11.1064 3.85563C11.2941 5.08442 11.9454 6.76135 12.6602 7.85635C12.9627 8.31977 13.4668 8.83501 13.7385 8.95838C14.0097 9.08153 14.3401 9.07932 14.588 8.95271C15.5903 8.44094 16.8513 6.0475 17.193 4.00815L17.2796 3.49193H19.8791H22.4787L22.7068 3.60948C23.1273 3.82611 23.1566 3.77073 22.0059 4.93491C19.843 7.12326 19.6862 7.29183 19.6862 7.42816C19.6862 7.59406 19.8781 7.78529 20.0474 7.78816C20.1587 7.78999 20.4137 7.55084 21.7362 6.2043L23.294 4.61823L23.2953 5.95806L23.2965 7.29789L19.5572 11.1613C17.5006 13.2862 15.7904 15.0758 15.7568 15.1382C15.7232 15.2006 15.7093 15.2983 15.7261 15.3553C15.7428 15.4122 17.4161 17.1232 19.4445 19.1574L23.1324 22.856L22.9367 23.0324C22.666 23.2762 22.4789 23.3195 21.6971 23.3195H21.0229L14.0595 16.3505C7.91229 10.1984 7.07961 9.38155 6.95587 9.38155C6.83293 9.38155 6.43955 9.75801 3.75615 12.4435L0.696579 15.5055V14.1688V12.8321L3.08786 10.437C5.16434 8.35727 5.47914 8.02369 5.47914 7.90342C5.47914 7.78342 5.19946 7.48476 3.38513 5.66714L1.29112 3.56941L1.47445 3.53853C1.5753 3.52159 1.67888 3.50056 1.70467 3.49179C1.73046 3.48306 2.20506 3.47419 2.75936 3.47217L3.76717 3.46846L8.90219 8.60721ZM2.74816 6.01461L4.63516 7.9037L2.66587 9.8743L0.696579 11.8449V8.10559C0.696579 4.5759 0.711067 4.12547 0.824583 4.12547C0.844698 4.12547 1.71029 4.97559 2.74816 6.01461ZM23.2965 15.1889V22.0287L19.9433 18.6734C18.0989 16.828 16.5956 15.2945 16.6025 15.2657C16.6147 15.2148 23.2411 8.3491 23.278 8.3491C23.2882 8.3491 23.2965 11.427 23.2965 15.1889ZM10.8182 23.3079C4.46697 23.3161 1.56485 23.3044 1.43769 23.2702C1.18689 23.2025 0.815393 22.8371 0.74839 22.5921C0.713787 22.4655 0.697001 21.4423 0.69686 19.448L0.696579 16.4916L3.82625 13.3589L6.95592 10.2262L13.4852 16.7611L20.0145 23.2961L10.8182 23.3079Z" fill="#090909"/>
<path fill-rule="evenodd" clip-rule="evenodd" d="M6.37004 13.5345C6.20241 13.5721 5.88592 13.6915 5.66672 13.7998C5.12769 14.0661 4.54741 14.6391 4.29548 15.1538C4.03305 15.69 3.95836 16.0282 3.9637 16.6556C3.97805 18.331 5.09553 21.0441 6.20316 22.0926C6.83526 22.6909 7.35431 22.6665 8.01191 22.0076C8.394 21.6248 8.78823 21.0303 9.16483 20.2691C10.1582 18.2614 10.4372 16.3279 9.88892 15.2523C9.74151 14.9629 9.41249 14.9281 9.24501 15.1839C9.16924 15.2997 9.16938 15.3184 9.2474 15.5234C9.5496 16.3178 9.53839 17.0675 9.20694 18.2283C8.71499 19.9513 7.59235 21.8178 7.04794 21.8178C6.885 21.8178 6.49419 21.4319 6.17812 20.959C5.20717 19.5061 4.50901 17.2904 4.68165 16.2097C4.8338 15.2576 5.55845 14.4794 6.52359 14.2317C6.90442 14.1339 7.51457 14.1665 7.87045 14.3036C8.21704 14.4371 8.357 14.4315 8.47657 14.2793C8.69924 13.996 8.56533 13.7929 8.04468 13.6242C7.56525 13.4689 6.83685 13.4299 6.37004 13.5345ZM6.67199 15.0543C6.22065 15.1711 5.75613 15.561 5.56164 15.9864C5.4802 16.1645 5.45914 16.3001 5.4576 16.6556C5.45591 17.0542 5.46969 17.1287 5.5878 17.3595C5.76378 17.7033 6.00515 17.9466 6.34659 18.1242C6.59918 18.2556 6.67101 18.2707 7.04991 18.2726C7.4131 18.2744 7.5096 18.2569 7.74244 18.1477C8.48923 17.7975 8.86212 16.9713 8.62539 16.1914C8.41753 15.5064 7.85422 15.0612 7.15794 15.0317C6.96959 15.0237 6.75091 15.0339 6.67199 15.0543ZM7.57913 15.869C7.79829 16.0142 8.01111 16.4017 8.01111 16.6556C8.01111 16.9076 7.79829 17.297 7.58223 17.44C7.24609 17.6627 6.76882 17.6326 6.45593 17.3691C6.06864 17.043 6.03399 16.3858 6.38401 16.0048C6.6682 15.6954 7.22194 15.6325 7.57913 15.869Z" fill="#6FB955"/>
<path fill-rule="evenodd" clip-rule="evenodd" d="M13.4066 0.0585745C13.239 0.0961648 12.9225 0.215506 12.7033 0.323819C12.1643 0.590095 11.584 1.1631 11.332 1.67787C11.0696 2.21399 10.9949 2.55225 11.0003 3.1796C11.0146 4.85507 12.1321 7.56814 13.2397 8.61664C13.8718 9.21494 14.3909 9.19053 15.0485 8.53165C15.4306 8.1488 15.8248 7.5543 16.2014 6.79315C17.1947 4.78538 17.4738 2.85194 16.9255 1.77628C16.7781 1.48696 16.4491 1.45209 16.2816 1.70795C16.2058 1.82368 16.2059 1.8424 16.284 2.04744C16.5862 2.84181 16.5749 3.59155 16.2435 4.75234C15.7516 6.47535 14.6289 8.34182 14.0845 8.34182C13.9216 8.34182 13.5308 7.95592 13.2147 7.48301C12.2437 6.03013 11.5456 3.81441 11.7182 2.73377C11.8704 1.78158 12.595 1.0034 13.5602 0.755709C13.941 0.657955 14.5511 0.690571 14.907 0.827651C15.2536 0.961118 15.3936 0.955485 15.5131 0.803341C15.7358 0.520029 15.6019 0.316968 15.0812 0.148257C14.6018 -0.00707869 13.8734 -0.0460777 13.4066 0.0585745ZM13.7086 1.57833C13.2572 1.69509 12.7927 2.08503 12.5982 2.51044C12.5168 2.68854 12.4957 2.82411 12.4942 3.1796C12.4925 3.57827 12.5063 3.65274 12.6244 3.88354C12.8003 4.22735 13.0417 4.47058 13.3832 4.64821C13.6357 4.77966 13.7076 4.79477 14.0865 4.7966C14.4497 4.79838 14.5462 4.78097 14.779 4.67177C15.5258 4.32153 15.8987 3.49534 15.6619 2.71538C15.4541 2.0304 14.8908 1.58523 14.1945 1.55571C14.0062 1.54773 13.7875 1.55792 13.7086 1.57833ZM14.6157 2.39307C14.8348 2.53827 15.0477 2.92572 15.0477 3.1796C15.0477 3.43166 14.8348 3.82098 14.6188 3.96407C14.2826 4.1867 13.8054 4.15667 13.4925 3.89316C13.1052 3.567 13.0705 2.90981 13.4206 2.52879C13.7048 2.21938 14.2585 2.1565 14.6157 2.39307Z" fill="#1C7EFF"/>
</svg>
