<svg width="32" height="32" viewBox="0 0 32 32" fill="none" xmlns="http://www.w3.org/2000/svg">
<path fill-rule="evenodd" clip-rule="evenodd" d="M15.2237 0.067194C14.2873 0.368346 13.6109 1.24521 13.5008 2.30094C13.463 2.66531 13.3818 2.96345 13.3208 2.96345C13.2597 2.96345 12.7975 3.20941 12.2937 3.51019C10.5027 4.57921 5.88429 7.228 5.81147 7.228C5.7707 7.228 5.4964 7.07422 5.20172 6.8862C4.46647 6.41698 3.25367 6.39403 2.5364 6.83578C1.57776 7.42605 1.12732 8.59804 1.43049 9.7131C1.60651 10.3608 2.41952 11.2169 2.96038 11.324L3.33636 11.3985V16.0079V20.6174L2.96038 20.6919C2.41952 20.799 1.60651 21.6551 1.43049 22.3028C1.12896 23.4116 1.54256 24.5216 2.4879 25.1412C2.91606 25.4218 3.13957 25.4772 3.83367 25.4746C4.52117 25.4721 4.75925 25.4122 5.20172 25.1297C5.4964 24.9417 5.7707 24.7879 5.81147 24.7879C5.88429 24.7879 10.5027 27.4367 12.2937 28.5057C12.7975 28.8065 13.2597 29.0524 13.3208 29.0524C13.3818 29.0524 13.463 29.3506 13.5008 29.715C13.5876 30.5465 13.9589 31.1788 14.6318 31.6408C15.0801 31.9484 15.2765 32 16 32C16.7235 32 16.9199 31.9484 17.3682 31.6408C18.0411 31.1788 18.4124 30.5465 18.4992 29.715C18.537 29.3506 18.6182 29.0524 18.6793 29.0524C18.7403 29.0524 19.2025 28.8065 19.7063 28.5057C21.4973 27.4367 26.1157 24.7879 26.1885 24.7879C26.2293 24.7879 26.5036 24.9417 26.7983 25.1297C27.2408 25.4122 27.4788 25.4721 28.1664 25.4746C28.8604 25.4772 29.084 25.4218 29.5121 25.1412C30.4575 24.5216 30.8711 23.4116 30.5695 22.3028C30.3935 21.6551 29.5805 20.799 29.0396 20.6919L28.6637 20.6174V16.0079V11.3985L29.0396 11.324C29.5805 11.2169 30.3935 10.3608 30.5695 9.7131C30.8727 8.59804 30.4223 7.42605 29.4636 6.83578C28.7463 6.39403 27.5336 6.41698 26.7983 6.8862C26.5036 7.07422 26.2293 7.228 26.1885 7.228C26.1157 7.228 21.4973 4.57921 19.7063 3.51019C19.2025 3.20941 18.7403 2.96345 18.6793 2.96345C18.6182 2.96345 18.537 2.66531 18.4992 2.30094C18.3641 1.00502 17.4751 0.105951 16.2353 0.0117549C15.8621 -0.0167173 15.4068 0.00836831 15.2237 0.067194ZM17.0432 1.42733C17.9283 2.25892 17.3974 3.77497 16.1707 3.91933C15.5667 3.99045 15.1477 3.78086 14.7582 3.21242C14.5275 2.87577 14.4733 2.66405 14.5227 2.2909C14.593 1.75884 15.1051 1.13045 15.5426 1.03913C16.0472 0.933901 16.6968 1.10197 17.0432 1.42733ZM14.0751 3.99196C14.1587 4.07474 14.2271 4.2166 14.2271 4.30703C14.2271 4.42318 10.0995 11.5487 9.86726 11.8336C9.85485 11.8488 9.04995 11.402 8.07852 10.8408L6.31232 9.82034V8.97495V8.12945L7.00882 7.74212C7.3919 7.52915 9.0445 6.56887 10.6813 5.60822C12.3181 4.64744 13.717 3.857 13.7902 3.85148C13.8633 3.84596 13.9916 3.90917 14.0751 3.99196ZM21.216 5.55705C22.8396 6.50064 24.51 7.46781 24.9279 7.70613L25.6877 8.1396V8.97997V9.82034L23.9215 10.8408C22.9501 11.402 22.1452 11.8488 22.1328 11.8336C21.9005 11.5487 17.7729 4.42318 17.7729 4.30703C17.7729 4.12918 18.0186 3.84144 18.1704 3.84144C18.2218 3.84144 19.5923 4.61345 21.216 5.55705ZM15.4635 9.27661C15.4949 13.3752 15.4838 13.6248 15.2712 13.6248C15.1472 13.6248 14.8361 13.7659 14.5798 13.9384C14.3236 14.1108 14.077 14.252 14.032 14.252C13.8614 14.252 10.8117 12.4284 10.8098 12.3253C10.8088 12.2659 11.2513 11.4757 11.7931 10.5693C12.335 9.66293 13.318 8.0049 13.9776 6.88495C14.6371 5.76488 15.2339 4.86657 15.3035 4.88851C15.3839 4.91385 15.4423 6.51732 15.4635 9.27661ZM18.0224 6.88482C18.682 8.0049 19.665 9.66293 20.2069 10.5693C20.7488 11.4757 21.1912 12.2659 21.1902 12.3253C21.1883 12.4284 18.1386 14.252 17.9681 14.252C17.923 14.252 17.6764 14.1108 17.4202 13.9384C17.1639 13.7659 16.8535 13.6248 16.7304 13.6248C16.5207 13.6248 16.5066 13.3528 16.5066 9.3185C16.5066 5.35736 16.5345 4.84161 16.7493 4.84662C16.79 4.8475 17.3629 5.76463 18.0224 6.88482ZM4.90754 7.97366C5.24009 8.30316 5.29923 8.45556 5.29923 8.98399C5.29923 9.51956 5.24161 9.66343 4.88525 10.0164C4.5289 10.3693 4.38365 10.4264 3.84291 10.4264C3.30445 10.4264 3.15641 10.3688 2.80791 10.0235C2.45814 9.6771 2.40115 9.53273 2.40115 8.99126C2.40115 8.33076 2.7085 7.8377 3.27305 7.59211C3.74654 7.38616 4.48939 7.5595 4.90754 7.97366ZM29.2144 7.96639C29.5416 8.29049 29.5989 8.44201 29.5989 8.98399C29.5989 9.53361 29.5431 9.67597 29.1921 10.0235C28.8436 10.3688 28.6956 10.4264 28.1571 10.4264C27.6164 10.4264 27.4711 10.3693 27.1148 10.0164C26.7598 9.66481 26.7008 9.51856 26.7008 8.99164C26.7008 8.34694 27.0236 7.83732 27.5872 7.59211C28.0569 7.38779 28.8036 7.5595 29.2144 7.96639ZM7.55994 11.7033C8.47565 12.2331 9.24978 12.6856 9.28017 12.7091C9.31044 12.7324 9.22496 12.938 9.09022 13.1657C8.95535 13.3935 7.90477 15.1698 6.75555 17.1132C5.60632 19.0566 4.59488 20.6471 4.50775 20.6476C4.3839 20.6485 4.34946 19.6376 4.34946 16.0079C4.34946 11.6437 4.36288 11.3671 4.57462 11.3671C4.69847 11.3671 4.99771 11.2288 5.23946 11.0597C5.48133 10.8906 5.72764 10.7495 5.78703 10.7461C5.8463 10.7427 6.64411 11.1735 7.55994 11.7033ZM26.7369 11.0535C26.9932 11.226 27.3036 11.3671 27.4267 11.3671C27.6368 11.3671 27.6506 11.6538 27.6506 16.0079C27.6506 19.6376 27.6161 20.6485 27.4923 20.6476C27.3673 20.6468 25.3002 17.268 22.9017 13.1444C22.7583 12.898 22.7034 12.689 22.7751 12.6632C22.8447 12.6379 23.614 12.1967 24.4847 11.6827C25.3553 11.1687 26.1133 10.7462 26.1693 10.744C26.2253 10.7419 26.4807 10.8811 26.7369 11.0535ZM12.5808 14.6153L13.5306 15.1644V16.0084V16.8523L12.7708 17.2859C12.3529 17.5244 10.6335 18.5196 8.95016 19.4976C7.26665 20.4757 5.82768 21.2759 5.75259 21.2759C5.67737 21.2759 5.61582 21.22 5.61582 21.1515C5.61582 21.083 6.64968 19.2781 7.91326 17.1406L10.2108 13.2542L10.9209 13.6602C11.3115 13.8836 12.0585 14.3134 12.5808 14.6153ZM24.1479 17.2301C25.3778 19.3165 26.3842 21.0804 26.3842 21.1497C26.3842 21.2191 26.3227 21.2759 26.2474 21.2759C26.1723 21.2759 24.7334 20.4757 23.0499 19.4976C21.3665 18.5196 19.6471 17.5244 19.2292 17.2859L18.4694 16.8523V16.0125V15.1725L20.1139 14.2151C21.0185 13.6884 21.793 13.298 21.835 13.3471C21.8771 13.3964 22.9179 15.1437 24.1479 17.2301ZM17.0646 14.9976C17.3972 15.3271 17.4563 15.4795 17.4563 16.0079C17.4563 16.5435 17.3987 16.6874 17.0424 17.0403C16.686 17.3933 16.5407 17.4504 16 17.4504C15.4593 17.4504 15.314 17.3933 14.9577 17.0403C14.6027 16.6888 14.5437 16.5425 14.5437 16.0156C14.5437 15.3709 14.8665 14.8613 15.4301 14.6161C15.9036 14.4101 16.6465 14.5835 17.0646 14.9976ZM14.5798 18.0775C14.8361 18.25 15.1465 18.3911 15.2696 18.3911C15.4746 18.3911 15.4935 18.5653 15.4935 20.4606V22.5302H10.8712C7.22068 22.5302 6.249 22.4967 6.249 22.371C6.249 22.2835 6.57661 22.0299 6.97716 21.8074C7.37771 21.585 9.10149 20.5866 10.8079 19.5888C12.5143 18.591 13.9562 17.7722 14.0122 17.7692C14.0682 17.7663 14.3236 17.905 14.5798 18.0775ZM21.1073 19.5423C22.7906 20.5202 24.5237 21.5221 24.9584 21.7686C25.393 22.0149 25.7492 22.2872 25.7499 22.3734C25.7508 22.496 24.7427 22.5302 21.1288 22.5302H16.5066V20.4606C16.5066 18.5608 16.525 18.3911 16.7317 18.3911C16.8556 18.3911 17.1548 18.2527 17.3966 18.0837C17.6384 17.9146 17.8835 17.7735 17.9413 17.7701C17.9991 17.7667 19.4238 18.5642 21.1073 19.5423ZM4.90754 22.0216C5.24009 22.3511 5.29923 22.5035 5.29923 23.0319C5.29923 23.5675 5.24161 23.7113 4.88525 24.0643C4.5289 24.4173 4.38365 24.4743 3.84291 24.4743C3.30445 24.4743 3.15641 24.4168 2.80791 24.0715C2.45814 23.725 2.40115 23.5807 2.40115 23.0392C2.40115 22.3787 2.7085 21.8856 3.27305 21.64C3.74654 21.4341 4.48939 21.6074 4.90754 22.0216ZM29.2144 22.0143C29.5416 22.3384 29.5989 22.4899 29.5989 23.0319C29.5989 23.5815 29.5431 23.7239 29.1921 24.0715C28.8436 24.4168 28.6956 24.4743 28.1571 24.4743C27.6164 24.4743 27.4711 24.4173 27.1148 24.0643C26.7598 23.7127 26.7008 23.5665 26.7008 23.0396C26.7008 22.3949 27.0236 21.8852 27.5872 21.64C28.0569 21.4357 28.8036 21.6074 29.2144 22.0143ZM15.4935 25.3366V27.1397L15.1422 27.2093C14.9489 27.2475 14.5813 27.4803 14.3252 27.7267C14.0692 27.9729 13.8319 28.1744 13.7979 28.1744C13.764 28.1744 12.4077 27.4024 10.784 26.4588C9.16037 25.5153 7.47636 24.5416 7.04162 24.2952C6.607 24.0488 6.25078 23.7767 6.25014 23.6904C6.24926 23.5679 7.25728 23.5336 10.8712 23.5336H15.4935V25.3366ZM25.7499 23.6904C25.7492 23.7767 25.393 24.0488 24.9584 24.2952C24.5237 24.5416 22.8396 25.5153 21.216 26.4588C19.5923 27.4024 18.236 28.1744 18.2021 28.1744C18.1682 28.1744 17.9308 27.9729 17.6748 27.7267C17.4187 27.4803 17.0511 27.2475 16.8578 27.2093L16.5066 27.1397V25.3366V23.5336H21.1288C24.7427 23.5336 25.7508 23.5679 25.7499 23.6904ZM17.0691 28.5544C17.3844 28.8615 17.4418 29.0153 17.4418 29.5542C17.4418 30.1014 17.3855 30.2466 17.0424 30.5866C16.6992 30.9265 16.5525 30.9822 16 30.9822C15.4475 30.9822 15.3008 30.9265 14.9577 30.5866C14.6154 30.2475 14.5583 30.1006 14.5583 29.5597C14.5583 29.0375 14.6203 28.8643 14.9166 28.5579C15.5139 27.9405 16.4375 27.939 17.0691 28.5544Z" fill="#090909"/>
</svg>
