<svg width="24" height="24" viewBox="0 0 24 24" fill="none" xmlns="http://www.w3.org/2000/svg">
<path fill-rule="evenodd" clip-rule="evenodd" d="M11.1027 0.578233C10.6245 0.667694 10.0298 0.894962 9.57625 1.16174C9.13033 1.42396 9.09739 1.45527 9.05913 1.65298C9.03497 1.77758 9.05227 1.83059 9.14993 1.93145C9.31771 2.10475 9.43807 2.08882 9.86599 1.8367C10.2651 1.60157 10.5876 1.46415 11.0372 1.33765C11.4527 1.22077 12.5734 1.22587 13.0072 1.34663C14.5335 1.77156 15.6106 2.85125 16.0738 4.42053C16.1865 4.80245 16.1996 4.92337 16.1992 5.57522C16.1988 6.38124 16.1279 6.75627 15.8614 7.36332C15.7176 7.69087 15.3415 8.31778 15.2887 8.31778C15.2729 8.31778 15.1564 8.14847 15.0297 7.94159C14.7786 7.53117 14.1341 6.80952 13.7766 6.53851L13.5511 6.3675L13.6471 6.22834C14.0439 5.65284 14.1051 4.81716 13.7994 4.14788C13.642 3.80319 13.2289 3.37477 12.8887 3.20347C11.8881 2.69966 10.6736 3.13949 10.2042 4.17569C9.92948 4.78197 9.97324 5.57449 10.3118 6.12567L10.4508 6.35187L10.274 6.49536C9.8783 6.8166 9.19101 7.58277 8.97087 7.94809L8.7403 8.33074L8.63333 8.2023C8.42386 7.95081 8.14953 7.41322 8.01112 6.9829C7.58363 5.65424 7.76537 4.27598 8.51922 3.12944C8.73489 2.8014 8.76408 2.59642 8.61683 2.44434C8.47161 2.29435 8.25777 2.31828 8.0905 2.50322C7.74187 2.88868 7.32904 3.81659 7.17949 4.55067C6.91071 5.87045 7.18156 7.2975 7.91398 8.42063C8.34406 9.08006 9.14086 9.80177 9.83878 10.164C10.1758 10.339 10.794 10.5393 11.1895 10.6018C11.3901 10.6334 11.5807 10.667 11.6129 10.6763C11.6582 10.6893 11.6716 11.0138 11.6713 12.0903L11.6709 13.4874L10.2611 14.4263L8.85116 15.3653L8.51513 14.9936C7.52432 13.8979 6.34622 13.3673 4.904 13.3673C3.30752 13.3673 1.92165 14.0805 0.945175 15.4047C0.627845 15.8351 0.276912 16.5942 0.125578 17.1776C0.0142404 17.607 0 17.7499 0 18.4385C0 19.1222 0.0146634 19.2716 0.122383 19.6863C0.56985 21.4092 1.78757 22.7406 3.41783 23.2893C3.62142 23.3579 3.84509 23.414 3.91483 23.414C4.18347 23.414 4.35586 22.9977 4.16223 22.8167C4.11612 22.7737 3.87822 22.6709 3.6335 22.5884C3.02934 22.3847 2.18559 21.8912 2.17995 21.7383C2.17647 21.6447 2.5933 20.9625 2.8258 20.6813C3.1012 20.348 3.46577 20.0188 3.82305 19.7806C4.39233 19.4011 4.42429 19.2799 4.05982 18.8819C3.74851 18.5419 3.6374 18.2786 3.63609 17.8777C3.63219 16.6735 5.07648 16.1063 5.86026 17.0044C6.10592 17.2857 6.18831 17.5051 6.18934 17.8803C6.19047 18.287 6.07232 18.5621 5.75649 18.8883C5.38789 19.269 5.41604 19.3796 5.97907 19.7625C6.63803 20.2107 7.20661 20.8515 7.5325 21.5134C7.63227 21.716 7.63307 21.7281 7.55285 21.8196C7.41368 21.9784 6.80361 22.3486 6.44247 22.4933C6.25547 22.5682 5.92268 22.6652 5.70296 22.7086C5.48325 22.7521 5.25629 22.7978 5.19858 22.8103C5.14091 22.8227 5.05994 22.9004 5.01862 22.9828C4.95654 23.1069 4.95344 23.1572 5.00072 23.2752C5.0817 23.4771 5.19933 23.5263 5.50891 23.488C7.12446 23.2883 8.58699 22.2112 9.33327 20.6714C9.61986 20.0801 9.83821 19.1145 9.83821 18.4385C9.83821 17.7678 9.61911 16.7935 9.33881 16.2183L9.22677 15.9883L9.82651 15.585C11.6121 14.3842 12.0017 14.1375 12.0582 14.1718C12.0998 14.1971 14.3728 15.7034 14.7622 15.9637C14.7689 15.9682 14.6982 16.142 14.6052 16.35C14.3048 17.0215 14.1978 17.5536 14.1952 18.39C14.1937 18.8973 14.2162 19.2225 14.2696 19.4624C14.7009 21.4011 16.0122 22.8213 17.8621 23.3535C18.2833 23.4747 18.389 23.4855 19.1209 23.4823C19.7809 23.4795 19.9826 23.4611 20.2805 23.3765C22.0739 22.8677 23.4106 21.4998 23.8756 19.6972C23.9855 19.2714 24 19.1246 24 18.4385C24 17.7524 23.9855 17.6053 23.8753 17.1765C23.7303 16.6124 23.414 15.9068 23.1069 15.4623C22.831 15.0629 22.2647 14.4777 21.9981 14.3163C21.8214 14.2093 21.7702 14.1984 21.6491 14.242C21.5139 14.2907 21.4003 14.4562 21.4003 14.6044C21.4003 14.6424 21.6596 14.9417 21.9766 15.2696C22.4083 15.7163 22.6046 15.961 22.759 16.2451C23.3045 17.2486 23.4571 18.4085 23.1882 19.5064C23.0841 19.9316 22.7608 20.649 22.5252 20.9774L22.3754 21.1863L22.141 20.8075C21.7728 20.2126 21.2541 19.6442 20.7386 19.2714C20.6385 19.199 20.6365 19.1878 20.7081 19.1061C20.8441 18.9508 21.0304 18.4703 21.0718 18.1679C21.1909 17.2974 20.726 16.4118 19.9468 16.0247C19.6868 15.8956 19.5697 15.868 19.208 15.8508C18.5423 15.8193 18.0961 16.0039 17.6437 16.4978C17.3083 16.8641 17.1623 17.2165 17.1337 17.7285C17.1054 18.2369 17.1745 18.5647 17.3869 18.929L17.552 19.2122L17.4205 19.3108C16.7789 19.7916 16.3329 20.3112 15.8744 21.1121C15.8296 21.1902 15.8002 21.1647 15.6218 20.8933C14.4426 19.0998 14.6941 16.7313 16.2207 15.2548C16.7966 14.6979 17.475 14.3253 18.2216 14.1563C18.7358 14.0398 19.5887 14.0542 20.1002 14.188C20.5635 14.3093 20.705 14.2951 20.8186 14.1161C20.934 13.9341 20.858 13.7049 20.6475 13.5998C20.1634 13.3582 18.824 13.268 18.1274 13.43C16.9959 13.6932 16.0278 14.2892 15.3282 15.1532L15.1585 15.3629L13.7793 14.4447L12.4002 13.5266L12.3877 12.0942L12.3753 10.6617L12.6462 10.632C13.6248 10.5248 14.6909 9.98714 15.4502 9.21797C17.5995 7.04042 17.3698 3.38855 14.9659 1.52027C13.8894 0.683567 12.4355 0.329073 11.1027 0.578233ZM12.559 3.84901C12.8517 4.00327 13.0214 4.17846 13.1585 4.46796C13.4126 5.00438 13.3024 5.56745 12.8456 6.06631C12.4949 6.44934 12.5316 6.57133 13.1144 6.95863C13.3628 7.12367 13.662 7.38468 13.8981 7.64228C14.2921 8.07206 14.7566 8.79785 14.713 8.91536C14.6801 9.0039 14.2155 9.31956 13.8343 9.51232C12.6772 10.0976 11.2946 10.0912 10.1443 9.49528C9.84277 9.33912 9.2748 8.96065 9.2748 8.9159C9.2748 8.90551 9.33021 8.78309 9.39794 8.64383C9.69299 8.03697 10.2946 7.3572 10.8679 6.9829C11.2914 6.70642 11.3897 6.60113 11.3897 6.42405C11.3897 6.30741 11.3422 6.22872 11.1793 6.07563C10.6702 5.59711 10.5795 4.87128 10.9549 4.28068C11.2758 3.77601 12.0334 3.57209 12.559 3.84901ZM6.12594 14.2615C7.04912 14.5676 7.86068 15.1806 8.38523 15.968C8.60593 16.2993 8.88792 16.9441 8.99874 17.3706C9.14349 17.928 9.14415 18.9569 9.0001 19.5064C8.88467 19.9467 8.56133 20.6648 8.33607 20.9809L8.18473 21.1932L8.06376 20.9809C7.73195 20.3986 7.14481 19.7215 6.65871 19.3606L6.47321 19.2229L6.65364 18.855C6.75285 18.6527 6.85676 18.3505 6.88449 18.1837C7.02501 17.3387 6.54211 16.4165 5.75405 16.025C5.4934 15.8955 5.37651 15.868 5.01463 15.8508C4.40441 15.8219 4.00939 15.9647 3.57231 16.372C2.85785 17.0378 2.71333 18.1903 3.24102 19.0139L3.36496 19.2074L3.23054 19.3084C2.66708 19.7316 2.08868 20.3823 1.78987 20.9291L1.6445 21.1951L1.53707 21.0661C1.32755 20.8146 1.05304 20.2772 0.91378 19.8458C0.719679 19.2448 0.656608 18.7781 0.690869 18.1958C0.758123 17.0518 1.22105 16.0342 2.02984 15.2527C2.44253 14.854 2.74764 14.6498 3.29108 14.4087C3.86882 14.1524 4.21097 14.0939 5.02149 14.1127C5.63355 14.1268 5.7791 14.1465 6.12594 14.2615ZM19.6378 16.6856C20.1069 16.915 20.385 17.3784 20.3775 17.9182C20.3722 18.3016 20.2468 18.5816 19.9373 18.9013C19.5795 19.2709 19.6181 19.4006 20.2036 19.7947C20.842 20.2245 21.4043 20.8602 21.7286 21.519L21.8353 21.7356L21.6765 21.8744C21.4637 22.0604 20.9662 22.3548 20.6483 22.4828C19.7395 22.8486 18.676 22.8788 17.7803 22.5641C17.3654 22.4184 16.7753 22.0991 16.5404 21.8934L16.3569 21.7326L16.5089 21.4381C16.8402 20.7962 17.4357 20.1563 18.1208 19.7062C18.5778 19.4059 18.5927 19.2655 18.2134 18.8332C17.9088 18.486 17.8282 18.2801 17.8289 17.8504C17.8297 17.3415 18.1201 16.8856 18.5804 16.6706C18.8835 16.529 19.3307 16.5354 19.6378 16.6856Z" fill="#090909"/>
<path d="M15.0297 7.94158C15.1564 8.14847 15.2729 8.31778 15.2887 8.31778L14.713 8.91536C14.7566 8.79784 14.2921 8.07206 13.8981 7.64228C13.662 7.38468 13.3628 7.12367 13.1144 6.95863C12.5316 6.57133 12.4949 6.44934 12.8456 6.06631C13.3024 5.56745 13.4126 5.00438 13.1585 4.46795C13.0214 4.17846 12.8517 4.00327 12.559 3.84901C12.0334 3.57209 11.2758 3.77601 10.9549 4.28068C10.5795 4.87128 10.6702 5.59711 11.1793 6.07563C11.3422 6.22872 11.3897 6.30741 11.3897 6.42405C11.3897 6.60113 11.2914 6.70641 10.8679 6.9829C10.2946 7.3572 9.69299 8.03697 9.39793 8.64382C9.33021 8.78309 9.2748 8.90551 9.2748 8.9159L8.74029 8.33074L8.97086 7.94809C9.191 7.58277 9.8783 6.8166 10.274 6.49536L10.4508 6.35187L10.3118 6.12567C9.97324 5.57449 9.92948 4.78197 10.2042 4.17569C10.6736 3.13949 11.8881 2.69966 12.8887 3.20347C13.2289 3.37477 13.642 3.80319 13.7994 4.14788C14.1051 4.81716 14.0439 5.65284 13.6471 6.22834L13.5511 6.3675L13.7766 6.53851C14.1341 6.80952 14.7786 7.53117 15.0297 7.94158Z" fill="#6FB955"/>
<path d="M2.82579 20.6813C2.59329 20.9625 2.17647 21.6447 2.17995 21.7383L1.6445 21.1951L1.78987 20.9291C2.08868 20.3823 2.66708 19.7316 3.23054 19.3084L3.36495 19.2074L3.24102 19.0139C2.71333 18.1903 2.85785 17.0378 3.57231 16.372C4.00939 15.9647 4.40441 15.8219 5.01463 15.8508C5.37651 15.868 5.49339 15.8955 5.75404 16.025C6.54211 16.4165 7.02501 17.3387 6.88449 18.1837C6.85676 18.3505 6.75284 18.6526 6.65363 18.855L6.47321 19.2229L6.65871 19.3606C7.14481 19.7215 7.73195 20.3986 8.06376 20.9809L8.18473 21.1932L7.55284 21.8196C7.63307 21.7281 7.63227 21.716 7.53249 21.5134C7.20661 20.8515 6.63803 20.2107 5.97907 19.7625C5.41604 19.3796 5.38788 19.269 5.75649 18.8883C6.07231 18.5621 6.19047 18.287 6.18934 17.8803C6.18831 17.5051 6.10592 17.2857 5.86026 17.0043C5.07648 16.1063 3.63218 16.6735 3.63608 17.8777C3.6374 18.2786 3.7485 18.5419 4.05982 18.8819C4.42429 19.2799 4.39233 19.4011 3.82304 19.7806C3.46576 20.0188 3.1012 20.348 2.82579 20.6813Z" fill="#6FB955"/>
<path d="M22.141 20.8075L22.3754 21.1863L21.8353 21.7356L21.7286 21.519C21.4043 20.8602 20.842 20.2245 20.2036 19.7947C19.6181 19.4006 19.5795 19.2709 19.9373 18.9013C20.2468 18.5816 20.3722 18.3016 20.3775 17.9182C20.385 17.3784 20.1069 16.915 19.6378 16.6856C19.3307 16.5354 18.8835 16.529 18.5804 16.6706C18.1201 16.8856 17.8297 17.3415 17.8289 17.8504C17.8282 18.2801 17.9088 18.486 18.2134 18.8332C18.5927 19.2655 18.5778 19.4059 18.1208 19.7062C17.4357 20.1563 16.8401 20.7962 16.5089 21.4381L16.3569 21.7326L15.8445 21.1475C15.8087 21.1661 15.7599 21.1033 15.6218 20.8933L15.8445 21.1475C15.8549 21.1421 15.8643 21.1297 15.8744 21.1121C16.3329 20.3112 16.7789 19.7916 17.4205 19.3108L17.552 19.2122L17.3869 18.929C17.1745 18.5647 17.1054 18.2369 17.1337 17.7285C17.1623 17.2165 17.3083 16.8641 17.6437 16.4978C18.0961 16.0039 18.5423 15.8193 19.208 15.8508C19.5697 15.868 19.6868 15.8956 19.9468 16.0247C20.726 16.4118 21.1909 17.2974 21.0718 18.1679C21.0304 18.4703 20.8441 18.9508 20.7081 19.1061C20.6364 19.1878 20.6385 19.199 20.7386 19.2714C21.254 19.6442 21.7728 20.2126 22.141 20.8075Z" fill="#6FB955"/>
<path d="M15.0298 7.94158C15.1564 8.14847 15.2729 8.31778 15.2888 8.31778L14.713 8.91536C14.7567 8.79784 14.2921 8.07206 13.8981 7.64228C13.662 7.38468 13.3628 7.12367 13.1144 6.95863C12.5316 6.57133 12.4949 6.44934 12.8456 6.06631C13.3024 5.56745 13.4127 5.00438 13.1585 4.46795C13.0214 4.17846 12.8517 4.00327 12.559 3.84901C12.0335 3.57209 11.2758 3.77601 10.9549 4.28068C10.5795 4.87128 10.6702 5.59711 11.1793 6.07563C11.3422 6.22872 11.3897 6.30741 11.3897 6.42405C11.3897 6.60113 11.2915 6.70641 10.868 6.9829C10.2946 7.3572 9.69301 8.03697 9.39796 8.64382C9.33023 8.78309 9.27482 8.90551 9.27482 8.9159L8.74031 8.33074L8.97089 7.94809C9.19102 7.58277 9.87832 6.8166 10.274 6.49536L10.4508 6.35187L10.3118 6.12567C9.97326 5.57449 9.9295 4.78197 10.2042 4.17569C10.6737 3.13949 11.8881 2.69966 12.8887 3.20347C13.2289 3.37477 13.6421 3.80319 13.7995 4.14788C14.1051 4.81716 14.0439 5.65284 13.6471 6.22834L13.5512 6.3675L13.7767 6.53851C14.1341 6.80952 14.7786 7.53117 15.0298 7.94158Z" fill="#009DEC"/>
</svg>
