<svg width="24" height="24" viewBox="0 0 24 24" fill="none" xmlns="http://www.w3.org/2000/svg">
<path fill-rule="evenodd" clip-rule="evenodd" d="M11.4178 0.0503955C10.7154 0.27626 10.2082 0.933909 10.1256 1.7257C10.0972 1.99898 10.0363 2.22259 9.99056 2.22259C9.94479 2.22259 9.59812 2.40706 9.2203 2.63264C7.87703 3.43441 4.41321 5.421 4.3586 5.421C4.32801 5.421 4.12229 5.30567 3.90128 5.16465C3.34984 4.81273 2.44025 4.79552 1.90229 5.12684C1.18332 5.56953 0.845481 6.44853 1.07286 7.28482C1.20487 7.77061 1.81463 8.41264 2.22028 8.49298L2.50227 8.54885V12.006V15.4631L2.22028 15.5189C1.81463 15.5993 1.20487 16.2413 1.07286 16.7271C0.846715 17.5587 1.15691 18.3912 1.86592 18.8559C2.18704 19.0664 2.35467 19.1079 2.87524 19.106C3.39087 19.1041 3.56943 19.0591 3.90128 18.8473C4.12229 18.7063 4.32801 18.5909 4.3586 18.5909C4.41321 18.5909 7.87703 20.5775 9.2203 21.3793C9.59812 21.6049 9.94479 21.7893 9.99056 21.7893C10.0363 21.7893 10.0972 22.0129 10.1256 22.2862C10.1907 22.9099 10.4692 23.3841 10.9739 23.7306C11.3101 23.9613 11.4574 24 12 24C12.5426 24 12.6899 23.9613 13.0261 23.7306C13.5308 23.3841 13.8093 22.9099 13.8744 22.2862C13.9028 22.0129 13.9637 21.7893 14.0094 21.7893C14.0552 21.7893 14.4019 21.6049 14.7797 21.3793C16.123 20.5775 19.5868 18.5909 19.6414 18.5909C19.672 18.5909 19.8777 18.7063 20.0987 18.8473C20.4306 19.0591 20.6091 19.1041 21.1248 19.106C21.6453 19.1079 21.813 19.0664 22.1341 18.8559C22.8431 18.3912 23.1533 17.5587 22.9271 16.7271C22.7951 16.2413 22.1854 15.5993 21.7797 15.5189L21.4977 15.4631V12.006V8.54885L21.7797 8.49298C22.1854 8.41264 22.7951 7.77061 22.9271 7.28482C23.1545 6.44853 22.8167 5.56953 22.0977 5.12684C21.5598 4.79552 20.6502 4.81273 20.0987 5.16465C19.8777 5.30567 19.672 5.421 19.6414 5.421C19.5868 5.421 16.123 3.43441 14.7797 2.63264C14.4019 2.40706 14.0552 2.22259 14.0094 2.22259C13.9637 2.22259 13.9028 1.99898 13.8744 1.7257C13.773 0.753764 13.1063 0.0794634 12.1765 0.00881615C11.8966 -0.0125379 11.5551 0.00627623 11.4178 0.0503955ZM12.7824 1.0705C13.4462 1.69419 13.0481 2.83123 12.128 2.9395C11.675 2.99284 11.3608 2.83565 11.0687 2.40932C10.8956 2.15683 10.855 1.99804 10.892 1.71818C10.9447 1.31913 11.3288 0.847835 11.6569 0.779351C12.0354 0.700425 12.5226 0.82648 12.7824 1.0705ZM10.5563 2.99397C10.619 3.05605 10.6703 3.16245 10.6703 3.23027C10.6703 3.31738 7.57463 8.66155 7.40044 8.87519C7.39113 8.88657 6.78745 8.55149 6.05888 8.13062L4.73423 7.36525V6.73122V6.09708L5.25661 5.80659C5.54391 5.64686 6.78337 4.92665 8.01095 4.20617C9.23853 3.48558 10.2877 2.89275 10.3426 2.88861C10.3974 2.88447 10.4937 2.93188 10.5563 2.99397ZM15.912 4.16778C17.1297 4.87548 18.3825 5.60086 18.6959 5.7796L19.2658 6.1047V6.73498V7.36525L17.9411 8.13062C17.2125 8.55149 16.6089 8.88657 16.5996 8.87519C16.4254 8.66155 13.3297 3.31738 13.3297 3.23027C13.3297 3.09688 13.5139 2.88108 13.6278 2.88108C13.6664 2.88108 14.6942 3.46009 15.912 4.16778ZM11.5976 6.95746C11.6211 10.0314 11.6129 10.2186 11.4534 10.2186C11.3604 10.2186 11.1271 10.3244 10.9348 10.4538C10.7427 10.5831 10.5578 10.689 10.524 10.689C10.396 10.689 8.10878 9.32127 8.10735 9.24394C8.10659 9.19945 8.43844 8.6068 8.84485 7.92695C9.25126 7.2472 9.98847 6.00367 10.4832 5.16371C10.9779 4.32366 11.4254 3.64992 11.4776 3.66639C11.5379 3.68539 11.5817 4.88799 11.5976 6.95746ZM13.5168 5.16362C14.0115 6.00367 14.7487 7.2472 15.1551 7.92695C15.5616 8.6068 15.8934 9.19945 15.8926 9.24394C15.8912 9.32127 13.604 10.689 13.476 10.689C13.4422 10.689 13.2573 10.5831 13.0652 10.4538C12.8729 10.3244 12.6401 10.2186 12.5478 10.2186C12.3905 10.2186 12.3799 10.0146 12.3799 6.98888C12.3799 4.01802 12.4009 3.6312 12.562 3.63497C12.5925 3.63563 13.0221 4.32347 13.5168 5.16362ZM3.68065 5.98025C3.93006 6.22737 3.97441 6.34167 3.97441 6.73799C3.97441 7.13967 3.9312 7.24757 3.66393 7.51229C3.39667 7.777 3.28773 7.8198 2.88217 7.8198C2.47833 7.8198 2.3673 7.77663 2.10592 7.51765C1.8436 7.25783 1.80086 7.14955 1.80086 6.74345C1.80086 6.24807 2.03137 5.87828 2.45478 5.69408C2.8099 5.53962 3.36703 5.66963 3.68065 5.98025ZM21.9108 5.97479C22.1562 6.21787 22.1991 6.33151 22.1991 6.73799C22.1991 7.15021 22.1574 7.25698 21.8941 7.51765C21.6327 7.77663 21.5217 7.8198 21.1178 7.8198C20.7123 7.8198 20.6033 7.777 20.3361 7.51229C20.0698 7.24861 20.0256 7.13892 20.0256 6.74373C20.0256 6.2602 20.2677 5.87799 20.6904 5.69408C21.0427 5.54084 21.6027 5.66963 21.9108 5.97479ZM5.66995 8.77745C6.35673 9.1748 6.93733 9.51421 6.96012 9.5318C6.98282 9.5493 6.91871 9.70348 6.81766 9.87431C6.7165 10.0451 5.92857 11.3774 5.06665 12.8349C4.20473 14.2924 3.44615 15.4854 3.38081 15.4857C3.28792 15.4864 3.26208 14.7282 3.26208 12.006C3.26208 8.73276 3.27215 8.52534 3.43095 8.52534C3.52384 8.52534 3.74827 8.42158 3.92958 8.29477C4.11099 8.16796 4.29572 8.06213 4.34027 8.05959C4.38472 8.05705 4.98307 8.38009 5.66995 8.77745ZM20.0527 8.29016C20.2449 8.41951 20.4777 8.52534 20.57 8.52534C20.7276 8.52534 20.7379 8.74038 20.7379 12.006C20.7379 14.7282 20.7121 15.4864 20.6192 15.4857C20.5255 15.4851 18.9751 12.951 17.1763 9.85832C17.0688 9.67347 17.0275 9.51675 17.0813 9.49737C17.1335 9.47846 17.7105 9.14752 18.3635 8.76202C19.0165 8.37652 19.585 8.05969 19.627 8.05799C19.6689 8.05639 19.8605 8.16081 20.0527 8.29016ZM9.43561 10.9615L10.1479 11.3733V12.0063V12.6392L9.57808 12.9644C9.26465 13.1433 7.97514 13.8897 6.71261 14.6232C5.44998 15.3568 4.37075 15.9569 4.31443 15.9569C4.25802 15.9569 4.21186 15.915 4.21186 15.8636C4.21186 15.8123 4.98725 14.4586 5.93494 12.8554L7.65811 9.94063L8.19065 10.2451C8.48365 10.4127 9.04383 10.7351 9.43561 10.9615ZM18.1109 12.9226C19.0334 14.4874 19.7881 15.8103 19.7881 15.8623C19.7881 15.9143 19.742 15.9569 19.6856 15.9569C19.6292 15.9569 18.55 15.3568 17.2874 14.6232C16.0249 13.8897 14.7353 13.1433 14.4219 12.9644L13.8521 12.6392V12.0093V11.3794L15.0854 10.6613C15.7639 10.2663 16.3447 9.97346 16.3763 10.0103C16.4078 10.0473 17.1884 11.3578 18.1109 12.9226ZM12.7985 11.2482C13.0479 11.4953 13.0922 11.6096 13.0922 12.006C13.0922 12.4076 13.049 12.5155 12.7818 12.7803C12.5145 13.045 12.4056 13.0878 12 13.0878C11.5944 13.0878 11.4855 13.045 11.2182 12.7803C10.952 12.5166 10.9078 12.4069 10.9078 12.0117C10.9078 11.5282 11.1499 11.146 11.5726 10.9621C11.9277 10.8076 12.4849 10.9376 12.7985 11.2482ZM10.9348 13.5581C11.1271 13.6875 11.3599 13.7933 11.4522 13.7933C11.6059 13.7933 11.6201 13.924 11.6201 15.3455V16.8976H8.15342C5.41551 16.8976 4.68674 16.8725 4.68674 16.7783C4.68674 16.7126 4.93245 16.5224 5.23286 16.3555C5.53328 16.1887 6.82611 15.4399 8.10593 14.6916C9.38575 13.9433 10.4672 13.3292 10.5091 13.3269C10.5511 13.3247 10.7427 13.4288 10.9348 13.5581ZM15.8304 14.6567C17.093 15.3902 18.3927 16.1416 18.7188 16.3264C19.0448 16.5112 19.3119 16.7154 19.3124 16.7801C19.3131 16.872 18.557 16.8976 15.8466 16.8976H12.3799V15.3455C12.3799 13.9206 12.3938 13.7933 12.5488 13.7933C12.6417 13.7933 12.8661 13.6895 13.0474 13.5627C13.2288 13.4359 13.4126 13.3301 13.456 13.3276C13.4993 13.325 14.5678 13.9231 15.8304 14.6567ZM3.68065 16.5162C3.93006 16.7633 3.97441 16.8776 3.97441 17.2739C3.97441 17.6756 3.9312 17.7835 3.66393 18.0482C3.39667 18.3129 3.28773 18.3557 2.88217 18.3557C2.47833 18.3557 2.3673 18.3126 2.10592 18.0536C1.8436 17.7938 1.80086 17.6855 1.80086 17.2794C1.80086 16.784 2.03137 16.4142 2.45478 16.23C2.8099 16.0756 3.36703 16.2056 3.68065 16.5162ZM21.9108 16.5107C22.1562 16.7538 22.1991 16.8675 22.1991 17.2739C22.1991 17.6861 22.1574 17.7929 21.8941 18.0536C21.6327 18.3126 21.5217 18.3557 21.1178 18.3557C20.7123 18.3557 20.6033 18.3129 20.3361 18.0482C20.0698 17.7845 20.0256 17.6749 20.0256 17.2797C20.0256 16.7961 20.2677 16.4139 20.6904 16.23C21.0427 16.0768 21.6027 16.2056 21.9108 16.5107ZM11.6201 19.0025V20.3548L11.3566 20.407C11.2117 20.4357 10.936 20.6102 10.7439 20.795C10.5519 20.9797 10.3739 21.1308 10.3484 21.1308C10.323 21.1308 9.30578 20.5518 8.08798 19.8441C6.87027 19.1364 5.60726 18.4062 5.28121 18.2214C4.95525 18.0366 4.68807 17.8325 4.6876 17.7678C4.68693 17.6759 5.44295 17.6502 8.15342 17.6502H11.6201V19.0025ZM19.3124 17.7678C19.3119 17.8325 19.0448 18.0366 18.7188 18.2214C18.3927 18.4062 17.1297 19.1364 15.912 19.8441C14.6942 20.5518 13.677 21.1308 13.6516 21.1308C13.6261 21.1308 13.4481 20.9797 13.2561 20.795C13.064 20.6102 12.7883 20.4357 12.6434 20.407L12.3799 20.3548V19.0025V17.6502H15.8466C18.557 17.6502 19.3131 17.6759 19.3124 17.7678ZM12.8018 21.4158C13.0383 21.6462 13.0813 21.7615 13.0813 22.1656C13.0813 22.576 13.0391 22.685 12.7818 22.9399C12.5244 23.1948 12.4144 23.2366 12 23.2366C11.5856 23.2366 11.4756 23.1948 11.2182 22.9399C10.9615 22.6856 10.9187 22.5755 10.9187 22.1698C10.9187 21.7781 10.9652 21.6482 11.1875 21.4184C11.6354 20.9554 12.3281 20.9543 12.8018 21.4158Z" fill="#090909"/>
</svg>
