<svg width="24" height="24" viewBox="0 0 24 24" fill="none" xmlns="http://www.w3.org/2000/svg">
<path fill-rule="evenodd" clip-rule="evenodd" d="M2.9174 0.0507309C1.84518 0.334088 0.734412 1.26495 0.27177 2.26806C0.0425854 2.76486 0.0121892 2.95033 0.0121892 3.85041C0.0121892 4.7402 0.0438478 4.9381 0.260602 5.40411C0.644389 6.22942 1.30679 6.89509 2.1674 7.32041C2.86913 7.66728 2.95595 7.68611 3.8487 7.68611C4.75942 7.68611 4.81545 7.6731 5.56953 7.28788L6.34905 6.88965L7.23092 7.77526C7.716 8.26234 8.1129 8.70933 8.1129 8.76846C8.1129 8.8277 8.04375 8.93354 7.95926 9.00366C7.72085 9.20146 7.26977 10.1607 7.09108 10.8498C6.98659 11.2529 6.94124 11.7352 6.96299 12.2141L6.99649 12.9548L5.31898 13.4046L3.64156 13.8544L3.33789 13.5085C2.77687 12.8697 2.0967 12.6703 1.33777 12.9223C0.129015 13.3237 -0.374803 14.7082 0.305856 15.7577C0.703531 16.371 1.1553 16.6151 1.89772 16.6177C2.39416 16.6194 2.60741 16.5712 2.89632 16.3915C3.3814 16.09 3.72828 15.5626 3.80073 15.0167L3.85948 14.574L5.54787 14.1471C6.47646 13.9123 7.24772 13.7391 7.26181 13.7621C7.27589 13.785 7.41495 14.0588 7.57082 14.3706C7.85263 14.9343 8.58923 15.7804 9.11849 16.1483L9.39565 16.341L8.99671 17.1344L8.59778 17.9278L8.03307 17.8688C6.91861 17.7523 5.79036 18.3474 5.26945 19.3265C4.98278 19.8653 4.96355 21.2042 5.23517 21.718C5.72151 22.6379 6.73138 23.2717 7.71075 23.2717C8.87251 23.2717 9.9893 22.4543 10.3034 21.3739C10.592 20.3811 10.3034 19.2562 9.58521 18.5745L9.29145 18.2956L9.69582 17.4803C10.0006 16.8657 10.1364 16.6805 10.2476 16.728C11.0863 17.0863 12.5462 17.1299 13.5026 16.8251C13.9314 16.6885 14.6254 16.3212 15.1284 15.9649C15.2759 15.8604 15.4131 15.9604 16.2064 16.7502L17.1154 17.6554L16.7171 18.4348C16.3323 19.188 16.3189 19.2458 16.3189 20.1505C16.3189 21.0003 16.3472 21.1467 16.6262 21.7355C17.0539 22.6383 17.6044 23.2005 18.4884 23.6373C19.1817 23.98 19.2735 24 20.1548 24C21.0361 24 21.1279 23.98 21.8212 23.6373C22.7052 23.2005 23.2557 22.6383 23.6834 21.7355C23.9617 21.1481 23.9907 20.9992 23.9907 20.1592C23.9907 19.2838 23.9703 19.1905 23.628 18.4979C23.1912 17.6141 22.6289 17.0636 21.7261 16.6359C21.1373 16.3569 20.9908 16.3286 20.141 16.3286C19.2362 16.3286 19.1784 16.342 18.4252 16.7268L17.6457 17.1251L16.7638 16.2394C16.2788 15.7524 15.8819 15.319 15.8819 15.2763C15.8819 15.2338 15.9897 15.0576 16.1214 14.8848C16.474 14.4227 16.8307 13.5586 16.9611 12.8514L17.0756 12.2296L18.1539 12.1675C18.747 12.1333 19.6255 12.1057 20.1062 12.1061L20.9803 12.1069L21.2051 12.4538C21.8619 13.4674 23.463 13.2941 23.8952 12.1624C24.1774 11.4235 23.8751 10.627 23.1653 10.239C22.4588 9.85285 21.3854 10.2355 21.0722 10.9851L20.942 11.2967L19.037 11.3628C17.9894 11.399 17.0963 11.4065 17.0524 11.3794C17.0085 11.3522 16.943 11.1336 16.9071 10.8934C16.794 10.14 16.2066 9.11766 15.4682 8.38955L14.799 7.72962L15.1319 7.12523L15.4649 6.52084L15.9747 6.55492C16.781 6.60882 17.3149 6.40994 17.876 5.84643C18.8141 4.9044 18.8448 3.57026 17.9496 2.64862C17.4899 2.17552 17.1402 2.00082 16.5264 1.93799C15.7361 1.85701 15.2277 2.04374 14.6659 2.62104C13.7579 3.55423 13.6912 4.75496 14.4952 5.69417L14.8254 6.07988L14.4712 6.71311C14.2765 7.06133 14.0996 7.34624 14.078 7.34624C14.0565 7.34624 13.702 7.2538 13.2902 7.14086C11.7855 6.72806 10.3018 7.03288 8.86639 8.04978C8.71888 8.15427 8.58156 8.05425 7.78738 7.26341L6.87734 6.35731L7.24403 5.64882C8.06376 4.06482 7.80262 2.3706 6.54347 1.10375C5.78551 0.341079 5.12019 0.0502454 4.03419 0.00674175C3.58019 -0.0114172 3.07763 0.00839252 2.9174 0.0507309ZM5.15098 1.04209C6.82383 1.83584 7.42962 3.91401 6.45082 5.50103L6.24125 5.8408L6.10821 5.32099C5.96089 4.74515 5.73297 4.37809 5.29305 4.00792L5.00045 3.76175L5.1971 3.39479C5.55933 2.71902 5.37783 1.93401 4.74825 1.45382C3.48939 0.493731 1.75302 1.93916 2.47214 3.34866L2.67947 3.75505L2.3322 4.05987C1.93472 4.40887 1.72088 4.78011 1.55802 5.40411L1.44401 5.84109L1.23182 5.50122C0.162033 3.78778 0.940484 1.59987 2.86933 0.899053C3.4822 0.676388 4.51703 0.741255 5.15098 1.04209ZM4.37845 2.14668C4.86022 2.62832 4.51887 3.46198 3.83996 3.46198C3.65079 3.46198 3.45171 3.37391 3.30147 3.22359C2.8197 2.74194 3.16105 1.90828 3.83996 1.90828C4.02914 1.90828 4.22822 1.99636 4.37845 2.14668ZM16.9122 2.84235C17.9145 3.31797 18.1229 4.52268 17.3385 5.30701C16.9258 5.71971 16.4914 5.85566 15.925 5.74942C15.4662 5.66329 14.8458 5.04288 14.7596 4.58415C14.5198 3.30525 15.7648 2.29787 16.9122 2.84235ZM4.48187 4.39605C4.84692 4.56929 5.29664 5.04948 5.29664 5.26593C5.29664 5.37935 5.03512 5.40411 3.83996 5.40411C2.23023 5.40411 2.17293 5.3776 2.62344 4.84235C3.10531 4.26972 3.84249 4.09269 4.48187 4.39605ZM5.69393 6.31594C5.63226 6.39023 5.35384 6.55279 5.07513 6.67708C4.36767 6.99277 3.31225 6.99277 2.60479 6.67708C1.58094 6.22029 1.67883 6.18096 3.83996 6.18096C5.50767 6.18096 5.789 6.20145 5.69393 6.31594ZM13.4656 8.01812C14.6576 8.46928 15.6242 9.46443 16.0427 10.6709C16.2818 11.3603 16.2818 12.6544 16.0427 13.3438C15.626 14.5455 14.6725 15.53 13.4656 16.0047C12.6901 16.3098 11.3017 16.3086 10.5221 16.0021C9.3402 15.5375 8.36403 14.5281 7.9512 13.3438C7.69337 12.6044 7.71716 11.2647 8.00102 10.5392C8.4859 9.29973 9.42119 8.40878 10.7128 7.95597C11.5224 7.67213 12.6171 7.6968 13.4656 8.01812ZM11.1143 8.73749C10.8789 8.86169 10.5553 9.14951 10.395 9.37703C10.1409 9.73778 10.104 9.87324 10.1061 10.4377C10.1081 10.9738 10.1537 11.155 10.3717 11.4934C10.5165 11.7181 10.7264 11.9508 10.838 12.0106C11.0305 12.1136 11.019 12.1332 10.6152 12.3893C9.83081 12.8867 9.27824 13.8117 9.27824 14.6275C9.27824 15.1041 9.33777 15.1148 12.005 15.1148C14.8508 15.1148 14.7854 15.1331 14.68 14.3644C14.5673 13.5419 14.1244 12.8723 13.3738 12.3895C12.9749 12.1328 12.9639 12.1137 13.1568 12.0106C13.2684 11.9508 13.4782 11.7181 13.623 11.4934C13.8411 11.155 13.8867 10.9738 13.8886 10.4377C13.8908 9.87324 13.8539 9.73778 13.5997 9.37703C13.2292 8.851 12.6007 8.51152 11.9974 8.51152C11.7085 8.51152 11.3862 8.59396 11.1143 8.73749ZM12.8138 9.67146C13.0688 9.92655 13.1142 10.0445 13.1142 10.4536C13.1142 10.8683 13.07 10.9797 12.7967 11.2529C12.5234 11.5262 12.4121 11.5704 11.9974 11.5704C11.5827 11.5704 11.4713 11.5262 11.1981 11.2529C10.9258 10.9807 10.8806 10.8675 10.8806 10.4596C10.8806 9.96044 11.1281 9.5659 11.5604 9.37606C11.9235 9.21661 12.4931 9.35081 12.8138 9.67146ZM23.024 11.0805C23.1743 11.2307 23.2624 11.4298 23.2624 11.6189C23.2624 11.8081 23.1743 12.0072 23.024 12.1574C22.8737 12.3077 22.6747 12.3958 22.4855 12.3958C22.2963 12.3958 22.0972 12.3077 21.947 12.1574C21.7967 12.0072 21.7086 11.8081 21.7086 11.6189C21.7086 11.4298 21.7967 11.2307 21.947 11.0805C22.0972 10.9302 22.2963 10.8421 22.4855 10.8421C22.6747 10.8421 22.8737 10.9302 23.024 11.0805ZM13.022 13.0786C13.3994 13.3118 13.8425 13.8992 13.8425 14.1662C13.8425 14.3244 13.697 14.3379 11.9974 14.3379C9.94171 14.3379 9.95346 14.3425 10.3534 13.6956C10.5772 13.3333 10.9958 13.0033 11.3944 12.8745C11.8101 12.7403 12.6438 12.8448 13.022 13.0786ZM2.74735 13.9907C3.19455 14.4785 3.18892 14.9803 2.73065 15.4804C2.42912 15.8093 2.35162 15.8431 1.89772 15.8431C1.44382 15.8431 1.36632 15.8093 1.06479 15.4804C0.633319 15.0096 0.60739 14.5013 0.991468 14.0448C1.32165 13.6525 1.55909 13.5532 2.04329 13.6049C2.33414 13.6358 2.51098 13.7326 2.74735 13.9907ZM21.44 17.3322C22.3893 17.7494 23.1405 18.8138 23.237 19.8786C23.2923 20.4878 23.102 21.2697 22.7657 21.8149L22.5561 22.1547L22.423 21.6349C22.2757 21.059 22.0478 20.692 21.6079 20.3218L21.3153 20.0756L21.5119 19.7087C21.8742 19.0329 21.6927 18.2479 21.0631 17.7677C19.8042 16.8076 18.0679 18.253 18.787 19.6625L18.9943 20.0689L18.6463 20.3744C18.2512 20.7213 17.9687 21.2205 17.8701 21.746C17.7883 22.1824 17.6992 22.1397 17.3812 21.512C16.5567 19.8852 17.3672 17.8897 19.1165 17.2394C19.7582 17.001 20.7789 17.0416 21.44 17.3322ZM20.6933 18.4606C21.1751 18.9422 20.8337 19.7759 20.1548 19.7759C19.9656 19.7759 19.7665 19.6878 19.6163 19.5375C19.466 19.3872 19.3779 19.1882 19.3779 18.999C19.3779 18.8099 19.466 18.6108 19.6163 18.4606C19.7665 18.3102 19.9656 18.2222 20.1548 18.2222C20.344 18.2222 20.5431 18.3102 20.6933 18.4606ZM8.79122 18.938C9.37477 19.3241 9.61813 19.804 9.61813 20.5686C9.61813 21.1313 9.58007 21.2696 9.3268 21.6282C8.94126 22.1739 8.40783 22.4463 7.72445 22.4463C6.40897 22.4463 5.52777 21.2755 5.87446 19.9882C6.00799 19.4923 6.56813 18.8932 7.04923 18.7316C7.5611 18.5598 8.36335 18.6549 8.79122 18.938ZM20.7967 20.7099C21.1618 20.8832 21.6115 21.3634 21.6115 21.5798C21.6115 21.6932 21.35 21.718 20.1548 21.718C18.5451 21.718 18.4878 21.6915 18.9383 21.1562C19.4201 20.5836 20.1573 20.4066 20.7967 20.7099ZM22.0088 22.6298C21.7439 22.9489 20.8973 23.2171 20.1548 23.2171C19.602 23.2171 19.3043 23.1626 18.9196 22.991C17.8958 22.5342 17.9937 22.4949 20.1548 22.4949C21.8225 22.4949 22.1038 22.5153 22.0088 22.6298Z" fill="#090909"/>
<path fill-rule="evenodd" clip-rule="evenodd" d="M4.37847 2.14668C4.86024 2.62832 4.51889 3.46198 3.83998 3.46198C3.65081 3.46198 3.45173 3.37391 3.30149 3.22359C2.81972 2.74194 3.16107 1.90828 3.83998 1.90828C4.02916 1.90828 4.22824 1.99635 4.37847 2.14668ZM4.48189 4.39605C4.84694 4.56929 5.29666 5.04948 5.29666 5.26593C5.29666 5.37935 5.03514 5.40411 3.83998 5.40411C2.23025 5.40411 2.17295 5.3776 2.62346 4.84235C3.10533 4.26971 3.84251 4.09269 4.48189 4.39605ZM11.1144 8.73749C10.879 8.86169 10.5553 9.14951 10.3951 9.37703C10.1409 9.73778 10.104 9.87324 10.1061 10.4377C10.1081 10.9737 10.1537 11.1549 10.3717 11.4934C10.5165 11.7181 10.7264 11.9508 10.838 12.0106C11.0306 12.1136 11.019 12.1332 10.6152 12.3893C9.83083 12.8866 9.27826 13.8117 9.27826 14.6275C9.27826 15.1041 9.33779 15.1148 12.005 15.1148C14.8508 15.1148 14.7854 15.1331 14.68 14.3644C14.5673 13.5419 14.1244 12.8723 13.3739 12.3895C12.9749 12.1328 12.964 12.1137 13.1568 12.0106C13.2684 11.9508 13.4783 11.7181 13.6231 11.4934C13.8411 11.1549 13.8867 10.9737 13.8887 10.4377C13.8908 9.87324 13.8539 9.73778 13.5998 9.37703C13.2293 8.851 12.6008 8.51152 11.9974 8.51152C11.7085 8.51152 11.3862 8.59396 11.1144 8.73749ZM12.8138 9.67145C13.0688 9.92655 13.1142 10.0445 13.1142 10.4536C13.1142 10.8683 13.07 10.9797 12.7967 11.2529C12.5235 11.5262 12.4121 11.5704 11.9974 11.5704C11.5827 11.5704 11.4713 11.5262 11.1981 11.2529C10.9259 10.9807 10.8806 10.8675 10.8806 10.4596C10.8806 9.96044 11.1282 9.5659 11.5604 9.37606C11.9235 9.21661 12.4932 9.35081 12.8138 9.67145ZM13.022 13.0786C13.3994 13.3118 13.8425 13.8992 13.8425 14.1662C13.8425 14.3244 13.6971 14.3379 11.9974 14.3379C9.94173 14.3379 9.95348 14.3425 10.3534 13.6956C10.5772 13.3333 10.9958 13.0033 11.3944 12.8745C11.8102 12.7403 12.6438 12.8448 13.022 13.0786ZM20.6933 18.4606C21.1751 18.9422 20.8337 19.7759 20.1548 19.7759C19.9656 19.7759 19.7666 19.6878 19.6163 19.5375C19.466 19.3872 19.3779 19.1882 19.3779 18.999C19.3779 18.8099 19.466 18.6108 19.6163 18.4606C19.7666 18.3102 19.9656 18.2222 20.1548 18.2222C20.344 18.2222 20.5431 18.3102 20.6933 18.4606ZM20.7967 20.7099C21.1618 20.8832 21.6115 21.3634 21.6115 21.5798C21.6115 21.6932 21.35 21.718 20.1548 21.718C18.5451 21.718 18.4878 21.6915 18.9383 21.1562C19.4202 20.5836 20.1573 20.4066 20.7967 20.7099Z" fill="#6FB955"/>
<path fill-rule="evenodd" clip-rule="evenodd" d="M11.1144 8.73749C10.879 8.86169 10.5553 9.14951 10.395 9.37703C10.1409 9.73778 10.104 9.87324 10.1061 10.4377C10.1081 10.9738 10.1537 11.155 10.3717 11.4934C10.5165 11.7181 10.7264 11.9508 10.838 12.0106C11.0306 12.1136 11.019 12.1332 10.6152 12.3893C9.83083 12.8867 9.27826 13.8117 9.27826 14.6275C9.27826 15.1041 9.33779 15.1148 12.005 15.1148C14.8508 15.1148 14.7854 15.1331 14.68 14.3644C14.5673 13.5419 14.1244 12.8723 13.3739 12.3895C12.9749 12.1328 12.964 12.1137 13.1568 12.0106C13.2684 11.9508 13.4783 11.7181 13.6231 11.4934C13.8411 11.155 13.8867 10.9738 13.8887 10.4377C13.8908 9.87324 13.8539 9.73778 13.5998 9.37703C13.2293 8.851 12.6008 8.51152 11.9974 8.51152C11.7085 8.51152 11.3862 8.59396 11.1144 8.73749ZM12.8138 9.67146C13.0688 9.92656 13.1142 10.0445 13.1142 10.4536C13.1142 10.8683 13.07 10.9797 12.7967 11.2529C12.5235 11.5262 12.4121 11.5704 11.9974 11.5704C11.5827 11.5704 11.4713 11.5262 11.1981 11.2529C10.9259 10.9807 10.8806 10.8675 10.8806 10.4596C10.8806 9.96044 11.1281 9.5659 11.5604 9.37606C11.9235 9.21661 12.4932 9.35081 12.8138 9.67146ZM13.022 13.0786C13.3994 13.3118 13.8425 13.8992 13.8425 14.1662C13.8425 14.3244 13.6971 14.3379 11.9974 14.3379C9.94173 14.3379 9.95348 14.3425 10.3534 13.6956C10.5772 13.3333 10.9958 13.0033 11.3944 12.8745C11.8102 12.7403 12.6438 12.8448 13.022 13.0786Z" fill="#1C7EFF"/>
</svg>
