<svg width="24" height="24" viewBox="0 0 24 24" fill="none" xmlns="http://www.w3.org/2000/svg">
<path fill-rule="evenodd" clip-rule="evenodd" d="M2.96049 0.0960254C1.89189 0.378564 0.785882 1.30646 0.327815 2.30468C0.104679 2.79093 0.0702616 2.99338 0.068038 3.83248C0.0660078 4.60978 0.10758 4.90508 0.279862 5.3361C0.605381 6.15063 1.32893 6.89978 2.21161 7.33621C2.91273 7.68288 2.99839 7.70155 3.88764 7.70155C4.7943 7.70155 4.85008 7.68869 5.60119 7.30468L6.37762 6.90781L7.00304 7.5465L7.62845 8.18518L7.33987 8.57209C6.7914 9.3075 6.42644 10.2071 6.25106 11.2563L6.19045 11.619H5.37312C4.70159 11.619 4.5557 11.5924 4.5557 11.47C4.5557 11.2308 4.20978 10.6252 3.91201 10.3431C2.96938 9.44998 1.66363 9.4761 0.733578 10.4066C-0.244526 11.3852 -0.244526 12.6266 0.733578 13.6052C1.66363 14.5357 2.96938 14.5618 3.91201 13.6687C4.20978 13.3866 4.5557 12.781 4.5557 12.5418C4.5557 12.4194 4.70159 12.3928 5.37312 12.3928H6.19045L6.25106 12.7555C6.42644 13.8047 6.7914 14.7043 7.33987 15.4397L7.62845 15.8266L7.00304 16.4653L6.37762 17.104L5.60128 16.7071C4.85966 16.328 4.78531 16.3102 3.94101 16.3102C2.92704 16.3102 2.32753 16.4887 1.62283 17.0004C0.153019 18.0675 -0.392252 20.063 0.336516 21.7071C0.661455 22.44 1.557 23.3404 2.30355 23.685C2.79816 23.9132 2.98282 23.9435 3.87894 23.9435C4.76481 23.9435 4.96185 23.912 5.42581 23.6961C6.24749 23.3138 6.91022 22.654 7.33368 21.7969C7.67902 21.0979 7.69777 21.0114 7.69777 20.1222C7.69777 19.2151 7.68491 19.1593 7.3011 18.4078L6.90442 17.631L7.55517 16.9849C7.94518 16.5977 8.23193 16.3809 8.27089 16.444C8.30656 16.5018 8.63566 16.7274 9.00227 16.9452C9.6388 17.3236 10.4679 17.6227 11.2507 17.7564L11.6133 17.8183V18.6253V19.4323L11.2907 19.4928C10.5517 19.6315 9.68279 20.7791 9.68067 21.619C9.67747 22.8754 10.773 24 12 24C13.1939 24 14.3205 22.8714 14.3172 21.6786C14.3159 21.1721 14.0331 20.4899 13.662 20.0979C13.38 19.7999 12.7747 19.4538 12.5356 19.4538C12.4133 19.4538 12.3867 19.3079 12.3867 18.636V17.8183L12.7493 17.7564C13.5321 17.6227 14.3612 17.3236 14.9977 16.9452C15.3643 16.7274 15.6934 16.5018 15.7291 16.444C15.7681 16.3809 16.0548 16.5977 16.4448 16.9849L17.0956 17.631L16.6989 18.4078C16.3151 19.1593 16.3022 19.2151 16.3022 20.1222C16.3022 21.0114 16.321 21.0979 16.6663 21.7969C17.0898 22.654 17.7525 23.3138 18.5742 23.6961C19.0382 23.912 19.2352 23.9435 20.1211 23.9435C21.0172 23.9435 21.2018 23.9132 21.6964 23.685C22.443 23.3404 23.3385 22.44 23.6635 21.7071C24.3837 20.0824 23.8609 18.1268 22.4138 17.0325C21.7087 16.4993 21.0921 16.3102 20.059 16.3102C19.2147 16.3102 19.1403 16.328 18.3987 16.7071L17.6224 17.104L16.9922 16.4653L16.3621 15.8266L16.5538 15.5932C17.0939 14.9355 17.5757 13.7917 17.7489 12.7555L17.8096 12.3928H18.6161H19.4227L19.4833 12.7156C19.5688 13.1718 20.1691 13.8299 20.7441 14.0977C21.6583 14.5236 22.5158 14.3562 23.2664 13.6052C24.2445 12.6266 24.2445 11.3852 23.2664 10.4066C22.5832 9.72304 21.8605 9.53413 20.954 9.80207C20.4086 9.96331 19.5774 10.7944 19.4888 11.2673L19.4227 11.619H18.6161H17.8096L17.7489 11.2563C17.5736 10.2071 17.2086 9.3075 16.6601 8.57209L16.3715 8.18518L16.997 7.5465L17.6224 6.90781L18.3988 7.30468C19.149 7.6882 19.2065 7.70155 20.1073 7.70155C20.9517 7.70155 21.0998 7.67292 21.6798 7.39802C22.7969 6.86844 23.5228 6.03253 23.8479 4.90131C24.0735 4.11579 23.9986 3.0608 23.6635 2.30468C23.3385 1.57178 22.443 0.671356 21.6964 0.326815C21.2018 0.0985404 21.0172 0.0682649 20.1211 0.0682649C19.2249 0.0682649 19.0403 0.0985404 18.5457 0.326815C17.8544 0.64582 16.9569 1.52613 16.6481 2.18813C16.1152 3.33057 16.1443 4.53559 16.7325 5.67271L17.0976 6.37881L16.4583 7.0055L15.8188 7.6322L15.4321 7.34347C14.6971 6.79474 13.7979 6.42959 12.7493 6.25413L12.3867 6.19348V5.37576C12.3867 4.70389 12.4133 4.55793 12.5356 4.55793C12.7747 4.55793 13.38 4.21184 13.662 3.91393C14.5547 2.97084 14.5285 1.66445 13.5985 0.733938C12.6204 -0.244646 11.3796 -0.244646 10.4015 0.733938C9.47145 1.66445 9.44535 2.97084 10.338 3.91393C10.62 4.21184 11.2253 4.55793 11.4644 4.55793C11.5867 4.55793 11.6133 4.70389 11.6133 5.37576V6.19348L11.2507 6.25413C10.2021 6.42959 9.30294 6.79474 8.56789 7.34347L8.18117 7.6322L7.5428 7.00647L6.90442 6.38075L7.3011 5.60393C7.68491 4.85246 7.69777 4.79665 7.69777 3.88955C7.69777 3.00034 7.67902 2.91387 7.33368 2.21492C6.65538 0.841595 5.55439 0.111598 4.0723 0.0522083C3.62032 0.0341204 3.12001 0.0538526 2.96049 0.0960254ZM4.8235 0.941804C5.56145 1.18024 6.17884 1.70391 6.57803 2.42994C6.89862 3.01311 6.92356 3.11825 6.92221 3.88084C6.92086 4.63009 6.89156 4.757 6.59254 5.31201C6.24874 5.94983 5.8629 6.31536 5.13577 6.69221C4.48599 7.02891 3.35233 7.02088 2.6138 6.67431C1.95319 6.3644 1.44968 5.87525 1.10405 5.20764C0.881304 4.7774 0.842342 4.58182 0.839829 3.88084C0.837412 3.19941 0.87763 2.97587 1.07466 2.57503C1.76785 1.16447 3.36258 0.469681 4.8235 0.941804ZM12.6187 0.920427C12.7962 0.994617 13.0667 1.2197 13.2199 1.4207C13.4511 1.72384 13.4985 1.87938 13.4985 2.33322C13.4985 2.98216 13.2001 3.45786 12.6202 3.73314C11.5889 4.22277 10.3494 3.32099 10.4785 2.17507C10.5953 1.13903 11.6552 0.517657 12.6187 0.920427ZM21.3779 1.07413C22.0983 1.43985 22.4893 1.80896 22.8347 2.44968C23.1343 3.00576 23.1629 3.13015 23.1629 3.88084C23.1629 4.63173 23.1344 4.75593 22.8344 5.3125C22.4685 5.99132 22.1651 6.28441 21.4366 6.66319C21.0149 6.88247 20.823 6.91971 20.1211 6.91893C19.1516 6.91777 18.5731 6.6895 17.9435 6.05952C17.3153 5.43108 17.086 4.85092 17.0824 3.88084C17.0795 3.12715 17.1066 3.00798 17.4075 2.44968C17.8288 1.66812 18.5542 1.09192 19.396 0.870323C19.9144 0.733841 20.909 0.836178 21.3779 1.07413ZM3.16023 1.85694C2.77303 2.19703 2.64319 2.65425 2.80329 3.11351C2.89629 3.38048 2.87802 3.45486 2.64435 3.7611C2.40835 4.07053 2.37684 4.20285 2.34677 5.01255C2.32395 5.62763 2.35102 5.96347 2.43117 6.0601C2.60336 6.26767 5.15453 6.26767 5.32671 6.0601C5.40686 5.96347 5.43393 5.62763 5.41111 5.01255C5.38105 4.20285 5.34953 4.07053 5.11354 3.7611C4.87986 3.45486 4.86159 3.38048 4.9546 3.11351C5.1147 2.65425 4.98486 2.19703 4.59765 1.85694C4.12963 1.44585 3.62825 1.44585 3.16023 1.85694ZM11.4639 1.79687C10.9843 2.27663 11.3241 3.10703 12 3.10703C12.3974 3.10703 12.7734 2.73086 12.7734 2.33322C12.7734 1.93557 12.3974 1.5594 12 1.5594C11.8117 1.5594 11.6135 1.64713 11.4639 1.79687ZM19.4023 1.85694C19.0151 2.19703 18.8853 2.65425 19.0454 3.11351C19.1384 3.38048 19.1201 3.45486 18.8865 3.7611C18.6505 4.07053 18.619 4.20285 18.5889 5.01255C18.5661 5.62763 18.5931 5.96347 18.6733 6.0601C18.8455 6.26767 21.3966 6.26767 21.5688 6.0601C21.649 5.96347 21.676 5.62763 21.6532 5.01255C21.6232 4.20285 21.5916 4.07053 21.3557 3.7611C21.122 3.45486 21.1037 3.38048 21.1967 3.11351C21.3568 2.65425 21.227 2.19703 20.8398 1.85694C20.3717 1.44585 19.8704 1.44585 19.4023 1.85694ZM4.16511 2.47366C4.42199 2.78329 4.04475 3.25889 3.70975 3.04783C3.49493 2.91251 3.44243 2.65483 3.59277 2.47366C3.74204 2.29366 4.01584 2.29366 4.16511 2.47366ZM20.4072 2.47366C20.5576 2.65483 20.5051 2.91251 20.2902 3.04783C19.9553 3.25889 19.578 2.78329 19.8349 2.47366C19.9842 2.29366 20.258 2.29366 20.4072 2.47366ZM4.41503 4.11831C4.60993 4.31321 4.65238 4.45153 4.65238 4.89212V5.42847H3.87894H3.10551V4.89212C3.10551 4.24667 3.3853 3.88084 3.87894 3.88084C4.06727 3.88084 4.26547 3.96858 4.41503 4.11831ZM20.6571 4.11831C20.8521 4.31321 20.8945 4.45153 20.8945 4.89212V5.42847H20.1211H19.3476V4.89212C19.3476 4.24667 19.6274 3.88084 20.1211 3.88084C20.3094 3.88084 20.5076 3.96858 20.6571 4.11831ZM12.4004 7.51438C12.5409 7.7769 12.7215 8.28549 12.8018 8.64464L12.9477 9.29754H11.984C11.1113 9.29754 11.025 9.28158 11.0706 9.12827C11.0985 9.03512 11.173 8.74136 11.2364 8.47536C11.3493 8.00218 11.6346 7.34105 11.8328 7.09382C11.989 6.89901 12.1251 6.9998 12.4004 7.51438ZM10.6663 7.71741C10.6154 7.81511 10.4952 8.2319 10.3993 8.64367C10.2849 9.13456 10.1727 9.40684 10.0732 9.43441C9.67622 9.54458 9.29298 9.59701 9.29298 9.5411C9.29298 9.32056 9.85681 8.35842 10.2282 7.9452C10.6622 7.46225 10.8503 7.36446 10.6663 7.71741ZM14.4484 8.94894C14.5986 9.25672 14.7023 9.52794 14.6787 9.55155C14.6356 9.59468 13.8446 9.43983 13.7956 9.37869C13.7812 9.36061 13.6812 8.99769 13.5734 8.57209C13.4656 8.14649 13.3465 7.71122 13.309 7.60482C13.1702 7.21182 14.1848 8.40853 14.4484 8.94894ZM8.95054 8.49955C8.7656 8.85869 8.57166 9.3048 8.51964 9.49099C8.43998 9.77614 8.33731 9.87036 7.8688 10.0883C7.5629 10.2306 7.29723 10.3315 7.27838 10.3127C7.25953 10.2938 7.38966 10.0034 7.56764 9.66713C7.87209 9.0918 8.98274 7.84664 9.19147 7.84664C9.24396 7.84664 9.13559 8.1404 8.95054 8.49955ZM15.5065 8.45118C16.0201 8.96664 16.8288 10.2055 16.7216 10.3127C16.7028 10.3315 16.4371 10.2306 16.1312 10.0883C15.6627 9.87036 15.56 9.77614 15.4804 9.49099C15.4283 9.3048 15.2344 8.85869 15.0495 8.49955C14.8644 8.1404 14.756 7.84664 14.8085 7.84664C14.861 7.84664 15.175 8.11873 15.5065 8.45118ZM13.0975 10.5792C13.1759 11.2323 13.1759 12.7795 13.0975 13.4326L13.0365 13.9404H12H10.9635L10.9025 13.4326C10.8689 13.1534 10.8415 12.5113 10.8415 12.0059C10.8415 11.5005 10.8689 10.8585 10.9025 10.5792L10.9635 10.0714H12H13.0365L13.0975 10.5792ZM10.1148 12.0059C10.1148 13.9285 10.1586 13.8216 9.44496 13.6419C9.03282 13.538 9.02721 13.5309 8.96795 13.0374C8.89137 12.4001 8.89147 11.611 8.96814 10.9727C9.02537 10.4956 9.04519 10.467 9.37815 10.3782C10.1669 10.1677 10.1148 10.0525 10.1148 12.0059ZM14.8516 10.4231C15.0596 10.5029 15.1606 11.9666 15.0321 13.0374C14.9728 13.5309 14.9672 13.538 14.555 13.6419C13.8414 13.8217 13.8852 13.9293 13.8852 11.9985V10.2501L14.3085 10.3136C14.5413 10.3485 14.7856 10.3978 14.8516 10.4231ZM2.97547 10.617C3.95793 11.0834 4.16608 12.299 3.39555 13.0699C2.75969 13.7061 1.93308 13.7134 1.27672 13.0886C0.0320733 11.9041 1.42329 9.88003 2.97547 10.617ZM22.307 10.6149C23.3048 11.0886 23.5123 12.2886 22.7314 13.0699C22.0955 13.7061 21.2689 13.7134 20.6126 13.0886C19.3704 11.9065 20.7587 9.87984 22.307 10.6149ZM8.18117 12.0059C8.18117 12.6443 8.14549 13.1666 8.10189 13.1666C8.05829 13.1666 7.83612 13.0382 7.60805 12.8813C6.81828 12.3376 6.81171 11.6879 7.59027 11.1357C7.80895 10.9807 8.03132 10.8518 8.08449 10.8495C8.14385 10.8468 8.18117 11.2937 8.18117 12.0059ZM16.3919 11.1305C17.1886 11.6789 17.1886 12.3329 16.3919 12.8813C16.1639 13.0382 15.9417 13.1666 15.8981 13.1666C15.8545 13.1666 15.8188 12.6443 15.8188 12.0059C15.8188 11.3675 15.8545 10.8452 15.8981 10.8452C15.9417 10.8452 16.1639 10.9736 16.3919 11.1305ZM1.79599 11.4695C1.31636 11.9493 1.65619 12.7797 2.33207 12.7797C2.72952 12.7797 3.10551 12.4035 3.10551 12.0059C3.10551 11.6082 2.72952 11.2321 2.33207 11.2321C2.14374 11.2321 1.94555 11.3198 1.79599 11.4695ZM21.1318 11.4695C20.9822 11.6192 20.8945 11.8175 20.8945 12.0059C20.8945 12.1943 20.9822 12.3926 21.1318 12.5422C21.2814 12.692 21.4796 12.7797 21.6679 12.7797C21.8563 12.7797 22.0545 12.692 22.204 12.5422C22.3537 12.3926 22.4414 12.1943 22.4414 12.0059C22.4414 11.8175 22.3537 11.6192 22.204 11.4695C22.0545 11.3198 21.8563 11.2321 21.6679 11.2321C21.4796 11.2321 21.2814 11.3198 21.1318 11.4695ZM7.91694 13.9427C8.3432 14.1361 8.44143 14.2294 8.52003 14.5165C8.57156 14.705 8.7624 15.1531 8.94407 15.5122C9.12563 15.8714 9.2341 16.1651 9.18518 16.1651C8.98448 16.1651 7.86947 14.915 7.57692 14.3622C7.25924 13.7617 7.20335 13.6023 7.33523 13.6731C7.37506 13.6944 7.63686 13.8158 7.91694 13.9427ZM16.7373 13.7092C16.7373 13.7417 16.5958 14.0355 16.4231 14.3622C16.1259 14.9238 15.0144 16.1651 14.8085 16.1651C14.756 16.1651 14.8644 15.8714 15.0495 15.5122C15.2344 15.1531 15.428 14.707 15.4795 14.5208C15.5561 14.244 15.6662 14.1365 16.0828 13.9317C16.649 13.6533 16.7373 13.6233 16.7373 13.7092ZM10.0709 14.5766C10.167 14.6032 10.2919 14.9031 10.4206 15.4158C10.5308 15.8545 10.652 16.3006 10.6901 16.407C10.8303 16.7986 9.78382 15.5708 9.54261 15.0606C9.40532 14.7703 9.29298 14.5048 9.29298 14.4707C9.29298 14.415 9.67486 14.4669 10.0709 14.5766ZM14.707 14.4785C14.707 14.5085 14.5873 14.7781 14.4412 15.0777C14.1825 15.6077 13.1724 16.7936 13.309 16.407C13.3465 16.3006 13.4656 15.8653 13.5734 15.4397C13.6812 15.0141 13.7824 14.6499 13.7982 14.6305C13.8782 14.5325 14.707 14.3939 14.707 14.4785ZM12.8018 15.3671C12.631 16.1314 12.2075 16.9873 12 16.9873C11.7925 16.9873 11.369 16.1314 11.1982 15.3671L11.0524 14.7142H12H12.9477L12.8018 15.3671ZM5.19504 17.3408C5.77917 17.6152 6.39231 18.233 6.68805 18.8452C7.02266 19.538 7.01512 20.6627 6.67104 21.3967C6.13747 22.5352 5.12891 23.1775 3.87894 23.1752C2.66726 23.1729 1.73392 22.6179 1.16612 21.5621C0.868349 21.0083 0.838378 20.8785 0.836058 20.1309C0.833738 19.3755 0.860421 19.259 1.16506 18.697C1.61181 17.8727 2.26739 17.3526 3.15385 17.1196C3.65068 16.989 4.68438 17.101 5.19504 17.3408ZM21.3997 17.3497C22.0701 17.6567 22.5915 18.1788 22.9132 18.8652C23.2596 19.6041 23.2676 20.7383 22.931 21.3884C22.5544 22.1159 22.189 22.5019 21.5515 22.8459C20.9968 23.145 20.8699 23.1743 20.1211 23.1757C19.3588 23.177 19.2537 23.1521 18.6709 22.8313C16.1904 21.4661 16.6509 17.8384 19.396 17.1199C19.9076 16.9861 20.839 17.0928 21.3997 17.3497ZM3.16023 18.107C2.77303 18.4471 2.64319 18.9043 2.80329 19.3636C2.89629 19.6306 2.87802 19.7049 2.64435 20.0112C2.40835 20.3206 2.37684 20.4529 2.34677 21.2626C2.32395 21.8777 2.35102 22.2136 2.43117 22.3102C2.52446 22.4227 2.82688 22.4524 3.87894 22.4524C4.93101 22.4524 5.23342 22.4227 5.32671 22.3102C5.40686 22.2136 5.43393 21.8777 5.41111 21.2626C5.38105 20.4529 5.34953 20.3206 5.11354 20.0112C4.87986 19.7049 4.86159 19.6306 4.9546 19.3636C5.1147 18.9043 4.98486 18.4471 4.59765 18.107C4.12963 17.6959 3.62825 17.6959 3.16023 18.107ZM19.4023 18.107C19.0151 18.4471 18.8853 18.9043 19.0454 19.3636C19.1384 19.6306 19.1201 19.7049 18.8865 20.0112C18.6505 20.3206 18.619 20.4529 18.5889 21.2626C18.5661 21.8777 18.5931 22.2136 18.6733 22.3102C18.7666 22.4227 19.069 22.4524 20.1211 22.4524C21.1731 22.4524 21.4755 22.4227 21.5688 22.3102C21.649 22.2136 21.676 21.8777 21.6532 21.2626C21.6232 20.4529 21.5916 20.3206 21.3557 20.0112C21.122 19.7049 21.1037 19.6306 21.1967 19.3636C21.3568 18.9043 21.227 18.4471 20.8398 18.107C20.3717 17.6959 19.8704 17.6959 19.4023 18.107ZM4.16511 18.7238C4.42199 19.0334 4.04475 19.509 3.70975 19.2979C3.37505 19.087 3.49425 18.5833 3.87894 18.5833C3.97224 18.5833 4.10101 18.6465 4.16511 18.7238ZM20.4072 18.7238C20.6641 19.0334 20.2869 19.509 19.9519 19.2979C19.6172 19.087 19.7364 18.5833 20.1211 18.5833C20.2144 18.5833 20.3431 18.6465 20.4072 18.7238ZM4.41503 20.3684C4.60993 20.5633 4.65238 20.7016 4.65238 21.1422V21.6786H3.87894H3.10551V21.1422C3.10551 20.4968 3.3853 20.1309 3.87894 20.1309C4.06727 20.1309 4.26547 20.2187 4.41503 20.3684ZM12.6187 20.2658C12.7962 20.34 13.0667 20.565 13.2199 20.766C13.4511 21.0692 13.4985 21.2247 13.4985 21.6786C13.4985 22.1324 13.4511 22.2879 13.2199 22.5911C12.5771 23.4342 11.4229 23.4342 10.7801 22.5911C10.5489 22.2879 10.5015 22.1324 10.5015 21.6786C10.5015 21.2248 10.5489 21.0692 10.7798 20.7664C11.2338 20.171 11.9351 19.9799 12.6187 20.2658ZM20.6571 20.3684C20.8521 20.5633 20.8945 20.7016 20.8945 21.1422V21.6786H20.1211H19.3476V21.1422C19.3476 20.4968 19.6274 20.1309 20.1211 20.1309C20.3094 20.1309 20.5076 20.2187 20.6571 20.3684ZM11.4639 21.1422C11.3143 21.2918 11.2266 21.4901 11.2266 21.6786C11.2266 21.867 11.3143 22.0653 11.4639 22.2149C11.6135 22.3646 11.8117 22.4524 12 22.4524C12.1883 22.4524 12.3865 22.3646 12.5361 22.2149C12.6857 22.0653 12.7734 21.867 12.7734 21.6786C12.7734 21.4901 12.6857 21.2918 12.5361 21.1422C12.3865 20.9925 12.1883 20.9047 12 20.9047C11.8117 20.9047 11.6135 20.9925 11.4639 21.1422Z" fill="#090909"/>
</svg>
