<svg width="24" height="24" viewBox="0 0 24 24" fill="none" xmlns="http://www.w3.org/2000/svg">
<path fill-rule="evenodd" clip-rule="evenodd" d="M0.889226 0.0295611C0.538838 0.139862 0.250109 0.402289 0.0954921 0.751042C0.001877 0.962122 0 1.04606 0 4.98604C0 8.92602 0.001877 9.00995 0.0954921 9.22104C0.212335 9.48466 0.428893 9.72177 0.678346 9.8593C0.854455 9.95639 0.940233 9.96367 2.06864 9.97764L3.27123 9.99247L3.29145 10.3844C3.32599 11.0516 3.65038 11.5777 4.19771 11.8541C4.40014 11.9563 4.49672 11.9726 4.90158 11.9726C5.29373 11.9726 5.40612 11.9549 5.58556 11.8647C5.93435 11.6894 6.17456 11.4462 6.34255 11.0984C6.47122 10.832 6.4998 10.7129 6.51345 10.3855L6.52988 9.99247L7.7335 9.97764C8.86293 9.96367 8.94866 9.95639 9.12482 9.8593C9.37427 9.72177 9.59083 9.48466 9.70767 9.22104C9.79533 9.0234 9.80326 8.9086 9.8042 7.82626L9.80523 6.64678L10.1924 6.62893C10.492 6.6151 10.6431 6.58093 10.861 6.47771C12.0989 5.89142 12.0989 4.08066 10.861 3.49436C10.6431 3.39114 10.492 3.35698 10.1924 3.34315L9.80523 3.3253L9.8042 2.14582C9.80326 1.06347 9.79533 0.948675 9.70767 0.751042C9.59083 0.487419 9.37427 0.250307 9.12482 0.112778L8.93712 0.00931929L4.97197 0.000944995C2.79114 -0.00369675 0.953888 0.00922358 0.889226 0.0295611ZM8.76692 1.0262C8.86213 1.10736 8.86556 1.15478 8.87767 2.55649L8.8902 4.00299L9.02027 4.13564C9.14678 4.26461 9.16785 4.26891 9.79453 4.29327C10.5026 4.32074 10.5883 4.35007 10.7542 4.62178C10.8838 4.83406 10.8838 5.13802 10.7542 5.3503C10.5883 5.62201 10.5026 5.65134 9.79453 5.67881C9.16785 5.70316 9.14678 5.70747 9.02027 5.83644L8.8902 5.96908L8.87767 7.41559C8.86556 8.8173 8.86213 8.86472 8.76692 8.94588C8.67824 9.02144 8.53427 9.02962 7.29029 9.02962H5.91197L5.75871 9.16916L5.60546 9.30875L5.58199 9.94677C5.55694 10.628 5.53169 10.7141 5.29791 10.9147C5.09036 11.0928 4.7128 11.0928 4.50526 10.9147C4.27148 10.7141 4.24623 10.628 4.22117 9.94677L4.19771 9.30875L4.04445 9.16916L3.8912 9.02962H2.51813C1.3513 9.02962 1.12934 9.01842 1.04075 8.95512L0.936432 8.88066V4.98604V1.09142L1.04075 1.01696C1.133 0.95102 1.57804 0.942454 4.90684 0.942454C8.42081 0.942454 8.67509 0.947957 8.76692 1.0262ZM6.11351 3.49824C6.04054 3.56164 5.70639 3.97907 5.37097 4.42587L4.76109 5.23822L4.48832 4.9925C4.08063 4.62527 3.98669 4.57125 3.80387 4.5991C3.49196 4.64662 3.29159 5.0013 3.43096 5.25928C3.48886 5.36652 4.2047 6.04474 4.52079 6.29185C4.68657 6.42149 4.96869 6.43216 5.10528 6.31396C5.15854 6.26788 5.57261 5.73709 6.02553 5.13443C6.79528 4.11009 6.84896 4.02529 6.84896 3.83469C6.84896 3.66568 6.82424 3.6095 6.70458 3.50685C6.51753 3.3463 6.29206 3.34305 6.11351 3.49824ZM12.9965 5.02509C12.9064 5.05437 12.7234 5.18673 12.5899 5.31929C12.21 5.69656 12.1916 5.8037 12.2082 7.54048L12.2219 8.97971L12.3519 9.11236C12.4786 9.24156 12.4987 9.24558 13.1284 9.26889C13.8776 9.29664 13.9814 9.33966 14.131 9.68459C14.2362 9.92696 14.2221 10.1132 14.0808 10.3494C13.9333 10.5959 13.7387 10.6566 13.0954 10.6566C12.5351 10.6566 12.5265 10.6583 12.3751 10.7963L12.2219 10.936V12.4831V14.0303L10.7348 14.0164L9.24776 14.0026L9.09244 14.1441L8.93712 14.2856L8.91366 14.9475C8.89371 15.5105 8.87617 15.6288 8.79635 15.7394C8.5125 16.1326 7.90107 16.0956 7.64645 15.6697C7.56734 15.5374 7.55317 15.4281 7.55302 14.949C7.55284 14.3161 7.50272 14.152 7.28119 14.0584C7.18344 14.0171 6.73658 14.0052 5.67181 14.0157C4.26434 14.0296 4.18922 14.035 4.01001 14.1337C3.78876 14.2557 3.56239 14.4903 3.44044 14.7241C3.35719 14.8837 3.35306 15.0852 3.35306 19.007V23.1224L3.45451 23.3138C3.57413 23.5394 3.8042 23.7702 4.03347 23.8946C4.18997 23.9795 4.38752 23.9837 8.23325 23.9837H12.2688L12.4779 23.8641L12.687 23.7444L12.9235 23.8641L13.16 23.9837L16.9824 23.997C19.6362 24.0063 20.8811 23.9942 21.0543 23.9575C21.347 23.8956 21.6367 23.6871 21.8403 23.3921L21.9822 23.1862L21.9966 22.157C22.0126 21.0041 22.0005 20.9503 21.702 20.8498C21.5616 20.8025 21.5087 20.8074 21.3602 20.8814C21.109 21.0066 21.073 21.1581 21.0698 22.1027C21.0673 22.8725 21.0634 22.9043 20.9629 22.9761C20.8706 23.042 20.4271 23.0506 17.1129 23.0506H13.3672L13.2521 22.9331L13.1369 22.8157V21.7427V20.6696L13.5475 20.6479C14.2226 20.612 14.6899 20.3059 14.977 19.7113C15.1131 19.4294 15.1311 19.3467 15.1299 19.008C15.1283 18.5515 14.9956 18.2072 14.6915 17.8708C14.3994 17.5476 14.0449 17.391 13.5475 17.3654L13.1369 17.3443V16.2602C13.1369 15.3565 13.149 15.1584 13.21 15.0698C13.2819 14.965 13.2997 14.9634 14.3764 14.9634H15.4697L15.4953 15.3436C15.5409 16.0231 15.8495 16.5099 16.414 16.7933C16.691 16.9324 16.768 16.9493 17.1245 16.9493C17.4598 16.9493 17.5675 16.9287 17.7917 16.8215C18.3492 16.555 18.6549 16.0892 18.7362 15.3821L18.7843 14.9634H19.8695C20.6509 14.9634 20.9703 14.9795 21.0109 15.0208C21.0507 15.0615 21.0673 15.3449 21.0675 15.9899C21.0676 16.4913 21.0888 16.979 21.1146 17.0737C21.1824 17.3226 21.3174 17.4278 21.5689 17.4278C21.7411 17.4278 21.7997 17.4035 21.8925 17.2936C22.0051 17.16 22.0057 17.154 22.0052 16.0494C22.0048 14.989 21.9999 14.9288 21.8958 14.7002L21.7867 14.4609L21.8949 14.2456C21.9992 14.0379 22.0031 13.9878 22.0044 12.8288L22.0057 11.6274L22.3694 11.6012C23.0837 11.5499 23.6008 11.2157 23.8683 10.6327C23.9802 10.3887 24 10.2845 24 9.93883C24 9.59802 23.9797 9.48791 23.8747 9.25951C23.609 8.68144 23.1554 8.37657 22.4397 8.29508L22.0057 8.24565L22.0047 7.07047C22.0037 5.99181 21.9958 5.87754 21.908 5.67991C21.7797 5.39073 21.6073 5.2121 21.3253 5.07615L21.0907 4.96307L17.1255 4.96747C14.3564 4.97053 13.1109 4.98795 12.9965 5.02509ZM21.0109 5.9766C21.052 6.01852 21.0672 6.39211 21.0672 7.35835C21.0672 8.08673 21.0803 8.74968 21.0964 8.83156C21.1124 8.91343 21.1763 9.03206 21.2381 9.09523C21.3436 9.20271 21.3907 9.21122 21.9815 9.22879C22.6782 9.24956 22.765 9.28214 22.9794 9.60338C23.1906 9.91983 23.0491 10.3817 22.6861 10.5609C22.5262 10.6399 22.3963 10.6566 21.9447 10.6566C21.4061 10.6566 21.3946 10.6589 21.2439 10.7962L21.0907 10.9358L21.0672 12.4099L21.0437 13.884L20.9264 13.9445C20.84 13.989 20.4496 14.0051 19.4453 14.0056L18.0816 14.0063L17.9602 14.1379C17.8446 14.2632 17.838 14.2998 17.8207 14.9024C17.805 15.4483 17.7893 15.5535 17.7061 15.668C17.3621 16.1415 16.7745 16.1234 16.5272 15.6316C16.4352 15.4487 16.4216 15.3486 16.4216 14.8539C16.4216 14.2902 16.4207 14.2851 16.2845 14.1462L16.1473 14.0063H14.7573H13.3672L13.2521 13.8889L13.1369 13.7714V12.6986V11.6257L13.524 11.6049C14.202 11.5684 14.6952 11.2508 14.9755 10.6701C15.1066 10.3987 15.1259 10.3091 15.1273 9.96941C15.1292 9.50423 14.9995 9.16734 14.6845 8.81883C14.3881 8.49084 14.0564 8.34494 13.5513 8.32034L13.1369 8.3001V7.21599C13.1369 6.31224 13.149 6.11417 13.21 6.02555L13.283 5.91917H17.1188C20.0396 5.91917 20.968 5.93286 21.0109 5.9766ZM6.62316 15.3634C6.65676 16.0162 6.97041 16.5222 7.52722 16.8218C7.73824 16.9354 7.8151 16.9492 8.23325 16.9487C8.62746 16.9483 8.73727 16.9306 8.92004 16.8384C9.2541 16.6697 9.4913 16.4359 9.66535 16.1035C9.80251 15.8417 9.82653 15.7444 9.84376 15.3821L9.86365 14.9634H10.9533C11.9389 14.9634 12.0503 14.9715 12.1187 15.0486C12.1841 15.1223 12.1962 15.3301 12.2081 16.5789L12.2219 18.0239L12.3519 18.1566C12.4786 18.2857 12.4989 18.2898 13.1262 18.3131C13.6962 18.3343 13.7873 18.3493 13.9175 18.4441C14.0549 18.544 14.2162 18.848 14.2162 19.007C14.2162 19.166 14.0549 19.47 13.9175 19.5699C13.7873 19.6646 13.6962 19.6797 13.1262 19.7009C12.4989 19.7242 12.4786 19.7283 12.3519 19.8574L12.2219 19.99L12.2081 21.4351C12.1962 22.6839 12.1841 22.8917 12.1187 22.9653C12.0473 23.0457 11.8282 23.0506 8.24944 23.0506C4.51835 23.0506 4.45425 23.049 4.36195 22.9549C4.26965 22.8607 4.2681 22.7954 4.2681 19.007C4.2681 15.2186 4.26965 15.1532 4.36195 15.0591C4.45031 14.969 4.51835 14.9634 5.5292 14.9634H6.60256L6.62316 15.3634ZM21.3642 18.7179C21.1811 18.7991 21.1141 18.9194 21.1141 19.1671C21.1141 19.3208 21.1419 19.3812 21.2585 19.4813C21.3509 19.5606 21.4594 19.6052 21.5599 19.6052C21.6604 19.6052 21.769 19.5606 21.8613 19.4813C21.978 19.3812 22.0057 19.3208 22.0057 19.1671C22.0057 18.9153 21.9379 18.7979 21.7454 18.7158C21.5545 18.6345 21.552 18.6345 21.3642 18.7179Z" fill="#090909"/>
<path fill-rule="evenodd" clip-rule="evenodd" d="M6.1135 3.49824C6.04053 3.56164 5.70638 3.97907 5.37096 4.42587L4.76108 5.23822L4.48831 4.9925C4.08062 4.62527 3.98668 4.57125 3.80386 4.5991C3.49195 4.64662 3.29158 5.0013 3.43095 5.25928C3.48885 5.36652 4.20469 6.04474 4.52078 6.29185C4.68656 6.42149 4.96868 6.43216 5.10527 6.31396C5.15853 6.26788 5.5726 5.73709 6.02552 5.13443C6.79527 4.11009 6.84896 4.02529 6.84896 3.83469C6.84896 3.66568 6.82423 3.6095 6.70457 3.50685C6.51752 3.3463 6.29205 3.34305 6.1135 3.49824Z" fill="#6FB955"/>
<path fill-rule="evenodd" clip-rule="evenodd" d="M21.3642 18.7179C21.1811 18.7991 21.1141 18.9194 21.1141 19.1671C21.1141 19.3208 21.1419 19.3811 21.2585 19.4813C21.3509 19.5605 21.4595 19.6051 21.5599 19.6051C21.6604 19.6051 21.769 19.5605 21.8613 19.4813C21.978 19.3811 22.0057 19.3208 22.0057 19.1671C22.0057 18.9153 21.9379 18.7979 21.7454 18.7158C21.5545 18.6345 21.552 18.6345 21.3642 18.7179Z" fill="#1C7EFF"/>
</svg>
