<svg width="24" height="24" viewBox="0 0 24 24" fill="none" xmlns="http://www.w3.org/2000/svg">
<path fill-rule="evenodd" clip-rule="evenodd" d="M10.1555 0.0455842C8.34502 0.315076 6.81517 1.64149 6.2707 3.41385C5.84746 4.79159 6.06876 6.37381 6.85009 7.5561C7.10358 7.93972 7.6309 8.50487 7.98871 8.77647C8.15208 8.90045 8.23732 8.99286 8.1996 9.00511C8.16483 9.01644 8.02034 9.06232 7.87858 9.10714C7.46256 9.23858 7.32037 9.44259 7.45965 9.70821C7.55235 9.885 7.70185 9.89906 8.133 9.77144C9.87674 9.25552 11.7093 9.24643 13.4006 9.74533C13.6669 9.82392 13.9199 9.87548 13.963 9.85993C14.1279 9.80048 14.2053 9.68764 14.2053 9.50673C14.2053 9.28852 14.1108 9.20649 13.7367 9.09996C13.5949 9.05959 13.4488 9.01645 13.412 9.00415C13.3674 8.98923 13.4066 8.93986 13.5291 8.85639C13.8713 8.62345 14.2881 8.22222 14.5402 7.88299C14.8161 7.51185 14.7961 7.51812 15.2863 7.64832L15.4535 7.69276L15.3885 8.06394C15.3471 8.30053 15.3309 8.63474 15.344 8.98526C15.378 9.89562 15.6344 10.506 16.2117 11.0505C16.7268 11.5364 17.3704 11.7769 18.1419 11.7721C18.8 11.7679 19.1572 11.6406 19.4987 11.2887C19.6728 11.1093 19.8081 10.9099 19.9006 10.6966C19.9772 10.5197 20.0552 10.3744 20.0737 10.3737C20.1369 10.3713 20.6225 11.1121 20.8097 11.4965C20.9123 11.707 21.0474 12.0248 21.1101 12.2028C21.2464 12.5903 21.3856 12.8082 21.5868 12.9489C21.6689 13.0063 22.0208 13.1504 22.3688 13.2692C22.8491 13.4331 23.0344 13.52 23.1376 13.6299L23.2736 13.7748V14.8687V15.9626L23.1341 16.1112C23.0188 16.2341 22.8332 16.3131 22.0623 16.5675C21.5028 16.7521 21.0672 16.9241 20.9728 16.9975C20.8864 17.0647 20.6786 17.332 20.5111 17.5914C19.9767 18.4185 19.2203 19.1474 18.3384 19.6851C17.7244 20.0594 17.581 20.1682 17.5336 20.2953C17.5098 20.3592 17.3743 21.0375 17.2324 21.8028C17.0905 22.568 16.9617 23.2151 16.9462 23.2407C16.9294 23.2684 16.5478 23.2874 16.0058 23.2874C15.1044 23.2874 15.0932 23.2861 15.049 23.1797C15.0244 23.1205 14.9407 22.7278 14.863 22.3069C14.6624 21.22 14.5816 21.1331 13.8596 21.2278C12.9843 21.3424 11.9611 21.3756 11.032 21.3195C9.80392 21.2452 9.82819 21.2267 9.61088 22.4036C9.53421 22.8188 9.44793 23.1875 9.41916 23.223C9.34624 23.3126 7.63169 23.3169 7.56257 23.2276C7.53712 23.1947 7.4051 22.5758 7.2692 21.8524C7.13329 21.1289 6.9919 20.4759 6.95497 20.4013C6.91799 20.3266 6.8237 20.2297 6.74539 20.186C5.54266 19.5142 4.54252 18.4894 3.99144 17.3642C3.78425 16.9413 3.54069 16.1718 3.44378 15.6341C3.34297 15.0747 3.32929 13.635 3.41969 13.0989C3.74348 11.1785 4.60658 9.80512 6.13446 8.77905C6.59266 8.47134 6.6653 8.36634 6.58371 8.12962C6.56009 8.06103 6.47845 7.9744 6.40225 7.93714C6.27384 7.87433 6.24656 7.87907 6.02841 8.00219C5.33608 8.39294 4.51557 9.12904 4.01993 9.80411C3.36828 10.6918 3.00306 11.5758 2.74292 12.8956C2.70641 13.0806 2.64399 13.0137 2.61427 12.7576C2.51375 11.891 1.74428 11.1952 1.08644 11.3761C0.684812 11.4864 0.286509 12.0074 0.286509 12.4224C0.286509 12.9229 0.746485 13.337 1.52031 13.5331L1.74648 13.5904L1.52031 13.8269C1.23828 14.1218 0.935584 14.2827 0.504992 14.3664C0.0237862 14.46 -0.123369 14.6888 0.10608 14.9866C0.202715 15.1119 0.221789 15.1167 0.565494 15.1007C0.867537 15.0866 0.98123 15.0551 1.28669 14.9011C1.68125 14.702 2.20243 14.2197 2.37091 13.8978C2.43136 13.7823 2.49688 13.7207 2.5593 13.7207C2.64853 13.7207 2.65383 13.7444 2.63761 14.0723C2.61657 14.4978 2.69849 15.4648 2.79789 15.9635C2.96984 16.8265 3.34185 17.7335 3.83992 18.504C4.30576 19.2248 5.29235 20.1454 6.15087 20.6605L6.35674 20.784L6.5816 21.9998C6.70523 22.6685 6.83814 23.3061 6.87689 23.4167C6.96069 23.6558 7.19984 23.8842 7.44428 23.9586C7.55858 23.9935 7.96771 24.0069 8.60498 23.9967C9.53641 23.9818 9.59841 23.9751 9.76253 23.8709C10.029 23.7018 10.1082 23.5206 10.2583 22.7373L10.3958 22.0198L10.6017 22.026C11.9718 22.0671 13.2921 22.0313 14.0162 21.9334C14.0673 21.9265 14.1058 22.0393 14.1679 22.3785C14.3459 23.3508 14.3956 23.5264 14.5393 23.6936C14.7866 23.981 14.9462 24.0122 16.0855 23.9956L17.0946 23.9809L17.2944 23.8459C17.4227 23.7591 17.5248 23.6395 17.5799 23.5111C17.627 23.4012 17.7766 22.7064 17.9123 21.9672L18.1589 20.6231L18.3964 20.4886C19.5199 19.8525 20.5514 18.874 21.1986 17.8307C21.3863 17.5281 21.3265 17.5587 22.4535 17.1879C23.4869 16.848 23.7092 16.6921 23.9051 16.1704C23.99 15.9442 24 15.8069 24 14.8687C24 13.9316 23.9899 13.7931 23.9053 13.5671C23.724 13.0829 23.4704 12.8896 22.6644 12.6211C22.3167 12.5054 22.0126 12.3744 21.956 12.3161C21.9015 12.26 21.7806 12.0095 21.6873 11.7596C21.4231 11.0516 21.0616 10.4536 20.4392 9.69529L20.2957 9.52041L20.372 9.09738C20.4703 8.5528 20.5127 7.1907 20.4432 6.80885C20.3686 6.39906 20.1699 6.01793 19.9696 5.9005C19.5356 5.64608 18.4469 5.89629 16.7192 6.64765C16.3547 6.80612 16.0114 6.96541 15.9562 7.00152C15.884 7.04878 15.8119 7.05529 15.6985 7.02477C15.6118 7.00148 15.4538 6.95933 15.3473 6.93116L15.1537 6.87998L15.2708 6.58408C15.4153 6.21897 15.5629 5.50664 15.5638 5.17057C15.5645 4.86568 15.4577 4.72811 15.2202 4.72811C14.9888 4.72811 14.9052 4.85343 14.8596 5.26863C14.7021 6.7018 13.8767 7.92972 12.6464 8.56112L12.2822 8.748L11.5343 8.69094C10.9508 8.64641 10.6311 8.64665 10.0795 8.69214C9.37309 8.75035 9.37229 8.7503 9.12396 8.63426C8.05315 8.13392 7.22055 7.13431 6.88641 5.94786C6.79441 5.6213 6.77909 5.46001 6.78185 4.84769C6.78471 4.21199 6.79938 4.08217 6.91063 3.70893C7.12452 2.99115 7.44597 2.4414 7.95637 1.92045C9.81099 0.0275033 12.9527 0.430689 14.299 2.73438C14.5716 3.2008 14.7347 3.289 14.9722 3.09829C15.164 2.94437 15.1368 2.75968 14.8528 2.28661C14.3853 1.50799 13.5187 0.748779 12.6917 0.393092C11.8916 0.0490282 10.9755 -0.0764859 10.1555 0.0455842ZM10.8404 2.34602C10.8095 2.37759 10.7842 2.45054 10.7842 2.50813C10.7842 2.59145 10.7483 2.61939 10.6084 2.64512C10.1218 2.73467 9.75185 3.0683 9.65639 3.50349C9.52193 4.11685 9.81399 4.61848 10.4588 4.88166L10.7607 5.00492L10.7737 5.75265L10.7866 6.50037L10.6565 6.46885C10.4304 6.41413 10.2509 6.32349 10.063 6.16923C9.84848 5.99301 9.6928 5.97871 9.59181 6.12594C9.3423 6.48947 9.82908 6.97938 10.5264 7.06658C10.7389 7.09312 10.7622 7.10814 10.7756 7.22739C10.8069 7.50544 11.1591 7.49813 11.1591 7.21945C11.1591 7.09925 11.1824 7.07724 11.3583 7.0318C12.0208 6.86056 12.3886 6.21496 12.24 5.48421C12.2104 5.3386 12.1349 5.14866 12.0723 5.06208C11.9268 4.86075 11.5966 4.62101 11.3509 4.53821L11.1591 4.47364V3.83555C11.1591 3.10456 11.1479 3.11891 11.5809 3.29312C11.7117 3.34573 11.8568 3.38878 11.9034 3.38878C12.0409 3.38878 12.1516 3.22529 12.1348 3.04706C12.1224 2.91543 12.0848 2.86807 11.9186 2.7748C11.8005 2.7085 11.6021 2.65115 11.4383 2.63599C11.1912 2.61312 11.1591 2.59829 11.1591 2.50679C11.1591 2.38467 11.0766 2.28862 10.9716 2.28862C10.9304 2.28862 10.8714 2.31445 10.8404 2.34602ZM10.831 3.77226V4.34707L10.5984 4.22672C10.3359 4.09097 10.2583 3.97723 10.2516 3.71888C10.2464 3.51573 10.3544 3.36315 10.5733 3.26456C10.8302 3.14876 10.831 3.15034 10.831 3.77226ZM11.3427 5.2757C11.5896 5.4348 11.7128 5.74873 11.6338 6.01764C11.5742 6.22084 11.3454 6.4501 11.2024 6.4501C11.1179 6.4501 11.1122 6.40964 11.1122 5.80436C11.1122 5.4492 11.1232 5.15861 11.1366 5.15861C11.15 5.15861 11.2428 5.21127 11.3427 5.2757ZM19.6965 6.67731C19.7404 6.80373 19.7579 7.12503 19.7557 7.76551C19.7532 8.51396 19.7344 8.76087 19.6494 9.16463C19.5177 9.78981 19.2982 10.4092 19.1191 10.6617C18.866 11.0183 18.3127 11.1599 17.6937 11.0266C16.8593 10.8468 16.3077 10.3285 16.1049 9.53366C15.9675 8.99549 16.0462 7.91676 16.2386 7.69974C16.3297 7.597 17.2751 7.16363 17.9822 6.90045C18.5575 6.68635 19.2342 6.50339 19.4622 6.50028C19.6196 6.49813 19.6397 6.51334 19.6965 6.67731ZM1.53128 12.1441C1.68565 12.2414 1.92677 12.6525 1.92677 12.8183C1.92677 12.8972 1.91149 12.8972 1.62862 12.8171C1.25155 12.7104 1.01689 12.5719 0.998804 12.4454C0.982214 12.3299 1.19939 12.0466 1.30446 12.0466C1.34424 12.0466 1.44631 12.0904 1.53128 12.1441ZM17.9533 12.8478C17.7046 13.1695 18.0633 13.9075 18.5739 14.1249C18.8101 14.2254 19.2446 14.2181 19.4786 14.1096C19.9883 13.8732 20.3144 13.171 20.0645 12.8478C19.8665 12.5917 19.4541 12.7471 19.4541 13.0778C19.4541 13.138 19.3995 13.2535 19.3328 13.3344C19.2318 13.4569 19.1776 13.4816 19.0089 13.4816C18.8403 13.4816 18.786 13.4569 18.685 13.3344C18.6151 13.2495 18.5637 13.128 18.5637 13.0474C18.5637 12.7266 18.1513 12.5917 17.9533 12.8478Z" fill="#090909"/>
<path fill-rule="evenodd" clip-rule="evenodd" d="M17.9533 12.8478C17.7046 13.1695 18.0633 13.9075 18.5739 14.1249C18.8101 14.2254 19.2446 14.2181 19.4786 14.1096C19.9883 13.8732 20.3144 13.171 20.0645 12.8478C19.8665 12.5917 19.4541 12.7471 19.4541 13.0778C19.4541 13.138 19.3995 13.2535 19.3328 13.3344C19.2318 13.4569 19.1776 13.4816 19.0089 13.4816C18.8403 13.4816 18.786 13.4569 18.685 13.3344C18.6151 13.2495 18.5637 13.128 18.5637 13.0474C18.5637 12.7266 18.1513 12.5917 17.9533 12.8478Z" fill="#009DEC"/>
<path fill-rule="evenodd" clip-rule="evenodd" d="M10.8404 2.34602C10.8095 2.37759 10.7842 2.45053 10.7842 2.50813C10.7842 2.59145 10.7483 2.61939 10.6084 2.64512C10.1218 2.73466 9.75185 3.0683 9.65639 3.50349C9.52193 4.11685 9.81399 4.61847 10.4588 4.88165L10.7608 5.00492L10.7737 5.75265L10.7866 6.50037L10.6565 6.46885C10.4304 6.41413 10.2509 6.32349 10.063 6.16922C9.84849 5.99301 9.6928 5.97871 9.59181 6.12594C9.3423 6.48947 9.82908 6.97937 10.5264 7.06657C10.7389 7.09312 10.7622 7.10814 10.7756 7.22739C10.8069 7.50544 11.1591 7.49812 11.1591 7.21945C11.1591 7.09924 11.1824 7.07724 11.3583 7.0318C12.0208 6.86056 12.3886 6.21495 12.24 5.48421C12.2104 5.3386 12.1349 5.14866 12.0724 5.06208C11.9268 4.86075 11.5966 4.62101 11.3509 4.53821L11.1591 4.47364V3.83554C11.1591 3.10456 11.1479 3.11891 11.5809 3.29312C11.7117 3.34573 11.8568 3.38878 11.9034 3.38878C12.0409 3.38878 12.1516 3.22529 12.1348 3.04706C12.1225 2.91543 12.0848 2.86807 11.9186 2.7748C11.8005 2.7085 11.6021 2.65115 11.4383 2.63598C11.1912 2.61312 11.1591 2.59829 11.1591 2.50679C11.1591 2.38467 11.0766 2.28862 10.9716 2.28862C10.9304 2.28862 10.8714 2.31445 10.8404 2.34602ZM10.831 3.77226V4.34707L10.5984 4.22672C10.3359 4.09097 10.2583 3.97722 10.2516 3.71888C10.2464 3.51573 10.3544 3.36314 10.5733 3.26456C10.8303 3.14876 10.831 3.15033 10.831 3.77226ZM11.3427 5.2757C11.5896 5.43479 11.7128 5.74872 11.6338 6.01764C11.5742 6.22084 11.3454 6.4501 11.2024 6.4501C11.1179 6.4501 11.1122 6.40963 11.1122 5.80435C11.1122 5.44919 11.1232 5.15861 11.1366 5.15861C11.15 5.15861 11.2428 5.21127 11.3427 5.2757Z" fill="#6FB955"/>
</svg>
