<?xml version="1.0" encoding="UTF-8" standalone="no"?>
<svg
   width="24"
   height="24"
   viewBox="0 0 24 24"
   fill="none"
   version="1.1"
   id="svg2094"
   sodipodi:docname="Rocket.svg"
   inkscape:version="1.2.2 (1:1.2.2+202212051552+b0a8486541)"
   xmlns:inkscape="http://www.inkscape.org/namespaces/inkscape"
   xmlns:sodipodi="http://sodipodi.sourceforge.net/DTD/sodipodi-0.dtd"
   xmlns="http://www.w3.org/2000/svg"
   xmlns:svg="http://www.w3.org/2000/svg">
  <defs
     id="defs2098" />
  <sodipodi:namedview
     id="namedview2096"
     pagecolor="#ffffff"
     bordercolor="#000000"
     borderopacity="0.25"
     inkscape:showpageshadow="2"
     inkscape:pageopacity="0.0"
     inkscape:pagecheckerboard="0"
     inkscape:deskcolor="#d1d1d1"
     showgrid="false"
     inkscape:zoom="32.833333"
     inkscape:cx="12"
     inkscape:cy="12.015228"
     inkscape:window-width="1920"
     inkscape:window-height="1016"
     inkscape:window-x="0"
     inkscape:window-y="0"
     inkscape:window-maximized="1"
     inkscape:current-layer="svg2094" />
  <path
     style="color:#000000;fill:#090909;stroke-linecap:round;stroke-linejoin:round;-inkscape-stroke:none"
     d="M 21.505859,1 C 19.138003,0.98531203 16.805313,1.5775966 14.730469,2.71875 12.888587,3.7317756 11.365322,5.1984443 10.154297,6.9082031 9.8043004,6.8106118 9.5214731,6.7049555 8.734375,6.6035156 7.5868501,6.4556246 6.1503969,6.3645791 4.9453125,7.1679687 a 1.0001,1.0001 0 0 0 -0.00195,0.00195 C 3.8669721,7.8899878 3.3657569,9.0581856 3.015625,10.023438 c -0.3501319,0.965251 -0.5,1.798828 -0.5,1.798828 A 1.0001,1.0001 0 0 0 3.5,13 H 8.0859375 L 10.5,15.414063 V 20 a 1.0001,1.0001 0 0 0 1.177734,0.984375 c 0,0 0.833565,-0.149869 1.798829,-0.5 0.965263,-0.350131 2.135398,-0.851341 2.855468,-1.927734 a 1.0001,1.0001 0 0 0 0,-0.002 c 0.80339,-1.205084 0.712344,-2.641537 0.564453,-3.789062 C 16.795206,13.979784 16.69142,13.698148 16.59375,13.347656 21.552417,9.6779185 22.5,4.7942025 22.5,2 A 1.0001,1.0001 0 0 0 21.505859,1 Z m -1.097656,2.1328125 c -0.198023,2.5668556 -1.19136,6.1607807 -5.453125,9.0253905 -1.028001,0.649412 -2.131198,1.16394 -3.253906,1.628906 L 9.7167969,11.802734 C 10.182652,10.693864 10.692835,9.6034379 11.341797,8.5898438 a 1.0001,1.0001 0 0 0 0.0059,-0.00977 c 1.074765,-1.7184242 2.57171,-3.1326136 4.347657,-4.109375 1.453882,-0.7996275 3.067881,-1.1954603 4.71289,-1.3378906 z M 8.4804688,8.5878906 C 8.7955316,8.6284954 8.7969784,8.6549287 9.0507813,8.7089844 8.6315054,9.4567821 8.223963,10.209818 7.890625,11 H 4.8144531 c 0.044774,-0.144984 0.024578,-0.136532 0.082031,-0.294922 C 5.1838518,9.9128567 5.6830293,9.0819643 6.0566406,8.8320313 6.4722551,8.5559385 7.533751,8.4658793 8.4804688,8.5878906 Z m 6.3144532,5.8769534 c 0.0527,0.24948 0.07955,0.249429 0.119141,0.55664 0.122011,0.946718 0.03,2.00626 -0.246094,2.421875 -0.249929,0.373605 -1.080813,0.872789 -1.873047,1.160157 -0.158587,0.05752 -0.14978,0.03722 -0.294922,0.08203 v -3.072266 c 0.79108,-0.32919 1.545044,-0.734479 2.294922,-1.148437 z m -9.2910158,0.523437 c -0.7822649,-0.02418 -1.5476311,0.242338 -2.1464843,0.746094 -1.0812138,0.90822 -1.5462623,2.293139 -1.8808594,3.462891 -0.3345971,1.169751 -0.4667969,2.169922 -0.4667969,2.169921 a 1.0001,1.0001 0 0 0 1.1230469,1.125 c 0,0 1.0001705,-0.134152 2.1699219,-0.46875 1.1697514,-0.334597 2.554671,-0.799645 3.4628906,-1.880859 1.0358523,-1.229085 1.0257941,-3.100447 -0.1523438,-4.263672 a 1.0001,1.0001 0 0 0 -0.013672,-0.01172 C 7.0328422,15.326361 6.2871077,15.012489 5.5039062,14.988281 Z m -0.0625,2 c 0.2879098,0.0089 0.5597482,0.125115 0.7695313,0.322266 0.394438,0.396842 0.4045284,1.096364 0.025391,1.544922 a 1.0001,1.0001 0 0 0 -0.00195,0.002 c -0.3517792,0.418785 -1.4671755,0.953738 -2.4824219,1.24414 -0.2430213,0.06951 -0.2347576,0.04721 -0.4511718,0.09766 0.050447,-0.216414 0.028142,-0.208151 0.097656,-0.451172 0.2904023,-1.015247 0.8253559,-2.130643 1.2441406,-2.482422 a 1.0001,1.0001 0 0 0 0.00195,0 c 0.2226136,-0.18757 0.5058571,-0.286339 0.796875,-0.277344 z"
     id="path2092" />
</svg>
