<svg width="24" height="24" viewBox="0 0 24 24" fill="none" xmlns="http://www.w3.org/2000/svg">
<path fill-rule="evenodd" clip-rule="evenodd" d="M16.6819 10.2628C16.6819 13.6853 13.8648 16.4599 10.3897 16.4599C6.91456 16.4599 4.09742 13.6853 4.09742 10.2628C4.09742 6.84022 6.91456 4.06569 10.3897 4.06569C13.8648 4.06569 16.6819 6.84022 16.6819 10.2628ZM15.3594 16.9205C13.9684 17.9294 12.2497 18.5256 10.3897 18.5256C5.75618 18.5256 2 14.8262 2 10.2628C2 5.69937 5.75618 2 10.3897 2C15.0232 2 18.7793 5.69937 18.7793 10.2628C18.7793 12.2495 18.0674 14.0725 16.881 15.4978L21.6928 20.2368C22.1024 20.6402 22.1024 21.2941 21.6928 21.6975C21.2833 22.1008 20.6193 22.1008 20.2097 21.6975L15.3594 16.9205Z" fill="#090909"/>
</svg>
