<?xml version="1.0" encoding="UTF-8" standalone="no"?>
<svg
   width="24"
   height="24"
   viewBox="0 0 24 24"
   fill="none"
   version="1.1"
   id="svg1696"
   sodipodi:docname="Settings.svg"
   inkscape:version="1.2.2 (1:1.2.2+202212051552+b0a8486541)"
   xmlns:inkscape="http://www.inkscape.org/namespaces/inkscape"
   xmlns:sodipodi="http://sodipodi.sourceforge.net/DTD/sodipodi-0.dtd"
   xmlns="http://www.w3.org/2000/svg"
   xmlns:svg="http://www.w3.org/2000/svg">
  <defs
     id="defs1700" />
  <sodipodi:namedview
     id="namedview1698"
     pagecolor="#ffffff"
     bordercolor="#000000"
     borderopacity="0.25"
     inkscape:showpageshadow="2"
     inkscape:pageopacity="0.0"
     inkscape:pagecheckerboard="0"
     inkscape:deskcolor="#d1d1d1"
     showgrid="false"
     inkscape:zoom="32.833333"
     inkscape:cx="12"
     inkscape:cy="12.015228"
     inkscape:window-width="1920"
     inkscape:window-height="1016"
     inkscape:window-x="0"
     inkscape:window-y="0"
     inkscape:window-maximized="1"
     inkscape:current-layer="svg1696" />
  <path
     style="color:#000000;fill:#090909;stroke-linecap:round;stroke-linejoin:round;-inkscape-stroke:none"
     d="m 12.060547,8 c -2.1972373,0 -4.0000001,1.8026713 -4.0000001,4 0,2.197329 1.8027628,4 4.0000001,4 2.197304,0 4,-1.802695 4,-4 0,-2.1973046 -1.802696,-4 -4,-4 z m 0,2 c 1.116492,0 2,0.883508 2,2 0,1.116492 -0.883508,2 -2,2 -1.11636,0 -2,-0.883532 -2,-2 0,-1.116468 0.88364,-2 2,-2 z"
     id="path1692" />
  <path
     style="color:#000000;fill:#090909;stroke-linecap:round;stroke-linejoin:round;-inkscape-stroke:none"
     d="M 11.957031,1 C 11.33549,0.99989837 10.726258,1.1807133 10.205078,1.5195312 9.6838491,1.8582866 9.2736989,2.3401723 9.0214844,2.9082031 L 8.4355469,4.2226562 a 1.0001,1.0001 0 0 0 0,0.00195 C 8.3141816,4.4991831 8.1088616,4.7275921 7.8496094,4.8789062 7.5880746,5.0297659 7.2866155,5.0936215 6.9863281,5.0625 L 5.5507812,4.9121094 a 1.0001,1.0001 0 0 0 0,-0.00195 C 4.9327605,4.8447782 4.3096177,4.9601617 3.7558594,5.2421875 3.2025348,5.5239997 2.7421906,5.9622581 2.4316406,6.5 2.1206358,7.0380508 1.9712636,7.6547878 2.0039063,8.2753906 2.0365627,8.8959929 2.2495144,9.4936517 2.6152344,9.9960938 L 3.4609375,11.160156 C 3.6379923,11.404365 3.7344337,11.698502 3.734375,12 c 5.88e-5,0.302132 -0.095793,0.595563 -0.2734375,0.839844 l -0.8457031,1.164062 c -0.3657595,0.502453 -0.5786718,1.100103 -0.6113281,1.720703 -0.032643,0.620613 0.1166752,1.237304 0.4277343,1.775391 0.3107609,0.537892 0.7706498,0.973965 1.3242188,1.255859 0.5534396,0.281821 1.1770079,0.399022 1.7949218,0.333985 a 1.0001,1.0001 0 0 0 0,-0.002 L 6.9804687,18.9375 c 0.3009361,-0.03159 0.6030705,0.03241 0.8652344,0.183594 0.2613708,0.150877 0.4673977,0.380417 0.5898438,0.65625 l 0.5859375,1.314453 c 0.2522076,0.567913 0.6622803,1.049891 1.1835936,1.388672 0.521112,0.338744 1.130289,0.519676 1.751953,0.519531 0.621665,1.45e-4 1.228947,-0.180919 1.75,-0.519531 0.521091,-0.338731 0.933304,-0.82058 1.185547,-1.388672 l 0.583985,-1.3125 v -0.002 c 0.121926,-0.272632 0.32752,-0.500096 0.585937,-0.650391 0.261355,-0.150806 0.565,-0.216703 0.865234,-0.185547 l 1.429688,0.152344 c 0.61789,0.06533 1.243031,-0.04988 1.796875,-0.332031 0.554081,-0.282051 1.013736,-0.717777 1.324219,-1.25586 0.31094,-0.537975 0.458458,-1.154663 0.425781,-1.77539 -0.03267,-0.620523 -0.24353,-1.218193 -0.609375,-1.720703 l -0.845703,-1.160157 v -0.002 l -0.002,-0.002 C 20.27149,12.600825 20.178165,12.307282 20.179687,12.005859 a 1.0001,1.0001 0 0 0 0,-0.002 1.0001,1.0001 0 0 0 0,-0.002 1.0001,1.0001 0 0 0 0,-0.002 c -5.8e-5,-0.302132 0.09565,-0.595355 0.273438,-0.839844 h -0.002 L 21.298828,9.9960938 C 21.664634,9.493594 21.875536,8.8959151 21.908203,8.2753906 21.940873,7.6548205 21.793491,7.0381125 21.482422,6.5 21.17185,5.9616601 20.711917,5.524213 20.158203,5.2421875 19.604442,4.9601381 18.981316,4.8447814 18.363281,4.9101562 a 1.0001,1.0001 0 0 0 -0.002,0.00195 L 16.933594,5.0625 C 16.632612,5.0941069 16.330524,5.0301221 16.068359,4.8789062 15.809122,4.7276109 15.603852,4.499289 15.482422,4.2246094 a 1.0001,1.0001 0 0 0 -0.002,-0.00391 L 14.890625,2.90625 C 14.638275,2.3391552 14.227252,1.8577256 13.707031,1.5195312 13.18591,1.1808461 12.578572,0.99989837 11.957031,1 Z m 0,2 c 0.234658,-3.84e-5 0.463278,0.067358 0.660157,0.1953125 0.196792,0.1279344 0.352116,0.3110605 0.447265,0.5253906 a 1.0001,1.0001 0 0 0 0.002,0.00195 l 0.589844,1.3144531 c 0.292677,0.6591063 0.786382,1.2098737 1.410156,1.5722656 a 1.0001,1.0001 0 0 0 0.002,0.00195 c 0.627435,0.3619036 1.353802,0.5170592 2.074219,0.4414063 a 1.0001,1.0001 0 0 0 0.002,0 l 1.427735,-0.1523438 c 0.233364,-0.024685 0.468696,0.01853 0.677734,0.125 0.209085,0.1064941 0.382773,0.2714101 0.5,0.4746094 a 1.0001,1.0001 0 0 0 0.002,0 c 0.11733,0.2029667 0.172486,0.4357129 0.160156,0.6699219 -0.01233,0.2342746 -0.09247,0.4588779 -0.230468,0.6484375 a 1.0001,1.0001 0 0 0 0,0.00195 l -0.847657,1.1621094 c -0.425837,0.5855971 -0.654035,1.2916241 -0.654297,2.0156251 -0.0029,0.725369 0.223626,1.43351 0.648438,2.021484 a 1.0001,1.0001 0 0 0 0.002,0.0039 l 0.847656,1.162109 c 0.137955,0.189489 0.218136,0.416114 0.230469,0.650391 0.01232,0.234072 -0.04465,0.466698 -0.162109,0.669921 -0.117318,0.203317 -0.291082,0.368261 -0.5,0.47461 -0.208955,0.10645 -0.444426,0.149668 -0.677735,0.125 l -1.429687,-0.152344 c -0.720525,-0.07576 -1.446738,0.07934 -2.074219,0.441406 a 1.0001,1.0001 0 0 0 -0.002,0 c -0.623997,0.361269 -1.118348,0.909655 -1.412109,1.56836 a 1.0001,1.0001 0 0 0 0,0.002 l -0.585938,1.314453 c -0.09516,0.214307 -0.250557,0.397522 -0.447265,0.52539 -0.196947,0.127988 -0.425622,0.195368 -0.660157,0.195313 -0.234534,5.5e-5 -0.465422,-0.06746 -0.662109,-0.195313 -0.196686,-0.127818 -0.352014,-0.310904 -0.447266,-0.52539 L 10.263672,18.964844 C 9.9696384,18.302478 9.4733714,17.750995 8.8457031,17.388672 8.2182879,17.026856 7.4918673,16.871653 6.7714844,16.947266 a 1.0001,1.0001 0 0 0 -0.00195,0 L 5.3417969,17.099609 C 5.1084317,17.124172 4.871409,17.081188 4.6621094,16.974609 4.4529591,16.868104 4.279568,16.703308 4.1621094,16.5 4.044809,16.297087 3.9896356,16.064265 4.0019531,15.830078 4.0142768,15.59588 4.0944418,15.371187 4.2324219,15.181641 a 1.0001,1.0001 0 0 0 0,-0.002 L 5.078125,14.017578 C 5.5043599,13.431459 5.7345162,12.724667 5.734375,12 5.7345162,11.275333 5.5042321,10.568506 5.078125,9.9824219 L 4.2324219,8.8183594 C 4.0944023,8.6287421 4.0142767,8.4041187 4.0019531,8.1699219 3.9896358,7.9357455 4.0447546,7.7030285 4.1621094,7.5 c 0.1172407,-0.2032227 0.2909146,-0.3681207 0.5,-0.4746094 0.2091009,-0.1064938 0.4444159,-0.1496818 0.6777343,-0.125 L 6.7753906,7.0527344 C 7.4958004,7.128391 8.2221512,6.9732613 8.8496094,6.6113281 a 1.0001,1.0001 0 0 0 0.00195,-0.00195 C 9.4760773,6.2465284 9.9711337,5.6955134 10.263672,5.0351562 l 0.002,-0.00195 0.582031,-1.3125 C 10.942901,3.5061947 11.098152,3.3231967 11.294922,3.1953125 11.491541,3.0674909 11.722373,2.9999616 11.957031,3 Z"
     id="path1694" />
</svg>
