<svg width="24" height="24" viewBox="0 0 24 24" fill="none" xmlns="http://www.w3.org/2000/svg">
<path fill-rule="evenodd" clip-rule="evenodd" d="M11.6167 0.027203C11.3953 0.100121 11.2711 0.186092 10.9539 0.486215C9.2822 2.06796 7.05529 2.99871 4.39475 3.22756C4.05185 3.25705 3.6608 3.30189 3.52577 3.32715C3.07994 3.41063 2.63337 3.86067 2.53831 4.32227C2.50081 4.50435 2.49098 6.09427 2.50365 9.94587C2.52289 15.8054 2.50999 15.515 2.79643 16.5364C3.27426 18.2401 4.28735 19.7398 5.65762 20.7717C6.27756 21.2386 10.5226 23.7025 10.995 23.8697C11.3276 23.9874 11.4242 24 11.992 24C12.5598 24 12.6565 23.9874 12.989 23.8697C13.3623 23.7376 17.2561 21.5131 18.0237 20.9934C19.9446 19.6928 21.2215 17.5028 21.4452 15.1253C21.5146 14.3878 21.5097 9.63508 21.4394 9.50207C21.2727 9.18645 20.8499 9.23387 20.7726 9.57691C20.7597 9.63429 20.7422 10.9701 20.7339 12.5454C20.7195 15.2593 20.7136 15.4324 20.6204 15.8453C20.197 17.7234 19.1978 19.2667 17.7209 20.3235C17.1699 20.7179 13.1022 23.0562 12.7605 23.1749C12.2967 23.3362 11.6779 23.3365 11.2235 23.1755C10.8839 23.0551 6.80909 20.7116 6.26312 20.3226C4.79317 19.2753 3.78963 17.7305 3.36578 15.863C3.26332 15.4115 3.2628 15.3851 3.24655 9.93948C3.23169 4.96895 3.23709 4.45632 3.30561 4.32532C3.42871 4.09004 3.57221 4.03909 4.28362 3.9782C7.16498 3.7316 9.47233 2.80273 11.2944 1.15581C11.742 0.751264 11.8901 0.670035 12.0968 0.715814C12.1728 0.732624 12.4392 0.930718 12.7059 1.16872C14.5608 2.82438 16.8108 3.72794 19.7004 3.97763C20.3976 4.03792 20.5435 4.08736 20.6722 4.30701C20.7392 4.42139 20.7484 4.65746 20.7484 6.27006V8.10306L20.8575 8.23091C21.0082 8.40755 21.2348 8.40633 21.387 8.22809L21.4984 8.09747L21.4843 6.18959C21.4705 4.30767 21.4689 4.27865 21.3632 4.06243C21.2389 3.80813 20.908 3.48317 20.6721 3.38382C20.582 3.34583 20.2741 3.29494 19.9879 3.27062C17.0701 3.0228 14.9279 2.1984 13.2563 0.680036C12.6155 0.098008 12.4804 0.0210991 12.0664 0.00264663C11.8846 -0.00542928 11.6822 0.00560466 11.6167 0.027203ZM11.5216 2.52416C9.49934 3.94571 7.95002 4.59464 5.64435 4.98581C5.26559 5.05004 4.8988 5.13249 4.82926 5.16892C4.66326 5.25602 4.51142 5.4235 4.44976 5.58765C4.39568 5.73156 4.37836 8.04357 4.43034 8.18011C4.50989 8.38914 4.94538 8.40327 5.05311 8.20039C5.07924 8.15118 5.09871 7.63278 5.09871 6.98732C5.09871 6.30246 5.11659 5.84899 5.1443 5.83171C5.16941 5.81607 5.49051 5.75278 5.8579 5.69104C8.11751 5.31128 10.0709 4.4944 11.8174 3.19892L11.992 3.06938L12.1667 3.19878C13.9157 4.49501 15.8402 5.29903 18.1295 5.69005C18.5035 5.75391 18.8273 5.82429 18.8493 5.84641C18.8712 5.86852 18.8819 7.96591 18.873 10.5072C18.8585 14.65 18.8487 15.1618 18.7781 15.4564C18.5053 16.5946 18.057 17.4351 17.3259 18.1793C16.8578 18.6558 16.6282 18.8068 14.3208 20.1563C12.2919 21.3429 12.2428 21.3685 11.992 21.3679C11.742 21.3673 11.6856 21.3378 9.6632 20.1553C8.52324 19.4887 7.45543 18.8468 7.29031 18.7287C6.45315 18.13 5.69889 17.0873 5.3818 16.0903C5.1308 15.301 5.13201 15.3175 5.10281 12.2947L5.07542 9.46155L4.96545 9.37187C4.82242 9.25514 4.67565 9.25824 4.52051 9.38126L4.39554 9.48033L4.41189 12.4215C4.42978 15.6455 4.41874 15.5064 4.73024 16.4235C5.08865 17.4788 5.88482 18.5715 6.79875 19.2625C6.97807 19.3981 7.98347 20.0095 9.03293 20.6212C11.8097 22.2398 11.5781 22.1224 11.992 22.1205C12.2623 22.1192 12.3872 22.0947 12.5439 22.0123C12.962 21.7925 16.6387 19.6412 16.9291 19.4465C18.1839 18.6051 19.0253 17.3721 19.4565 15.7427C19.5559 15.367 19.5573 15.306 19.5729 10.5968C19.5816 7.97567 19.5763 5.76306 19.5612 5.67986C19.5282 5.49863 19.3451 5.26776 19.1561 5.1692C19.0805 5.12981 18.7115 5.04595 18.3361 4.98285C16.7488 4.71611 15.5208 4.31635 14.2478 3.65192C13.7111 3.37185 13.33 3.13098 12.4875 2.53914C12.2941 2.40335 12.2218 2.38006 11.9937 2.38006C11.7712 2.38006 11.6924 2.4041 11.5216 2.52416ZM15.6207 7.7249C15.2644 7.86984 15.031 8.06465 14.1928 8.91717C13.4504 9.67218 13.3893 9.74716 13.3893 9.90389C13.3893 10.0312 13.4199 10.0978 13.512 10.1708C13.7566 10.3648 13.8085 10.3323 14.7372 9.40459C15.2127 8.92962 15.6751 8.50244 15.7647 8.45535C15.8723 8.39886 16.0307 8.36919 16.2305 8.36815C16.8057 8.36515 17.211 8.73927 17.2468 9.30646C17.257 9.46873 17.2397 9.68284 17.2083 9.78223C17.1625 9.92751 16.5698 10.5505 14.1874 12.9575C12.2075 14.9578 11.1606 15.9827 11.0341 16.0446C10.7844 16.1668 10.4037 16.1648 10.129 16.0399C9.85621 15.9159 6.97481 13.0218 6.82683 12.7233C6.64234 12.3509 6.71822 11.8203 6.99917 11.5182C7.27997 11.2164 7.81542 11.1175 8.19604 11.2973C8.31243 11.3522 8.74061 11.7494 9.33716 12.3558C9.86231 12.8896 10.3507 13.3577 10.4224 13.3961C10.4965 13.4357 10.5971 13.4526 10.6553 13.4353C10.7116 13.4186 11.2451 12.9158 11.8406 12.3182C12.8536 11.3016 12.9235 11.2205 12.9235 11.0623C12.9235 10.8478 12.7908 10.7189 12.57 10.7189C12.4209 10.7189 12.3315 10.7953 11.489 11.6439L10.5705 12.5689L9.7326 11.722C9.27177 11.2562 8.79967 10.8132 8.68356 10.7376C7.48603 9.95789 5.87854 10.9508 5.9987 12.3959C6.0511 13.0256 6.1049 13.0958 7.97252 14.9692C9.51443 16.516 9.66096 16.6501 9.91937 16.7515C10.1326 16.8352 10.2926 16.8614 10.5947 16.8623C10.946 16.8632 11.0274 16.846 11.3167 16.7094C11.6253 16.5637 11.8035 16.3934 14.6564 13.5175C17.5034 10.6474 17.6785 10.4613 17.8236 10.1508C17.962 9.85454 17.977 9.78036 17.9765 9.39952C17.976 9.0262 17.9593 8.94135 17.833 8.67161C17.658 8.29801 17.3419 7.97018 16.9884 7.79584C16.6372 7.62264 15.9586 7.58742 15.6207 7.7249Z" fill="#090909"/>
<path fill-rule="evenodd" clip-rule="evenodd" d="M11.5216 2.52416C9.49934 3.9457 7.95002 4.59464 5.64435 4.9858C5.26559 5.05004 4.8988 5.13249 4.82926 5.16892C4.66326 5.25602 4.51142 5.4235 4.44975 5.58765C4.39568 5.73156 4.37835 8.04357 4.43033 8.1801C4.50988 8.38914 4.94537 8.40327 5.0531 8.20039C5.07923 8.15118 5.0987 7.63277 5.0987 6.98731C5.0987 6.30246 5.11659 5.84899 5.1443 5.83171C5.16941 5.81607 5.4905 5.75278 5.8579 5.69104C8.11751 5.31128 10.0709 4.4944 11.8174 3.19892L11.992 3.06937L12.1667 3.19878C13.9157 4.49501 15.8402 5.29903 18.1295 5.69005C18.5035 5.75391 18.8273 5.82429 18.8493 5.8464C18.8712 5.86852 18.8819 7.96591 18.873 10.5072C18.8585 14.65 18.8487 15.1618 18.7781 15.4564C18.5053 16.5946 18.057 17.4351 17.3259 18.1793C16.8578 18.6558 16.6282 18.8068 14.3208 20.1563C12.2919 21.3429 12.2428 21.3685 11.992 21.3679C11.742 21.3673 11.6856 21.3378 9.66319 20.1553C8.52324 19.4887 7.45542 18.8468 7.29031 18.7287C6.45315 18.13 5.69889 17.0873 5.38179 16.0903C5.13079 15.301 5.132 15.3175 5.1028 12.2947L5.07541 9.46154L4.96545 9.37186C4.82241 9.25514 4.67565 9.25824 4.5205 9.38125L4.39554 9.48032L4.41189 12.4215C4.42977 15.6455 4.41873 15.5064 4.73024 16.4235C5.08864 17.4788 5.88482 18.5715 6.79874 19.2624C6.97806 19.398 7.98346 20.0095 9.03292 20.6212C11.8097 22.2398 11.5781 22.1224 11.992 22.1205C12.2623 22.1192 12.3872 22.0947 12.5439 22.0123C12.962 21.7925 16.6387 19.6412 16.9291 19.4465C18.1839 18.6051 19.0253 17.3721 19.4565 15.7427C19.5559 15.367 19.5573 15.306 19.5729 10.5968C19.5816 7.97567 19.5763 5.76306 19.5612 5.67986C19.5282 5.49862 19.3451 5.26776 19.1561 5.1692C19.0805 5.12981 18.7115 5.04595 18.3361 4.98285C16.7488 4.71611 15.5208 4.31635 14.2478 3.65192C13.7111 3.37184 13.33 3.13098 12.4875 2.53913C12.2941 2.40335 12.2218 2.38006 11.9937 2.38006C11.7712 2.38006 11.6924 2.4041 11.5216 2.52416Z" fill="#6FB955"/>
<path fill-rule="evenodd" clip-rule="evenodd" d="M15.6207 7.7249C15.2644 7.86985 15.031 8.06465 14.1928 8.91718C13.4504 9.67218 13.3893 9.74716 13.3893 9.90389C13.3893 10.0312 13.4199 10.0978 13.512 10.1708C13.7566 10.3648 13.8085 10.3323 14.7372 9.4046C15.2127 8.92962 15.6751 8.50244 15.7647 8.45535C15.8723 8.39886 16.0307 8.36919 16.2305 8.36816C16.8057 8.36515 17.211 8.73927 17.2468 9.30646C17.257 9.46873 17.2397 9.68284 17.2083 9.78224C17.1625 9.92751 16.5698 10.5505 14.1874 12.9575C12.2075 14.9578 11.1606 15.9827 11.0341 16.0446C10.7844 16.1668 10.4037 16.1648 10.129 16.0399C9.85621 15.9159 6.9748 13.0218 6.82683 12.7233C6.64234 12.3509 6.71821 11.8203 6.99916 11.5182C7.27997 11.2164 7.81542 11.1175 8.19604 11.2973C8.31243 11.3522 8.74061 11.7494 9.33716 12.3558C9.86231 12.8896 10.3507 13.3577 10.4224 13.3961C10.4964 13.4357 10.5971 13.4526 10.6553 13.4353C10.7116 13.4186 11.2451 12.9158 11.8406 12.3182C12.8536 11.3016 12.9235 11.2205 12.9235 11.0623C12.9235 10.8478 12.7908 10.7189 12.57 10.7189C12.4208 10.7189 12.3315 10.7953 11.489 11.6439L10.5705 12.5689L9.7326 11.722C9.27177 11.2562 8.79967 10.8132 8.68355 10.7376C7.48603 9.95789 5.87853 10.9508 5.9987 12.3959C6.0511 13.0257 6.1049 13.0958 7.97252 14.9692C9.51443 16.516 9.66096 16.6501 9.91937 16.7515C10.1326 16.8352 10.2926 16.8614 10.5947 16.8623C10.946 16.8632 11.0274 16.846 11.3167 16.7094C11.6253 16.5637 11.8035 16.3934 14.6564 13.5175C17.5034 10.6474 17.6785 10.4613 17.8236 10.1508C17.962 9.85455 17.977 9.78036 17.9765 9.39952C17.976 9.0262 17.9593 8.94136 17.833 8.67161C17.658 8.29801 17.3419 7.97018 16.9884 7.79585C16.6372 7.62264 15.9586 7.58742 15.6207 7.7249Z" fill="#1C7EFF"/>
</svg>
