<svg width="24" height="24" viewBox="0 0 24 24" fill="none" xmlns="http://www.w3.org/2000/svg">
<path fill-rule="evenodd" clip-rule="evenodd" d="M2.03806 1.56511C1.66676 1.72549 1.59761 1.94988 1.59503 3.00264L1.59297 3.83962L0.796485 5.39801L0 6.9564L0.000937041 7.60999C0.00210834 8.43465 0.0513967 8.76678 0.227045 9.13413C0.468052 9.63807 0.875571 9.99079 1.42838 10.174L1.66325 10.2518L1.67519 15.0233L1.68709 19.7949H1.27442C0.92603 19.7949 0.824408 19.8131 0.622101 19.9117C0.12978 20.1518 0 20.4596 0 21.387C0 22.1249 0.0432913 22.2865 0.277364 22.4218C0.403958 22.495 1.16193 22.5 11.9941 22.5C22.8263 22.5 23.5843 22.495 23.7109 22.4218C23.945 22.2865 23.9882 22.1249 23.9882 21.387C23.9882 20.4596 23.8585 20.1518 23.3661 19.9117C23.1638 19.8131 23.0622 19.7949 22.7138 19.7949H22.3011L22.313 15.0201L22.325 10.2453L22.5124 10.1905C23.1401 10.0069 23.6045 9.57576 23.8471 8.95138C23.9401 8.71195 23.9569 8.56619 23.9769 7.82783L24 6.97933L23.2093 5.44364L22.4187 3.9079L22.3953 2.96797C22.3696 1.93777 22.3427 1.83214 22.0522 1.62022L21.9199 1.5237L13.7159 1.51188L5.512 1.5L5.40312 1.60009C5.21285 1.77501 5.28425 2.04305 5.54714 2.14089C5.63391 2.17317 8.25655 2.18853 13.6851 2.18853H21.695L21.682 2.86481L21.6691 3.5411H11.9941H2.31918L2.3062 2.86481L2.29327 2.18853H3.13084C3.62157 2.18853 4.02998 2.16753 4.11698 2.13786C4.37293 2.05052 4.44017 1.77643 4.24882 1.60046C4.14444 1.50454 4.10339 1.50083 3.15951 1.50257C2.45092 1.50385 2.13959 1.52123 2.03806 1.56511ZM4.29863 4.30908C4.28668 4.34063 4.09004 4.87702 3.86169 5.50118L3.44648 6.63596H2.1916H0.936713L1.54612 5.44386L2.15552 4.25177H3.23799C4.08428 4.25177 4.31568 4.26429 4.29863 4.30908ZM7.2496 4.30908C7.23728 4.34063 7.11537 4.87702 6.9787 5.50118L6.73029 6.63596H5.47349C4.78223 6.63596 4.21668 6.61987 4.21668 6.6002C4.21668 6.58053 4.40643 6.04986 4.63835 5.42094C4.87027 4.79202 5.06002 4.27167 5.06002 4.26461C5.06002 4.25755 5.55773 4.25177 6.16606 4.25177C7.03165 4.25177 7.26722 4.26424 7.2496 4.30908ZM10.168 4.30908C10.1686 4.34063 10.1331 4.87702 10.0891 5.50118L10.009 6.63596H8.72835H7.44769L7.47224 6.5328C7.51989 6.33271 7.96485 4.28927 7.96485 4.27066C7.96485 4.26025 8.46031 4.25177 9.06587 4.25177C9.91483 4.25177 10.1672 4.26488 10.168 4.30908ZM13.16 5.04268C13.1911 5.47766 13.2293 6.01414 13.2448 6.23477L13.2731 6.63596H11.9941H10.7151L10.7434 6.23477C10.759 6.01414 10.7971 5.47766 10.8282 5.04268L10.8847 4.25177H11.9941H13.1035L13.16 5.04268ZM16.0234 4.27066C16.0234 4.28927 16.4683 6.33271 16.516 6.5328L16.5405 6.63596H15.2599H13.9792L13.8992 5.50118C13.8551 4.87702 13.8196 4.34063 13.8202 4.30908C13.8211 4.26488 14.0734 4.25177 14.9224 4.25177C15.5279 4.25177 16.0234 4.26025 16.0234 4.27066ZM18.9282 4.26461C18.9282 4.27167 19.118 4.79202 19.3499 5.42094C19.5818 6.04986 19.7716 6.58053 19.7716 6.6002C19.7716 6.61987 19.206 6.63596 18.5148 6.63596H17.2579L17.0095 5.50118C16.8729 4.87702 16.751 4.34063 16.7386 4.30908C16.721 4.26424 16.9566 4.25177 17.8222 4.25177C18.4305 4.25177 18.9282 4.25755 18.9282 4.26461ZM22.4421 5.44386L23.0515 6.63596H21.7966H20.5418L20.1266 5.50118C19.8982 4.87702 19.7016 4.34063 19.6896 4.30908C19.6726 4.26429 19.904 4.25177 20.7502 4.25177H21.8327L22.4421 5.44386ZM3.32649 7.95827C3.32649 8.57683 3.32279 8.60007 3.18055 8.87866C2.93036 9.36866 2.4848 9.6051 1.89849 9.55907C1.41278 9.52092 1.04058 9.25944 0.837667 8.81383C0.751038 8.6236 0.729627 8.47724 0.71201 7.95414L0.690786 7.32371H2.00864H3.32649V7.95827ZM6.64465 7.99999C6.62994 8.58825 6.61434 8.70094 6.52504 8.86582C6.00057 9.83403 4.61825 9.80359 4.16285 8.81383C4.07435 8.62144 4.05425 8.48316 4.03799 7.95414L4.01864 7.32371H5.3401H6.66156L6.64465 7.99999ZM9.97948 7.91801C9.97948 8.61603 9.90058 8.89021 9.61722 9.17673C9.10499 9.6946 8.232 9.70441 7.74638 9.19768C7.4379 8.87582 7.38215 8.69838 7.36284 7.97707L7.34537 7.32371H8.66243H9.97948V7.91801ZM13.306 7.88848C13.306 8.58453 13.2382 8.8346 12.9683 9.13468C12.4385 9.72376 11.5498 9.72376 11.0199 9.13468C10.75 8.8346 10.6823 8.58453 10.6823 7.88848V7.32371H11.9941H13.306V7.88848ZM16.6254 7.97707C16.61 8.55115 16.5947 8.65546 16.4989 8.83675C16.0631 9.66228 15.0166 9.82949 14.371 9.17673C14.0877 8.89021 14.0088 8.61603 14.0088 7.91801V7.32371H15.3258H16.6429L16.6254 7.97707ZM19.9503 7.95414C19.934 8.48316 19.9139 8.62144 19.8254 8.81383C19.37 9.80359 17.9877 9.83403 17.4632 8.86582C17.3739 8.70094 17.3583 8.58825 17.3436 7.99999L17.3267 7.32371H18.6481H19.9696L19.9503 7.95414ZM23.2762 7.95414C23.2586 8.47724 23.2372 8.6236 23.1506 8.81383C22.9477 9.25944 22.5755 9.52092 22.0898 9.55907C21.5034 9.6051 21.0579 9.36866 20.8077 8.87866C20.6654 8.60007 20.6617 8.57683 20.6617 7.95827V7.32371H21.9796H23.2975L23.2762 7.95414ZM4.35724 10.0179C4.65943 10.1922 5.03922 10.2703 5.48305 10.2495C5.82938 10.2333 5.94103 10.2067 6.21384 10.0756C6.40495 9.98368 6.63223 9.8244 6.77284 9.68374L7.00986 9.44669L7.31819 9.73261C7.75275 10.1355 8.01774 10.2321 8.69204 10.2339C9.18445 10.2351 9.2232 10.228 9.52746 10.0815C9.7136 9.9918 9.95147 9.825 10.0986 9.68103L10.3507 9.43431L10.4749 9.59369C10.6432 9.80959 11.0968 10.0987 11.4046 10.1862C11.7279 10.2782 12.2604 10.2782 12.5836 10.1862C12.8915 10.0987 13.3451 9.80959 13.5133 9.59369L13.6375 9.43431L13.8897 9.68103C14.0368 9.825 14.2746 9.9918 14.4608 10.0815C14.765 10.228 14.8038 10.2351 15.2962 10.2339C15.9705 10.2321 16.2355 10.1355 16.67 9.73261L16.9784 9.44669L17.2154 9.68374C17.356 9.8244 17.5833 9.98368 17.7744 10.0756C18.0472 10.2067 18.1589 10.2333 18.5052 10.2495C19.1677 10.2805 19.626 10.1104 20.0699 9.66856L20.298 9.4416L20.5503 9.6885C20.8128 9.94545 21.0621 10.0938 21.3854 10.1854L21.5754 10.2392L21.5873 15.017L21.5992 19.7949H14.9929H8.38651V15.916C8.38651 11.6267 8.40137 11.84 8.08793 11.6212L7.94142 11.519H5.69252C3.2125 11.519 3.31623 11.5073 3.10718 11.8087C3.02669 11.9248 3.02125 12.1489 3.00921 15.8632L2.99652 19.7949H2.69277H2.38903L2.40093 15.017L2.41288 10.2392L2.60282 10.1854C2.92792 10.0933 3.17666 9.94458 3.43196 9.68979L3.67788 9.44435L3.93557 9.68383C4.0773 9.81555 4.26705 9.96585 4.35724 10.0179ZM9.48599 11.587C9.38212 11.6377 9.25562 11.7463 9.20488 11.8283C9.11581 11.9725 9.11272 12.0746 9.11272 14.8889C9.11272 17.6051 9.11839 17.8105 9.19701 17.9514C9.24334 18.0345 9.34876 18.1428 9.43127 18.1919C9.57768 18.2793 9.70727 18.2815 14.8803 18.2816L20.1794 18.2818L20.3386 18.1777C20.6738 17.9586 20.6617 18.0811 20.6606 14.9119C20.6597 12.1932 20.6557 12.0606 20.5684 11.8723C20.4969 11.7182 20.4315 11.6557 20.2669 11.5845C20.0653 11.4972 19.9645 11.494 17.8107 11.5062C15.6778 11.5183 15.5597 11.5234 15.466 11.6063C15.3374 11.7203 15.3349 11.9685 15.4612 12.0921C15.5522 12.1812 15.6173 12.1838 17.7569 12.1838H19.959V14.8889V17.5941H14.8989H9.83893V14.8889V12.1838H12.0094H14.1798L14.2817 12.0777C14.4074 11.9467 14.4122 11.7701 14.294 11.6272L14.2045 11.519L11.9397 11.5069C9.75136 11.4951 9.66857 11.4978 9.48599 11.587ZM7.68373 15.9893V19.7949H5.69252H3.70131V15.9893V12.1838H5.69252H7.68373V15.9893ZM6.58271 15.2628C6.40205 15.3595 6.37188 15.4455 6.37188 15.8636C6.37188 16.323 6.40406 16.4118 6.59953 16.491C6.71268 16.5369 6.76183 16.5342 6.87675 16.4761C7.05751 16.3846 7.07466 16.3325 7.07466 15.8747C7.07466 15.4199 7.05699 15.3646 6.88388 15.277C6.72767 15.1979 6.70593 15.1969 6.58271 15.2628ZM23.1485 20.6166C23.2841 20.7493 23.2855 20.7559 23.2855 21.2814V21.8123H11.9941H0.70278V21.2814C0.70278 20.7559 0.704139 20.7493 0.839729 20.6166L0.976678 20.4826H11.9941H23.0116L23.1485 20.6166Z" fill="#090909"/>
<path fill-rule="evenodd" clip-rule="evenodd" d="M9.486 11.587C9.38213 11.6377 9.25563 11.7463 9.20489 11.8283C9.11582 11.9725 9.11273 12.0746 9.11273 14.8889C9.11273 17.6051 9.1184 17.8105 9.19702 17.9514C9.24336 18.0345 9.34877 18.1428 9.43128 18.1919C9.57769 18.2793 9.70728 18.2815 14.8803 18.2816L20.1794 18.2818L20.3386 18.1777C20.6738 17.9586 20.6617 18.0811 20.6606 14.9119C20.6597 12.1932 20.6557 12.0606 20.5684 11.8723C20.4969 11.7182 20.4315 11.6557 20.2669 11.5845C20.0653 11.4972 19.9645 11.494 17.8107 11.5062C15.6778 11.5183 15.5597 11.5234 15.4661 11.6063C15.3374 11.7203 15.3349 11.9685 15.4612 12.0921C15.5522 12.1812 15.6173 12.1838 17.7569 12.1838H19.959V14.8889V17.5941H14.899H9.83894V14.8889V12.1838H12.0094H14.1798L14.2817 12.0777C14.4074 11.9467 14.4123 11.7701 14.2941 11.6272L14.2045 11.519L11.9397 11.5069C9.75137 11.4951 9.66858 11.4978 9.486 11.587Z" fill="#009DEC"/>
<path fill-rule="evenodd" clip-rule="evenodd" d="M6.58272 15.2628C6.40206 15.3595 6.37189 15.4455 6.37189 15.8636C6.37189 16.323 6.40407 16.4118 6.59954 16.491C6.71269 16.5369 6.76184 16.5342 6.87676 16.4761C7.05752 16.3846 7.07467 16.3325 7.07467 15.8747C7.07467 15.4199 7.057 15.3646 6.88389 15.277C6.72768 15.1979 6.70594 15.1969 6.58272 15.2628Z" fill="#6FB955"/>
</svg>
