<svg width="32" height="32" viewBox="0 0 32 32" fill="none" xmlns="http://www.w3.org/2000/svg">
<path fill-rule="evenodd" clip-rule="evenodd" d="M2.71742 2.08681C2.22235 2.30065 2.13014 2.59984 2.12671 4.00352L2.12396 5.1195L1.06198 7.19735L0 9.27521L0.00124939 10.1467C0.00281112 11.2462 0.0685289 11.689 0.302727 12.1788C0.624069 12.8508 1.16743 13.3211 1.9045 13.5653L2.21766 13.669L2.23359 20.0311L2.24946 26.3931H1.69923C1.23471 26.3931 1.09921 26.4174 0.829468 26.549C0.17304 26.8691 0 27.2795 0 28.516C0 29.4999 0.0577217 29.7153 0.369819 29.8957C0.538611 29.9933 1.54924 30 15.9922 30C30.4351 30 31.4457 29.9933 31.6145 29.8957C31.9266 29.7153 31.9843 29.4999 31.9843 28.516C31.9843 27.2795 31.8113 26.8691 31.1549 26.549C30.8851 26.4174 30.7496 26.3931 30.2851 26.3931H29.7349L29.7507 20.0267L29.7667 13.6604L30.0165 13.5873C30.8535 13.3425 31.4726 12.7677 31.7961 11.9352C31.9201 11.6159 31.9426 11.4216 31.9693 10.4371L32 9.30577L30.9458 7.25818L29.8916 5.21053L29.8604 3.9573C29.8261 2.5837 29.7903 2.44285 29.4029 2.16029L29.2265 2.03161L18.2879 2.01583L7.34934 2L7.20416 2.13345C6.95047 2.36668 7.04567 2.72406 7.39619 2.85452C7.51188 2.89756 11.0087 2.91804 18.2468 2.91804H28.9266L28.9094 3.81975L28.8921 4.72146H15.9922H3.09223L3.07493 3.81975L3.05769 2.91804H4.17445C4.82876 2.91804 5.3733 2.89004 5.48931 2.85048C5.83058 2.73403 5.92022 2.36857 5.6651 2.13394C5.52592 2.00605 5.47119 2.0011 4.21268 2.00342C3.2679 2.00514 2.85279 2.0283 2.71742 2.08681ZM5.7315 5.74544C5.71557 5.7875 5.45339 6.5027 5.14891 7.3349L4.59531 8.84795H2.92213H1.24895L2.06149 7.25849L2.87403 5.66903H4.31732C5.44571 5.66903 5.75424 5.68571 5.7315 5.74544ZM9.66614 5.74544C9.64971 5.7875 9.48716 6.5027 9.30494 7.3349L8.97373 8.84795H7.29799C6.37631 8.84795 5.62224 8.82649 5.62224 8.80026C5.62224 8.77404 5.87525 8.06648 6.18447 7.22792C6.49369 6.38936 6.74669 5.69556 6.74669 5.68614C6.74669 5.67673 7.4103 5.66903 8.22141 5.66903C9.37553 5.66903 9.68962 5.68565 9.66614 5.74544ZM13.5574 5.74544C13.5582 5.7875 13.5108 6.5027 13.4521 7.3349L13.3454 8.84795H11.6378H9.93026L9.96299 8.7104C10.0265 8.44361 10.6198 5.71903 10.6198 5.69421C10.6198 5.68034 11.2804 5.66903 12.0878 5.66903C13.2198 5.66903 13.5562 5.68651 13.5574 5.74544ZM17.5467 6.72357C17.5881 7.30354 17.639 8.01886 17.6598 8.31303L17.6975 8.84795H15.9922H14.2868L14.3245 8.31303C14.3453 8.01886 14.3962 7.30354 14.4376 6.72357L14.5129 5.66903H15.9922H17.4714L17.5467 6.72357ZM21.3645 5.69421C21.3645 5.71903 21.9578 8.44361 22.0213 8.7104L22.0541 8.84795H20.3465H18.6389L18.5322 7.3349C18.4735 6.5027 18.4262 5.7875 18.427 5.74544C18.4281 5.68651 18.7646 5.66903 19.8965 5.66903C20.7039 5.66903 21.3645 5.68034 21.3645 5.69421ZM25.2376 5.68614C25.2376 5.69556 25.4906 6.38936 25.7999 7.22792C26.1091 8.06648 26.3621 8.77404 26.3621 8.80026C26.3621 8.82649 25.608 8.84795 24.6863 8.84795H23.0106L22.6794 7.3349C22.4972 6.5027 22.3346 5.7875 22.3182 5.74544C22.2947 5.68565 22.6088 5.66903 23.7629 5.66903C24.574 5.66903 25.2376 5.67673 25.2376 5.68614ZM29.9228 7.25849L30.7354 8.84795H29.0622H27.389L26.8354 7.3349C26.5309 6.5027 26.2687 5.7875 26.2528 5.74544C26.2301 5.68571 26.5386 5.66903 27.667 5.66903H29.1103L29.9228 7.25849ZM4.43533 10.611C4.43533 11.4358 4.43039 11.4668 4.24073 11.8382C3.90715 12.4915 3.31306 12.8068 2.53132 12.7454C1.8837 12.6946 1.38744 12.3459 1.11689 11.7518C1.00138 11.4981 0.972836 11.303 0.949347 10.6055L0.921049 9.76494H2.67819H4.43533V10.611ZM8.85953 10.6667C8.83992 11.451 8.81911 11.6013 8.70005 11.8211C8.00077 13.112 6.15767 13.0714 5.55047 11.7518C5.43246 11.4953 5.40566 11.3109 5.38399 10.6055L5.35819 9.76494H7.12013H8.88208L8.85953 10.6667ZM13.306 10.5574C13.306 11.488 13.2008 11.8536 12.823 12.2356C12.14 12.9261 10.976 12.9392 10.3285 12.2636C9.9172 11.8344 9.84286 11.5978 9.81713 10.6361L9.79382 9.76494H11.5499H13.306V10.5574ZM17.7413 10.518C17.7413 11.446 17.651 11.7795 17.2911 12.1796C16.5846 12.965 15.3997 12.965 14.6932 12.1796C14.3333 11.7795 14.243 11.446 14.243 10.518V9.76494H15.9922H17.7413V10.518ZM22.1672 10.6361C22.1467 11.4015 22.1262 11.5406 21.9986 11.7823C21.4175 12.883 20.0222 13.106 19.1614 12.2356C18.7835 11.8536 18.6783 11.488 18.6783 10.5574V9.76494H20.4344H22.1905L22.1672 10.6361ZM26.6003 10.6055C26.5787 11.3109 26.5519 11.4953 26.4339 11.7518C25.8267 13.0714 23.9836 13.112 23.2843 11.8211C23.1652 11.6013 23.1444 11.451 23.1248 10.6667L23.1022 9.76494H24.8642H26.6261L26.6003 10.6055ZM31.035 10.6055C31.0115 11.303 30.9829 11.4981 30.8674 11.7518C30.5969 12.3459 30.1006 12.6946 29.453 12.7454C28.6713 12.8068 28.0772 12.4915 27.7436 11.8382C27.5539 11.4668 27.549 11.4358 27.549 10.611V9.76494H29.3061H31.0633L31.035 10.6055ZM5.80965 13.3572C6.21258 13.5896 6.71896 13.6937 7.31073 13.666C7.7725 13.6445 7.92137 13.609 8.28513 13.4341C8.53994 13.3116 8.84298 13.0992 9.03045 12.9116L9.34648 12.5956L9.75759 12.9768C10.337 13.514 10.6903 13.6429 11.5894 13.6452C12.2459 13.6468 12.2976 13.6374 12.7033 13.442C12.9515 13.3224 13.2686 13.1 13.4648 12.908L13.8009 12.5791L13.9666 12.7916C14.1909 13.0795 14.7957 13.4649 15.2062 13.5817C15.6371 13.7043 16.3472 13.7043 16.7782 13.5817C17.1886 13.4649 17.7934 13.0795 18.0177 12.7916L18.1834 12.5791L18.5195 12.908C18.7157 13.1 19.0329 13.3224 19.281 13.442C19.6867 13.6374 19.7384 13.6468 20.3949 13.6452C21.294 13.6429 21.6473 13.514 22.2267 12.9768L22.6378 12.5956L22.9539 12.9116C23.1413 13.0992 23.4444 13.3116 23.6992 13.4341C24.063 13.609 24.2118 13.6445 24.6736 13.666C25.5569 13.7074 26.168 13.4805 26.7599 12.8914L27.064 12.5888L27.4004 12.918C27.7505 13.2606 28.0829 13.4584 28.5139 13.5805L28.7671 13.6523L28.7831 20.0227L28.7989 26.3931H19.9905H11.182V21.2213C11.182 15.5022 11.2018 15.7867 10.7839 15.4949L10.5886 15.3586H7.59003C4.28334 15.3586 4.42165 15.3431 4.14291 15.7449C4.03558 15.8998 4.02834 16.1986 4.01228 21.151L3.99535 26.3931H3.59036H3.18538L3.20124 20.0227L3.21717 13.6523L3.47042 13.5805C3.9039 13.4577 4.23555 13.2594 4.57594 12.9197L4.90385 12.5925L5.24743 12.9118C5.4364 13.0874 5.6894 13.2878 5.80965 13.3572ZM12.648 15.4493C12.5095 15.5169 12.3408 15.6617 12.2732 15.7711C12.1544 15.9633 12.1503 16.0995 12.1503 19.8519C12.1503 23.4735 12.1579 23.7474 12.2627 23.9352C12.3245 24.046 12.465 24.1903 12.575 24.2559C12.7702 24.3725 12.943 24.3753 19.8404 24.3755L26.9058 24.3758L27.1181 24.237C27.5651 23.9448 27.5489 24.1082 27.5475 19.8825C27.5463 16.2576 27.5409 16.0808 27.4246 15.8298C27.3292 15.6243 27.242 15.541 27.0225 15.446C26.7537 15.3296 26.6193 15.3253 23.7475 15.3416C20.9038 15.3578 20.7462 15.3645 20.6214 15.4751C20.4499 15.6271 20.4465 15.958 20.6149 16.1228C20.7363 16.2416 20.8231 16.2451 23.6759 16.2451H26.612V19.8519V23.4588H19.8653H13.1186V19.8519V16.2451H16.0125H18.9064L19.0423 16.1036C19.2099 15.9289 19.2163 15.6935 19.0587 15.503L18.9393 15.3586L15.9196 15.3425C13.0018 15.3268 12.8914 15.3304 12.648 15.4493ZM10.245 21.3191V26.3931H7.59003H4.93508V21.3191V16.2451H7.59003H10.245V21.3191ZM8.77695 20.3504C8.53607 20.4794 8.49584 20.5941 8.49584 21.1514C8.49584 21.764 8.53875 21.8824 8.79937 21.988C8.95024 22.0492 9.01577 22.0456 9.16901 21.9681C9.41001 21.8461 9.43288 21.7767 9.43288 21.1663C9.43288 20.5598 9.40932 20.4861 9.1785 20.3693C8.97023 20.2639 8.94124 20.2625 8.77695 20.3504ZM30.8647 27.4888C31.0455 27.6658 31.0473 27.6746 31.0473 28.3753V29.083H15.9922H0.937041V28.3753C0.937041 27.6746 0.938852 27.6658 1.11964 27.4888L1.30224 27.3101H15.9922H30.6821L30.8647 27.4888Z" fill="#090909"/>
<path fill-rule="evenodd" clip-rule="evenodd" d="M12.648 15.4493C12.5095 15.5169 12.3408 15.6617 12.2732 15.7711C12.1544 15.9633 12.1503 16.0995 12.1503 19.8519C12.1503 23.4735 12.1579 23.7474 12.2627 23.9352C12.3245 24.046 12.465 24.1903 12.575 24.2559C12.7703 24.3724 12.943 24.3753 19.8404 24.3755L26.9058 24.3758L27.1181 24.237C27.5651 23.9448 27.5489 24.1082 27.5475 19.8825C27.5463 16.2576 27.5409 16.0808 27.4246 15.8298C27.3292 15.6243 27.242 15.541 27.0225 15.446C26.7537 15.3296 26.6193 15.3253 23.7476 15.3416C20.9038 15.3578 20.7462 15.3645 20.6214 15.4751C20.4499 15.6271 20.4466 15.958 20.6149 16.1228C20.7363 16.2416 20.8231 16.245 23.6759 16.245H26.612V19.8519V23.4588H19.8653H13.1186V19.8519V16.245H16.0125H18.9064L19.0423 16.1036C19.2099 15.9289 19.2163 15.6935 19.0587 15.503L18.9394 15.3586L15.9196 15.3425C13.0018 15.3268 12.8914 15.3304 12.648 15.4493Z" fill="#009DEC"/>
<path fill-rule="evenodd" clip-rule="evenodd" d="M8.77696 20.3505C8.53608 20.4794 8.49585 20.5941 8.49585 21.1514C8.49585 21.764 8.53877 21.8824 8.79939 21.988C8.95025 22.0492 9.01578 22.0456 9.16902 21.9681C9.41003 21.8461 9.43289 21.7767 9.43289 21.1663C9.43289 20.5598 9.40934 20.4861 9.17851 20.3693C8.97024 20.2639 8.94126 20.2625 8.77696 20.3505Z" fill="#6FB955"/>
</svg>
