<svg width="24" height="24" viewBox="0 0 24 24" fill="none" xmlns="http://www.w3.org/2000/svg">
<path fill-rule="evenodd" clip-rule="evenodd" d="M21.0674 2.05587C20.949 2.09012 19.3318 2.71012 17.4736 3.43372C15.6154 4.15731 11.3932 5.801 8.09105 7.08636C4.78887 8.37168 1.96407 9.48425 1.81378 9.55873C1.51642 9.70605 1.21054 9.98104 1.09877 10.2016C0.987467 10.4211 0.968444 10.7319 1.05082 10.985C1.13965 11.2579 1.46585 11.5877 1.80732 11.7498C1.93752 11.8117 2.94808 12.1266 4.05298 12.4496L6.06188 13.037L7.14484 16.1987C7.86002 18.2867 8.27828 19.4455 8.37653 19.6109C8.55954 19.9191 8.85414 20.1922 9.16704 20.3437C9.37337 20.4436 9.45897 20.4582 9.83414 20.458C10.1938 20.4577 10.3016 20.4406 10.4902 20.3539C10.8449 20.1908 11.0153 20.0483 12.3095 18.8335C12.9784 18.2056 13.5412 17.6918 13.5601 17.6918C13.579 17.6918 14.3751 18.3336 15.3291 19.118C16.2831 19.9024 17.158 20.6089 17.2732 20.688C17.7424 21.0101 18.4409 21.0948 18.9033 20.8857C19.2885 20.7114 19.6611 20.2783 19.8199 19.8201C19.8573 19.7122 20.5885 16.1065 21.4448 11.8075C22.8598 4.70376 23.0016 3.95303 23 3.57389C22.9969 2.86439 22.759 2.43137 22.2248 2.16311C21.891 1.9954 21.4257 1.95228 21.0674 2.05587ZM21.6829 3.3631C21.7113 3.39209 21.7345 3.47622 21.7345 3.55004C21.7345 3.78014 18.6362 19.308 18.5585 19.4672C18.3585 19.8773 18.2561 19.8277 16.7504 18.5923C12.6335 15.2144 11.6418 14.3902 11.6418 14.3466C11.6418 14.3199 13.1428 12.6722 14.9773 10.685C16.8119 8.69778 18.3484 7.01645 18.3918 6.9487C18.4949 6.78763 18.4945 6.46917 18.3908 6.28483C18.3046 6.13153 17.9945 5.94516 17.8257 5.94516C17.7158 5.94516 17.219 6.19994 10.6834 9.60782L6.49701 11.7907L4.56132 11.2282C3.49666 10.9189 2.62576 10.6559 2.62593 10.6438C2.62614 10.6317 3.87037 10.1387 5.39094 9.54819C6.91152 8.9577 9.03684 8.13109 10.1139 7.71128C11.191 7.29148 12.6726 6.71407 13.4064 6.42816C14.9593 5.82309 21.252 3.37703 21.3471 3.34146C21.4625 3.29838 21.63 3.30918 21.6829 3.3631ZM14.6047 9.16176C13.7412 10.0809 10.1418 14.0082 10.0946 14.0828C10.0612 14.1356 9.83651 14.9988 9.59523 16.0011C9.35396 17.0034 9.1444 17.8466 9.12951 17.8747C9.11466 17.9029 8.71 16.7785 8.23029 15.376C7.75057 13.9736 7.36322 12.8223 7.3695 12.8177C7.39085 12.8018 11.5071 10.6576 13.0621 9.85228C13.9143 9.41096 14.6299 9.03309 14.6524 9.0125C14.6749 8.99195 14.7128 8.97513 14.7367 8.97513C14.7605 8.97513 14.7012 9.05909 14.6047 9.16176ZM11.8038 16.2182C12.1999 16.5428 12.5226 16.8195 12.5207 16.8329C12.5158 16.8692 10.2374 18.9962 10.2214 18.9795C10.2139 18.9716 10.3796 18.2539 10.5897 17.3844C10.7998 16.5149 10.9827 15.7577 10.9963 15.7016C11.0098 15.6455 11.0349 15.606 11.0522 15.6138C11.0693 15.6216 11.4076 15.8935 11.8038 16.2182Z" fill="#090909"/>
</svg>
