<svg width="25" height="25" viewBox="0 0 25 25" fill="none" xmlns="http://www.w3.org/2000/svg">
<path d="M10.6886 0.886227C10.2056 0.937817 9.99451 0.998785 9.9054 1.09727C9.86319 1.14417 9.71312 1.52875 9.56304 1.95553C9.41296 2.38231 9.26757 2.75281 9.23944 2.78095C9.2113 2.80909 8.95804 2.91227 8.67196 3.00607C8.39056 3.10456 7.88874 3.31091 7.56045 3.46568L6.96483 3.75176L6.20975 3.39064C5.24832 2.93572 5.22487 2.93572 4.6996 3.32498C4.19778 3.70017 2.93619 4.96176 2.561 5.46358C2.17174 5.98885 2.17174 6.0123 2.62666 6.97373L2.98778 7.72881L2.7017 8.32443C2.54693 8.65272 2.34058 9.14985 2.24209 9.43594C2.14829 9.71733 2.0498 9.97059 2.03104 9.99403C2.00759 10.0222 1.62771 10.1676 1.18217 10.327C0.586548 10.5381 0.352053 10.6459 0.291084 10.7304C0.0190692 11.0962 -0.0137602 14.4026 0.253565 14.8997C0.319224 15.0263 0.441161 15.0826 1.2619 15.3687C1.65116 15.5047 1.98883 15.6407 2.01697 15.6688C2.04511 15.697 2.14829 15.9502 2.24209 16.2363C2.34058 16.5177 2.54693 17.0195 2.7017 17.3478L2.98778 17.9434L2.62666 18.6985C2.17174 19.6599 2.17174 19.6834 2.561 20.2087C2.93619 20.7105 4.19778 21.9721 4.6996 22.3473C5.22487 22.7365 5.24832 22.7365 6.20975 22.2816L6.96483 21.9205L7.56045 22.2066C7.88874 22.3613 8.39056 22.5677 8.67196 22.6662C8.95804 22.76 9.20661 22.8585 9.23005 22.8772C9.25819 22.9007 9.40358 23.2806 9.56304 23.7261C9.89133 24.6406 9.91478 24.6688 10.3838 24.7532C11.2186 24.8939 13.6714 24.8423 14.0794 24.6735C14.2576 24.6031 14.3327 24.4483 14.6516 23.5291C14.7641 23.2055 14.8767 22.9194 14.9048 22.8913C14.933 22.8632 15.1909 22.76 15.4723 22.6662C15.7584 22.5677 16.2555 22.3613 16.5838 22.2066L17.1795 21.9205L17.9345 22.2816C18.896 22.7365 18.9194 22.7365 19.4447 22.3473C19.9465 21.9721 21.2081 20.7105 21.5833 20.2087C21.9725 19.6834 21.9725 19.6553 21.5176 18.6938L21.1565 17.9434L21.4426 17.3478C21.5974 17.0195 21.8037 16.5177 21.9022 16.2363C21.996 15.9502 22.0992 15.697 22.1273 15.6688C22.1555 15.6407 22.4415 15.5281 22.7651 15.4156C23.5671 15.1389 23.8251 15.0216 23.8907 14.9044C23.9939 14.7074 24.0783 13.7976 24.0783 12.8361C24.0783 11.8747 23.9939 10.9648 23.8907 10.7679C23.8251 10.6506 23.5671 10.5334 22.7651 10.2567C22.4415 10.1441 22.1555 10.0316 22.1273 10.0034C22.0992 9.97528 21.996 9.71733 21.9022 9.43594C21.8037 9.14985 21.5974 8.65272 21.4426 8.32443L21.1565 7.72881L21.5176 6.97842C21.9725 6.01699 21.9725 5.98885 21.5833 5.46358C21.2081 4.96176 19.9465 3.70017 19.4447 3.32498C18.9194 2.93572 18.896 2.93572 17.9345 3.39064L17.1795 3.75176L16.5838 3.46568C16.2555 3.31091 15.7584 3.10456 15.4723 3.00607C15.1909 2.91227 14.933 2.80909 14.9048 2.78095C14.8767 2.75281 14.7641 2.46673 14.6516 2.14312C14.3702 1.32708 14.2576 1.0832 14.1263 1.01286C13.8355 0.858088 11.6547 0.77367 10.6886 0.886227ZM13.0805 1.84297L13.5026 1.87111L13.784 2.67308C13.9528 3.16083 14.1076 3.51727 14.1685 3.57355C14.2248 3.62983 14.4452 3.72362 14.661 3.78459C15.2191 3.94405 16.007 4.26765 16.5557 4.56312C16.8183 4.70382 17.0857 4.81637 17.1419 4.81637C17.2029 4.81637 17.6062 4.65223 18.033 4.44587L18.8115 4.08006L19.1117 4.33331C19.5572 4.71319 20.0075 5.15874 20.4436 5.65587L20.8282 6.09672L20.4624 6.87524C20.256 7.30203 20.0919 7.70067 20.0919 7.75226C20.0919 7.80854 20.2467 8.16028 20.4389 8.53547C20.6594 8.97163 20.8704 9.48752 21.0252 9.96121C21.1612 10.3692 21.2972 10.7257 21.3253 10.7585C21.3582 10.7913 21.7521 10.9508 22.2024 11.1102L23.0231 11.4057L23.0559 11.6636C23.07 11.8043 23.0841 12.3343 23.0841 12.8361C23.0841 13.3379 23.07 13.8679 23.0559 14.0086L23.0231 14.2665L22.2024 14.562C21.7521 14.7215 21.3582 14.8809 21.3253 14.9138C21.2972 14.9466 21.1612 15.303 21.0252 15.711C20.8704 16.1847 20.6594 16.7006 20.4389 17.1368C20.2467 17.512 20.0919 17.8637 20.0919 17.92C20.0919 17.9716 20.256 18.3702 20.4624 18.797L20.8282 19.5755L20.4436 20.0164C20.0075 20.5135 19.5572 20.959 19.1117 21.3389L18.8115 21.5922L18.033 21.2264C17.6062 21.02 17.2076 20.8559 17.156 20.8559C17.0997 20.8559 16.748 21.0106 16.3728 21.2029C15.9272 21.428 15.4207 21.6391 14.9283 21.7985C14.3936 21.9721 14.1545 22.0752 14.1123 22.1409C14.0794 22.1972 13.9293 22.5911 13.7793 23.0179L13.5026 23.8011L13.1039 23.8293C12.5927 23.8715 11.5516 23.8715 11.0404 23.8293L10.6417 23.8011L10.3603 22.9992C10.2056 22.5583 10.0461 22.1597 10.0086 22.1175C9.97106 22.0706 9.60525 21.9252 9.19723 21.7892C8.71885 21.6344 8.21234 21.428 7.77149 21.2029C7.3963 21.0106 7.04456 20.8559 6.98828 20.8559C6.93669 20.8559 6.54274 21.02 6.11595 21.2264L5.34212 21.5922L5.10762 21.3999C4.70429 21.0669 4.09929 20.476 3.70065 20.0164L3.31608 19.5755L3.68189 18.797C3.88825 18.3702 4.05239 17.9763 4.05239 17.9247C4.05239 17.8731 3.89763 17.512 3.70065 17.1274C3.4896 16.71 3.2598 16.1472 3.12379 15.7392C3.00185 15.3593 2.86585 15.0076 2.82833 14.9513C2.78612 14.8809 2.50472 14.759 1.94193 14.5573L1.1212 14.2665L1.08837 14.0086C1.0743 13.8679 1.06023 13.3379 1.06023 12.8361C1.06023 12.3343 1.0743 11.8043 1.08837 11.6636L1.1212 11.4057L1.89503 11.1243C2.32182 10.9695 2.71577 10.8195 2.76736 10.7866C2.83771 10.7444 2.9315 10.524 3.10972 9.97528C3.26918 9.48752 3.48022 8.98101 3.70534 8.53547C3.89763 8.16028 4.05239 7.80854 4.05239 7.75226C4.05239 7.70067 3.88825 7.30203 3.68658 6.87524L3.31608 6.10141L3.54588 5.82001C3.87887 5.42606 4.62925 4.67099 5.01382 4.35207L5.34212 4.08006L6.11595 4.44587C6.54274 4.65223 6.932 4.81637 6.98359 4.81637C7.03518 4.81637 7.3963 4.66161 7.78087 4.46463C8.20765 4.25358 8.76106 4.02378 9.18785 3.88308C9.57242 3.75645 9.93354 3.61106 9.98513 3.55948C10.0414 3.50789 10.2056 3.11394 10.3603 2.6637C10.637 1.87111 10.6417 1.86173 10.7824 1.85704C10.8621 1.85235 11.1764 1.83828 11.4859 1.81952C12.0534 1.79138 12.3113 1.79607 13.0805 1.84297Z" fill="black"/>
<path d="M11.7251 5.2666C11.6266 5.36509 11.6031 5.43544 11.6031 5.61366C11.6031 5.79187 11.6266 5.86222 11.7251 5.96071C11.8236 6.0592 11.8939 6.08265 12.0721 6.08265C12.2504 6.08265 12.3207 6.0592 12.4192 5.96071C12.5177 5.86222 12.5411 5.79187 12.5411 5.61366C12.5411 5.43544 12.5177 5.36509 12.4192 5.2666C12.3207 5.16812 12.2504 5.14467 12.0721 5.14467C11.8939 5.14467 11.8236 5.16812 11.7251 5.2666Z" fill="#6FB955"/>
<path d="M9.5302 5.5433C7.95439 6.09202 6.43486 7.30671 5.53908 8.72306C5.08416 9.43593 4.70428 10.3833 4.51199 11.2603C4.41819 11.673 4.40881 11.87 4.40881 12.8361C4.40881 13.7975 4.42288 13.9992 4.51199 14.3979C4.85904 15.9455 5.5297 17.179 6.62714 18.2811C7.7152 19.3645 8.88299 20.0117 10.4072 20.3681C10.9419 20.4947 11.0263 20.5041 12.0721 20.4994C13.0336 20.4994 13.2305 20.4901 13.6339 20.4009C16.7011 19.7115 18.9522 17.4651 19.6323 14.3979C19.7214 13.9992 19.7354 13.7929 19.7354 12.8596C19.7401 11.9028 19.7261 11.7246 19.6323 11.2697C19.0695 8.64334 17.2498 6.53757 14.736 5.59489C14.1591 5.37916 14.0325 5.37916 13.8262 5.58551C13.5448 5.86691 13.6386 6.24679 14.0278 6.39218C14.6281 6.60791 15.0831 6.81427 15.4442 7.02532C17.1794 8.04772 18.3801 9.78767 18.7084 11.7527C18.774 12.1373 18.7881 12.4046 18.7646 13.0659C18.7365 13.9429 18.6427 14.4635 18.3847 15.1482C18.23 15.5563 17.836 16.3254 17.6297 16.6162C17.4655 16.8413 17.4655 16.846 17.4655 16.7053C17.4655 16.2644 17.1841 15.6641 16.7949 15.2749C16.3728 14.8434 16.1055 14.7402 14.736 14.4635L13.5729 14.229V14.0789C13.5729 13.957 13.6104 13.9007 13.7886 13.7694C14.2201 13.4458 14.6 12.8267 14.7266 12.2264C14.8157 11.809 14.811 10.4771 14.7219 10.0456C14.5156 9.08419 13.8074 8.29628 12.8694 8.00082C12.4426 7.86481 11.7016 7.86481 11.2748 8.00082C10.3369 8.29628 9.62868 9.08419 9.42233 10.0456C9.33322 10.4771 9.32853 11.809 9.41764 12.2264C9.54427 12.8267 9.92415 13.4458 10.3556 13.7694C10.5338 13.9007 10.5714 13.957 10.5714 14.0789V14.2243L9.39888 14.4682C8.01536 14.7496 7.81838 14.8293 7.36815 15.2796C7.00702 15.6407 6.80067 16.0253 6.71156 16.513L6.65528 16.8272L6.45361 16.5177C5.97524 15.7955 5.59067 14.8059 5.4359 13.9195C5.34211 13.3895 5.3468 12.2686 5.44059 11.7058C5.77358 9.77361 6.97888 8.03834 8.70008 7.02532C9.06121 6.81427 9.51613 6.60791 10.1164 6.39218C10.5057 6.24679 10.5995 5.86691 10.3181 5.58551C10.1258 5.39323 9.98512 5.38385 9.5302 5.5433ZM12.6396 8.96694C13.0805 9.12171 13.4979 9.52973 13.6761 9.97058C13.7746 10.2098 13.7839 10.3083 13.7839 11.1477C13.7839 12.0529 13.7839 12.067 13.6526 12.3484C13.4838 12.7095 13.1227 13.0706 12.7522 13.2441C12.513 13.352 12.4098 13.3755 12.0721 13.3755C11.7345 13.3755 11.6313 13.352 11.3921 13.2441C11.0216 13.0706 10.6605 12.7095 10.4916 12.3484C10.3603 12.067 10.3603 12.0529 10.3603 11.1477C10.3603 10.2895 10.3697 10.2145 10.4729 9.95182C10.6745 9.45469 11.2139 9.00915 11.7485 8.89659C11.9924 8.84969 12.3864 8.87783 12.6396 8.96694ZM12.6349 14.5245C12.6349 14.97 12.4051 15.2749 12.0721 15.2749C11.7391 15.2749 11.5093 14.97 11.5093 14.5245V14.3603H12.0721H12.6349V14.5245ZM10.7074 15.4343C10.834 15.697 11.1435 15.9971 11.4155 16.1284C11.7016 16.2691 12.255 16.302 12.5833 16.1894C12.8835 16.0909 13.2915 15.7251 13.4369 15.4343C13.526 15.242 13.5495 15.2233 13.662 15.2514C13.7277 15.2702 14.1873 15.364 14.6844 15.4625C15.6599 15.6594 15.8522 15.7345 16.1101 16.0112C16.4244 16.3395 16.4525 16.438 16.4713 17.2212L16.4853 17.9247L16.0961 18.2108C14.8908 19.1065 13.5588 19.5474 12.0721 19.5474C10.5667 19.5474 9.22066 19.0925 7.96377 18.1498L7.65892 17.9247L7.67299 17.2212C7.68706 16.6068 7.70113 16.4942 7.79024 16.3301C7.91218 16.1003 8.24047 15.7861 8.45152 15.7017C8.57345 15.6501 10.3322 15.2608 10.5573 15.2327C10.5854 15.2327 10.6558 15.3218 10.7074 15.4343Z" fill="#1C7EFF"/>
</svg>
