<?xml version="1.0" encoding="UTF-8" standalone="no"?>
<svg
   width="24"
   height="24"
   viewBox="0 0 24 24"
   fill="none"
   version="1.1"
   id="svg713"
   sodipodi:docname="x-close.svg"
   inkscape:version="1.2.2 (1:1.2.2+202212051552+b0a8486541)"
   xmlns:inkscape="http://www.inkscape.org/namespaces/inkscape"
   xmlns:sodipodi="http://sodipodi.sourceforge.net/DTD/sodipodi-0.dtd"
   xmlns="http://www.w3.org/2000/svg"
   xmlns:svg="http://www.w3.org/2000/svg">
  <defs
     id="defs717" />
  <sodipodi:namedview
     id="namedview715"
     pagecolor="#ffffff"
     bordercolor="#000000"
     borderopacity="0.25"
     inkscape:showpageshadow="2"
     inkscape:pageopacity="0.0"
     inkscape:pagecheckerboard="0"
     inkscape:deskcolor="#d1d1d1"
     showgrid="false"
     inkscape:zoom="32.833333"
     inkscape:cx="12"
     inkscape:cy="12.015228"
     inkscape:window-width="1920"
     inkscape:window-height="1016"
     inkscape:window-x="0"
     inkscape:window-y="0"
     inkscape:window-maximized="1"
     inkscape:current-layer="svg713" />
  <path
     style="color:#000000;fill:#090909;stroke-linecap:round;stroke-linejoin:round;-inkscape-stroke:none"
     d="m 7,6 a 1,1 0 0 0 -0.7070313,0.2929687 1,1 0 0 0 0,1.4140625 L 10.585938,12 6.2929687,16.292969 a 1,1 0 0 0 0,1.414062 1,1 0 0 0 1.4140625,0 L 12,13.414063 l 4.292969,4.292968 a 1,1 0 0 0 1.414062,0 1,1 0 0 0 0,-1.414062 L 13.414063,12 17.707031,7.7070312 a 1,1 0 0 0 0,-1.4140625 1,1 0 0 0 -1.414062,0 L 12,10.585938 7.7070312,6.2929687 A 1,1 0 0 0 7,6 Z"
     id="path711" />
</svg>
