<svg width="86" height="44" viewBox="0 0 86 44" fill="none" xmlns="http://www.w3.org/2000/svg">
<g clip-path="url(#clip0_1669_18204)">
<path d="M44.6251 36.5734C42.9631 36.4598 41.0466 36.1611 39.535 35.7123C39.2518 35.6282 38.0795 35.1864 37.7813 35.0462C32.5188 32.547 28.8527 27.0916 28.8527 20.7624C28.8527 12.0813 35.7417 5.01026 44.2147 5.01026C52.6126 5.01026 59.455 11.9607 59.5727 20.5436H65.1224C65.0048 8.82488 55.674 -0.672401 44.2147 -0.672401C32.6871 -0.672401 23.3043 8.94128 23.3043 20.7624C23.3043 28.9119 27.7748 35.9998 34.3204 39.6209C35.5023 40.2618 37.1985 40.9224 37.7745 41.1033C39.6403 41.6727 41.9303 42.0513 43.9685 42.2098C44.6607 42.2631 47.0778 42.2911 47.7823 42.2939H86V36.6267H47.8466C47.3391 36.6267 45.1217 36.6071 44.6251 36.5734ZM47.8466 27.675C47.4431 27.675 45.3323 27.661 44.9425 27.6273C44.2818 27.5698 43.3242 27.4688 42.7086 27.3244C42.0137 27.1336 41.3612 26.8812 41.0671 26.7157C39.0056 25.5727 37.6007 23.3373 37.6007 20.7624C37.6007 17.0165 40.5596 13.9788 44.2147 13.9788C47.7933 13.9788 50.7029 16.8973 50.8192 20.5436H56.1514C56.0393 13.8821 50.7426 8.51354 44.2147 8.51354C37.6144 8.51354 32.2644 13.9971 32.2644 20.7624C32.2644 25.5335 34.9319 29.6538 38.8168 31.6719C39.4146 32.0309 40.5391 32.4068 40.8592 32.4923C41.9563 32.7883 43.4295 32.9902 44.6251 33.08C45.067 33.1178 47.2311 33.1347 47.688 33.1375V33.1459H85.9986V27.675H47.8466ZM19.8845 42.2729H14.2978V5.02288H6.13387V-0.706059H19.8845V42.2729ZM0 7.88525V13.394H6.13387V42.2729H11.5017V7.88525H0Z" fill="#D91920"/>
<path d="M75.5013 0.293945C73.5874 0.293945 72 1.83245 72 3.76312C72 5.6938 73.5874 7.29395 75.5013 7.29395C77.4738 7.29395 79 5.6938 79 3.76312C79 1.83245 77.4738 0.293945 75.5013 0.293945ZM75.5013 6.72471C73.9204 6.72471 72.5582 5.47214 72.5582 3.76312C72.5582 2.14068 73.9204 0.856621 75.5013 0.856621C77.0809 0.856621 78.4366 2.14068 78.4366 3.76312C78.4366 5.47214 77.0809 6.72471 75.5013 6.72471Z" fill="#D91920"/>
<path d="M77.8464 4.39111C77.8464 3.94196 77.7826 3.52457 77.2899 3.35973C77.9072 3.13591 77.9681 2.71398 77.9681 2.45841C77.9681 1.42551 77.0696 1.29395 76.7 1.29395H75V5.29395H75.7087V3.65311H76.2667C77.0696 3.65311 77.1362 4.03875 77.1362 4.39111C77.1362 5.07315 77.1362 5.2017 77.2899 5.29395H78C77.8464 5.13213 77.9072 5.00661 77.8464 4.39111ZM76.5449 3.06937H75.7087V1.80964H76.4246C76.9203 1.80964 77.2565 1.97296 77.2565 2.45841C77.2565 2.71398 77.1362 3.06937 76.5449 3.06937Z" fill="#D91920"/>
</g>
<defs>
<clipPath id="clip0_1669_18204">
<rect width="86" height="43" fill="white" transform="translate(0 0.293945)"/>
</clipPath>
</defs>
</svg>
