<svg width="110" height="32" viewBox="0 0 110 32" fill="none" xmlns="http://www.w3.org/2000/svg">
<path fill-rule="evenodd" clip-rule="evenodd" d="M64.9241 0.458599C58.961 1.27752 53.542 6.25258 52.1345 12.2003C50.9217 17.3255 52.3441 22.6066 55.9564 26.3913C59.0934 29.6779 62.6044 31.2514 66.8946 31.2931C68.2678 31.3064 70.039 31.1617 70.8306 30.9712C74.4093 30.1101 78.3172 27.3929 80.3226 24.3716C82.6213 20.9085 83.4134 16.2772 82.3939 12.2611C81.559 8.97259 80.6536 7.37332 78.2895 5.01064C74.5812 1.30489 70.0351 -0.243559 64.9241 0.458599ZM12.3603 2.47776C13.1798 5.91375 19.0521 29.8163 19.1795 30.2357C19.3043 30.6451 19.7442 30.6918 23.4872 30.6918C25.7802 30.6918 27.6563 30.6441 27.6563 30.5857C27.6563 30.3988 25.1428 19.9027 22.832 10.44C21.5996 5.39378 20.5914 1.2009 20.5914 1.12218C20.5914 1.04347 18.659 0.979093 16.2973 0.979093H12.0029L12.3603 2.47776ZM25.0397 4.62203V8.26496L29.6842 8.33612L34.3287 8.40727L34.4595 19.6147L34.5903 30.8221H38.4501H42.3099L42.3096 19.5495L42.3094 8.27695H47.0193H51.7292V4.62802V0.979093H38.3844H25.0397V4.62203ZM89.2728 1.82617C89.1121 2.59244 88.2353 6.20905 84.9601 19.6147C83.5191 25.5129 82.3437 30.4379 82.3437 30.5782C82.3437 30.6407 84.2232 30.6918 86.5201 30.6918H90.6967L90.9547 29.7144C91.0968 29.177 92.6951 22.6381 94.5068 15.1839C96.3186 7.72961 97.8516 1.48421 97.9139 1.30489C98.0013 1.05285 97.0551 0.979093 93.7386 0.979093H89.4502L89.2728 1.82617ZM70.7042 7.7575C72.3681 8.468 74.5736 10.6243 75.3139 12.2642C76.2441 14.3245 76.1936 17.5155 75.1988 19.5373C74.2746 21.4154 72.3171 23.1912 70.3601 23.9264C68.2956 24.7021 65.2532 24.5577 63.3732 23.5946C61.72 22.7481 60.2466 21.2872 59.358 19.6147C58.7499 18.4697 58.6659 18.0107 58.6659 15.8354C58.6659 13.6513 58.7488 13.2025 59.3695 12.0283C60.7218 9.47041 62.3729 8.10076 65.0154 7.34439C66.5801 6.89635 69.1193 7.08088 70.7042 7.7575ZM1.87132 23.0681C0.904739 27.0463 0.0632335 30.3889 0.0014812 30.4963C-0.0602711 30.6037 1.81663 30.6918 4.17238 30.6918H8.45526L10.2134 23.4591C11.1802 19.481 11.9681 16.1386 11.9639 16.0309C11.96 15.9233 10.0828 15.8354 7.79247 15.8354H3.62864L1.87132 23.0681ZM98.0361 16.0309C98.0319 16.1386 98.8198 19.481 99.7866 23.4591L101.545 30.6918H105.828C108.183 30.6918 110.06 30.6037 109.999 30.4963C109.937 30.3889 109.095 27.0463 108.129 23.0681L106.371 15.8354H102.208C99.9172 15.8354 98.04 15.9233 98.0361 16.0309Z" fill="#FF0000"/>
</svg>
