<svg width="54" height="58" viewBox="0 0 54 58" fill="none" xmlns="http://www.w3.org/2000/svg">
<path fill-rule="evenodd" clip-rule="evenodd" d="M19.6853 0.651874C18.1401 1.3261 17.8565 3.06222 19.0936 4.27439L19.8402 5.00647H30.3506H40.8607V23.6439V42.2813H22.1196C1.24691 42.2813 1.83806 42.2262 0.849569 44.2679C0.258727 45.4885 0.236514 45.3713 2.22931 51.5473C3.15208 54.4064 3.96624 56.4023 4.34777 56.7407C5.7482 57.983 8.00782 56.9954 7.99839 55.1454C7.99626 54.7127 7.46505 52.7207 6.81823 50.7192C6.1711 48.7177 5.71656 47.0066 5.80813 46.9171C6.02506 46.7042 48.0101 46.7042 48.2271 46.9171C48.3186 47.0066 47.8641 48.7177 47.217 50.7192C45.9659 54.5898 45.843 55.3917 46.3556 56.3307C47.0852 57.6669 49.521 57.59 50.2445 56.2078C51.1259 54.5245 53.6663 45.7676 53.4914 45.0164C53.0113 42.9538 51.7237 42.2813 48.2535 42.2813H45.4371L45.3547 22.7711C45.2738 3.5948 45.2616 3.2465 44.6449 2.43749C44.2999 1.98452 43.64 1.33743 43.1781 0.999274C42.3713 0.408542 41.9122 0.381706 31.4833 0.312524C22.7886 0.254673 20.4408 0.322364 19.6853 0.651874ZM11.3712 15.931C10.5346 16.9732 10.5747 17.9918 11.4875 18.8861L12.2341 19.6182H21.5026C26.6002 19.6182 30.9925 19.5347 31.2633 19.433C31.988 19.1605 32.7121 17.6122 32.4736 16.845C31.9333 15.1053 32.1876 15.1452 21.6684 15.1452H12.0016L11.3712 15.931ZM8.35953 28.3596C7.48939 29.2676 7.49152 30.7381 8.36409 31.5346C9.00848 32.1232 9.38027 32.1426 20.0437 32.1426C30.3515 32.1426 31.1027 32.1068 31.7605 31.5847C32.7374 30.8093 32.7374 29.0028 31.7605 28.2275C31.1027 27.7054 30.3512 27.6696 20.0395 27.6696H9.02126L8.35953 28.3596Z" fill="#090909"/>
</svg>
