<svg width="66" height="63" viewBox="0 0 66 63" fill="none" xmlns="http://www.w3.org/2000/svg">
<path d="M41.7576 30.4189L16 25.7939V59.9681C16 61.5288 17.2434 62.7939 18.7773 62.7939H63.2227C64.7566 62.7939 66 61.5288 66 59.9681V47.3773L41.7576 30.4189Z" fill="#185C37"/>
<path d="M40.7576 0.793945H17.7773C16.2434 0.793945 15 2.04277 15 3.58329V16.0113L40.7576 31.2287L54.3939 35.7939L65 31.2287V16.0113L40.7576 0.793945Z" fill="#21A366"/>
<path d="M15 16.7939H41V31.7939H15V16.7939Z" fill="#107C41"/>
<path opacity="0.1" d="M33.2505 13.7939H15V51.7939H33.2505C34.767 51.789 35.9951 50.5445 36 49.0078V16.5801C35.9951 15.0434 34.767 13.7989 33.2505 13.7939Z" fill="black"/>
<path opacity="0.2" d="M32.18 14.7939H15V52.7939H32.18C33.7353 52.789 34.9949 51.5445 35 50.0078V17.5801C34.9949 16.0434 33.7353 14.7989 32.18 14.7939Z" fill="black"/>
<path opacity="0.2" d="M32.18 14.7939H15V49.7939H32.18C33.7353 49.7889 34.9949 48.543 35 47.0046V17.5833C34.9949 16.0449 33.7353 14.7989 32.18 14.7939Z" fill="black"/>
<path opacity="0.2" d="M30.2505 14.7939H15V49.7939H30.2505C31.767 49.7889 32.9951 48.543 33 47.0046V17.5833C32.9951 16.0449 31.767 14.7989 30.2505 14.7939Z" fill="black"/>
<path d="M2.7495 14.7939H30.2505C31.769 14.7939 33 16.0622 33 17.6268V45.9611C33 47.5257 31.769 48.7939 30.2505 48.7939H2.7495C1.23099 48.794 0 47.5257 0 45.9612V17.6268C0 16.0622 1.23099 14.7939 2.7495 14.7939Z" fill="url(#paint0_linear_1669_18183)"/>
<path d="M9 40.7939L14.7952 31.769L9.48545 22.7939H13.7567L16.6543 28.5336C16.9218 29.0789 17.1052 29.4837 17.2044 29.751H17.242C17.4323 29.316 17.6327 28.8936 17.8431 28.4838L20.9406 22.797H24.8617L19.4167 31.7192L25 40.7939H20.8279L17.4809 34.4939C17.3233 34.2258 17.1895 33.9443 17.0812 33.6526H17.0316C16.9335 33.9383 16.8035 34.212 16.6438 34.4682L13.1977 40.7939H9Z" fill="white"/>
<path d="M62.2505 0.793945H41V15.7939H65V3.54344C65 2.02493 63.769 0.793945 62.2505 0.793945Z" fill="#33C481"/>
<path d="M41 31.7939H65V46.7939H41V31.7939Z" fill="#107C41"/>
<defs>
<linearGradient id="paint0_linear_1669_18183" x1="5.73277" y1="12.5804" x2="28.2459" y2="50.4253" gradientUnits="userSpaceOnUse">
<stop stop-color="#18884F"/>
<stop offset="0.5" stop-color="#117E43"/>
<stop offset="1" stop-color="#0B6631"/>
</linearGradient>
</defs>
</svg>
