<svg width="96" height="62" viewBox="0 0 96 62" fill="none" xmlns="http://www.w3.org/2000/svg">
<path fill-rule="evenodd" clip-rule="evenodd" d="M24.1739 0.56924C21.687 0.753625 19.4184 0.987843 19.1325 1.09C18.7569 1.22455 19.0943 1.71506 20.3499 2.86123C23.2344 5.49387 23.1631 5.47607 28.6957 4.9635C31.7763 4.67802 34.2511 4.62463 35.4323 4.81791C36.6299 5.01404 40.6682 6.72334 46.6936 9.58485C51.8602 12.0384 56.2581 14.046 56.4661 14.046C57.3788 14.046 55.1572 12.6603 44.6957 6.70376L33.5652 0.366702L31.1304 0.300495C29.7913 0.263832 26.6609 0.384856 24.1739 0.56924ZM14.6087 2.4889C14.6087 4.34271 15.479 5.98402 17.2477 7.46728C18.9854 8.92456 20.0386 8.8256 18.6797 7.33273C17.4504 5.98224 16.9277 4.835 16.7117 3.01144C16.5426 1.58549 16.4167 1.39719 15.5652 1.29717C14.6758 1.19216 14.6087 1.27581 14.6087 2.4889ZM29.913 6.53219C29.392 6.67955 29.0003 7.08214 28.936 7.53705C28.7937 8.53977 30.136 11.1984 30.7847 11.1984C31.368 11.1984 33.5217 7.07502 33.2087 6.55675C32.9767 6.17267 31.2296 6.1595 29.913 6.53219ZM36.0633 6.92694C35.0157 9.48839 30.6087 22.8602 30.6087 23.4774C30.6087 24.5723 35.2157 31.5195 35.648 31.0767C35.7725 30.9492 35.9597 29.6682 36.064 28.2297L36.2532 25.6145L34.8685 23.8348C34.1071 22.8559 33.3837 21.7236 33.2605 21.3185C33.1287 20.8853 33.7576 17.8836 34.7885 14.0243C35.752 10.4174 36.4821 7.22487 36.4108 6.92979C36.2963 6.45352 36.257 6.45352 36.0633 6.92694ZM38.1176 7.5883C37.8094 8.09874 36.1763 16.9972 36.1812 18.1395C36.1861 19.2761 37.3012 23.9996 37.7336 24.7154C38.4362 25.8787 38.775 23.8892 39.1673 16.2974C39.3969 11.8594 39.5047 8.01545 39.4073 7.7556C39.2083 7.22523 38.4 7.12058 38.1176 7.5883ZM21.2442 8.49599C20.439 9.48875 21.1391 10.4434 23.1012 11.0272C25.7023 11.8007 26.2957 12.6208 27.4546 17.0414C28.4643 20.8935 28.6946 21.4627 29.0821 21.0662C29.2866 20.8569 28.6793 13.1348 28.2977 11.0937C28.0299 9.66138 26.9628 8.81208 25.103 8.55152C24.2094 8.42622 23.0727 8.24255 22.577 8.14359C22.0188 8.03182 21.512 8.16566 21.2442 8.49599ZM17.3485 11.0767C12.8097 17.0247 12.8692 16.8744 14.3732 18.5844C15.3231 19.6644 16.0675 19.5922 16.9781 18.3317C17.9238 17.0229 17.943 16.1248 17.0435 15.2919C16.6609 14.9377 16.3478 14.5034 16.3478 14.3272C16.3478 14.151 16.9847 13.0472 17.7628 11.8747C19.6494 9.0317 19.3496 8.45434 17.3485 11.0767ZM44.5903 11.617C43.5899 11.8462 42.9809 12.2171 42.7537 12.7358C41.9377 14.6006 37.2911 33.8257 37.5826 34.1315C37.7729 34.3312 38.0943 33.9798 38.3965 33.2416C38.6713 32.5706 40.7864 27.4787 43.0963 21.9258C45.4066 16.3729 47.2108 11.6875 47.1061 11.5141C46.8835 11.1454 46.6014 11.1567 44.5903 11.617ZM24 15.0459C24 16.5744 23.8181 17.7248 23.5071 18.1605C23.2237 18.5578 21.8045 19.2294 20.167 19.7413C18.601 20.2307 17.3193 20.7914 17.319 20.9871C17.3183 21.1829 17.7277 21.656 18.2285 22.0386C19.0522 22.668 19.2943 22.6918 20.7722 22.2871C23.455 21.5528 24.6035 20.8369 25.2157 19.5167C25.7503 18.3638 25.7485 18.0865 25.1923 15.451C24.8637 13.8951 24.4612 12.6222 24.2974 12.6222C24.1339 12.6222 24 13.7129 24 15.0459ZM50.5137 15.2029C47.5889 19.6359 38.5656 35.0925 38.6863 35.4631C38.8407 35.9376 39.8348 34.5415 46.3948 24.6357C50.4797 18.4677 50.8936 17.9615 51.856 17.9615C52.4285 17.9615 53.5203 18.2869 54.2817 18.6841C55.9221 19.5405 56.0988 19.3252 55.9339 16.6719C55.8355 15.0876 55.7214 14.8864 54.6087 14.3315C52.5377 13.2985 51.6445 13.4886 50.5137 15.2029ZM10.9176 20.0933C10.1986 20.3874 8.69565 22.0749 8.69565 22.5882C8.69565 23.1328 14.7263 27.2067 15.8525 27.4228C16.847 27.6139 17.8946 27.2391 22.4306 25.0714C25.3983 23.6529 27.8261 22.3693 27.8261 22.2191C27.8261 22.0689 26.0654 22.4893 23.913 23.1535C21.761 23.8177 19.6574 24.363 19.239 24.3651C18.8202 24.3669 17.255 23.429 15.7607 22.2803C12.7781 19.988 12.0163 19.6441 10.9176 20.0933ZM92.8696 21.2997C92.8696 22.1073 93.8348 22.6861 94.7781 22.4441C95.3437 22.2988 95.6522 21.9706 95.6522 21.5143C95.6522 20.644 95.353 20.6173 94.7339 21.4321C94.2835 22.0255 94.2383 22.0255 93.7878 21.4321C93.2191 20.6835 92.8696 20.633 92.8696 21.2997ZM52.1739 21.8382C51.4191 22.0522 50.7704 23.3742 47.257 31.8587C44.8456 37.6818 43.3339 41.7692 43.5179 41.9706C43.7123 42.1842 43.9496 42.1824 44.1614 41.9657C44.705 41.4093 54.2609 22.5145 54.2609 21.9956C54.2609 21.4897 53.5844 21.4388 52.1739 21.8382ZM59.3043 21.877C59.4226 22.0728 59.9012 22.233 60.3684 22.233C61.193 22.233 61.2174 22.3095 61.2174 24.9026C61.2174 26.445 61.3642 27.5723 61.5652 27.5723C61.7663 27.5723 61.913 26.445 61.913 24.9026C61.913 22.3095 61.9374 22.233 62.7621 22.233C63.2292 22.233 63.7078 22.0728 63.8261 21.877C63.9617 21.6524 63.1273 21.5211 61.5652 21.5211C60.0031 21.5211 59.1687 21.6524 59.3043 21.877ZM63.8459 23.7362C62.6515 25.4811 63.4939 27.5723 65.3913 27.5723C66.711 27.5723 67.4783 26.7216 67.4783 25.2586C67.4783 24.6015 67.2323 23.812 66.9318 23.5041C66.1203 22.674 64.4887 22.7965 63.8459 23.7362ZM68.5217 26.178C68.5217 28.6053 68.6303 29.3748 68.9565 29.2652C69.1958 29.1848 69.4386 28.7149 69.4964 28.2208C69.5833 27.4776 69.7489 27.3509 70.455 27.489C70.9242 27.5808 71.5423 27.4573 71.8282 27.2146C72.457 26.6806 72.5287 23.9843 71.9304 23.372C71.3937 22.8228 70.1715 22.8228 69.6348 23.372C69.3103 23.7041 69.2174 23.7041 69.2174 23.372C69.2174 23.1371 69.0609 22.9449 68.8696 22.9449C68.6633 22.9449 68.5217 24.2598 68.5217 26.178ZM73.6397 23.1652C73.503 23.3051 73.3913 24.3538 73.3913 25.496C73.3913 27.1042 73.5089 27.5723 73.913 27.5723C74.3064 27.5723 74.4348 27.1402 74.4348 25.8174C74.4348 24.2683 74.5266 24.0491 75.2174 23.9487C75.648 23.886 76 23.6746 76 23.4788C76 23.0599 74.0017 22.7947 73.6397 23.1652ZM77.3263 23.2247C76.5092 23.7561 76.1353 25.4348 76.6077 26.4482C77.224 27.7709 79.3329 27.9809 80.1409 26.8006C80.8417 25.7765 80.8463 24.7471 80.1541 23.7362C79.6104 22.9417 78.1631 22.6801 77.3263 23.2247ZM81.7391 25.2586V27.5723H83.1183C84.64 27.5723 85.6143 26.5326 84.9082 25.6622C84.7117 25.4198 84.6449 24.8532 84.76 24.4029C85.0143 23.4076 84.4289 22.9577 82.8696 22.9502L81.7391 22.9449V25.2586ZM86.0553 23.435C85.9541 23.7045 85.92 24.7058 85.9791 25.6598C86.073 27.1715 86.192 27.4096 86.905 27.5129C87.3548 27.578 88.1078 27.5324 88.5784 27.4118C89.2977 27.2267 89.4164 27.0099 89.3256 26.0474C89.2306 25.0436 89.0783 24.8888 88.087 24.7912C87.1506 24.6987 86.9565 24.5307 86.9565 23.8123C86.9565 22.8801 86.3572 22.6295 86.0553 23.435ZM90.087 25.2586C90.087 27.0779 90.1986 27.5723 90.6087 27.5723C91.0188 27.5723 91.1304 27.0779 91.1304 25.2586C91.1304 23.4393 91.0188 22.9449 90.6087 22.9449C90.1986 22.9449 90.087 23.4393 90.087 25.2586ZM92.4059 23.1823C92.2783 23.3126 92.1739 24.3538 92.1739 25.496C92.1739 28.0468 92.6964 28.2041 94.1266 26.0844L95.1304 24.5965L95.2372 26.0844C95.4073 28.4497 96 27.8083 96 25.2586C96 23.9861 95.8647 22.9449 95.6995 22.9449C95.5343 22.9449 94.9471 23.6144 94.3951 24.4328L93.3913 25.9207L93.2845 24.4328C93.183 23.0204 92.9238 22.6519 92.4059 23.1823ZM22.2609 26.5372C19.1043 28.2721 16.1099 29.6952 15.6066 29.6998C14.9944 29.7052 13.5677 28.8253 11.2929 27.0384C9.42365 25.5701 7.70191 24.3687 7.46678 24.3687C6.81809 24.3687 5.2167 26.7016 5.22261 27.6374C5.22957 28.7078 5.38539 28.9071 7.60835 30.6937C9.84696 32.4927 11.7363 33.1149 13.327 32.5767C14.4184 32.2075 28.0355 24.2722 28.6783 23.6305C29.6007 22.71 27.4609 23.6792 22.2609 26.5372ZM66.4779 24.5018C66.9944 25.6615 66.3238 26.9451 65.2807 26.7931C64.6988 26.708 64.4953 26.4005 64.409 25.4739C64.2383 23.644 65.7746 22.9221 66.4779 24.5018ZM71.2348 24.0839C72.2063 25.0781 71.2887 27.2035 70.0915 26.7333C69.4452 26.4799 69.3704 24.1526 70 23.8924C70.68 23.6116 70.7899 23.6287 71.2348 24.0839ZM79.4052 24.4025C79.9103 25.223 79.4216 26.8604 78.6717 26.8604C77.8414 26.8604 77.2174 26.173 77.2174 25.2586C77.2174 23.7636 78.664 23.1976 79.4052 24.4025ZM84 24.1907C84 24.3865 83.648 24.5979 83.2174 24.6606C82.679 24.7385 82.4348 24.5922 82.4348 24.1907C82.4348 23.7892 82.679 23.6429 83.2174 23.7209C83.648 23.7835 84 23.995 84 24.1907ZM84.1089 26.2375C84.1951 26.7002 83.9948 26.8604 83.3297 26.8604C82.6567 26.8604 82.4348 26.6778 82.4348 26.1236C82.4348 25.5644 82.6223 25.4145 83.2139 25.5006C83.6424 25.5633 84.0452 25.8947 84.1089 26.2375ZM88.5217 26.1485C88.5217 26.4421 88.1697 26.7337 87.7391 26.7963C87.1367 26.8835 86.9565 26.7344 86.9565 26.1485C86.9565 25.5626 87.1367 25.4134 87.7391 25.5006C88.1697 25.5633 88.5217 25.8548 88.5217 26.1485ZM42.6619 33.2647C41.3892 35.2207 40.3478 37.0539 40.3478 37.3383C40.3478 38.1584 41.9176 39.8175 42.4835 39.5954C42.9197 39.4238 45.5652 31.2756 45.5652 30.1035C45.5652 29.1367 44.8184 29.9494 42.6619 33.2647ZM60.647 32.9657C60.52 33.7787 60.1266 34.7398 59.7732 35.1014C58.9892 35.9038 58.9078 37.539 59.6522 37.539C59.9419 37.539 60.1739 37.2226 60.1739 36.8271C60.1739 36.2102 60.4059 36.1152 61.913 36.1152C63.4202 36.1152 63.6522 36.2102 63.6522 36.8271C63.6522 37.2187 63.8087 37.539 64 37.539C64.1913 37.539 64.3478 37.0585 64.3478 36.4712C64.3478 35.8838 64.1913 35.4033 64 35.4033C63.8087 35.4033 63.6522 34.5223 63.6522 33.4455V31.4878H62.265C60.9071 31.4878 60.873 31.5191 60.647 32.9657ZM65.2372 32.2791C64.0546 34.0069 65.0035 36.1152 66.9642 36.1152C68.345 36.1152 68.8696 35.3905 68.8696 33.4815C68.8696 32.6034 68.6668 32.1139 68.1969 31.8562C67.0838 31.2468 65.8202 31.4269 65.2372 32.2791ZM70.1221 32.6226C69.6981 35.4222 69.6943 36.1152 70.1026 36.1152C70.3322 36.1152 70.6341 35.4346 70.7736 34.6024L71.0275 33.0896L71.5854 34.6024C71.8925 35.4346 72.3214 36.1152 72.5384 36.1152C72.7558 36.1152 73.1353 35.4346 73.3823 34.6024C73.7631 33.3181 73.8727 33.1971 74.1085 33.8015C74.2609 34.193 74.3969 34.874 74.4104 35.3143C74.4243 35.7717 74.655 36.1152 74.9478 36.1152C75.312 36.1152 75.417 35.8315 75.3103 35.1363C75.2275 34.5978 75.0657 33.5466 74.9513 32.8006C74.6689 30.962 73.783 31.1746 73.1096 33.2419L72.5965 34.8181L72.0285 33.2451C71.3141 31.266 70.3739 30.9588 70.1221 32.6226ZM62.6087 33.8015C62.6087 35.2905 62.5447 35.4033 61.7019 35.4033C60.9805 35.4033 60.8431 35.2759 61.0306 34.7804C61.16 34.4376 61.353 33.7171 61.4591 33.1786C61.7844 31.5287 62.6087 31.9751 62.6087 33.8015ZM67.8101 32.7141C68.3527 33.3829 68.1524 34.6989 67.4386 35.1566C66.5583 35.7212 65.7391 35.1933 65.7391 34.0617C65.7391 32.4222 66.9398 31.6409 67.8101 32.7141ZM59.8883 42.4334C58.9823 43.2275 56.6957 51.0429 56.6957 53.3445C56.6957 56.5427 58.288 58.309 62.6087 59.9022C66.6671 61.3994 67.2671 61.5143 68.6198 61.0576C70.9663 60.2653 71.6904 59.0056 72.7176 53.9304C73.6977 49.0876 73.6984 47.9005 72.7224 46.9964C72.175 46.4895 61.4776 41.8105 60.8661 41.8105C60.719 41.8105 60.279 42.0906 59.8883 42.4334ZM0.232 46.3193C0.104348 46.4496 0 48.3693 0 50.5851C0 54.5323 0.0205218 54.6369 1.01426 55.776L2.02852 56.9385H7.536H13.0435V51.5992V46.2599H12H10.9565L10.8588 50.6403L10.761 55.0206L9.29357 54.9117L7.82609 54.8028L7.65217 50.5353C7.49948 46.7917 7.40139 46.2528 6.85287 46.1456C5.488 45.8783 5.21739 46.67 5.21739 50.9307V54.9808H4.24348C2.65148 54.9808 2.43478 54.4479 2.43478 50.5314C2.43478 48.2098 2.28696 46.7849 2.01739 46.5091C1.56278 46.0438 0.601043 45.9413 0.232 46.3193ZM14.7391 46.6038C14.359 47.6175 14.8845 48.2176 16.1523 48.2176H17.3697L17.4675 52.5781L17.5652 56.9385H18.6087H19.6522L19.7499 52.5781L19.8477 48.2176H21.2511C22.5774 48.2176 22.6487 48.1635 22.5447 47.2388L22.4348 46.2599L18.6894 46.1588C15.5819 46.0748 14.9089 46.1506 14.7391 46.6038ZM25.7461 46.5194C25.2717 46.776 24.687 47.3833 24.4466 47.8688C23.9496 48.8744 23.8365 55.9454 24.3054 56.7025C24.4678 56.9645 24.9739 57.1247 25.4306 57.0585C26.1659 56.9524 26.2727 56.7299 26.3645 55.1143L26.4682 53.2896L28.0577 53.1063C30.2163 52.8575 31.4626 51.5892 31.4626 49.6415C31.4626 48.5996 31.2306 47.9802 30.5976 47.3327C29.5391 46.2496 27.0243 45.8278 25.7461 46.5194ZM33.6379 46.304C33.5023 46.4429 33.3913 48.7402 33.3913 51.4095C33.3913 56.5399 33.5548 57.1165 35.0084 57.1165C35.8807 57.1165 36.6303 56.191 38.9864 52.2068L40.5217 49.6109L40.6957 53.2747L40.8696 56.9385L41.8261 57.051L42.7826 57.1638V51.9915C42.7826 47.0807 42.745 46.7985 42.0431 46.4137C40.7934 45.7295 39.9012 46.5155 37.7172 50.2263L35.6522 53.7349L35.4783 49.9974C35.319 46.5749 35.2445 46.251 34.5944 46.156C34.2038 46.0987 33.7736 46.1656 33.6379 46.304ZM45.0004 46.6027C44.8717 46.9455 45.2887 47.9475 46.0452 49.1139C46.7377 50.1811 47.3043 51.2077 47.3043 51.3953C47.3043 51.5828 46.665 52.7796 45.8835 54.0553C44.4035 56.4708 44.3663 57.1165 45.7078 57.1165C46.288 57.1165 46.7986 56.6328 47.5857 55.3367C48.1805 54.3579 48.7906 53.5598 48.9423 53.5634C49.0936 53.5669 49.7273 54.3678 50.3506 55.3431C51.1962 56.6669 51.6981 57.1165 52.3301 57.1165C53.7075 57.1165 53.679 56.5367 52.191 54.2945C51.4163 53.1273 50.7826 51.9153 50.7826 51.6017C50.7826 51.2878 51.3402 50.1391 52.0216 49.0488C53.345 46.9316 53.3677 45.9602 52.0883 46.146C51.5979 46.2172 50.9137 46.8906 50.2609 47.9443C49.687 48.8705 49.1391 49.6283 49.0435 49.6283C48.9478 49.6283 48.4 48.8705 47.8261 47.9443C46.7277 46.1709 45.3986 45.5402 45.0004 46.6027ZM63.8456 50.5054C64.44 52.4489 65.0101 53.8905 65.112 53.709C65.2143 53.5274 65.7235 52.0559 66.2438 50.4384C67.1951 47.4819 67.7541 46.7938 69.2045 46.7938C69.9123 46.7938 69.9304 46.9284 69.8362 51.5102C69.7447 55.9561 69.6991 56.2266 69.0435 56.2266C68.409 56.2266 68.3325 55.9301 68.1739 52.8525L68 49.4784L66.9791 52.7603C66.2442 55.1228 65.7704 56.1035 65.288 56.2601C64.288 56.5851 63.8056 55.8393 62.7903 52.4001C62.2845 50.6873 61.8414 49.2855 61.8049 49.2855C61.7687 49.2855 61.7944 50.6506 61.8623 52.3193C61.9868 55.3955 61.6884 56.4046 60.6532 56.4046C60.272 56.4046 60.1739 55.5079 60.1739 52.0264C60.1739 47.305 60.3819 46.6838 61.9016 46.8675C62.6689 46.9601 62.8845 47.3641 63.8456 50.5054ZM29.0066 49.0185C29.5617 49.9262 28.8633 50.8631 27.5301 50.9987C26.4953 51.1041 26.4348 51.0439 26.4348 49.9013C26.4348 49.2364 26.5464 48.5782 26.6828 48.4387C27.1141 47.9973 28.6101 48.3707 29.0066 49.0185Z" fill="#090909"/>
</svg>
