<svg width="100" height="38" viewBox="0 0 100 38" fill="none" xmlns="http://www.w3.org/2000/svg">
<path fill-rule="evenodd" clip-rule="evenodd" d="M51.1195 6.43361C51.1195 9.34932 51.0417 11.7349 50.9467 11.7349C50.8516 11.7349 50.3224 11.3395 49.771 10.8563C45.539 7.14929 38.1637 7.80106 33.7813 12.2692C28.2263 17.9332 28.237 27.8586 33.804 33.4998C38.256 38.0109 45.7091 38.5887 49.965 34.7525L51.1195 33.7121V35.1398V36.5673H54.7551H58.3908V18.8498V1.13232H54.7551H51.1195V6.43361ZM71.0728 8.67383C65.626 9.65122 62.5858 12.8021 62.5858 17.4703C62.5858 20.1854 63.7377 22.3339 65.9309 23.7088C67.6184 24.7669 69.3092 25.2724 73.4329 25.9524C77.2618 26.5835 78.4384 27.0512 78.6873 28.0403C78.9557 29.1081 78.7267 29.6686 77.7549 30.3221C75.4406 31.8781 68.8534 31.1806 65.2572 28.9987L64.4293 28.4965L62.9944 31.2065C62.1327 32.8343 61.6528 34.0394 61.7929 34.2241C62.2345 34.8061 65.8912 36.3078 67.9419 36.7492C70.5289 37.3061 76.1756 37.3719 78.2471 36.8694C83.0358 35.7079 85.8621 32.9046 86.2757 28.9061C86.5112 26.6298 85.9465 24.7948 84.5256 23.2178C82.8302 21.3367 80.7571 20.4751 75.8993 19.633C73.7296 19.2569 71.577 18.7323 71.1156 18.4673C69.1742 17.3526 70.3764 15.0535 73.1152 14.6436C74.9571 14.3682 78.43 14.9266 80.9531 15.9039C82.1403 16.3638 83.139 16.7125 83.1725 16.6791C83.3079 16.5423 85.5184 11.3454 85.5184 11.1632C85.5184 10.8203 82.8431 9.80217 80.4346 9.22823C77.707 8.57841 73.1188 8.30664 71.0728 8.67383ZM0.5 17.8596C0.5 27.0417 0.640952 28.4245 1.83568 30.9697C3.97652 35.5296 10.0634 38.1088 16.1823 37.048C21.756 36.0818 25.2865 32.8767 26.227 27.9289C26.3822 27.1137 26.5089 22.5713 26.5089 17.8353V9.22377H22.8733H19.2376V17.0225C19.2376 25.4973 19.0432 27.163 17.8958 28.5235C16.4258 30.2665 13.425 30.9281 11.1983 29.9998C9.86041 29.442 9.24319 28.8662 8.51774 27.4993C7.95924 26.4465 7.91953 25.8955 7.82137 17.8035L7.71733 9.22377H4.10853H0.5V17.8596ZM46.7522 15.7031C48.5091 16.2237 50.4175 18.2742 50.9976 20.2647C52.2723 24.6402 50.1203 29.1376 46.2522 30.1817C44.8346 30.5645 42.2664 30.3581 41.1265 29.7702C35.9462 27.0975 35.918 18.664 41.0809 16.0973C42.7424 15.2711 44.8097 15.1277 46.7522 15.7031Z" fill="#090909"/>
<path fill-rule="evenodd" clip-rule="evenodd" d="M91.8108 0.690641C89.9795 1.5062 88.8743 3.31031 88.8743 5.48412C88.8743 7.14454 89.4149 8.34654 90.6468 9.42577C94.1085 12.4581 99.4898 9.95199 99.4999 5.30248C99.503 3.96209 98.143 1.73695 96.8629 0.988627C95.5065 0.195666 93.2248 0.0611822 91.8108 0.690641Z" fill="#C847FD"/>
</svg>
