<svg width="50" height="33" viewBox="0 0 50 33" fill="none" xmlns="http://www.w3.org/2000/svg">
<path fill-rule="evenodd" clip-rule="evenodd" d="M12.9587 10.6633C12.6477 10.3792 10.8685 9.65555 10.3441 9.52187C8.79611 12.781 3.4776 12.2236 2.93824 8.16085C2.56028 5.31267 5.21816 3.01989 8.03077 3.86015C8.83983 4.10164 9.70951 4.71154 9.95046 5.24067L5.03312 7.09781L5.85163 9.39059L13.5367 6.62159C13.3626 3.58365 10.2666 0.798737 6.87013 0.793954C-0.807442 0.782814 -2.56808 11.7267 4.72485 14.1866C6.4969 14.7846 8.33428 14.5713 9.88548 13.8154C11.0213 13.262 12.5371 11.8783 12.9587 10.6633L12.9587 10.6633ZM39.1973 8.16045C38.589 2.82177 46.3547 2.0754 47.0248 7.11332C47.3374 9.46578 45.5973 11.3862 43.6122 11.6277C41.2831 11.9113 39.4284 10.1839 39.1973 8.16046V8.16045ZM42.4055 0.841307C38.8807 1.2495 35.8862 4.3483 36.3449 8.43656C36.7386 11.9519 39.8831 14.9298 43.902 14.4818C47.339 14.0987 50.3563 10.8809 49.8571 6.86708C49.4193 3.34933 46.3398 0.385391 42.4056 0.841307H42.4055ZM42.4028 22.0066C44.7107 21.5328 46.5874 23.2117 46.976 25.0788C47.4772 27.4882 45.7839 29.4356 43.8922 29.8279C38.9052 30.8639 37.0729 23.1011 42.4028 22.0066L42.4028 22.0066ZM36.3292 26.5146C36.6418 30.0976 39.7516 33.0655 43.7118 32.7481C47.2071 32.4684 50.2032 29.3107 49.8827 25.3728C49.5839 21.7071 46.4658 18.7252 42.4693 19.0753C38.9575 19.3832 35.9843 22.5608 36.3291 26.5146L36.3292 26.5146ZM8.72875 32.5615L8.75198 29.5029C7.37717 29.9007 6.85237 30.1983 5.35314 29.6119C2.30157 28.4187 1.99014 23.6987 5.34763 22.2601C7.70157 21.2516 9.87363 22.7494 10.5264 24.3874C11.1004 25.828 10.8224 30.3057 10.8405 32.2046L13.6716 32.2595C13.6984 30.2035 13.689 28.1319 13.676 26.0929C13.6618 23.9458 13.0689 22.8398 12.098 21.5444C10.426 19.3141 6.44015 18.1066 3.24288 20.1372C-2.73348 23.9326 0.235797 34.2559 8.72872 32.5619V32.5615L8.72875 32.5615ZM15.335 19.4461C15.139 20.9015 15.2327 27.3641 15.5469 28.6869C16.8071 33.991 24.7138 34.3371 26.2374 28.6682C26.5654 27.4468 26.5957 20.9226 26.4449 19.4489L23.4965 19.4521C22.9701 23.7182 24.8587 29.8184 20.9047 29.8474C19.9473 29.8546 19.1075 29.2661 18.7713 28.6714C17.8733 27.0816 18.5221 22.3301 18.278 19.4505L15.3351 19.4461L15.335 19.4461ZM26.4709 1.1608L23.4646 1.12539C23.4642 3.30519 23.463 5.47224 23.465 7.63931C23.4658 8.62279 23.4232 9.67111 22.9902 10.3729C22.0685 11.8664 19.8217 11.9368 18.8 10.3908C18.3138 9.65519 18.2969 8.63711 18.298 7.63891C18.3 6.22975 18.478 2.25648 18.2563 1.1421L15.3752 1.12539C15.111 1.92984 15.2961 9.27404 15.522 10.2591C16.8012 15.8321 24.7433 15.8894 26.2284 10.4067C26.7146 8.61163 26.4709 3.35054 26.4709 1.16079L26.4709 1.1608ZM35.3756 29.7237C34.4859 29.6628 33.5792 29.7356 32.9008 29.304C31.0693 28.1395 31.3618 24.6564 31.4603 22.3445L35.2406 22.317L35.2165 19.4506L31.4496 19.4187L31.4488 15.8353L28.4465 15.8703C28.4465 17.8397 28.3378 26.5732 28.5063 27.789C28.9516 30.9972 31.7047 33.1162 35.4185 32.616L35.3756 29.7237L35.3756 29.7237ZM28.4465 14.1871L31.4496 14.2129C31.4496 11.3986 30.8481 6.04197 32.5398 4.48323C33.5185 3.58092 34.1221 4.01099 35.4185 3.75916L35.4154 0.903027C32.1244 0.383044 29.7047 2.19682 28.8528 4.40925C28.1595 6.21109 28.4465 11.8434 28.4465 14.1871L28.4465 14.1871Z" fill="#434242"/>
</svg>
